<?xml version="1.0" standalone="no"?>
<!DOCTYPE svg PUBLIC "-//W3C//DTD SVG 1.1//EN" "http://www.w3.org/Graphics/SVG/1.1/DTD/svg11.dtd" >
<svg>
<metadata>
Created by FontForge 20090622 at Sun Oct 23 20:27:19 2016
 By deploy user
Copyright &#194;&#169; 1990, 1995, 2001, 2002 Adobe Systems Incorporated.  All Rights Reserved. &#194;&#169; 1981, 2001, 2002 Heidelberger Druckmaschinen AG. All rights reserved.
</metadata>
<defs>
<font id="SnellRoundhandLTStd-BlkScr" horiz-adv-x="537" >
  <font-face 
    font-family="Snell Roundhand LT Std Scr"
    font-weight="850"
    font-style="italic"
    font-stretch="normal"
    units-per-em="1000"
    panose-1="0 0 9 0 0 0 0 0 0 0"
    ascent="704"
    descent="-296"
    x-height="368"
    cap-height="722"
    bbox="-624 -324 1372 941"
    underline-thickness="50"
    underline-position="-50"
    slope="-28"
    unicode-range="U+0020-U+FB02"
  />
<missing-glyph horiz-adv-x="651" 
d="M151 0v700h500v-700h-500zM401 395l170 255h-340zM431 350l170 -255v510zM231 50h340l-170 255zM201 605v-510l170 255z" />
    <glyph glyph-name="fi" unicode="fi" horiz-adv-x="556" 
d="M34 336l8 16h83q183 344 423 344q62 0 99 -24t37 -75q0 -41 -34 -65t-76 -24q-31 0 -47 10q49 51 49 99q0 27 -12 45t-38 18q-100 0 -276 -328h148q94 0 159 8l-28.5 -44.5l-28.5 -44.5l-25.5 -41l-24.5 -40.5l-20.5 -36l-18.5 -34t-13 -28t-9 -25.5t-3 -19q0 -33 23 -33
q78 0 257 250l8 -3q-86 -121 -141 -177q-51 -51 -88.5 -73.5t-85.5 -22.5q-37 0 -59 23.5t-22 56.5q0 15 2.5 30.5t10 34l13.5 32.5t19.5 38l21.5 38.5t27 45.5l29 48l-159 1l-43 -84.5l-45 -90l-46.5 -88.5t-51.5 -88.5t-56 -80.5t-63 -75t-69.5 -61.5t-79.5 -50t-88 -30
t-100 -11.5q-85 0 -147.5 38t-62.5 107q0 73 53 105t129 32q28 0 58 -8v-8q-54 0 -87 -32.5t-33 -85.5q0 -55 29.5 -93.5t82.5 -38.5q51 0 101 32t89 81.5t82.5 121t76 136.5l74 144t72.5 129h-83z" />
    <glyph glyph-name="fl" unicode="fl" horiz-adv-x="556" 
d="M250 352h159l38.5 60.5t44 71.5l35 61.5t30 61t9.5 39.5q0 34 -40 34q-109 0 -276 -328zM42 352h83q184 344 411 344q61 0 100 -12l120 22q-38 -68 -139.5 -229.5t-169 -279t-67.5 -152.5q0 -31 20 -31q44 0 126.5 83.5t135.5 166.5l8 -4q-20 -30 -43.5 -62t-70.5 -86.5
t-100 -89t-100 -34.5q-39 0 -61.5 22t-22.5 58q0 73 127 268h-157l-43 -84.5l-45 -90l-46.5 -88.5t-51.5 -88.5t-56 -80.5t-63 -75t-69.5 -61.5t-79.5 -50t-88 -30t-100 -11.5q-85 0 -147.5 38t-62.5 107q0 73 53 105t129 32q35 0 58 -7v-9q-54 0 -87 -32.5t-33 -85.5
q0 -55 29.5 -93.5t82.5 -38.5q51 0 101 32t89 81.5t82.5 121t76 136.5l74 144t72.5 129h-83z" />
    <glyph glyph-name=".notdef" horiz-adv-x="651" 
d="M151 0v700h500v-700h-500zM401 395l170 255h-340zM431 350l170 -255v510zM231 50h340l-170 255zM201 605v-510l170 255z" />
    <glyph glyph-name=".null" horiz-adv-x="0" 
 />
    <glyph glyph-name="nonmarkingreturn" horiz-adv-x="333" 
 />
    <glyph glyph-name="space" unicode=" " horiz-adv-x="287" 
 />
    <glyph glyph-name="exclam" unicode="!" horiz-adv-x="407" 
d="M213 135l-7 5q45 78 118 311q20 62 41.5 86.5t52.5 24.5t50.5 -18.5t19.5 -48.5q0 -24 -12.5 -48t-25.5 -38t-47.5 -47t-52.5 -52q-86 -90 -137 -175zM164 128q29 0 49.5 -20.5t20.5 -49.5t-20.5 -49.5t-49.5 -20.5t-49.5 20.5t-20.5 49.5t20.5 49.5t49.5 20.5z" />
    <glyph glyph-name="quotedbl" unicode="&#x22;" horiz-adv-x="333" 
d="M218 641l-18 -204q-4 -31 -22 -31t-22 31l-18 204q-6 81 40 81t40 -81zM379 641l-18 -204q-4 -31 -22 -31t-22 31l-18 204q-6 81 40 81t40 -81z" />
    <glyph glyph-name="numbersign" unicode="#" horiz-adv-x="574" 
d="M58 159l14 52h90l48 117h-84l15 52h91l66 160h63l-66 -160h104l66 160h62l-66 -160h78l-15 -52h-85l-48 -117h79l-14 -52h-86l-66 -159h-62l66 159h-104l-66 -159h-63l66 159h-83zM377 328h-104l-48 -117h104z" />
    <glyph glyph-name="dollar" unicode="$" horiz-adv-x="574" 
d="M291 228l-121 -218q19 -10 42 -10q58 0 95 38.5t37 90.5q0 44 -53 99zM343 348l104 182q-15 6 -31 6q-44 0 -73 -35t-29 -80q0 -42 29 -73zM161 16l122 220q-26 26 -41 42.5t-28.5 45t-13.5 56.5q0 83 66 127.5t154 44.5q11 0 35 -4l39 72l11 -4l-38 -70
q127 -36 127 -115q0 -38 -27.5 -62.5t-69.5 -24.5q-25 0 -43 12q38 40 38 95t-36 74l-105 -186q7 -8 29 -31t31 -34t22.5 -31t19 -40t5.5 -43q0 -74 -74 -125t-177 -51q-24 0 -47 5l-31 -59l-11 4l30 58q-53 12 -94.5 49.5t-41.5 90.5q0 46 31 79t78 33q42 0 76 -32
q-77 -22 -77 -107q0 -24 11 -49.5t30 -39.5z" />
    <glyph glyph-name="percent" unicode="%" horiz-adv-x="907" 
d="M725 302q54 0 86.5 -29t32.5 -82q0 -81 -77.5 -142t-160.5 -61q-51 0 -86 28.5t-35 78.5q0 86 76 146.5t164 60.5zM768 250q0 40 -34 40q-42 0 -107.5 -93.5t-65.5 -160.5q0 -36 30 -36q38 0 81 48.5t69.5 107.5t26.5 94zM348 482q0 40 -33 40q-41 0 -107 -97.5
t-66 -158.5q0 -34 30 -34q38 0 81 48.5t69 107.5t26 94zM660 487l-456 -547l-7 5l371 497l-2 2q-37 -26 -80 -26q-39 0 -60 29h-2v-11q0 -90 -76.5 -153t-160.5 -63q-51 0 -86 28.5t-35 78.5q0 86 76 146.5t164 60.5q35 0 59.5 -10.5t37.5 -26t23.5 -31t26 -26t37.5 -10.5
q37 0 67 20.5t44.5 44.5t30.5 44.5t29 20.5q12 0 20 -7t8 -18q0 -5 -1.5 -9.5t-5.5 -10t-6 -9t-8 -10.5t-8 -9z" />
    <glyph glyph-name="ampersand" unicode="&#x26;" horiz-adv-x="704" 
d="M845 171l7 -4q-24 -73 -104.5 -128t-211.5 -55q-122 0 -202 55q-83 -55 -167 -55q-63 0 -107 37t-44 99q0 133 203 204q17 89 84 164.5t156 75.5q31 0 53 -19t22 -52q0 -21 -12.5 -40.5t-28.5 -32.5t-44.5 -27.5t-46 -21l-49 -17.5l-37.5 -13q0 -63 24.5 -123.5
t66.5 -104.5q21 24 50 61l48.5 60.5t44.5 47.5t52 36t56 12q37 0 58.5 -19t21.5 -52q0 -23 -16 -40.5t-40 -17.5q-52 0 -52 50q0 25 22 42q-10 7 -28 7q-12 0 -24 -4.5t-26 -15.5t-25.5 -21t-29.5 -31l-30 -35.5l-35 -43t-38 -45.5q88 -90 196 -90q86 0 148 45.5t85 111.5z
M124 160q0 -61 32.5 -98.5t94.5 -37.5q45 0 73 21q-110 86 -110 223q0 31 3 45q-93 -45 -93 -153zM438 489q0 55 -32 55q-30 0 -60 -55t-30 -120v-17q54 14 88 49t34 88z" />
    <glyph glyph-name="quotesingle" unicode="'" horiz-adv-x="222" 
d="M233 641l-18 -204q-4 -31 -22 -31t-22 31l-18 204q-6 81 40 81t40 -81z" />
    <glyph glyph-name="parenleft" unicode="(" horiz-adv-x="389" 
d="M89 -324h-9q-26 102 -26 207q0 158 49 293t138 237t198 177t245 132l4 -8q-164 -83 -305 -257.5t-218 -366.5t-77 -347q0 -11 0.5 -33.5t0.5 -33.5z" />
    <glyph glyph-name="parenright" unicode=")" horiz-adv-x="389" 
d="M295 722h9q26 -102 26 -207q0 -158 -49 -293t-138 -237t-198 -177t-245 -132l-4 8q164 83 305 257.5t218 366.5t77 347q0 11 -0.5 33.5t-0.5 33.5z" />
    <glyph glyph-name="asterisk" unicode="*" horiz-adv-x="333" 
d="M314 650v-50h2q0 1 6 14.5l8.5 19t9 18t11.5 19t12 14.5t15 11.5t16 3.5q36 0 36 -34q0 -17 -16 -30.5t-47 -28.5t-37 -19l2 -2q86 0 108 -6t22 -34q0 -15 -12 -23.5t-27 -8.5t-30.5 7.5t-38 24t-25.5 18.5l-2 -2q4 -9 17 -31.5t20.5 -41t7.5 -36.5q0 -12 -11 -21.5
t-23 -9.5q-26 0 -33 15t-7 43q0 16 5 78l-2 2q-3 -6 -15 -28.5t-21 -36.5t-24 -27t-30 -13q-14 0 -22.5 9.5t-8.5 23.5q0 16 20 32t52 32t35 18l-2 2q-46 -4 -73 -4q-64 0 -64 38q0 17 11 28t29 11q19 0 57.5 -24.5t43.5 -26.5l2 2q-16 21 -34.5 55t-18.5 52q0 13 11 23
t24 10q7 0 13.5 -1.5t10.5 -5.5t7 -8t5 -10.5t3 -11t1.5 -13t0.5 -12.5v-13v-11z" />
    <glyph glyph-name="plus" unicode="+" horiz-adv-x="600" 
d="M260 212v148h64v-148h148v-64h-148v-148h-64v148h-148v64h148z" />
    <glyph glyph-name="comma" unicode="," horiz-adv-x="287" 
d="M-96 -148v6q91 12 144 43.5t67 108.5q-19 -12 -40 -12q-24 0 -38 15.5t-14 39.5q0 33 21 56t53 23q41 0 61.5 -24t20.5 -66q0 -47 -27 -85t-69.5 -60t-88.5 -33.5t-90 -11.5z" />
    <glyph glyph-name="hyphen" unicode="-" horiz-adv-x="407" 
d="M83 221h274l-59 -82h-274z" />
    <glyph glyph-name="period" unicode="." horiz-adv-x="287" 
d="M99 142q31 0 53.5 -22t22.5 -54t-22.5 -54t-53.5 -22t-53.5 22t-22.5 54t22.5 54t53.5 22z" />
    <glyph glyph-name="slash" unicode="/" horiz-adv-x="278" 
d="M31 -16h-63l324 738h63z" />
    <glyph glyph-name="zero" unicode="0" horiz-adv-x="574" 
d="M446 370q0 138 -76 138q-63 0 -119 -68t-84.5 -150.5t-28.5 -143.5q0 -67 21.5 -102.5t60.5 -35.5q49 0 93 41t72 99.5t44.5 118.5t16.5 103zM576 368q0 -96 -63 -186t-153 -142t-172 -52q-180 0 -180 149q0 90 60 182t151.5 150.5t178.5 58.5q72 0 125 -40.5t53 -119.5z
" />
    <glyph glyph-name="one" unicode="1" horiz-adv-x="426" 
d="M37 328l-3 18q261 63 434 200l8 -6l-104 -170t-130.5 -217.5t-76.5 -146.5l-155 -10q44 68 126 208t123 203l-2 2q-107 -51 -220 -81z" />
    <glyph glyph-name="two" unicode="2" horiz-adv-x="574" 
d="M508 207l8 -5l-13.5 -27.5t-23 -44.5t-33.5 -47.5t-47 -47.5t-62 -33t-80 -14q-41 0 -119 32t-119 32q-17 0 -26 -10t-11.5 -22t-11.5 -22t-26 -10q-15 0 -15 14q0 13 22 29.5t119 76.5q41 25 99.5 53.5l96 47.5t75 45.5t55.5 62.5t18 84q0 52 -25.5 85.5t-71.5 33.5
q-52 0 -83.5 -30t-31.5 -72q0 -30 18.5 -51t45.5 -21q43 0 51 33h5q-2 -45 -34.5 -77t-78.5 -32q-39 0 -64 26.5t-25 67.5q0 72 61 124t159 52q99 0 154.5 -36t55.5 -102q0 -57 -33 -98.5t-88 -66.5t-112.5 -42.5t-122.5 -40t-101 -46.5v-2q40 8 66 8q34 0 102.5 -18
t97.5 -18q50 0 85 33t64 96z" />
    <glyph glyph-name="three" unicode="3" horiz-adv-x="574" 
d="M188 267l5 18h69q96 0 154.5 39.5t58.5 116.5q0 41 -23.5 68t-60.5 27t-58 -22.5t-21 -54.5q0 -63 51 -63q29 0 35 28h8q-1 -8 -5.5 -21t-15 -30.5t-32 -30t-50.5 -12.5q-33 0 -56 22.5t-23 55.5q0 58 56 101t141 43q86 0 130 -33t44 -82q0 -29 -11 -53t-34 -40
t-43.5 -26.5t-54.5 -18t-51.5 -11t-49.5 -7.5v-2h9q54 0 94 -29t40 -83q0 -50 -34 -87.5t-85 -56t-97 -27t-84 -8.5q-53 0 -100 11.5t-84.5 45.5t-37.5 86q0 46 31 78.5t77 32.5q74 0 109 -78l-8 -3q-16 21 -35 21q-27 0 -46.5 -24.5t-19.5 -57.5q0 -45 26 -72.5t76 -27.5
q75 0 125.5 48t50.5 127q0 49 -31 73.5t-79 24.5q-39 0 -60 -6z" />
    <glyph glyph-name="four" unicode="4" horiz-adv-x="574" 
d="M459 504l150 16q-120 -191 -192 -316h112l-11 -16h-110q-11 -20 -49 -82.5t-53 -99.5l-152 -12l56 88.5t65 105.5h-97q-91 0 -196 -14l444 442l112 8q-306 -241 -510 -424l256 4q100 163 175 300z" />
    <glyph glyph-name="five" unicode="5" horiz-adv-x="574" 
d="M607 535l5 -7q-7 -13 -19.5 -29t-36.5 -39t-60 -38t-77 -15q-65 0 -114 35l-122 -142l2 -2q71 32 140 32q73 0 118 -35t45 -95q0 -69 -47.5 -119t-112.5 -71.5t-135 -21.5q-53 0 -96.5 13t-73.5 46t-30 82q0 48 28 78.5t77 31.5q88 2 110 -87l-7 -4q-6 15 -14.5 21
t-25.5 6q-30 0 -48 -24.5t-18 -55.5q0 -48 28 -71.5t77 -23.5q70 0 111 62.5t41 129.5q0 114 -93 114q-39 0 -96 -34l-12 10l70 84.5l82 98.5t68 87l43 -29t39 -17.5t52 -8.5q69 0 102 38z" />
    <glyph glyph-name="six" unicode="6" horiz-adv-x="574" 
d="M330 382q-52 0 -94 -47t-61.5 -106t-19.5 -108q0 -58 24 -89.5t63 -31.5q41 0 73.5 31.5t50.5 77.5t27 90.5t9 78.5q0 42 -17 73t-55 31zM199 313l2 -2q27 42 76.5 74.5t110.5 32.5q66 0 100 -35.5t34 -95.5q0 -116 -101.5 -209.5t-214.5 -93.5q-171 0 -171 181
q0 87 51 182t133.5 172t198.5 127t234 50q178 0 178 -113q0 -51 -29.5 -79.5t-81.5 -28.5q19 57 19 89q0 52 -29.5 84t-82.5 32q-79 0 -172.5 -65.5t-161 -149t-93.5 -152.5z" />
    <glyph glyph-name="seven" unicode="7" horiz-adv-x="574" 
d="M188 -111l-184 -16l565 587l-2 2q-73 -58 -150 -58q-40 0 -111 26t-103 26q-23 0 -35 -9q-3 -7 -10.5 -27t-13 -32.5t-15.5 -24t-21 -11.5q-20 0 -20 17q0 12 13 28t33.5 35t26.5 25l15 95h13l-15 -84l2 -2q74 74 146 74q37 0 104.5 -27t93.5 -27q74 0 119 60l9 -6
q-338 -455 -411 -566q-40 -62 -49 -85z" />
    <glyph glyph-name="eight" unicode="8" horiz-adv-x="574" 
d="M450 313v6q88 32 88 152q0 51 -31 102t-78 51q-46 0 -66.5 -34t-20.5 -84q0 -27 9.5 -56.5t19 -47l28.5 -50.5q20 -34 28.5 -50.5t18.5 -46.5t10 -57q0 -99 -77 -156.5t-173 -57.5q-83 0 -135.5 45.5t-52.5 120.5q0 89 69 144.5t163 67.5q-22 49 -22 95q0 79 66 131
t148 52q84 0 137 -43t53 -124q0 -69 -55 -112.5t-127 -47.5zM120 182q0 -66 30.5 -124t85.5 -58q56 0 81 40.5t25 96.5q0 28 -9.5 59t-20.5 51.5t-30.5 53.5t-27.5 49q-65 -10 -99.5 -55t-34.5 -113z" />
    <glyph glyph-name="nine" unicode="9" horiz-adv-x="574" 
d="M430 397q0 51 -20.5 87t-63.5 36q-34 0 -62 -21t-45.5 -52t-29.5 -67.5t-17 -65.5t-5 -48q0 -126 72 -126q60 0 115.5 76t55.5 181zM386 202l-2 2q-32 -44 -82.5 -74t-111.5 -30q-49 0 -86 35t-37 105q0 113 102 206.5t223 93.5q44 0 76.5 -15.5t49.5 -41t24.5 -51
t7.5 -52.5q0 -106 -56.5 -217t-148 -198.5t-215.5 -143t-250 -55.5q-91 0 -143.5 34.5t-52.5 93.5q0 42 28 67t72 25q-8 -26 -8 -52q0 -63 41 -107.5t107 -44.5q71 0 142 38.5t130 102.5t106 134t84 145z" />
    <glyph glyph-name="colon" unicode=":" horiz-adv-x="287" 
d="M248 360q32 0 54 -22t22 -54t-22 -54t-54 -22t-54 22t-22 54t22 54t54 22zM118 136q32 0 54 -22t22 -54t-22 -54t-54 -22t-54 22t-22 54t22 54t54 22z" />
    <glyph glyph-name="semicolon" unicode=";" horiz-adv-x="287" 
d="M-75 -148v6q91 12 144 43.5t67 108.5q-19 -12 -40 -12q-24 0 -38 15.5t-14 39.5q0 33 21 56t53 23q41 0 61.5 -24t20.5 -66q0 -47 -27 -85t-69.5 -60t-88.5 -33.5t-90 -11.5zM250 360q32 0 54 -22t22 -54t-22 -54t-54 -22t-54 22t-22 54t22 54t54 22z" />
    <glyph glyph-name="less" unicode="&#x3c;" horiz-adv-x="600" 
d="M458 42v-68l-360 166v80l360 166v-68l-307 -138z" />
    <glyph glyph-name="equal" unicode="=" horiz-adv-x="600" 
d="M472 279v-64h-360v64h360zM472 145v-64h-360v64h360z" />
    <glyph glyph-name="greater" unicode="&#x3e;" horiz-adv-x="600" 
d="M148 -26v68l307 138l-307 138v68l360 -166v-80z" />
    <glyph glyph-name="question" unicode="?" horiz-adv-x="500" 
d="M222 134l-5 4q21 31 62 61t73.5 50t58 57.5t25.5 87.5q0 53 -33.5 90.5t-83.5 37.5q-38 0 -62.5 -27.5t-24.5 -68.5q0 -30 15.5 -53t39.5 -23q57 0 59 66h10q0 -53 -28.5 -97.5t-84.5 -44.5q-36 0 -59.5 27t-23.5 69q0 73 67 127.5t174 54.5q70 0 115.5 -41t45.5 -106
q0 -113 -183 -178q-4 -1 -21 -7t-22.5 -8.5t-21 -8.5t-22.5 -10l-19.5 -11t-20 -13.5t-16 -15.5t-14.5 -19zM162 128q29 0 49.5 -20.5t20.5 -49.5t-20.5 -49.5t-49.5 -20.5t-49.5 20.5t-20.5 49.5t20.5 49.5t49.5 20.5z" />
    <glyph glyph-name="at" unicode="@" horiz-adv-x="800" 
d="M534 423q0 69 -44 69q-48 0 -91.5 -67.5t-43.5 -134.5q0 -41 16.5 -62.5t42.5 -21.5q39 0 74.5 57t45.5 160zM553 491l11 38h74l-63 -260q-5 -20 -5 -29q0 -46 37 -46q52 0 88.5 69t36.5 143q0 99 -81 183.5t-210 84.5q-118 0 -201 -90.5t-83 -258.5q0 -116 85 -201.5
t209 -85.5q105 0 208 50l12 -41q-126 -63 -219 -63q-79 0 -146 23t-111.5 60t-76 84t-45.5 94t-14 92q0 169 111.5 277t270.5 108q146 0 245.5 -90t99.5 -225q0 -57 -22 -114.5t-68 -99t-105 -41.5q-45 0 -70 29t-24 48h-2q-12 -22 -46.5 -49.5t-74.5 -27.5q-48 0 -74.5 39
t-26.5 101q0 50 23 107t72.5 102t111.5 45q10 0 18.5 -1.5t15 -5.5t11 -6.5t9.5 -9.5l7 -10t6.5 -11.5z" />
    <glyph glyph-name="A" unicode="A" horiz-adv-x="944" 
d="M1105 728l11 -14q-156 -154 -278 -343.5t-122 -317.5q0 -25 10.5 -37t24.5 -12q32 0 70.5 23t84 71t71 78l69.5 86l7 -7q-86 -109 -140 -164q-48 -50 -97 -78.5t-111 -28.5q-54 0 -84.5 25.5t-30.5 76.5q0 37 13 81t24.5 70t35.5 73h-134l-41 -45t-46.5 -49.5l-45 -46
t-50.5 -47.5l-50 -40t-56 -38l-54.5 -26.5t-60.5 -20t-60 -5.5q-73 0 -115 33t-42 87q0 29 18.5 53.5t53.5 24.5q23 0 40.5 -14.5t17.5 -43.5q0 -23 -15 -36.5t-33 -13.5q2 -31 28.5 -47.5t67.5 -16.5q45 0 97 22t93 50t94 77t81 79l73 79l66.5 72t91 87.5t123.5 102
t138.5 81.5t161.5 60zM538 322h131q88 156 267 325l-2 2q-69 -32 -148 -94t-129 -111z" />
    <glyph glyph-name="B" unicode="B" horiz-adv-x="1000" 
d="M1029 732v-12q-93 5 -148 -37q115 -56 115 -158q0 -42 -23 -75t-60 -52t-74.5 -29.5t-74.5 -12.5v-2q90 -2 139 -38.5t49 -104.5q0 -95 -97 -161t-213 -66q-50 0 -89 24t-39 71q0 34 20.5 54.5t54.5 20.5q40 0 65 -29q-48 -44 -48 -84q0 -19 12.5 -30t33.5 -11
q61 0 112.5 72.5t51.5 151.5q0 70 -43.5 100t-102.5 19l4 9q94 15 148 67.5t54 133.5q0 59 -37 95q-53 -54 -103 -132t-83 -146t-79.5 -140t-95.5 -122.5t-128.5 -83t-181.5 -32.5q-73 0 -121.5 29t-48.5 90q0 30 19.5 52.5t51.5 22.5q29 0 47 -16t18 -44q0 -39 -41 -54
q7 -68 77 -68q55 0 102.5 29.5t84.5 79t71.5 110.5l72 128.5t77.5 129t96.5 115t120.5 83.5q-64 31 -167 31q-178 0 -305 -104t-127 -255q0 -53 26.5 -87t78.5 -34q46 0 80.5 35.5t49.5 82.5t15 95q0 58 -34 122l10 4l18.5 -40t11.5 -37.5t6 -53.5q0 -103 -59.5 -174.5
t-164.5 -71.5q-69 0 -111.5 46t-42.5 115q0 81 51.5 152t132.5 117.5t177.5 73t188.5 26.5q128 0 209 -23q46 18 85 24q46 9 105 9z" />
    <glyph glyph-name="C" unicode="C" horiz-adv-x="722" 
d="M595 623l8 -6q-31 -31 -31 -73q0 -36 23 -59.5t57 -23.5q61 0 103.5 59.5t42.5 121.5q0 68 -76 68q-105 0 -213.5 -81.5t-179.5 -210t-71 -254.5q0 -65 33.5 -112.5t84.5 -47.5q78 0 141.5 67t63.5 150q0 48 -19.5 80.5t-58.5 32.5q-37 0 -64.5 -26t-39.5 -63t-17.5 -66
t-5.5 -48h-12q0 90 48 164.5t138 74.5q54 0 90.5 -35t36.5 -88q0 -98 -101 -180.5t-226 -82.5q-232 0 -232 224q0 90 60.5 185t149 166t192.5 117t189 46q165 0 165 -115q0 -64 -58.5 -113t-137.5 -49q-51 0 -84.5 24.5t-33.5 73.5q0 45 35 80z" />
    <glyph glyph-name="D" unicode="D" horiz-adv-x="1000" 
d="M1052 734v-12q-130 -9 -202 -89q58 -47 95 -115.5t37 -150.5q0 -88 -34 -157t-88 -110.5t-129.5 -68.5t-151 -37t-160.5 -10q-72 0 -164 12q-86 -12 -132 -12q-94 0 -94 36q0 24 44 24q27 0 187 -32q71 12 127 77t124 194q43 82 63.5 117.5t58 92.5t75 93.5t83.5 64.5
q-85 59 -216 59q-87 0 -169.5 -47t-137 -132.5t-54.5 -185.5q0 -57 23.5 -93.5t77.5 -36.5q73 0 118 68.5t45 144.5q0 69 -26 134l10 4q28 -68 28 -132q0 -113 -65 -181t-166 -68q-72 0 -116.5 50.5t-44.5 122.5q0 106 76 192t184.5 129t220.5 43q140 0 231 -61
q100 60 242 73zM290 7v-2q48 -9 142 -9q86 0 159 30.5t122.5 79.5t85 111.5t51.5 126t16 123.5q0 97 -36 145q-35 -52 -72.5 -122t-62.5 -121.5t-64 -111t-81 -102.5t-108.5 -83t-151.5 -65z" />
    <glyph glyph-name="E" unicode="E" horiz-adv-x="704" 
d="M460 475l2 8q30 -10 63 -10q56 0 83.5 37.5t27.5 85.5q0 47 -22.5 80.5t-65.5 33.5q-57 0 -85 -55.5t-47 -178.5q-3 -23 -22 -42.5t-44.5 -33t-55 -33.5t-54 -41t-40.5 -57t-16 -82q0 -80 49.5 -128.5t120.5 -48.5q51 0 90.5 16t61.5 42.5t33 55.5t11 59q0 46 -24.5 79
t-69.5 33q-46 0 -83 -35t-62 -78l-10 4q33 59 93 104t124 45q69 0 104.5 -31.5t35.5 -84.5q0 -91 -118.5 -163t-257.5 -72q-39 0 -77.5 8.5t-75 26.5t-59 52t-22.5 78q0 46 25 82.5t53 54t71 39.5t56 30q17 11 32.5 103.5t37.5 128.5q43 67 116 101t139 34q64 0 109 -28
t45 -91q0 -47 -33.5 -80.5t-77 -47.5t-89.5 -14q-38 0 -72 14z" />
    <glyph glyph-name="F" unicode="F" horiz-adv-x="889" 
d="M551 335l-57 -2l6 12l58 2q58 114 152.5 174.5t235.5 96.5v2q-33 0 -126.5 3t-167.5 3q-104 0 -193 -9.5t-175 -32t-136 -68t-50 -110.5q0 -42 26 -69.5t58.5 -37t70.5 -9.5q50 0 105 18.5t98.5 59.5t43.5 94q0 43 -15 76l9 5q18 -36 18 -85q0 -95 -81 -158.5t-178 -63.5
q-65 0 -118 45t-53 119q0 76 51.5 136t127 93.5t172 55.5t174.5 29.5t147 7.5q107 0 223 -4t140 -4q28 0 54 -12.5t26 -37.5q0 -56 -118 -56q-15 0 -52.5 3t-47.5 3q-133 0 -278 -263q67 6 88 20q4 2 21 26.5t27 24.5h110q-140 -113 -228 -250l-9 -1q11 57 67 175
q-9 0 -38.5 -4t-42.5 -5q-83 -166 -199.5 -255.5t-288.5 -89.5q-72 0 -128 31t-56 97q0 30 21.5 53t51.5 23q26 0 44.5 -16t18.5 -42q0 -48 -44 -62q11 -72 99 -72q43 0 82.5 16.5t67 40t56.5 62t47 69.5l43 75.5t40 67.5z" />
    <glyph glyph-name="G" unicode="G" horiz-adv-x="722" 
d="M741 718q-107 0 -257 -126q62 -72 170 -72q64 0 118 32.5t54 92.5q0 73 -85 73zM518 807v-10q-32 -13 -55 -41t-23 -62t9 -51q178 87 310 87q24 0 49 -4.5t50.5 -14t41.5 -29.5t16 -48q0 -38 -23 -66t-59.5 -41.5t-72.5 -20t-72 -6.5q-134 0 -214 83q-123 -127 -123 -254
q0 -45 20.5 -78t62.5 -33q28 0 66 20.5t43 37.5q22 73 53 100.5t107 27.5q29 0 29 -10q0 -7 -15 -46.5t-53.5 -102t-92 -120t-142.5 -99.5t-193 -42q-77 0 -144 41t-67 113q0 42 21 73t62 31q26 0 45.5 -16.5t19.5 -41.5q0 -28 -17 -46t-45 -18q-9 -65 28.5 -94.5
t105.5 -29.5q164 0 290 256h-2q-33 -30 -86.5 -52t-96.5 -22q-67 0 -103 39.5t-36 107.5q0 95 65.5 176t160.5 136q-10 24 -10 56q0 39 27 71t63 43z" />
    <glyph glyph-name="H" unicode="H" horiz-adv-x="1000" 
d="M749 348h-134q-86 -175 -207 -265.5t-270 -90.5q-62 0 -112 29t-50 83q0 35 20 59.5t55 24.5q27 0 42.5 -18.5t15.5 -45.5q0 -33 -37 -48q0 -72 66 -72q63 0 114 34t89 89.5t75 123.5t81 139.5t96 134.5t131.5 112t177.5 67v2q-45 0 -90.5 -1.5t-115 -8.5t-129.5 -18
t-123.5 -32.5t-108.5 -49.5t-74 -71.5t-29 -96.5q0 -40 19.5 -65t61.5 -25q57 0 100 40.5t43 92.5q0 36 -15 64l9 3q18 -27 18 -68q0 -71 -63 -119.5t-145 -48.5q-57 0 -96 36.5t-40 89.5q-2 133 171 209.5t447 76.5q83 0 177 11t99 11q32 0 32 -19q0 -17 -33 -17
q-6 0 -28.5 3t-36.5 3q-40 0 -83.5 -26.5t-79.5 -65.5t-71 -88.5t-57 -88.5t-38 -73h134q58 109 145.5 189.5t172.5 116.5t159 36q131 0 131 -64q0 -22 -13.5 -36t-34.5 -14t-37.5 15.5t-25.5 33.5t-23.5 33.5t-33.5 15.5q-62 0 -133.5 -68t-126 -162.5t-91 -195
t-36.5 -164.5q0 -38 7.5 -59t30.5 -21q25 0 56.5 19.5t65 55.5t56.5 63t52.5 66.5t30.5 40.5l8 -4l-38.5 -51l-48.5 -63t-51.5 -57.5t-60.5 -55.5t-62 -34.5t-69 -15.5q-56 0 -81.5 37t-25.5 95q0 78 69 232z" />
    <glyph glyph-name="I" unicode="I" horiz-adv-x="722" 
d="M478 498l9 5q25 -35 25 -74q0 -72 -67.5 -117.5t-140.5 -45.5q-59 0 -98.5 39t-39.5 98q0 47 21 86.5t54.5 67.5t83.5 50.5t98.5 36.5t109 24.5t106.5 15.5t99 8t78.5 3.5t53.5 0.5q76 0 141 13t77 13q43 0 43 -25q0 -21 -46 -21q-23 0 -49.5 3t-31.5 3q-154 0 -330 -349
q-177 -349 -498 -349q-92 0 -154 40.5t-62 103.5q0 35 22 56.5t56 21.5q27 0 41.5 -19t14.5 -46q0 -38 -38 -51q4 -46 36 -70t84 -24q51 0 98.5 22t82 53t69 78.5t55 84l46.5 84.5q8 16 12 23q80 147 171 221t252 120l-1 2q-93 0 -180.5 -6.5t-182.5 -26t-164.5 -49.5
t-114.5 -81.5t-45 -118.5q0 -42 26 -71t67 -29q50 0 91.5 40.5t41.5 84.5q0 40 -22 71z" />
    <glyph glyph-name="J" unicode="J" horiz-adv-x="722" 
d="M480 499l8 7q26 -39 26 -79q0 -72 -63 -119.5t-138 -47.5q-59 0 -99 42t-40 101q0 46 22.5 84.5t58.5 66.5t89 50.5t107 37t120.5 25.5t120.5 16t116.5 8.5t98.5 4t76 0.5q11 0 51 9t50 9q34 0 34 -18q0 -24 -41 -24q-8 0 -75 8q-41 -6 -108.5 -53.5t-123.5 -140.5
l-247 -424q171 36 299 205l9 -4q-131 -175 -315 -215q-95 -159 -225 -253.5t-283 -94.5q-72 0 -125 32t-53 99q0 40 22.5 69t69.5 48.5t99 31t129 22.5q208 30 218 32q23 38 102.5 180t131.5 213q153 211 374 255v2q-30 0 -55.5 -0.5t-88 -3.5t-114.5 -11t-120 -20.5
t-120 -34t-98.5 -50t-72 -71t-25.5 -93.5q0 -46 27.5 -72t73.5 -26t82.5 38.5t36.5 89.5q0 30 -22 69zM-62 -187q0 -45 28 -73t74 -28q38 0 75 16t63 37.5t56.5 59t47 63.5l43.5 70.5l38 61.5q-24 -4 -91 -13t-113 -19t-91 -27q-55 -21 -92.5 -58.5t-37.5 -89.5z" />
    <glyph glyph-name="K" unicode="K" horiz-adv-x="1000" 
d="M467 539l9 4q26 -32 26 -75q0 -61 -58.5 -112.5t-146.5 -51.5q-59 0 -96 35t-37 94q0 49 26 89.5t73 68t103 49.5t126 34.5t130.5 21t128.5 12.5t108 5t80 1q19 0 63 10t56 10q30 0 30 -18q0 -16 -44 -16q-7 0 -28 1t-34 1h-1q-13 0 -35 -8t-52 -25t-66 -52t-67 -82
q-27 -40 -66.5 -111.5l-68.5 -123.5t-76.5 -113.5t-96 -101t-121.5 -66.5t-159 -27q-71 0 -116 32t-45 84q0 34 19 55.5t52 21.5q24 0 42.5 -14t18.5 -38q0 -45 -35 -53q0 -1 -0.5 -4t-0.5 -6q0 -31 20.5 -49t53.5 -17q29 1 55.5 10t48 22t45.5 39.5t41 48.5t42.5 63
t41.5 69l46 81l49 86q38 66 87.5 117.5t102 83t100 49.5t95.5 27v2q-146 -1 -262.5 -17.5t-191.5 -43t-124.5 -62.5t-70.5 -73.5t-21 -78.5q0 -39 24.5 -63t63.5 -24q54 0 95 41.5t41 88.5q0 38 -23 69zM1107 264l9 -7q-77 -108 -140 -170q-49 -48 -96 -71.5t-105 -23.5
q-47 0 -74 24t-27 70q0 40 44 123t44 110q0 53 -63 53q-15 0 -15 6t11 6q85 0 139 33t131 136q124 169 298 169q48 0 78.5 -20t30.5 -58q0 -42 -36 -65t-80 -23q28 58 28 99q0 55 -34 55q-24 0 -48 -27.5t-58 -81.5t-61 -86q-63 -73 -135 -101t-208 -40v-2q56 -28 87 -61
t31 -85q0 -30 -24 -89.5t-24 -78.5q0 -36 33 -36q56 0 141 90q47 49 123 152z" />
    <glyph glyph-name="L" unicode="L" horiz-adv-x="648" 
d="M754 262l10 -3l-358 -346q-5 -51 -43 -82.5t-84 -31.5q-15 0 -15 12q0 6 11 18t11 37q0 77 -47 112.5t-126 35.5q-20 0 -99 -11q-68 -11 -112 -11q-51 0 -51 25q0 27 44 27q35 0 112 -7t96 -7q112 0 296 388q5 12 7 16q-59 10 -102.5 49t-43.5 95q0 55 32.5 86.5
t79.5 31.5q32 0 58 -12l-3 -10q-30 10 -55 10q-45 0 -72.5 -30.5t-27.5 -75.5q0 -51 42 -88t96 -46q55 117 173 197.5t244 80.5q64 0 108.5 -27.5t44.5 -84.5q0 -50 -40 -90t-101.5 -62.5t-125 -34t-118.5 -11.5q-32 0 -59 4q-40 -78 -77 -134.5t-66.5 -90.5t-70.5 -63
t-69.5 -43.5t-82.5 -39.5l-37 -17v-2h34.5t36 -1t39 -2.5t35.5 -4.5t36 -8t30.5 -12.5t27.5 -17.5t19 -23.5t13 -30.5q50 53 350 336zM872 643q0 30 -16 48.5t-44 18.5q-39 0 -82.5 -31t-80 -78t-64 -91.5t-44.5 -83.5q15 -2 51 -2q64 0 115.5 17t81.5 42.5t49.5 57
t26.5 56.5t7 46z" />
    <glyph glyph-name="M" unicode="M" horiz-adv-x="1000" 
d="M392 -6l-12 3q29 51 59 133l56.5 154t66.5 149t107.5 145t161.5 116l-2 2q-32 -12 -63.5 -29t-57.5 -33t-55 -41l-47.5 -41.5t-45 -46.5l-39 -43.5t-36.5 -46l-30 -40.5l-28 -39l-22 -32l-64 -89t-57 -73.5t-60 -64.5t-59 -44t-69.5 -32t-75.5 -9q-59 0 -99.5 32.5
t-40.5 89.5q0 31 19.5 53.5t49.5 22.5q27 0 44 -16.5t17 -43.5q0 -21 -12 -36.5t-33 -17.5q7 -64 73 -64q42 0 83.5 18.5t77.5 48.5t76.5 77.5t77 96l82.5 113.5q7 11 11 16q97 135 202.5 221.5t246.5 128.5l8 -12q-64 -33 -109 -89t-73.5 -123.5t-54.5 -138t-69 -151
t-101 -142.5l2 -2q78 70 144.5 146.5t181.5 230.5q202 271 445 271q36 0 50.5 -5t14.5 -17q0 -6 -9 -11t-22 -5q-22 0 -50 6q-27 6 -43 6q-36 0 -85.5 -64.5t-89.5 -169.5q-30 -79 -52 -129t-53.5 -104.5t-65.5 -90.5t-81.5 -69t-108.5 -57v-2h2q130 0 222 42
q112 51 209 214l9 -3q-85 -146 -180 -203q-98 -60 -274 -60q-10 0 -35.5 -4t-51.5 -4q-31 0 -31 16q0 18 26 18q12 0 42 -7t38 -7q32 0 65 56t70.5 142.5t84.5 179t125 179.5t173 129l-2 2q-99 -25 -184 -97.5t-169 -186.5l-90 -118.5t-99 -117t-118.5 -115t-113.5 -71.5z
" />
    <glyph glyph-name="N" unicode="N" horiz-adv-x="907" 
d="M666 -26h-16q2 29 2 80q0 86 -48.5 236.5t-58.5 212.5l-2 3l-36.5 -71.5l-42 -83t-46.5 -84t-54.5 -84.5t-61 -73.5t-71 -62.5t-79.5 -39.5t-91 -15.5q-62 0 -98.5 32.5t-36.5 79.5q0 35 18 58.5t52 23.5q25 0 41.5 -16t16.5 -41q0 -55 -52 -59q2 -27 25 -42.5t61 -15.5
q40 0 80 16t72 40t66.5 64t58 74.5t53.5 86.5t46.5 84.5l42 84.5t35.5 71q-2 18 -2 26q0 171 157 171q-41 -60 -41 -113q0 -60 43.5 -200.5t42.5 -220.5h2q20 47 47.5 102t74 132.5t93.5 137.5t106 103t111 43q44 0 72 -21.5t28 -69.5q0 -52 -43 -91t-98 -47l-5 7
q30 8 49 28.5t19 48.5q0 37 -21 56t-58 19q-54 0 -116 -58t-112.5 -138.5t-100 -181t-78 -170t-46.5 -122.5z" />
    <glyph glyph-name="O" unicode="O" horiz-adv-x="778" 
d="M885 263l3 -9q-78 -65 -184 -65q-28 0 -50 7q-77 -92 -174 -152t-204 -60q-89 0 -137.5 57t-48.5 147q0 109 70 219t177 183t214 84q56 48 118 48q55 0 90 -47.5t35 -125.5q0 -85 -37 -178t-95 -163q28 -7 46 -7q17 0 33 2l27.5 3.5t25 7t20.5 8t20.5 10l17 9.5
t17.5 11.5t16 10.5zM230 168q0 -62 31 -108t90 -46q72 0 137 61t113 144q-143 78 -143 223q0 127 82 216l-2 2q-113 -24 -210.5 -176.5t-97.5 -315.5zM508 468q0 -83 26 -146.5t72 -90.5q80 181 80 338q0 57 -18 92t-48 35q-26 0 -52 -22q38 -2 60.5 -25.5t22.5 -60.5
q0 -32 -26 -88l-11 4q25 55 25 81q0 34 -21.5 55.5t-57.5 21.5q-52 -66 -52 -194z" />
    <glyph glyph-name="P" unicode="P" horiz-adv-x="944" 
d="M1076 746l3 -6q-71 -17 -98 -34q59 -23 96.5 -69t37.5 -106q0 -95 -70.5 -148t-162.5 -53q-42 0 -75 19t-33 53q0 21 15.5 34.5t38.5 13.5q25 0 41 -16q-29 -21 -29 -57q0 -14 8 -22.5t21 -8.5q34 0 65.5 41.5t48 93t16.5 90.5q0 71 -54 110q-58 -48 -106 -113.5
t-77.5 -125.5t-69.5 -126.5t-81 -120t-112 -101t-163 -74.5v-2q98 -14 195 -14q162 0 291.5 58.5t229.5 204.5l9 -5q-102 -146 -208.5 -212t-260.5 -66q-127 0 -278 26q-83 -18 -165 -18q-52 0 -83.5 11.5t-31.5 29.5q0 25 35 25q29 0 72 -6t96.5 -16t68.5 -12
q30 10 57 29.5t45 36.5t46.5 59t40.5 62.5l47 80.5q9 16 14 24q41 71 72.5 119t77 106t97 99t108.5 63q-53 25 -139 25q-116 0 -226 -47t-183 -136t-73 -196q0 -46 21.5 -78.5t64.5 -32.5q48 0 83.5 36t50 80t14.5 84q0 42 -12 86l11 1q13 -55 13 -87q0 -41 -13 -83.5
t-38 -80.5t-68 -62t-95 -24q-66 0 -107 39.5t-41 105.5q0 75 42 142.5t108.5 114.5t147.5 82t160 51.5t145 16.5q94 0 170 -24q78 30 129 30z" />
    <glyph glyph-name="Q" unicode="Q" horiz-adv-x="778" 
d="M649 472l11 -4q-57 -168 -233 -168q-67 0 -104 43.5t-37 104.5q0 73 53.5 137.5t134.5 100.5t164 36q92 0 155 -52.5t63 -130.5q0 -251 -503 -457v-2q108 -22 192 -22q53 0 97.5 11t74.5 27t62 45t51 52.5l49 62.5l9 12l10 -3q-2 -3 -24 -33t-40 -51l-50.5 -56.5
t-67.5 -60.5t-78 -50.5t-94.5 -38.5t-105.5 -13q-85 0 -199 69q-99 -39 -209 -39q-80 0 -80 49q0 34 57 51.5t109 17.5q56 0 214 -26q69 27 136 68.5t125 95t93.5 120t35.5 132.5q0 101 -36 148.5t-112 47.5q-74 0 -132 -61.5t-58 -142.5q0 -58 32.5 -103t88.5 -45
q97 0 146 128zM26 50q0 -16 14 -29t44 -13q69 0 144 31l-45.5 28t-42.5 19.5t-52 11.5q-28 0 -45 -13.5t-17 -34.5z" />
    <glyph glyph-name="R" unicode="R" horiz-adv-x="1000" 
d="M486 572l11 1q7 -58 7 -84q0 -114 -73 -184.5t-167 -70.5q-70 0 -114 41.5t-44 101.5q0 71 41.5 132t106 101t142.5 68.5t149.5 41t129.5 12.5q99 0 193 -20q69 22 172 24l2 -12q-85 0 -128 -25q60 -25 92 -62t32 -95q0 -50 -27 -87t-72.5 -55.5t-91 -27.5t-96.5 -10v-2
q107 -44 107 -137q0 -32 -23 -92.5t-23 -79.5q0 -15 8 -23t21 -8q49 0 136 89t130 155l8 -4q-39 -54 -72.5 -94t-79.5 -86t-93 -71t-90 -25q-50 0 -77 27t-27 75q0 42 40 116.5t40 102.5t-16 42.5t-42 14.5h-11l3 12q54 0 89 9.5t69 40.5q28 25 46 66t18 83q0 53 -46 91
q-40 -36 -79.5 -90t-64.5 -97l-73 -132q-13 -23 -19 -35q-174 -320 -452 -320q-78 0 -125 31t-47 90q0 32 19.5 54t51.5 22q30 0 46.5 -15.5t16.5 -43.5q0 -40 -36 -53q-2 -8 -2 -10q0 -31 21.5 -47t56.5 -16t68.5 14t63.5 42t54.5 55.5t51 71l42 70.5t38.5 71l30 57
q66 117 122 175t171 132q-59 30 -151 30q-57 0 -117.5 -13.5t-119 -41.5t-105 -66.5t-76 -93.5t-30.5 -117q-1 -47 21.5 -82.5t67.5 -35.5q58 0 101 36.5t61.5 85.5t18.5 98q0 38 -6 82z" />
    <glyph glyph-name="S" unicode="S" horiz-adv-x="704" 
d="M833 615q0 40 -19.5 65.5t-58.5 25.5q-70 0 -97.5 -96t-27.5 -265q0 -171 -93 -266t-264 -95q-99 0 -169 49t-70 134q0 43 21 78t62 35q28 0 46.5 -17.5t18.5 -44.5q0 -28 -15.5 -46.5t-42.5 -19.5q-4 -14 -4 -36q0 -45 40 -83t109 -37q50 1 89 17.5t63 47t40.5 64.5
t24.5 80t11 84t3 84q0 74 17 135.5t51 110t92 76t134 27.5q62 0 108.5 -28t46.5 -85q0 -99 -166 -99q50 44 50 105z" />
    <glyph glyph-name="T" unicode="T" horiz-adv-x="889" 
d="M584 533l11 3q15 -36 15 -76q0 -97 -78.5 -162.5t-177.5 -65.5q-68 0 -121 42.5t-53 117.5q0 96 89 171t250 117t367 42q67 0 189 -5t126 -5q52 -2 73 -12.5t21 -39.5q0 -56 -118 -56q-38 0 -108 8q-88 -24 -152 -89.5t-128 -192.5q-40 -80 -85 -140t-102.5 -108
t-130.5 -73t-159 -25q-82 0 -136 35t-54 97q0 30 21.5 53t51.5 23q26 0 44.5 -16t18.5 -42q0 -48 -44 -62q11 -76 99 -76q44 0 83 17.5t67.5 41.5t60 67.5t51 77l50.5 89t50 86.5q60 98 147.5 153t205.5 86v2l-66 4t-109 5t-133 1q-34 -1 -69 -2.5t-89 -8t-101 -16
t-97.5 -28t-86 -41.5t-58.5 -59t-23 -79q0 -55 49.5 -82.5t116.5 -27.5q85 0 160.5 55.5t75.5 124.5q0 37 -14 71z" />
    <glyph glyph-name="U" unicode="U" horiz-adv-x="944" 
d="M918 686l148 6l-62.5 -94l-98.5 -150.5l-97.5 -157t-82.5 -151t-31 -94.5q0 -43 36 -43q31 0 80 27t95 71q71 68 149 165l7 -7q-101 -121 -147 -165q-123 -117 -233 -117q-49 0 -76 27.5t-27 72.5q0 48 30 101l-2 2q-48 -55 -87.5 -91t-99.5 -66t-119 -30q-88 0 -88 91
q0 43 29 103t70.5 120l83 119.5t70.5 117.5t29 99q0 30 -18 47t-48 17q-86 0 -154 -75t-68 -159t64 -84q34 0 62 28t46 65l9 -2q-10 -22 -13 -27q-54 -90 -138 -90q-44 0 -67 27t-23 71q0 70 50.5 132t122.5 96t141 34q70 0 110 -29t40 -87q0 -40 -44 -120.5t-97 -156
t-97 -152t-44 -109.5q0 -46 37 -46q72 0 199 131q57 59 178 245t176 288z" />
    <glyph glyph-name="V" unicode="V" horiz-adv-x="722" 
d="M188 -30l-12 14q43 39 70.5 104.5t45.5 137t43.5 147.5t84 155t149.5 141l-2 2q-32 -12 -86 -28.5l-94 -28.5t-86.5 -31.5t-76.5 -41t-50 -54t-20 -72.5q0 -26 17 -45.5t44 -19.5q36 0 56.5 33t20.5 63q0 21 -8 51l10 4q10 -27 10 -52q0 -53 -33.5 -89t-96.5 -36
q-39 0 -66.5 27t-27.5 67q0 34 13.5 62t41 49.5t56.5 37.5t72 29.5t74.5 22.5t78 20t69.5 18q84 24 151 57l7 -6q-51 -34 -85 -92.5t-54.5 -127.5l-41 -140.5t-58.5 -151.5t-92 -142l2 -2q101 51 185 106.5t160.5 125.5t120 152.5t43.5 167.5q-22 16 -22 47q0 27 19.5 45
t46.5 18q39 0 57.5 -26.5t18.5 -66.5q0 -98 -103.5 -212.5t-261.5 -214.5q-126 -81 -250.5 -147.5t-139.5 -76.5z" />
    <glyph glyph-name="W" unicode="W" horiz-adv-x="1000" 
d="M616 722l8 -16q-48 -31 -83 -88t-58.5 -125.5l-47 -139.5t-62.5 -149t-90 -136l2 -2q140 82 233 185.5t193 280.5q48 84 117 133t98 49q21 0 21 -22t-50 -50t-55 -35q-19 -25 -42 -101t-44 -156.5t-61.5 -172t-90.5 -144.5l2 -2l93 52.5t95.5 61t95.5 72t84.5 81.5
t70.5 93t45.5 103.5t17.5 115.5q-24 18 -24 53q0 23 17.5 41t40.5 18q35 0 54.5 -27.5t19.5 -64.5q0 -61 -32.5 -126.5t-80 -120t-114.5 -111t-123.5 -96t-120.5 -78t-91 -53l-50 -26.5q-63 -32 -67 -35l-21 12q27 30 48.5 109t44.5 172.5t52 145.5l-2 2
q-48 -79 -100.5 -143.5t-99 -104.5t-80 -64.5t-65.5 -42t-33 -18.5q-2 -1 -22.5 -20.5t-41.5 -33.5t-37 -14q-17 0 -17 17q0 10 19.5 23.5t26.5 28.5q27 56 48.5 133l38.5 137t45.5 125.5t83 126t137.5 111.5l-2 2l-189 -58q-235 -72 -235 -191q0 -29 18 -51t48 -22
q36 0 55 25t19 56q0 27 -5 47h10q7 -24 7 -47q0 -54 -36.5 -85.5t-92.5 -31.5q-42 0 -69.5 30t-27.5 72q0 32 14.5 60t43.5 49.5t58.5 38t73.5 31.5t73.5 23.5t73.5 20l60 15.5q124 35 157 52z" />
    <glyph glyph-name="X" unicode="X" horiz-adv-x="926" 
d="M542 493h12q0 -91 -62.5 -160t-152.5 -69q-59 0 -95 43t-36 103q0 121 112.5 216.5t259.5 95.5q179 0 179 -203q88 87 178 141t193 54q105 0 105 -68q0 -27 -21 -44.5t-49 -17.5q-38 0 -66 28q16 21 16 39q0 19 -13.5 31t-36.5 12q-71 0 -170.5 -88.5t-175 -222.5
t-75.5 -246q0 -127 71 -127q45 0 96 30.5t98 81t74 83.5t52 68l7 -7l-26.5 -35.5l-34 -44.5t-38 -45t-45.5 -47.5t-50.5 -41.5t-59 -36t-64.5 -22.5t-72 -9.5q-67 0 -97.5 45t-30.5 113q0 8 5 43h-2q-181 -201 -370 -201q-66 0 -103.5 27.5t-37.5 78.5q0 32 19 53t51 21
q25 0 42.5 -15.5t17.5 -40.5q0 -17 -10 -31.5t-26 -19.5q2 -25 20 -41t51 -16q80 0 165 61.5t148 149.5t104 186.5t41 171.5q0 58 -28 95.5t-87 37.5q-96 0 -161 -77.5t-65 -175.5q0 -55 26 -96t78 -41q60 0 100 59t40 122z" />
    <glyph glyph-name="Y" unicode="Y" horiz-adv-x="852" 
d="M937 680l151 6q-73 -104 -233.5 -358.5l-243.5 -376.5q-88 -130 -209.5 -196t-237.5 -65q-103 1 -166.5 38t-63.5 109q0 59 49 94t109 35q47 0 108 -21l-2 -9q-30 10 -50 10q-39 0 -66.5 -35t-27.5 -83q0 -59 31 -92.5t79 -33.5q37 0 72 12t69.5 40.5t62 56.5t64.5 79
l61.5 87l68 102l69.5 105l-2 2q-39 -44 -65.5 -70t-68.5 -60t-87.5 -50t-94.5 -16q-44 0 -66.5 24t-22.5 63q0 49 45.5 130t100.5 153.5t100.5 151.5t45.5 126q0 29 -18.5 48.5t-55.5 19.5q-42 0 -92 -30t-88 -87.5t-38 -124.5q0 -78 56 -78q68 0 115 92l8 -3
q-19 -42 -57 -78.5t-90 -36.5q-90 0 -90 94q0 99 99.5 183.5t214.5 84.5q67 0 107.5 -28.5t40.5 -90.5q0 -22 -6.5 -45.5t-24 -56t-25.5 -45.5t-35.5 -53.5t-27.5 -41.5l-31 -45t-45 -67.5l-41 -67.5t-35.5 -70.5t-12.5 -52.5q0 -38 37 -38q61 0 158.5 88t179.5 221z" />
    <glyph glyph-name="Z" unicode="Z" horiz-adv-x="722" 
d="M148 102l2 -2q76 40 141 40q58 0 157 -32t142 -32q38 0 74 16.5t67.5 49t51.5 58.5t47 66l8 -5q-75 -117 -172 -197t-209 -80q-25 0 -52 8.5t-43 16.5t-47 25q-88 50 -145 50q-53 0 -97 -50q-5 -5 -15 -17.5t-14.5 -17.5t-12 -10t-14.5 -5q-18 0 -18 15q0 6 4 11t15 13
t24.5 16.5t38.5 26l50 36.5q18 13 124.5 105t251.5 206.5t286 208.5l-2 2q-111 -64 -209 -64q-65 0 -152 27t-117 27q-50 0 -84.5 -31.5t-34.5 -86.5q0 -39 27 -63.5t72 -24.5q77 0 122 63l8 -4q-25 -35 -61.5 -55t-69.5 -20q-54 0 -82 29.5t-28 73.5q0 83 71 147t157 64
q73 0 168 -37q93 -37 143 -37t85.5 14t49.5 31t27.5 31t25.5 14q17 0 17 -20q0 -9 -5 -14.5t-12.5 -9l-24 -11.5t-32.5 -18q-22 -14 -142 -115.5l-280.5 -229t-281.5 -202.5z" />
    <glyph glyph-name="bracketleft" unicode="[" horiz-adv-x="389" 
d="M125 -318h-286l596 1034h279l-15 -30h-183l-560 -974h185z" />
    <glyph glyph-name="backslash" unicode="\" horiz-adv-x="278" 
d="M228 -16h-63l-126 738h63z" />
    <glyph glyph-name="bracketright" unicode="]" horiz-adv-x="389" 
d="M277 716h286l-596 -1034h-279l15 30h183l560 974h-185z" />
    <glyph glyph-name="asciicircum" unicode="^" horiz-adv-x="600" 
d="M165 175h-72l183 365h72l183 -365h-72l-147 295z" />
    <glyph glyph-name="underscore" unicode="_" horiz-adv-x="500" 
d="M500 -125h-500v50h500v-50z" />
    <glyph glyph-name="grave" unicode="`" horiz-adv-x="278" 
d="M113 561q0 16 11 25.5t27 9.5t23.5 -11.5t10 -28t17.5 -39.5t42 -41q4 -3 9.5 -6t8.5 -5l7 -4.5t6 -4l4.5 -3.5t3.5 -3t2 -2.5t1.5 -3t0.5 -2.5q0 -12 -11 -12q-24 0 -93.5 47.5t-69.5 83.5z" />
    <glyph glyph-name="a" unicode="a" horiz-adv-x="556" 
d="M420 356l142 4q-7 -11 -44.5 -65l-63 -92.5t-49 -86.5t-23.5 -73q0 -29 23 -29q70 0 258 247l6 -4q-6 -7 -17 -22q-49 -64 -75.5 -95.5t-67 -73.5t-75.5 -60t-70 -18q-26 0 -44 8t-26.5 18t-13.5 27t-5.5 26.5t-0.5 25.5l-3 2q-90 -107 -172 -107q-97 0 -97 120
q0 44 22.5 90.5t61.5 85t97 63.5t123 25q72 0 86 -68h2zM165 32q28 0 74.5 44.5t84.5 113t38 124.5q0 21 -13 33.5t-31 12.5q-39 0 -83.5 -50t-73.5 -116t-29 -112q0 -50 33 -50z" />
    <glyph glyph-name="b" unicode="b" 
d="M338 696l146 10l-124 -202q-170 -276 -212 -353t-40 -114q3 -37 39 -37q68 0 132.5 88t86.5 178q-6 20 -6 35q0 28 18 49.5t48 21.5q29 0 46.5 -20.5t17.5 -57.5q0 -24 -7 -52q28 -30 70 -30q46 0 91 53l6 -8q-15 -17 -24.5 -26t-30.5 -20t-44 -11q-42 0 -70 30
q-31 -104 -127 -173t-204 -69q-64 0 -101 34.5t-37 94.5q0 12 2.5 23.5t9 29t14.5 34t24.5 45l32 54.5l43.5 71l53.5 86l67 108z" />
    <glyph glyph-name="c" unicode="c" horiz-adv-x="426" 
d="M536 266l8 -7l-54 -67.5t-52.5 -58.5t-66.5 -62q-102 -83 -220 -83q-60 0 -101.5 29.5t-41.5 86.5q0 74 51 137.5t123 97t141 33.5q49 0 78.5 -17t29.5 -49q0 -39 -32 -61t-79 -22h-8q3 21 3 58t-6.5 54t-24.5 17q-27 0 -61.5 -39t-59.5 -96t-25 -102q0 -44 22 -70.5
t64 -26.5q79 0 195 113q46 45 117 135z" />
    <glyph glyph-name="d" unicode="d" horiz-adv-x="556" 
d="M610 696l144 10l-320 -537.5t-55 -127.5q0 -27 27 -27q39 0 111 72q65 65 143 176l9 -5q-88 -125 -155 -190q-80 -79 -153 -79q-38 0 -61 23.5t-23 60.5q0 11 5 24l-2 2q-86 -110 -188 -110q-44 0 -68.5 30t-24.5 74q0 74 48 140t119.5 103t144.5 37q31 0 51.5 -18.5
t27.5 -48.5zM360 309q0 51 -40 51q-38 0 -84 -49.5t-76.5 -115t-30.5 -111.5q0 -52 35 -52q44 0 91.5 54t76 118.5t28.5 104.5z" />
    <glyph glyph-name="e" unicode="e" horiz-adv-x="426" 
d="M535 263l9 -6q-52 -73 -116 -135q-72 -69 -137 -101.5t-142 -32.5q-68 0 -104.5 32t-36.5 93q0 50 30 99t75.5 83.5t99.5 55.5t101 21q110 0 110 -66q0 -25 -21 -47.5t-47 -37t-69.5 -29t-67 -20.5l-60.5 -15q-12 -3 -17 -4q-4 -17 -4 -40q0 -41 19 -68t62 -27
q82 0 210 121q61 58 106 124zM324 332q0 28 -28 28q-41 0 -91.5 -72.5t-60.5 -123.5q81 18 130.5 67t49.5 101z" />
    <glyph glyph-name="f" unicode="f" horiz-adv-x="278" 
d="M42 352h83q183 344 423 344q62 0 99 -24t37 -75q0 -41 -34 -65t-76 -24q-31 0 -47 10q49 51 49 99q0 27 -12 45t-38 18q-100 0 -276 -328h240l-9 -16h-239l-42.5 -84.5l-45 -90t-47.5 -88t-53 -89t-57 -81t-65 -75t-72.5 -61t-83.5 -49.5t-93 -30t-106 -12
q-70 0 -128.5 39t-58.5 106q0 38 16.5 66t44.5 43t59 21.5t66 6.5q14 0 54 -8v-8q-54 0 -87 -32.5t-33 -85.5q0 -55 29.5 -93.5t82.5 -38.5q51 0 101 32t89 81.5t82.5 121t76 136.5l74 144t72.5 129h-83z" />
    <glyph glyph-name="g" unicode="g" 
d="M-14 93q0 103 95 191t203 88q71 0 98 -59l24 47l139 6l-206 -347q147 50 306 245l7 -7q-164 -205 -322 -252q-76 -152 -201.5 -240.5t-260.5 -88.5q-59 0 -107 13.5t-82 48t-34 84.5q0 55 45.5 89.5t138.5 34.5h64v-12h-22q-49 0 -77.5 -29t-28.5 -86q0 -56 32 -93.5
t85 -37.5q110 0 221 162l153 223l-2 2q-74 -87 -174 -87q-43 0 -68.5 29t-25.5 76zM116 78q0 -50 36 -50q40 0 88 51.5t79 118t31 111.5q0 24 -12.5 37.5t-32.5 13.5q-40 0 -85.5 -49t-74.5 -115.5t-29 -117.5z" />
    <glyph glyph-name="h" unicode="h" 
d="M60 6l-137 -6l406 696l143 10q-254 -425 -337 -549l2 -2q161 217 276 217q36 0 59 -19t23 -57q0 -41 -33 -92.5t-66 -96.5t-33 -69t22 -24q28 0 72 36.5t77 75.5l70.5 87.5t39.5 50.5l6 -5l-44 -58.5t-60 -75.5t-60.5 -63.5t-74 -55.5t-71.5 -18q-37 0 -58 26.5t-21 63.5
q0 43 30 89.5t60 84.5t30 61q0 25 -23 25q-50 0 -151 -118t-147 -214z" />
    <glyph glyph-name="i" unicode="i" horiz-adv-x="278" 
d="M132 356l143 4l-28.5 -44.5l-28.5 -44.5l-25.5 -41l-24.5 -40.5l-20.5 -36l-18.5 -34t-13 -28t-9 -25.5t-3 -19q0 -33 23 -33q78 0 257 250l8 -3q-86 -121 -141 -177q-50 -51 -88 -73.5t-84 -22.5q-40 0 -61.5 23.5t-21.5 65.5q0 11 3 24.5t7 25.5t13 30.5l15.5 31.5
t20.5 37.5l22.5 38.5l26.5 44.5zM224 516q0 29 20.5 49.5t49.5 20.5t49.5 -20.5t20.5 -49.5t-20.5 -49.5t-49.5 -20.5t-49.5 20.5t-20.5 49.5z" />
    <glyph glyph-name="j" unicode="j" horiz-adv-x="278" 
d="M133 356l139 4l-86 -145.5l-118 -195.5l2 -2q88 28 159.5 88.5t156.5 157.5l8 -5q-174 -211 -338 -259q-26 -48 -51.5 -86t-68.5 -85t-90 -78t-114.5 -52.5t-143.5 -21.5q-51 0 -96 12.5t-80.5 47t-35.5 86.5q0 61 56.5 95.5t120.5 34.5q47 0 72 -10v-8q-14 2 -27 2
q-46 0 -74 -31t-28 -77q0 -58 32 -97t88 -39q47 0 98.5 37t95 92t92.5 132.5t85.5 145l78.5 143t67 114.5zM294 586q29 0 49.5 -20.5t20.5 -49.5t-20.5 -49.5t-49.5 -20.5t-49.5 20.5t-20.5 49.5t20.5 49.5t49.5 20.5z" />
    <glyph glyph-name="k" unicode="k" 
d="M57 6l-138 -6l409 696l144 10q-211 -356 -337 -550l2 -2q83 102 117 135q87 83 164 83q38 0 63 -17t25 -52q0 -21 -10 -38t-31 -28.5t-38.5 -19t-46.5 -12.5t-40.5 -6.5l-34.5 -4.5v-2q3 -1 14.5 -5.5t15.5 -6.5l14 -7t13.5 -8l10.5 -9t9.5 -11.5t5 -13.5t2.5 -17
q0 -14 -11.5 -42.5t-11.5 -38.5q0 -19 17 -19q44 0 126.5 87t131.5 162l9 -4q-68 -100 -140 -172q-57 -57 -97.5 -77.5t-87.5 -21.5q-43 0 -69 18.5t-26 54.5q0 29 24 66t24 61q-37 -13 -55 -13q-17 0 -17 14q0 16 24 16q12 0 28 -2.5t21 -2.5q29 0 59.5 33.5t30.5 67.5
q0 12 -7.5 20.5t-19.5 8.5q-49 0 -147.5 -121t-138.5 -203z" />
    <glyph glyph-name="l" unicode="l" horiz-adv-x="278" 
d="M329 696l147 10l-139 -229l-110.5 -180.5l-68.5 -117t-46.5 -92t-11.5 -50.5q0 -23 21 -23q42 0 125.5 84.5t135.5 165.5l8 -4q-20 -30 -43.5 -62t-70.5 -86.5t-100 -89t-100 -34.5q-41 0 -62.5 20.5t-21.5 53.5q0 19 4 38.5t17.5 49.5t28 57.5t46 81.5l60 101.5
l81.5 136.5z" />
    <glyph glyph-name="m" unicode="m" horiz-adv-x="796" 
d="M332 6l-139 -6q1 1 52.5 83.5t88 147t36.5 82.5q0 25 -26 25q-43 0 -148.5 -125.5t-147.5 -206.5l-135 -6q32 60 105 180t103 176l144 4l-133 -195l2 -2q2 3 22 28l27.5 34.5t29 33.5t34 35l34.5 29t40 26.5t40.5 15.5t43.5 7q36 0 57.5 -19t21.5 -54q0 -34 -19 -70l2 -2
q3 4 18.5 21l22 24.5t22.5 23.5t26 24t26 19.5t29 17.5t29 10.5t31 4.5q36 0 59.5 -20t23.5 -56q0 -40 -33.5 -92t-67 -97t-33.5 -67q0 -26 26 -26q22 0 51.5 19t61 53t55.5 62.5t52.5 66.5t35.5 46l7 -6q-5 -6 -36 -47l-55 -70.5t-48 -55.5q-89 -94 -167 -94
q-42 0 -63.5 25.5t-21.5 59.5q0 41 32 91t64 90.5t32 57.5q0 12 -7.5 19t-17.5 7q-43 0 -145 -125t-144 -207z" />
    <glyph glyph-name="n" unicode="n" 
d="M59 6l-136 -6l207 354l142 6q-72 -100 -138 -204l2 -2q35 44 60 72.5t64 67t76.5 58.5t72.5 20q39 0 64 -20.5t25 -58.5q0 -37 -33 -87.5t-66 -96t-33 -70.5t23 -25q37 0 108 71q50 50 150 178l9 -5q-90 -119 -150 -181q-87 -89 -158 -89q-43 0 -66.5 26t-23.5 69
q0 33 19.5 68.5t43.5 61t43.5 52.5t19.5 45q0 28 -27 28q-48 0 -156 -128.5t-142 -203.5z" />
    <glyph glyph-name="o" unicode="o" 
d="M645 265l8 -8l-6 -7q-6 -6 -10 -9.5l-12 -10.5t-15.5 -11.5t-17 -9t-20.5 -7t-22 -2.5q-48 0 -84 46h-2q0 -104 -88.5 -181t-201.5 -77q-75 0 -123.5 32.5t-48.5 103.5q0 73 46 131.5t113 87.5t139 29q48 0 82 -16.5t52 -40t33 -47t35.5 -40t47.5 -16.5q50 0 95 53z
M316 360q-45 0 -95 -58t-80.5 -130.5t-30.5 -120.5q0 -23 10.5 -37t29.5 -14q45 0 95 58t80.5 130.5t30.5 120.5q0 23 -10.5 37t-29.5 14z" />
    <glyph glyph-name="p" unicode="p" 
d="M253 552l143 10l-250 -373l2 -2q1 1 17 22t19.5 25t19.5 23.5t22.5 25.5t22 22.5t25 22.5t25 17t28 15t28 8t30.5 4q43 0 71 -32t28 -76q0 -86 -70 -158v-2q133 38 230 162l8 -5q-46 -65 -111.5 -110t-139.5 -62q-49 -42 -114 -71.5t-109 -29.5q-60 0 -60 37q0 59 167 68
q1 2 9.5 15t11.5 18l11 19t11.5 22.5l9.5 23t9 26t5 26t2 28.5q0 53 -39 53q-18 0 -41.5 -17.5t-51 -52.5l-47 -62t-50 -73l-39.5 -59l-61.5 -95.5l-54 -90l-57 -100l-52.5 -92.5l-143 -6zM166 21q0 -21 18 -21q16 0 31 12t35.5 37.5t26.5 31.5q-47 -3 -79 -19t-32 -41z" />
    <glyph glyph-name="q" unicode="q" 
d="M406 352l146 8l-206 -337l2 -2q72 29 155.5 98t140.5 142l9 -6q-62 -82 -148.5 -151t-170.5 -105q-93 -144 -186 -317l-144 -6l66.5 108l104.5 165.5t97 136.5l-2 2q-96 -100 -181 -100q-47 0 -73 26.5t-26 78.5q0 109 94.5 194t213.5 85q71 0 88 -64h2zM356 307
q0 25 -13.5 39t-33.5 14q-42 0 -88 -52t-73.5 -116t-27.5 -105q0 -61 38 -61q31 0 78.5 47.5t83.5 115.5t36 118z" />
    <glyph glyph-name="r" unicode="r" horiz-adv-x="463" 
d="M59 6l-134 -6l202 356l144 4l-153 -226l2 -2q110 158 186 190q22 26 35.5 34.5t44 13.5t101.5 8q-69 -71 -69 -129q0 -23 11 -40t33 -17q49 0 108 72l7 -6q-35 -43 -65 -61q-51 -31 -118 -31q-47 0 -76.5 26t-29.5 63q0 30 8 47v2q-55 -29 -129 -127t-108 -171z" />
    <glyph glyph-name="s" unicode="s" horiz-adv-x="407" 
d="M516 266l7 -8q-42 -62 -80 -105t-90 -83.5t-116.5 -61t-142.5 -20.5q-64 0 -103.5 26.5t-39.5 80.5q0 36 23 58t55 22q22 0 36.5 -12.5t14.5 -35.5q0 -21 -12.5 -32.5t-29.5 -11.5q-12 0 -20 3q-5 -8 -5 -19q0 -67 67 -67q41 0 63 24t22 61q0 27 -41.5 81t-41.5 83
q0 51 45.5 87t121.5 36q59 0 95 -20t36 -56q0 -27 -18.5 -45t-45.5 -18q-24 0 -43 12q15 23 15 50t-12.5 46t-36.5 19q-23 0 -36 -15.5t-13 -42.5q0 -22 15 -46.5t32.5 -42.5t32.5 -44t15 -52q0 -63 -63 -99l2 -2q81 23 159 93t133 157z" />
    <glyph glyph-name="t" unicode="t" horiz-adv-x="333" 
d="M123 336h-81l7 16h83l85 145l139 5l-90 -150h137l-8 -16h-138q-2 -4 -49.5 -80t-72.5 -127.5t-25 -81.5q0 -33 36 -33q25 0 56 15.5t56.5 35.5t58.5 54t51 54.5l46 54.5t31 38l8 -4l-46 -56.5t-53 -64t-54 -55.5t-63.5 -52.5t-66 -31.5t-77.5 -14q-44 0 -67.5 24
t-23.5 64q0 34 19.5 76t84.5 155z" />
    <glyph glyph-name="u" unicode="u" 
d="M121 364l144 4l-35 -54q-97 -149 -122.5 -194t-25.5 -69q0 -13 7.5 -21t19.5 -8q43 0 124 92.5t159 241.5l145 4q-9 -15 -59.5 -88.5t-87 -137.5t-36.5 -95q0 -25 22 -25q23 0 61.5 29t79 73.5t70.5 80.5t54 68l9 -8l-38 -47l-49 -59.5t-53 -57t-59.5 -54t-59 -36
t-61.5 -15.5q-41 0 -62.5 25t-21.5 60q0 21 9 44l-2 2q-113 -131 -197 -131q-40 0 -61 24t-21 63q0 35 28 92t72.5 125.5z" />
    <glyph glyph-name="v" unicode="v" 
d="M130 356l142 4q-11 -20 -58 -90t-78.5 -129t-31.5 -95q0 -46 41 -46q60 0 122 80t92 182q-7 17 -7 42q0 27 16.5 47.5t42.5 20.5q71 0 71 -82q0 -26 -6 -48q30 -30 72 -30q56 0 98 56l9 -6q-48 -62 -107 -62q-41 0 -75 28q-27 -102 -127 -171t-208 -69q-60 0 -93 33
t-33 89q0 11 1.5 22t6 24l8 23t12 26.5l13.5 26t17 29.5t18 29l21 32.5z" />
    <glyph glyph-name="w" unicode="w" horiz-adv-x="778" 
d="M390 355l143 5l-42 -61.5l-65 -97.5t-50.5 -89.5t-25.5 -74.5q0 -37 38 -37q39 0 79.5 34t68.5 79.5t46.5 86.5t21.5 62q0 4 -4 19t-4 25q0 26 16.5 46t42.5 20q37 0 56 -21.5t19 -58.5q0 -27 -8 -56q36 -28 70 -28q21 0 40 9.5t27.5 17.5t22.5 24l6 -9q-41 -54 -95 -54
q-38 0 -74 27q-31 -94 -132 -164.5t-199 -70.5q-130 0 -130 96q0 14 7 40l-2 1q-27 -38 -49.5 -63t-61.5 -49.5t-78 -24.5q-41 0 -65.5 27.5t-24.5 69.5q0 37 24.5 84.5t86.5 144.5l26 40l141 6q-8 -14 -58.5 -88.5t-84 -135.5t-33.5 -92q0 -30 27 -30q51 0 129 103
q29 38 59.5 87t57 96t31.5 55z" />
    <glyph glyph-name="x" unicode="x" horiz-adv-x="556" 
d="M662 263l8 -4l-51 -69t-58.5 -69t-71.5 -68.5t-76.5 -44.5t-86.5 -20q-56 0 -81 24t-27 73l-2 2q-29 -42 -86 -70.5t-113 -28.5q-43 0 -73 24t-30 69q0 31 19.5 55t50.5 24q21 0 36.5 -14t15.5 -35q0 -19 -12.5 -32t-29.5 -13q-12 0 -20 2q-4 -14 -4 -24q0 -20 13 -32
t35 -12q57 0 110.5 49t83.5 116.5t30 124.5q0 18 -10 29t-26 11q-13 0 -28.5 -10.5t-26.5 -22t-27.5 -31l-21.5 -25.5l-8 7q29 36 49 57.5t52.5 44t60.5 22.5q39 0 61 -29t27 -70q47 42 87.5 64.5t86.5 22.5q37 0 57.5 -16t20.5 -42q0 -32 -20.5 -52.5t-54.5 -20.5
q-24 0 -34 8q21 30 21 78q0 33 -21 33q-27 0 -67 -41t-70 -102t-30 -110q0 -35 16.5 -54t44.5 -19q34 0 76.5 26.5t82 67t70 77.5t52.5 70z" />
    <glyph glyph-name="y" unicode="y" 
d="M134 360l142 8q-10 -21 -56.5 -93.5t-84 -137.5t-37.5 -88q0 -31 23 -31q37 0 99 63t103 136l79 139l141 4l-207 -341l2 -2q64 23 158 98.5t155 158.5l8 -6q-47 -67 -139.5 -148.5t-191.5 -118.5q-176 -325 -485 -325q-47 0 -90.5 13.5t-76.5 47.5t-33 82q0 58 49.5 92.5
t109.5 34.5q42 0 86 -9v-9q-8 2 -33 2q-48 0 -70 -32t-22 -83q0 -59 27 -93t74 -34q53 0 104.5 31t97.5 87.5t80.5 108t76 120.5t61.5 97l-2 2q-25 -31 -43 -50.5t-47 -44.5t-62 -38t-68 -13t-53.5 25t-18.5 60q0 44 26.5 96t66 109t51.5 82z" />
    <glyph glyph-name="z" unicode="z" horiz-adv-x="463" 
d="M138 110l1 -2q3 0 11 2t13 2q29 0 86.5 -21t78.5 -21q17 0 33.5 3.5t32.5 12.5l28.5 16t29 23t26 24.5t25.5 29l22.5 28.5t23 30t20.5 27l8 -4q-28 -42 -62 -83t-80.5 -86.5t-98.5 -74t-99 -28.5q-44 0 -96.5 30t-79.5 30q-18 0 -43 -30t-40 -30q-12 0 -12 13q0 8 9.5 17
t22 16l34.5 18.5t36 20.5q16 10 66 52.5t106 81t108 55.5l-2 2q-36 -8 -83 -8q-35 0 -71 10t-46 10q-12 0 -19.5 -5t-14 -14t-9.5 -12l-7 5q81 122 144 122q28 0 92 -22t81 -22t27.5 9t13.5 20t9 20t16 9q17 0 17 -18q0 -9 -7 -16t-26.5 -20l-28.5 -19l-57 -43l-62 -46
l-52 -37t-63.5 -42t-61.5 -35z" />
    <glyph glyph-name="braceleft" unicode="{" horiz-adv-x="389" 
d="M18 -302l-8 -16q-60 0 -92 12t-33 44q-2 38 38 107l123 217q38 66 38 93q0 30 -34 45q54 17 87 47t68 90l124 215q30 52 65 86.5t73 50.5t71.5 21.5t75.5 5.5l-9 -16q-55 -11 -93 -44t-76 -99l-117 -203q-39 -68 -76 -102.5t-95 -50.5l-1 -3q19 -6 28 -17t10 -31
q0 -31 -46 -108l-118 -202q-41 -72 -40 -105q1 -28 37 -37z" />
    <glyph glyph-name="bar" unicode="|" horiz-adv-x="222" 
d="M89 750h64v-1000h-64v1000z" />
    <glyph glyph-name="braceright" unicode="}" horiz-adv-x="389" 
d="M327 700l8 16q60 0 92 -12t33 -44q2 -38 -38 -107l-123 -217q-38 -66 -38 -93q0 -30 34 -45q-54 -17 -87 -47t-68 -90l-124 -215q-30 -52 -65 -86.5t-73 -50.5t-71.5 -21.5t-75.5 -5.5l9 16q55 11 93 44t76 99l117 203q39 68 76 102.5t95 50.5l1 3q-19 6 -28 17t-10 31
q0 31 46 108l118 202q41 72 40 105q-1 28 -37 37z" />
    <glyph glyph-name="asciitilde" unicode="~" horiz-adv-x="600" 
d="M467 254l36 -58q-45 -86 -125 -86q-39 0 -111 32l-21.5 9.5t-23 10l-20 8t-20.5 6.5t-17 2q-19 0 -36.5 -12t-27 -24.5t-24.5 -35.5l-36 58q45 86 125 86q39 0 111 -32l21.5 -9.5t23 -10l20 -8t20.5 -6.5t17 -2q19 0 36.5 12t27 24.5t24.5 35.5z" />
    <glyph glyph-name="uni00A0" unicode="&#xa0;" horiz-adv-x="287" 
 />
    <glyph glyph-name="exclamdown" unicode="&#xa1;" horiz-adv-x="407" 
d="M259 213l7 -5q-45 -78 -118 -311q-20 -62 -41.5 -86.5t-52.5 -24.5t-50.5 18.5t-19.5 48.5q0 24 12.5 48t25.5 38t47.5 47t52.5 52q86 90 137 175zM308 220q-29 0 -49.5 20.5t-20.5 49.5t20.5 49.5t49.5 20.5t49.5 -20.5t20.5 -49.5t-20.5 -49.5t-49.5 -20.5z" />
    <glyph glyph-name="cent" unicode="&#xa2;" horiz-adv-x="574" 
d="M183 71l151 277q-5 4 -13 4q-42 0 -94.5 -82t-52.5 -153q0 -23 9 -46zM347 372l53 95h25l-51 -95q98 -6 98 -75q0 -40 -37 -56.5t-86 -16.5q0 1 1.5 22t1.5 31q0 30 -5 50l-150 -278q27 -31 69 -31q41 0 92 32t78 63l7 -7q-105 -118 -282 -118l-67 -130h-26l69 134
q-46 9 -69.5 40.5t-23.5 76.5q0 69 49 129t117.5 93.5t136.5 40.5z" />
    <glyph glyph-name="sterling" unicode="&#xa3;" horiz-adv-x="1000" 
d="M20 85q-21 0 -37 -8.5t-16 -25.5q0 -23 33.5 -39t86.5 -16q104 0 167 32l-54 18t-64 20.5t-53.5 12t-62.5 6.5zM601 294h256l-7 -16h-256q-101 -167 -240 -213v-2q105 -23 198 -23q136 0 219.5 44t131.5 146l7 -3q-9 -26 -27.5 -57t-53 -68.5t-77 -67t-104.5 -50
t-130 -20.5q-82 0 -244 57q-95 -37 -188 -37q-56 0 -93.5 17.5t-37.5 47.5q0 56 114 56q26 0 52 -2t56 -7l47.5 -8t53 -10.5t46.5 -9.5q26 17 46.5 40t40 57.5t28 52t27.5 60.5h-292l8 16h292l38 84t43 82.5t51 80.5t59.5 69.5t70.5 57.5t82 36t96 14q69 0 112 -39.5
t43 -107.5q0 -85 -54.5 -142t-139.5 -57q-41 0 -70 23t-29 62q0 52 43.5 93t102.5 67l2 -7q-26 -11 -54 -29t-55 -51.5t-27 -67.5q0 -64 55 -64q42 0 82 42.5t62 95.5t22 92q0 34 -16.5 56t-49.5 22q-29 0 -59 -13.5t-54.5 -33.5t-51 -53t-45 -61t-41.5 -69.5t-35.5 -67
l-31 -64z" />
    <glyph glyph-name="currency" unicode="&#xa4;" horiz-adv-x="574" 
d="M465 474l30 -30l-43 -43q43 -50 43 -125t-43 -125l43 -43l-30 -30l-46 44q-55 -44 -127 -44t-127 44l-46 -44l-30 30l43 43q-43 50 -43 125t43 125l-43 43l30 30l46 -44q55 44 127 44t127 -44zM292 410q-58 0 -96.5 -39t-38.5 -95t38.5 -95t96.5 -39t96.5 39t38.5 95
t-38.5 95t-96.5 39z" />
    <glyph glyph-name="yen" unicode="&#xa5;" horiz-adv-x="574" 
d="M616 390l-8 -16h-161l-35 -58h176l-8 -16h-178q-110 -188 -160 -294l-155 -10q98 118 190 304h-163l8 16h164l31 58h-179l8 16h178q41 97 41 170q0 65 -27.5 105.5t-85.5 40.5q-82 0 -127 -38t-45 -98q0 -30 19.5 -52t48.5 -22q40 0 48 35h4q0 -38 -31.5 -73.5
t-76.5 -35.5q-42 0 -69 25t-27 67q0 49 27 91t67.5 66t82 37.5t75.5 13.5q106 0 157.5 -55t51.5 -139q0 -43 -21 -110l2 -2q44 69 79 114t83.5 91.5t105.5 69.5t122 23q58 0 87 -21.5t29 -48.5q0 -24 -16.5 -41t-42.5 -17q-31 0 -76 26q43 4 43 40q0 18 -14 30t-38 12
q-51 0 -104.5 -30t-98.5 -78.5t-79.5 -97t-61.5 -98.5h160z" />
    <glyph glyph-name="brokenbar" unicode="&#xa6;" horiz-adv-x="222" 
d="M89 675h64v-350h-64v350zM89 175h64v-350h-64v350z" />
    <glyph glyph-name="section" unicode="&#xa7;" horiz-adv-x="500" 
d="M432 256q0 40 -16.5 73.5t-48 77.5t-48.5 81q-41 -3 -66 -31t-25 -67q0 -37 23.5 -82t55.5 -92.5t42 -71.5q36 13 59.5 43.5t23.5 68.5zM692 588q0 -40 -23.5 -64t-67.5 -24q-13 0 -32 5.5t-26 14.5q51 35 51 102q0 40 -25 60t-60 20q-49 0 -74 -32.5t-25 -75.5
q0 -8 1 -15.5t2.5 -14.5t5.5 -16t6 -14t7.5 -15l8 -14.5t10 -15.5t9.5 -14.5t10.5 -16t10.5 -14.5q34 -48 52.5 -86.5t18.5 -79.5q0 -70 -58.5 -109.5t-139.5 -47.5q6 -22 6 -56q0 -71 -59.5 -114t-164.5 -43q-96 0 -145.5 42t-49.5 92q0 44 24 67t63 23q31 0 65 -17
q-23 -14 -38.5 -42.5t-15.5 -55.5q0 -42 27.5 -65.5t70.5 -23.5q51 0 83 30.5t32 80.5q0 27 -12 57.5t-24 49.5t-36 53t-36 53t-24 48.5t-12 55.5q0 76 60 114t143 38q-9 22 -9 57q0 68 50.5 112.5t134.5 44.5q88 0 146.5 -35.5t58.5 -98.5z" />
    <glyph glyph-name="dieresis" unicode="&#xa8;" horiz-adv-x="278" 
d="M342 580q22 0 37.5 -15.5t15.5 -37.5t-15.5 -37.5t-37.5 -15.5t-37.5 15.5t-15.5 37.5t15.5 37.5t37.5 15.5zM146 580q22 0 37.5 -15.5t15.5 -37.5t-15.5 -37.5t-37.5 -15.5t-37.5 15.5t-15.5 37.5t15.5 37.5t37.5 15.5z" />
    <glyph glyph-name="copyright" unicode="&#xa9;" horiz-adv-x="800" 
d="M421 -16q-153 0 -257 106.5t-104 261.5t104.5 262.5t256.5 107.5q153 0 257 -107t104 -263q0 -155 -104 -261.5t-257 -106.5zM421 36q123 0 208 93.5t85 222.5q0 130 -85 224t-208 94q-122 0 -207.5 -94t-85.5 -224q0 -129 85.5 -222.5t207.5 -93.5zM579 267h19l-16 -76
q0 -2 -1 -4t-1.5 -3.5t-2.5 -2.5t-3 -2t-4 -2.5t-4.5 -2t-5.5 -2t-6 -2.5q-50 -20 -112 -20q-102 0 -164 53.5t-62 159.5q0 35 13 70.5t39.5 67t73.5 51.5t108 20q45 0 109 -20q22 -7 22 -25v-74h-20q-7 39 -34 66t-78 27q-67 0 -100.5 -48t-34.5 -130q-1 -88 32.5 -140
t105.5 -52q88 0 127 91z" />
    <glyph glyph-name="ordfeminine" unicode="&#xaa;" horiz-adv-x="334" 
d="M330 542l92 3q-4 -6 -29 -39.5l-41 -56.5t-31.5 -53t-15.5 -47q0 -11 16 -11q19 0 37 26l8 -8q-27 -34 -67 -34q-22 0 -35.5 6t-19 17.5t-6.5 19t-1 20.5l-2 1q-60 -64 -114 -64q-63 0 -63 70q0 65 62 112.5t136 47.5q47 0 56 -41h1zM164 348q30 0 79 58.5t49 107.5
q0 13 -8.5 20.5t-19.5 7.5q-38 0 -79 -59.5t-41 -104.5q0 -30 20 -30z" />
    <glyph glyph-name="guillemotleft" unicode="&#xab;" 
d="M239 15l-145 160l240 170l7 -8l-150 -161l57 -155zM415 15l-145 160l240 170l8 -8l-151 -161l57 -155z" />
    <glyph glyph-name="logicalnot" unicode="&#xac;" horiz-adv-x="600" 
d="M408 81v134h-296v64h360v-198h-64z" />
    <glyph glyph-name="uni00AD" unicode="&#xad;" horiz-adv-x="407" 
d="M83 221h274l-59 -82h-274z" />
    <glyph glyph-name="registered" unicode="&#xae;" horiz-adv-x="800" 
d="M421 -16q-153 0 -257 106.5t-104 261.5t104.5 262.5t256.5 107.5q153 0 257 -107t104 -263q0 -155 -104 -261.5t-257 -106.5zM421 36q123 0 208 93.5t85 222.5q0 130 -85 224t-208 94q-122 0 -207.5 -94t-85.5 -224q0 -129 85.5 -222.5t207.5 -93.5zM249 540v18h196
q52 0 86.5 -26t34.5 -75q0 -38 -23 -68t-61 -41l61 -87q42 -59 75 -87v-12h-78q-15 0 -31 21.5t-43.5 71t-47.5 79.5h-42v-106q0 -32 6 -38t43 -10v-18h-176v18q37 4 43 10t6 38v263q0 32 -6 38.5t-43 10.5zM376 532v-172h40q66 0 66 93q0 79 -66 79h-40z" />
    <glyph glyph-name="macron" unicode="&#xaf;" horiz-adv-x="278" 
d="M143 535h207q25 0 25 -16q0 -34 -35 -34h-222q-11 0 -11 15q0 35 36 35z" />
    <glyph glyph-name="degree" unicode="&#xb0;" horiz-adv-x="400" 
d="M242 507q-40 0 -66.5 -28.5t-26.5 -69.5t26.5 -69t66.5 -28t66.5 28t26.5 69t-26.5 69.5t-66.5 28.5zM242 552q60 0 101.5 -41.5t41.5 -101.5t-41.5 -101.5t-101.5 -41.5t-101.5 41.5t-41.5 101.5t41.5 101.5t101.5 41.5z" />
    <glyph glyph-name="plusminus" unicode="&#xb1;" horiz-adv-x="600" 
d="M260 264v96h64v-96h148v-64h-148v-96h-64v96h-148v64h148zM112 0v64h360v-64h-360z" />
    <glyph glyph-name="twosuperior" unicode="&#xb2;" horiz-adv-x="344" 
d="M375 340l8 -3q-1 -2 -9 -16.5l-15 -26.5t-21.5 -28.5t-30.5 -28t-40 -20t-52 -8.5q-27 0 -77.5 17t-77.5 17q-16 0 -25 -17t-23 -17q-11 0 -11 9t26 24q8 5 31 18l36 21q25 15 62.5 32.5l60.5 29t46.5 28t34.5 38.5t11 52q0 59 -56 59q-30 0 -50.5 -16.5t-20.5 -40.5
q0 -18 11 -28.5t31 -10.5q25 0 30 19h4q-2 -27 -24.5 -46t-52.5 -19q-24 0 -41.5 16t-17.5 43q0 46 46.5 74.5t114.5 28.5q54 0 91 -22t37 -61q0 -44 -36 -73.5t-81 -41t-100.5 -27.5t-80.5 -32l2 -2q11 7 32 7t69 -10q51 -11 69 -11q53 0 90 73z" />
    <glyph glyph-name="threesuperior" unicode="&#xb3;" horiz-adv-x="344" 
d="M167 374l4 20h59q49 0 84 21t35 59q0 26 -12 41.5t-35 15.5q-27 0 -40 -12.5t-13 -31.5q0 -33 32 -33q18 0 23 16h5q-1 -5 -4 -12.5t-9.5 -18t-20.5 -18t-33 -7.5q-22 0 -38.5 13.5t-16.5 33.5q0 40 41.5 63t96.5 23q50 0 81 -18.5t31 -49.5q0 -25 -14.5 -42.5t-41.5 -27
t-47.5 -14t-49.5 -8.5q-5 -1 -8 -1v-2q37 0 66 -18t29 -50q0 -30 -22.5 -52.5t-57 -33.5t-65 -16t-55.5 -5q-56 0 -100 20.5t-44 65.5q0 28 20.5 49t49.5 21q7 0 14 -1t12 -3t10 -5t8.5 -5.5t7.5 -6.5t6 -6.5t4.5 -7t3.5 -6.5l3 -6l2 -4l-5 -1q-12 12 -23 12
q-17 0 -28 -14.5t-11 -34.5q0 -22 18 -38.5t49 -16.5q48 0 76.5 26t28.5 72q0 59 -67 59q-25 0 -39 -4z" />
    <glyph glyph-name="acute" unicode="&#xb4;" horiz-adv-x="278" 
d="M374 561q0 -36 -69.5 -83.5t-93.5 -47.5q-11 0 -11 12q0 1 0.5 2.5t1.5 3t2 2.5t3.5 3l4.5 3.5t6 4l7 4.5t8.5 5t9.5 6q27 18 42 41t17.5 39.5t10 28t23.5 11.5t27 -9.5t11 -25.5z" />
    <glyph glyph-name="mu" unicode="&#xb5;" 
d="M122 364l144 4l-36 -54q-93 -140 -120.5 -189t-27.5 -74q0 -13 7.5 -21t19.5 -8q43 0 124 92.5t159 241.5l145 4q-9 -15 -59.5 -88.5t-87 -137.5t-36.5 -95q0 -25 27 -25q23 0 61.5 29t79 73.5t70.5 80.5t54 68l9 -8l-38 -47l-49 -59.5t-53 -57t-59.5 -54t-59 -36
t-61.5 -15.5q-42 0 -65.5 22.5t-23.5 47.5q0 36 11 60l-2 3q-116 -133 -203 -133q-9 0 -14 2l-184 -310l-146 -4z" />
    <glyph glyph-name="paragraph" unicode="&#xb6;" horiz-adv-x="600" 
d="M253 -98h-58l422 774h-61l-422 -774h-59l244 448q-56 5 -94.5 34.5t-38.5 83.5q0 72 49.5 128.5t116 83t132.5 26.5h289l-12 -20q-53 -3 -71.5 -10t-27.5 -24z" />
    <glyph glyph-name="periodcentered" unicode="&#xb7;" horiz-adv-x="287" 
d="M125 256q31 0 53.5 -22t22.5 -54t-22.5 -54t-53.5 -22t-53.5 22t-22.5 54t22.5 54t53.5 22z" />
    <glyph glyph-name="cedilla" unicode="&#xb8;" horiz-adv-x="278" 
d="M-17 -5h42l-43 -61q24 3 25 3q30 0 50 -15t20 -44q0 -33 -31.5 -54.5t-87.5 -21.5q-24 0 -65.5 9.5t-41.5 25.5q0 12 11 12q5 0 37 -8.5t57 -8.5q63 0 63 44q0 13 -11 21t-27 8q-8 0 -22 -1.5t-20 -1.5q-7 0 -7 7q0 9 22 42z" />
    <glyph glyph-name="onesuperior" unicode="&#xb9;" horiz-adv-x="344" 
d="M117 413l-2 11q164 41 282 120l10 -3l-68 -102.5t-84.5 -130t-49.5 -88.5l-111 -6l84.5 125t81.5 117l-2 2q-82 -31 -141 -45z" />
    <glyph glyph-name="ordmasculine" unicode="&#xba;" horiz-adv-x="322" 
d="M76 403q0 65 59 107t130 42q49 0 80 -19t31 -62q0 -65 -60 -107t-133 -42q-46 0 -76.5 19.5t-30.5 61.5zM306 512q0 13 -7.5 21.5t-18.5 8.5q-43 0 -88.5 -70t-45.5 -110q0 -13 7 -21.5t19 -8.5q42 0 88 70.5t46 109.5z" />
    <glyph glyph-name="guillemotright" unicode="&#xbb;" 
d="M322 345l145 -160l-240 -170l-8 8l150 161l-56 155zM146 345l145 -160l-240 -170l-8 8l150 161l-56 155z" />
    <glyph glyph-name="onequarter" unicode="&#xbc;" horiz-adv-x="861" 
d="M699 302l107 10l-125 -185h73l-7 -19h-72q-2 -2 -28.5 -41.5t-37.5 -62.5l-109 -8l79 112h-58q-48 0 -138 -9l293 271l79 4l-314 -248l2 -2l142 1q51 74 114 177zM664 552l-478 -564h-46l478 564h46zM135 413l-2 11q164 41 282 120l10 -3l-68 -102.5t-84.5 -130
t-49.5 -88.5l-111 -6l84.5 125t81.5 117l-2 2q-82 -31 -141 -45z" />
    <glyph glyph-name="onehalf" unicode="&#xbd;" horiz-adv-x="861" 
d="M669 552l-478 -564h-46l478 564h46zM744 124l8 -3q-1 -2 -9 -16.5l-15 -26.5t-21.5 -28.5t-30.5 -28t-40 -20t-52 -8.5q-26 0 -77 17t-78 17q-16 0 -25 -17q-8 -17 -23 -17q-11 0 -11 9t26 24q8 5 31 18l36 21q25 15 62.5 32.5l60.5 29t46.5 28t34.5 38.5t11 52
q0 59 -56 59q-30 0 -50.5 -16.5t-20.5 -40.5q0 -18 11 -28.5t31 -10.5q25 0 30 19h4q-2 -27 -24.5 -46t-52.5 -19q-24 0 -41.5 16t-17.5 43q0 46 46.5 74.5t114.5 28.5q54 0 91 -22t37 -61q0 -44 -36 -73.5t-81 -41t-100.5 -27.5t-80.5 -32l2 -2q11 7 32 7t69 -10
q51 -11 69 -11q53 0 90 73zM145 413l-2 11q164 41 282 120l10 -3l-68 -102.5t-84.5 -130t-49.5 -88.5l-111 -6l84.5 125t81.5 117l-2 2q-82 -31 -141 -45z" />
    <glyph glyph-name="threequarters" unicode="&#xbe;" horiz-adv-x="861" 
d="M769 302l107 10l-125 -185h73l-7 -19h-72q-2 -2 -28.5 -41.5t-37.5 -62.5l-109 -8l79 112h-58q-48 0 -138 -9l293 271l79 4l-314 -248l2 -2l142 1q51 74 114 177zM734 552l-478 -564h-46l478 564h46zM177 374l4 20h59q49 0 84 21t35 59q0 26 -12 41.5t-35 15.5
q-27 0 -40 -12.5t-13 -31.5q0 -33 32 -33q18 0 23 16h5q-1 -5 -4 -12.5t-9.5 -18t-20.5 -18t-33 -7.5q-22 0 -38.5 13.5t-16.5 33.5q0 40 41.5 63t96.5 23q50 0 81 -18.5t31 -49.5q0 -25 -14.5 -42.5t-41.5 -27t-47.5 -14t-49.5 -8.5q-5 -1 -8 -1v-2q37 0 66 -18t29 -50
q0 -30 -22.5 -52.5t-57 -33.5t-65 -16t-55.5 -5q-56 0 -100 20.5t-44 65.5q0 28 20.5 49t49.5 21q7 0 14 -1t12 -3t10 -5t8.5 -5.5t7.5 -6.5t6 -6.5t4.5 -7t3.5 -6.5l3 -6l2 -4l-5 -1q-12 12 -23 12q-17 0 -28 -14.5t-11 -34.5q0 -22 18 -38.5t49 -16.5q48 0 76.5 26
t28.5 72q0 59 -67 59q-25 0 -39 -4z" />
    <glyph glyph-name="questiondown" unicode="&#xbf;" horiz-adv-x="500" 
d="M273 218l5 -4q-21 -31 -62 -61t-73.5 -50t-58 -57.5t-25.5 -87.5q0 -53 33.5 -90.5t83.5 -37.5q38 0 62.5 27.5t24.5 68.5q0 30 -15.5 53t-39.5 23q-57 0 -59 -66h-10q0 53 28.5 97.5t84.5 44.5q36 0 59.5 -27t23.5 -69q0 -73 -67 -127.5t-174 -54.5q-70 0 -115.5 41
t-45.5 106q0 113 183 178q4 1 21 7t22.5 8.5t21 8.5t22.5 10l19.5 11t20 13.5t16 15.5t14.5 19zM330 220q-29 0 -49.5 20.5t-20.5 49.5t20.5 49.5t49.5 20.5t49.5 -20.5t20.5 -49.5t-20.5 -49.5t-49.5 -20.5z" />
    <glyph glyph-name="Agrave" unicode="&#xc0;" horiz-adv-x="944" 
d="M1105 728l11 -14q-156 -154 -278 -343.5t-122 -317.5q0 -25 10.5 -37t24.5 -12q32 0 70.5 23t84 71t71 78l69.5 86l7 -7q-86 -109 -140 -164q-48 -50 -97 -78.5t-111 -28.5q-54 0 -84.5 25.5t-30.5 76.5q0 37 13 81t24.5 70t35.5 73h-134l-41 -45t-46.5 -49.5l-45 -46
t-50.5 -47.5l-50 -40t-56 -38l-54.5 -26.5t-60.5 -20t-60 -5.5q-73 0 -115 33t-42 87q0 29 18.5 53.5t53.5 24.5q23 0 40.5 -14.5t17.5 -43.5q0 -23 -15 -36.5t-33 -13.5q2 -31 28.5 -47.5t67.5 -16.5q45 0 97 22t93 50t94 77t81 79l73 79l66.5 72t91 87.5t123.5 102
t138.5 81.5t161.5 60zM538 322h131q88 156 267 325l-2 2q-69 -32 -148 -94t-129 -111zM921 890q0 16 11 25.5t27 9.5t23.5 -11.5t10 -28t17.5 -39.5t42 -41q4 -3 9.5 -6t8.5 -5l7 -4.5t6 -4l4.5 -3.5t3.5 -3t2 -2.5t1.5 -3t0.5 -2.5q0 -12 -11 -12q-24 0 -93.5 47.5
t-69.5 83.5z" />
    <glyph glyph-name="Aacute" unicode="&#xc1;" horiz-adv-x="944" 
d="M1105 728l11 -14q-156 -154 -278 -343.5t-122 -317.5q0 -25 10.5 -37t24.5 -12q32 0 70.5 23t84 71t71 78l69.5 86l7 -7q-86 -109 -140 -164q-48 -50 -97 -78.5t-111 -28.5q-54 0 -84.5 25.5t-30.5 76.5q0 37 13 81t24.5 70t35.5 73h-134l-41 -45t-46.5 -49.5l-45 -46
t-50.5 -47.5l-50 -40t-56 -38l-54.5 -26.5t-60.5 -20t-60 -5.5q-73 0 -115 33t-42 87q0 29 18.5 53.5t53.5 24.5q23 0 40.5 -14.5t17.5 -43.5q0 -23 -15 -36.5t-33 -13.5q2 -31 28.5 -47.5t67.5 -16.5q45 0 97 22t93 50t94 77t81 79l73 79l66.5 72t91 87.5t123.5 102
t138.5 81.5t161.5 60zM538 322h131q88 156 267 325l-2 2q-69 -32 -148 -94t-129 -111zM1182 890q0 -36 -69.5 -83.5t-93.5 -47.5q-11 0 -11 12q0 1 0.5 2.5t1.5 3t2 2.5t3.5 3l4.5 3.5t6 4l7 4.5t8.5 5t9.5 6q27 18 42 41t17.5 39.5t10 28t23.5 11.5t27 -9.5t11 -25.5z" />
    <glyph glyph-name="Acircumflex" unicode="&#xc2;" horiz-adv-x="944" 
d="M1105 728l11 -14q-156 -154 -278 -343.5t-122 -317.5q0 -25 10.5 -37t24.5 -12q32 0 70.5 23t84 71t71 78l69.5 86l7 -7q-86 -109 -140 -164q-48 -50 -97 -78.5t-111 -28.5q-54 0 -84.5 25.5t-30.5 76.5q0 37 13 81t24.5 70t35.5 73h-134l-41 -45t-46.5 -49.5l-45 -46
t-50.5 -47.5l-50 -40t-56 -38l-54.5 -26.5t-60.5 -20t-60 -5.5q-73 0 -115 33t-42 87q0 29 18.5 53.5t53.5 24.5q23 0 40.5 -14.5t17.5 -43.5q0 -23 -15 -36.5t-33 -13.5q2 -31 28.5 -47.5t67.5 -16.5q45 0 97 22t93 50t94 77t81 79l73 79l66.5 72t91 87.5t123.5 102
t138.5 81.5t161.5 60zM538 322h131q88 156 267 325l-2 2q-69 -32 -148 -94t-129 -111zM1061 927h24q5 -28 44.5 -91.5t39.5 -70.5q0 -14 -13 -14q-22 0 -93 99q-29 -30 -74 -63t-72 -33q-10 0 -10 10q0 9 22.5 25t61.5 52t70 86z" />
    <glyph glyph-name="Atilde" unicode="&#xc3;" horiz-adv-x="944" 
d="M1105 728l11 -14q-156 -154 -278 -343.5t-122 -317.5q0 -25 10.5 -37t24.5 -12q32 0 70.5 23t84 71t71 78l69.5 86l7 -7q-86 -109 -140 -164q-48 -50 -97 -78.5t-111 -28.5q-54 0 -84.5 25.5t-30.5 76.5q0 37 13 81t24.5 70t35.5 73h-134l-41 -45t-46.5 -49.5l-45 -46
t-50.5 -47.5l-50 -40t-56 -38l-54.5 -26.5t-60.5 -20t-60 -5.5q-73 0 -115 33t-42 87q0 29 18.5 53.5t53.5 24.5q23 0 40.5 -14.5t17.5 -43.5q0 -23 -15 -36.5t-33 -13.5q2 -31 28.5 -47.5t67.5 -16.5q45 0 97 22t93 50t94 77t81 79l73 79l66.5 72t91 87.5t123.5 102
t138.5 81.5t161.5 60zM538 322h131q88 156 267 325l-2 2q-69 -32 -148 -94t-129 -111zM1137 845q20 0 31 11.5t16 23t10 11.5q10 0 10 -14q0 -12 -5.5 -29.5t-23.5 -36t-45 -18.5q-30 0 -82 21t-71 21q-15 0 -32.5 -23t-24.5 -23q-10 0 -10 14q0 18 20.5 49t54.5 31
q27 0 78 -19q53 -19 74 -19z" />
    <glyph glyph-name="Adieresis" unicode="&#xc4;" horiz-adv-x="944" 
d="M1105 728l11 -14q-156 -154 -278 -343.5t-122 -317.5q0 -25 10.5 -37t24.5 -12q32 0 70.5 23t84 71t71 78l69.5 86l7 -7q-86 -109 -140 -164q-48 -50 -97 -78.5t-111 -28.5q-54 0 -84.5 25.5t-30.5 76.5q0 37 13 81t24.5 70t35.5 73h-134l-41 -45t-46.5 -49.5l-45 -46
t-50.5 -47.5l-50 -40t-56 -38l-54.5 -26.5t-60.5 -20t-60 -5.5q-73 0 -115 33t-42 87q0 29 18.5 53.5t53.5 24.5q23 0 40.5 -14.5t17.5 -43.5q0 -23 -15 -36.5t-33 -13.5q2 -31 28.5 -47.5t67.5 -16.5q45 0 97 22t93 50t94 77t81 79l73 79l66.5 72t91 87.5t123.5 102
t138.5 81.5t161.5 60zM538 322h131q88 156 267 325l-2 2q-69 -32 -148 -94t-129 -111zM1150 909q22 0 37.5 -15.5t15.5 -37.5t-15.5 -37.5t-37.5 -15.5t-37.5 15.5t-15.5 37.5t15.5 37.5t37.5 15.5zM954 909q22 0 37.5 -15.5t15.5 -37.5t-15.5 -37.5t-37.5 -15.5t-37.5 15.5
t-15.5 37.5t15.5 37.5t37.5 15.5z" />
    <glyph glyph-name="Aring" unicode="&#xc5;" horiz-adv-x="944" 
d="M1105 728l11 -14q-156 -154 -278 -343.5t-122 -317.5q0 -25 10.5 -37t24.5 -12q32 0 70.5 23t84 71t71 78l69.5 86l7 -7q-86 -109 -140 -164q-48 -50 -97 -78.5t-111 -28.5q-54 0 -84.5 25.5t-30.5 76.5q0 37 13 81t24.5 70t35.5 73h-134l-41 -45t-46.5 -49.5l-45 -46
t-50.5 -47.5l-50 -40t-56 -38l-54.5 -26.5t-60.5 -20t-60 -5.5q-73 0 -115 33t-42 87q0 29 18.5 53.5t53.5 24.5q23 0 40.5 -14.5t17.5 -43.5q0 -23 -15 -36.5t-33 -13.5q2 -31 28.5 -47.5t67.5 -16.5q45 0 97 22t93 50t94 77t81 79l73 79l66.5 72t91 87.5t123.5 102
t138.5 81.5t161.5 60zM538 322h131q88 156 267 325l-2 2q-69 -32 -148 -94t-129 -111zM935 826q0 48 41.5 81.5t94.5 33.5q34 0 60 -17.5t26 -57.5q0 -48 -42 -81.5t-91 -33.5q-37 0 -63 19.5t-26 55.5zM979 796q0 -35 34 -35q38 0 69 48t31 89q0 33 -39 33
q-32 0 -63.5 -50.5t-31.5 -84.5z" />
    <glyph glyph-name="AE" unicode="&#xc6;" horiz-adv-x="1000" 
d="M389 519l9 3q23 -39 23 -85q0 -85 -65 -145t-146 -60q-49 0 -81.5 34.5t-32.5 84.5q0 90 87.5 170.5t228 127.5t290.5 47q97 0 172 -14q40 29 97 49.5t109 20.5q108 0 108 -64q0 -31 -23 -52.5t-58 -31t-66.5 -12.5t-58.5 -2q-10 -1 -30 -17t-32 -28q-62 -66 -100 -213
q61 12 78 24.5t44 59.5l121 3q-158 -100 -192 -225h-12q9 76 36 141q-23 -6 -79 -15q-53 -139 -209 -230q112 -22 199 -22q58 0 102 12.5t81 42.5t63.5 61t64.5 85l9 -4q-30 -43 -54.5 -75t-64 -75t-75 -71t-81 -48t-89.5 -20q-38 0 -76.5 9.5t-63.5 19.5t-71 32
q-74 -45 -144 -45q-75 0 -75 45q0 27 34 46t105 19q29 0 119 -9q13 19 24 39t21 47.5t14.5 41.5t14.5 50.5t12 44.5h-188l-39 -48.5l-45.5 -56l-46.5 -53.5t-53.5 -55t-54.5 -45.5t-60 -40t-60 -23.5t-65 -10q-44 0 -77.5 21t-33.5 62q0 31 17.5 52.5t47.5 21.5
q22 0 38.5 -17t16.5 -38q0 -27 -14 -47q14 -15 56 -15q34 0 76.5 21.5t77.5 50t77.5 73t67 74l58 71l37.5 46.5q64 76 136.5 147.5t121.5 98.5v2q-65 6 -188 6q-213 0 -338 -73t-125 -172q0 -37 27 -63t74 -26q83 0 137.5 53.5t54.5 104.5q0 37 -20 81zM497 328h183
q37 103 103.5 166t168.5 94v2q-61 8 -163 16q-80 -52 -146.5 -117t-145.5 -161zM1172 690q0 50 -94 50q-45 0 -99.5 -18t-87.5 -41v-2q11 0 88 -9.5t127 -9.5q66 0 66 30zM538 43q-69 33 -127 33q-30 0 -48.5 -10.5t-18.5 -28.5q0 -33 62 -33q74 0 132 39z" />
    <glyph glyph-name="Ccedilla" unicode="&#xc7;" horiz-adv-x="722" 
d="M595 623l8 -6q-31 -31 -31 -73q0 -36 23 -59.5t57 -23.5q61 0 103.5 59.5t42.5 121.5q0 68 -76 68q-105 0 -213.5 -81.5t-179.5 -210t-71 -254.5q0 -65 33.5 -112.5t84.5 -47.5q78 0 141.5 67t63.5 150q0 48 -19.5 80.5t-58.5 32.5q-37 0 -64.5 -26t-39.5 -63t-17.5 -66
t-5.5 -48h-12q0 90 48 164.5t138 74.5q54 0 90.5 -35t36.5 -88q0 -98 -101 -180.5t-226 -82.5q-25 0 -43 3l-37 -53q24 3 25 3q30 0 50 -15t20 -44q0 -33 -31.5 -54.5t-87.5 -21.5q-24 0 -65.5 9.5t-41.5 25.5q0 12 11 12q5 0 37 -8.5t57 -8.5q63 0 63 44q0 13 -11 21t-27 8
q-8 0 -22 -1.5t-20 -1.5q-7 0 -7 7q0 9 22 42l28 43q-152 34 -152 214q0 90 60.5 185t149 166t192.5 117t189 46q165 0 165 -115q0 -64 -58.5 -113t-137.5 -49q-51 0 -84.5 24.5t-33.5 73.5q0 45 35 80z" />
    <glyph glyph-name="Egrave" unicode="&#xc8;" horiz-adv-x="704" 
d="M460 475l2 8q30 -10 63 -10q56 0 83.5 37.5t27.5 85.5q0 47 -22.5 80.5t-65.5 33.5q-57 0 -85 -55.5t-47 -178.5q-3 -23 -22 -42.5t-44.5 -33t-55 -33.5t-54 -41t-40.5 -57t-16 -82q0 -80 49.5 -128.5t120.5 -48.5q51 0 90.5 16t61.5 42.5t33 55.5t11 59q0 46 -24.5 79
t-69.5 33q-46 0 -83 -35t-62 -78l-10 4q33 59 93 104t124 45q69 0 104.5 -31.5t35.5 -84.5q0 -91 -118.5 -163t-257.5 -72q-39 0 -77.5 8.5t-75 26.5t-59 52t-22.5 78q0 46 25 82.5t53 54t71 39.5t56 30q17 11 32.5 103.5t37.5 128.5q43 67 116 101t139 34q64 0 109 -28
t45 -91q0 -47 -33.5 -80.5t-77 -47.5t-89.5 -14q-38 0 -72 14zM488 890q0 16 11 25.5t27 9.5t23.5 -11.5t10 -28t17.5 -39.5t42 -41q4 -3 9.5 -6t8.5 -5l7 -4.5t6 -4l4.5 -3.5t3.5 -3t2 -2.5t1.5 -3t0.5 -2.5q0 -12 -11 -12q-24 0 -93.5 47.5t-69.5 83.5z" />
    <glyph glyph-name="Eacute" unicode="&#xc9;" horiz-adv-x="704" 
d="M460 475l2 8q30 -10 63 -10q56 0 83.5 37.5t27.5 85.5q0 47 -22.5 80.5t-65.5 33.5q-57 0 -85 -55.5t-47 -178.5q-3 -23 -22 -42.5t-44.5 -33t-55 -33.5t-54 -41t-40.5 -57t-16 -82q0 -80 49.5 -128.5t120.5 -48.5q51 0 90.5 16t61.5 42.5t33 55.5t11 59q0 46 -24.5 79
t-69.5 33q-46 0 -83 -35t-62 -78l-10 4q33 59 93 104t124 45q69 0 104.5 -31.5t35.5 -84.5q0 -91 -118.5 -163t-257.5 -72q-39 0 -77.5 8.5t-75 26.5t-59 52t-22.5 78q0 46 25 82.5t53 54t71 39.5t56 30q17 11 32.5 103.5t37.5 128.5q43 67 116 101t139 34q64 0 109 -28
t45 -91q0 -47 -33.5 -80.5t-77 -47.5t-89.5 -14q-38 0 -72 14zM749 890q0 -36 -69.5 -83.5t-93.5 -47.5q-11 0 -11 12q0 1 0.5 2.5t1.5 3t2 2.5t3.5 3l4.5 3.5t6 4l7 4.5t8.5 5t9.5 6q27 18 42 41t17.5 39.5t10 28t23.5 11.5t27 -9.5t11 -25.5z" />
    <glyph glyph-name="Ecircumflex" unicode="&#xca;" horiz-adv-x="704" 
d="M460 475l2 8q30 -10 63 -10q56 0 83.5 37.5t27.5 85.5q0 47 -22.5 80.5t-65.5 33.5q-57 0 -85 -55.5t-47 -178.5q-3 -23 -22 -42.5t-44.5 -33t-55 -33.5t-54 -41t-40.5 -57t-16 -82q0 -80 49.5 -128.5t120.5 -48.5q51 0 90.5 16t61.5 42.5t33 55.5t11 59q0 46 -24.5 79
t-69.5 33q-46 0 -83 -35t-62 -78l-10 4q33 59 93 104t124 45q69 0 104.5 -31.5t35.5 -84.5q0 -91 -118.5 -163t-257.5 -72q-39 0 -77.5 8.5t-75 26.5t-59 52t-22.5 78q0 46 25 82.5t53 54t71 39.5t56 30q17 11 32.5 103.5t37.5 128.5q43 67 116 101t139 34q64 0 109 -28
t45 -91q0 -47 -33.5 -80.5t-77 -47.5t-89.5 -14q-38 0 -72 14zM628 927h24q5 -28 44.5 -91.5t39.5 -70.5q0 -14 -13 -14q-22 0 -93 99q-29 -30 -74 -63t-72 -33q-10 0 -10 10q0 9 22.5 25t61.5 52t70 86z" />
    <glyph glyph-name="Edieresis" unicode="&#xcb;" horiz-adv-x="704" 
d="M460 475l2 8q30 -10 63 -10q56 0 83.5 37.5t27.5 85.5q0 47 -22.5 80.5t-65.5 33.5q-57 0 -85 -55.5t-47 -178.5q-3 -23 -22 -42.5t-44.5 -33t-55 -33.5t-54 -41t-40.5 -57t-16 -82q0 -80 49.5 -128.5t120.5 -48.5q51 0 90.5 16t61.5 42.5t33 55.5t11 59q0 46 -24.5 79
t-69.5 33q-46 0 -83 -35t-62 -78l-10 4q33 59 93 104t124 45q69 0 104.5 -31.5t35.5 -84.5q0 -91 -118.5 -163t-257.5 -72q-39 0 -77.5 8.5t-75 26.5t-59 52t-22.5 78q0 46 25 82.5t53 54t71 39.5t56 30q17 11 32.5 103.5t37.5 128.5q43 67 116 101t139 34q64 0 109 -28
t45 -91q0 -47 -33.5 -80.5t-77 -47.5t-89.5 -14q-38 0 -72 14zM717 909q22 0 37.5 -15.5t15.5 -37.5t-15.5 -37.5t-37.5 -15.5t-37.5 15.5t-15.5 37.5t15.5 37.5t37.5 15.5zM521 909q22 0 37.5 -15.5t15.5 -37.5t-15.5 -37.5t-37.5 -15.5t-37.5 15.5t-15.5 37.5t15.5 37.5
t37.5 15.5z" />
    <glyph glyph-name="Igrave" unicode="&#xcc;" horiz-adv-x="722" 
d="M478 498l9 5q25 -35 25 -74q0 -72 -67.5 -117.5t-140.5 -45.5q-59 0 -98.5 39t-39.5 98q0 47 21 86.5t54.5 67.5t83.5 50.5t98.5 36.5t109 24.5t106.5 15.5t99 8t78.5 3.5t53.5 0.5q76 0 141 13t77 13q43 0 43 -25q0 -21 -46 -21q-23 0 -49.5 3t-31.5 3q-154 0 -330 -349
q-177 -349 -498 -349q-92 0 -154 40.5t-62 103.5q0 35 22 56.5t56 21.5q27 0 41.5 -19t14.5 -46q0 -38 -38 -51q4 -46 36 -70t84 -24q51 0 98.5 22t82 53t69 78.5t55 84l46.5 84.5q8 16 12 23q80 147 171 221t252 120l-1 2q-93 0 -180.5 -6.5t-182.5 -26t-164.5 -49.5
t-114.5 -81.5t-45 -118.5q0 -42 26 -71t67 -29q50 0 91.5 40.5t41.5 84.5q0 40 -22 71zM760 890q0 16 11 25.5t27 9.5t23.5 -11.5t10 -28t17.5 -39.5t42 -41q4 -3 9.5 -6t8.5 -5l7 -4.5t6 -4l4.5 -3.5t3.5 -3t2 -2.5t1.5 -3t0.5 -2.5q0 -12 -11 -12q-24 0 -93.5 47.5
t-69.5 83.5z" />
    <glyph glyph-name="Iacute" unicode="&#xcd;" horiz-adv-x="722" 
d="M478 498l9 5q25 -35 25 -74q0 -72 -67.5 -117.5t-140.5 -45.5q-59 0 -98.5 39t-39.5 98q0 47 21 86.5t54.5 67.5t83.5 50.5t98.5 36.5t109 24.5t106.5 15.5t99 8t78.5 3.5t53.5 0.5q76 0 141 13t77 13q43 0 43 -25q0 -21 -46 -21q-23 0 -49.5 3t-31.5 3q-154 0 -330 -349
q-177 -349 -498 -349q-92 0 -154 40.5t-62 103.5q0 35 22 56.5t56 21.5q27 0 41.5 -19t14.5 -46q0 -38 -38 -51q4 -46 36 -70t84 -24q51 0 98.5 22t82 53t69 78.5t55 84l46.5 84.5q8 16 12 23q80 147 171 221t252 120l-1 2q-93 0 -180.5 -6.5t-182.5 -26t-164.5 -49.5
t-114.5 -81.5t-45 -118.5q0 -42 26 -71t67 -29q50 0 91.5 40.5t41.5 84.5q0 40 -22 71zM1021 890q0 -36 -69.5 -83.5t-93.5 -47.5q-11 0 -11 12q0 1 0.5 2.5t1.5 3t2 2.5t3.5 3l4.5 3.5t6 4l7 4.5t8.5 5t9.5 6q27 18 42 41t17.5 39.5t10 28t23.5 11.5t27 -9.5t11 -25.5z" />
    <glyph glyph-name="Icircumflex" unicode="&#xce;" horiz-adv-x="722" 
d="M478 498l9 5q25 -35 25 -74q0 -72 -67.5 -117.5t-140.5 -45.5q-59 0 -98.5 39t-39.5 98q0 47 21 86.5t54.5 67.5t83.5 50.5t98.5 36.5t109 24.5t106.5 15.5t99 8t78.5 3.5t53.5 0.5q76 0 141 13t77 13q43 0 43 -25q0 -21 -46 -21q-23 0 -49.5 3t-31.5 3q-154 0 -330 -349
q-177 -349 -498 -349q-92 0 -154 40.5t-62 103.5q0 35 22 56.5t56 21.5q27 0 41.5 -19t14.5 -46q0 -38 -38 -51q4 -46 36 -70t84 -24q51 0 98.5 22t82 53t69 78.5t55 84l46.5 84.5q8 16 12 23q80 147 171 221t252 120l-1 2q-93 0 -180.5 -6.5t-182.5 -26t-164.5 -49.5
t-114.5 -81.5t-45 -118.5q0 -42 26 -71t67 -29q50 0 91.5 40.5t41.5 84.5q0 40 -22 71zM900 927h24q5 -28 44.5 -91.5t39.5 -70.5q0 -14 -13 -14q-22 0 -93 99q-29 -30 -74 -63t-72 -33q-10 0 -10 10q0 9 22.5 25t61.5 52t70 86z" />
    <glyph glyph-name="Idieresis" unicode="&#xcf;" horiz-adv-x="722" 
d="M478 498l9 5q25 -35 25 -74q0 -72 -67.5 -117.5t-140.5 -45.5q-59 0 -98.5 39t-39.5 98q0 47 21 86.5t54.5 67.5t83.5 50.5t98.5 36.5t109 24.5t106.5 15.5t99 8t78.5 3.5t53.5 0.5q76 0 141 13t77 13q43 0 43 -25q0 -21 -46 -21q-23 0 -49.5 3t-31.5 3q-154 0 -330 -349
q-177 -349 -498 -349q-92 0 -154 40.5t-62 103.5q0 35 22 56.5t56 21.5q27 0 41.5 -19t14.5 -46q0 -38 -38 -51q4 -46 36 -70t84 -24q51 0 98.5 22t82 53t69 78.5t55 84l46.5 84.5q8 16 12 23q80 147 171 221t252 120l-1 2q-93 0 -180.5 -6.5t-182.5 -26t-164.5 -49.5
t-114.5 -81.5t-45 -118.5q0 -42 26 -71t67 -29q50 0 91.5 40.5t41.5 84.5q0 40 -22 71zM989 909q22 0 37.5 -15.5t15.5 -37.5t-15.5 -37.5t-37.5 -15.5t-37.5 15.5t-15.5 37.5t15.5 37.5t37.5 15.5zM793 909q22 0 37.5 -15.5t15.5 -37.5t-15.5 -37.5t-37.5 -15.5t-37.5 15.5
t-15.5 37.5t15.5 37.5t37.5 15.5z" />
    <glyph glyph-name="Eth" unicode="&#xd0;" horiz-adv-x="1000" 
d="M466 362h88q56 105 110 174.5t127 114.5q-85 59 -243 59q-90 0 -182 -47t-155 -133t-63 -185q0 -57 23.5 -93.5t77.5 -36.5q73 0 118 68.5t45 144.5q0 69 -26 134l10 4q28 -68 28 -132q0 -113 -65 -181t-166 -68q-72 0 -116.5 50.5t-44.5 122.5q0 81 48.5 151t125 115.5
t169.5 71.5t184 26q152 0 251 -61q100 60 242 73v-12q-130 -9 -202 -89q58 -47 95 -115.5t37 -150.5q0 -88 -34 -157t-88 -110.5t-129.5 -68.5t-151 -37t-160.5 -10q-72 0 -164 12q-86 -12 -132 -12q-94 0 -94 36q0 24 44 24q27 0 187 -32q71 12 127 77t124 194l36 67h-81
q-14 0 -14 6t14 6zM766 350h-81q-34 -64 -64.5 -108.5t-76.5 -92t-109 -83t-145 -59.5v-2q48 -9 142 -9q86 0 159 30.5t122.5 79.5t85 111.5t51.5 126t16 123.5q0 97 -36 145q-20 -30 -40.5 -65.5l-34 -60.5l-34 -65l-30.5 -59h75q14 0 14 -6t-14 -6z" />
    <glyph glyph-name="Ntilde" unicode="&#xd1;" horiz-adv-x="907" 
d="M666 -26h-16q2 29 2 80q0 86 -48.5 236.5t-58.5 212.5l-2 3l-36.5 -71.5l-42 -83t-46.5 -84t-54.5 -84.5t-61 -73.5t-71 -62.5t-79.5 -39.5t-91 -15.5q-62 0 -98.5 32.5t-36.5 79.5q0 35 18 58.5t52 23.5q25 0 41.5 -16t16.5 -41q0 -55 -52 -59q2 -27 25 -42.5t61 -15.5
q40 0 80 16t72 40t66.5 64t58 74.5t53.5 86.5t46.5 84.5l42 84.5t35.5 71q-2 18 -2 26q0 171 157 171q-41 -60 -41 -113q0 -60 43.5 -200.5t42.5 -220.5h2q20 47 47.5 102t74 132.5t93.5 137.5t106 103t111 43q44 0 72 -21.5t28 -69.5q0 -52 -43 -91t-98 -47l-5 7
q30 8 49 28.5t19 48.5q0 37 -21 56t-58 19q-54 0 -116 -58t-112.5 -138.5t-100 -181t-78 -170t-46.5 -122.5zM979 845q20 0 31 11.5t16 23t10 11.5q10 0 10 -14q0 -12 -5.5 -29.5t-23.5 -36t-45 -18.5q-30 0 -82 21t-71 21q-15 0 -32.5 -23t-24.5 -23q-10 0 -10 14
q0 18 20.5 49t54.5 31q27 0 78 -19q53 -19 74 -19z" />
    <glyph glyph-name="Ograve" unicode="&#xd2;" horiz-adv-x="778" 
d="M885 263l3 -9q-78 -65 -184 -65q-28 0 -50 7q-77 -92 -174 -152t-204 -60q-89 0 -137.5 57t-48.5 147q0 109 70 219t177 183t214 84q56 48 118 48q55 0 90 -47.5t35 -125.5q0 -85 -37 -178t-95 -163q28 -7 46 -7q17 0 33 2l27.5 3.5t25 7t20.5 8t20.5 10l17 9.5
t17.5 11.5t16 10.5zM230 168q0 -62 31 -108t90 -46q72 0 137 61t113 144q-143 78 -143 223q0 127 82 216l-2 2q-113 -24 -210.5 -176.5t-97.5 -315.5zM508 468q0 -83 26 -146.5t72 -90.5q80 181 80 338q0 57 -18 92t-48 35q-26 0 -52 -22q38 -2 60.5 -25.5t22.5 -60.5
q0 -32 -26 -88l-11 4q25 55 25 81q0 34 -21.5 55.5t-57.5 21.5q-52 -66 -52 -194zM525 890q0 16 11 25.5t27 9.5t23.5 -11.5t10 -28t17.5 -39.5t42 -41q4 -3 9.5 -6t8.5 -5l7 -4.5t6 -4l4.5 -3.5t3.5 -3t2 -2.5t1.5 -3t0.5 -2.5q0 -12 -11 -12q-24 0 -93.5 47.5t-69.5 83.5z
" />
    <glyph glyph-name="Oacute" unicode="&#xd3;" horiz-adv-x="778" 
d="M885 263l3 -9q-78 -65 -184 -65q-28 0 -50 7q-77 -92 -174 -152t-204 -60q-89 0 -137.5 57t-48.5 147q0 109 70 219t177 183t214 84q56 48 118 48q55 0 90 -47.5t35 -125.5q0 -85 -37 -178t-95 -163q28 -7 46 -7q17 0 33 2l27.5 3.5t25 7t20.5 8t20.5 10l17 9.5
t17.5 11.5t16 10.5zM230 168q0 -62 31 -108t90 -46q72 0 137 61t113 144q-143 78 -143 223q0 127 82 216l-2 2q-113 -24 -210.5 -176.5t-97.5 -315.5zM508 468q0 -83 26 -146.5t72 -90.5q80 181 80 338q0 57 -18 92t-48 35q-26 0 -52 -22q38 -2 60.5 -25.5t22.5 -60.5
q0 -32 -26 -88l-11 4q25 55 25 81q0 34 -21.5 55.5t-57.5 21.5q-52 -66 -52 -194zM786 890q0 -36 -69.5 -83.5t-93.5 -47.5q-11 0 -11 12q0 1 0.5 2.5t1.5 3t2 2.5t3.5 3l4.5 3.5t6 4l7 4.5t8.5 5t9.5 6q27 18 42 41t17.5 39.5t10 28t23.5 11.5t27 -9.5t11 -25.5z" />
    <glyph glyph-name="Ocircumflex" unicode="&#xd4;" horiz-adv-x="778" 
d="M885 263l3 -9q-78 -65 -184 -65q-28 0 -50 7q-77 -92 -174 -152t-204 -60q-89 0 -137.5 57t-48.5 147q0 109 70 219t177 183t214 84q56 48 118 48q55 0 90 -47.5t35 -125.5q0 -85 -37 -178t-95 -163q28 -7 46 -7q17 0 33 2l27.5 3.5t25 7t20.5 8t20.5 10l17 9.5
t17.5 11.5t16 10.5zM230 168q0 -62 31 -108t90 -46q72 0 137 61t113 144q-143 78 -143 223q0 127 82 216l-2 2q-113 -24 -210.5 -176.5t-97.5 -315.5zM508 468q0 -83 26 -146.5t72 -90.5q80 181 80 338q0 57 -18 92t-48 35q-26 0 -52 -22q38 -2 60.5 -25.5t22.5 -60.5
q0 -32 -26 -88l-11 4q25 55 25 81q0 34 -21.5 55.5t-57.5 21.5q-52 -66 -52 -194zM665 927h24q5 -28 44.5 -91.5t39.5 -70.5q0 -14 -13 -14q-22 0 -93 99q-29 -30 -74 -63t-72 -33q-10 0 -10 10q0 9 22.5 25t61.5 52t70 86z" />
    <glyph glyph-name="Otilde" unicode="&#xd5;" horiz-adv-x="778" 
d="M885 263l3 -9q-78 -65 -184 -65q-28 0 -50 7q-77 -92 -174 -152t-204 -60q-89 0 -137.5 57t-48.5 147q0 109 70 219t177 183t214 84q56 48 118 48q55 0 90 -47.5t35 -125.5q0 -85 -37 -178t-95 -163q28 -7 46 -7q17 0 33 2l27.5 3.5t25 7t20.5 8t20.5 10l17 9.5
t17.5 11.5t16 10.5zM230 168q0 -62 31 -108t90 -46q72 0 137 61t113 144q-143 78 -143 223q0 127 82 216l-2 2q-113 -24 -210.5 -176.5t-97.5 -315.5zM508 468q0 -83 26 -146.5t72 -90.5q80 181 80 338q0 57 -18 92t-48 35q-26 0 -52 -22q38 -2 60.5 -25.5t22.5 -60.5
q0 -32 -26 -88l-11 4q25 55 25 81q0 34 -21.5 55.5t-57.5 21.5q-52 -66 -52 -194zM741 845q20 0 31 11.5t16 23t10 11.5q10 0 10 -14q0 -12 -5.5 -29.5t-23.5 -36t-45 -18.5q-30 0 -82 21t-71 21q-15 0 -32.5 -23t-24.5 -23q-10 0 -10 14q0 18 20.5 49t54.5 31q27 0 78 -19
q53 -19 74 -19z" />
    <glyph glyph-name="Odieresis" unicode="&#xd6;" horiz-adv-x="778" 
d="M885 263l3 -9q-78 -65 -184 -65q-28 0 -50 7q-77 -92 -174 -152t-204 -60q-89 0 -137.5 57t-48.5 147q0 109 70 219t177 183t214 84q56 48 118 48q55 0 90 -47.5t35 -125.5q0 -85 -37 -178t-95 -163q28 -7 46 -7q17 0 33 2l27.5 3.5t25 7t20.5 8t20.5 10l17 9.5
t17.5 11.5t16 10.5zM230 168q0 -62 31 -108t90 -46q72 0 137 61t113 144q-143 78 -143 223q0 127 82 216l-2 2q-113 -24 -210.5 -176.5t-97.5 -315.5zM508 468q0 -83 26 -146.5t72 -90.5q80 181 80 338q0 57 -18 92t-48 35q-26 0 -52 -22q38 -2 60.5 -25.5t22.5 -60.5
q0 -32 -26 -88l-11 4q25 55 25 81q0 34 -21.5 55.5t-57.5 21.5q-52 -66 -52 -194zM754 909q22 0 37.5 -15.5t15.5 -37.5t-15.5 -37.5t-37.5 -15.5t-37.5 15.5t-15.5 37.5t15.5 37.5t37.5 15.5zM558 909q22 0 37.5 -15.5t15.5 -37.5t-15.5 -37.5t-37.5 -15.5t-37.5 15.5
t-15.5 37.5t15.5 37.5t37.5 15.5z" />
    <glyph glyph-name="multiply" unicode="&#xd7;" horiz-adv-x="600" 
d="M292 225l135 135l45 -45l-135 -135l135 -135l-45 -45l-135 135l-135 -135l-45 45l135 135l-135 135l45 45z" />
    <glyph glyph-name="Oslash" unicode="&#xd8;" horiz-adv-x="759" 
d="M168 -86l49 80q-123 43 -123 207q0 84 45 170t113 149.5t150 103.5t154 40q41 0 66 -22l21 34q-40 54 -111 54q-102 0 -219 -123l-7 5q112 134 254 134q63 0 112 -23l54 86l9 -5l-52 -86q97 -54 97 -178q0 -97 -43 -198t-112 -179.5t-163.5 -128.5t-190.5 -50
q-15 0 -43 4l-50 -80zM262 62l354 570q-16 20 -58 20q-68 0 -145 -69t-130 -181.5t-53 -223.5q0 -76 32 -116zM623 623l-354 -570q26 -39 87 -39q69 0 133 55t105 135t65.5 164t24.5 148q0 104 -34 152l-21 -34q17 -20 17 -55q0 -36 -24 -81l-10 4q22 40 22 76q0 28 -11 45z
" />
    <glyph glyph-name="Ugrave" unicode="&#xd9;" horiz-adv-x="944" 
d="M918 686l148 6l-62.5 -94l-98.5 -150.5l-97.5 -157t-82.5 -151t-31 -94.5q0 -43 36 -43q31 0 80 27t95 71q71 68 149 165l7 -7q-101 -121 -147 -165q-123 -117 -233 -117q-49 0 -76 27.5t-27 72.5q0 48 30 101l-2 2q-48 -55 -87.5 -91t-99.5 -66t-119 -30q-88 0 -88 91
q0 43 29 103t70.5 120l83 119.5t70.5 117.5t29 99q0 30 -18 47t-48 17q-86 0 -154 -75t-68 -159t64 -84q34 0 62 28t46 65l9 -2q-10 -22 -13 -27q-54 -90 -138 -90q-44 0 -67 27t-23 71q0 70 50.5 132t122.5 96t141 34q70 0 110 -29t40 -87q0 -40 -44 -120.5t-97 -156
t-97 -152t-44 -109.5q0 -46 37 -46q72 0 199 131q57 59 178 245t176 288zM677 890q0 16 11 25.5t27 9.5t23.5 -11.5t10 -28t17.5 -39.5t42 -41q4 -3 9.5 -6t8.5 -5l7 -4.5t6 -4l4.5 -3.5t3.5 -3t2 -2.5t1.5 -3t0.5 -2.5q0 -12 -11 -12q-24 0 -93.5 47.5t-69.5 83.5z" />
    <glyph glyph-name="Uacute" unicode="&#xda;" horiz-adv-x="944" 
d="M918 686l148 6l-62.5 -94l-98.5 -150.5l-97.5 -157t-82.5 -151t-31 -94.5q0 -43 36 -43q31 0 80 27t95 71q71 68 149 165l7 -7q-101 -121 -147 -165q-123 -117 -233 -117q-49 0 -76 27.5t-27 72.5q0 48 30 101l-2 2q-48 -55 -87.5 -91t-99.5 -66t-119 -30q-88 0 -88 91
q0 43 29 103t70.5 120l83 119.5t70.5 117.5t29 99q0 30 -18 47t-48 17q-86 0 -154 -75t-68 -159t64 -84q34 0 62 28t46 65l9 -2q-10 -22 -13 -27q-54 -90 -138 -90q-44 0 -67 27t-23 71q0 70 50.5 132t122.5 96t141 34q70 0 110 -29t40 -87q0 -40 -44 -120.5t-97 -156
t-97 -152t-44 -109.5q0 -46 37 -46q72 0 199 131q57 59 178 245t176 288zM938 890q0 -36 -69.5 -83.5t-93.5 -47.5q-11 0 -11 12q0 1 0.5 2.5t1.5 3t2 2.5t3.5 3l4.5 3.5t6 4l7 4.5t8.5 5t9.5 6q27 18 42 41t17.5 39.5t10 28t23.5 11.5t27 -9.5t11 -25.5z" />
    <glyph glyph-name="Ucircumflex" unicode="&#xdb;" horiz-adv-x="944" 
d="M918 686l148 6l-62.5 -94l-98.5 -150.5l-97.5 -157t-82.5 -151t-31 -94.5q0 -43 36 -43q31 0 80 27t95 71q71 68 149 165l7 -7q-101 -121 -147 -165q-123 -117 -233 -117q-49 0 -76 27.5t-27 72.5q0 48 30 101l-2 2q-48 -55 -87.5 -91t-99.5 -66t-119 -30q-88 0 -88 91
q0 43 29 103t70.5 120l83 119.5t70.5 117.5t29 99q0 30 -18 47t-48 17q-86 0 -154 -75t-68 -159t64 -84q34 0 62 28t46 65l9 -2q-10 -22 -13 -27q-54 -90 -138 -90q-44 0 -67 27t-23 71q0 70 50.5 132t122.5 96t141 34q70 0 110 -29t40 -87q0 -40 -44 -120.5t-97 -156
t-97 -152t-44 -109.5q0 -46 37 -46q72 0 199 131q57 59 178 245t176 288zM817 927h24q5 -28 44.5 -91.5t39.5 -70.5q0 -14 -13 -14q-22 0 -93 99q-29 -30 -74 -63t-72 -33q-10 0 -10 10q0 9 22.5 25t61.5 52t70 86z" />
    <glyph glyph-name="Udieresis" unicode="&#xdc;" horiz-adv-x="944" 
d="M918 686l148 6l-62.5 -94l-98.5 -150.5l-97.5 -157t-82.5 -151t-31 -94.5q0 -43 36 -43q31 0 80 27t95 71q71 68 149 165l7 -7q-101 -121 -147 -165q-123 -117 -233 -117q-49 0 -76 27.5t-27 72.5q0 48 30 101l-2 2q-48 -55 -87.5 -91t-99.5 -66t-119 -30q-88 0 -88 91
q0 43 29 103t70.5 120l83 119.5t70.5 117.5t29 99q0 30 -18 47t-48 17q-86 0 -154 -75t-68 -159t64 -84q34 0 62 28t46 65l9 -2q-10 -22 -13 -27q-54 -90 -138 -90q-44 0 -67 27t-23 71q0 70 50.5 132t122.5 96t141 34q70 0 110 -29t40 -87q0 -40 -44 -120.5t-97 -156
t-97 -152t-44 -109.5q0 -46 37 -46q72 0 199 131q57 59 178 245t176 288zM906 909q22 0 37.5 -15.5t15.5 -37.5t-15.5 -37.5t-37.5 -15.5t-37.5 15.5t-15.5 37.5t15.5 37.5t37.5 15.5zM710 909q22 0 37.5 -15.5t15.5 -37.5t-15.5 -37.5t-37.5 -15.5t-37.5 15.5t-15.5 37.5
t15.5 37.5t37.5 15.5z" />
    <glyph glyph-name="Yacute" unicode="&#xdd;" horiz-adv-x="852" 
d="M937 680l151 6q-73 -104 -233.5 -358.5l-243.5 -376.5q-88 -130 -209.5 -196t-237.5 -65q-103 1 -166.5 38t-63.5 109q0 59 49 94t109 35q47 0 108 -21l-2 -9q-30 10 -50 10q-39 0 -66.5 -35t-27.5 -83q0 -59 31 -92.5t79 -33.5q37 0 72 12t69.5 40.5t62 56.5t64.5 79
l61.5 87l68 102l69.5 105l-2 2q-39 -44 -65.5 -70t-68.5 -60t-87.5 -50t-94.5 -16q-44 0 -66.5 24t-22.5 63q0 49 45.5 130t100.5 153.5t100.5 151.5t45.5 126q0 29 -18.5 48.5t-55.5 19.5q-42 0 -92 -30t-88 -87.5t-38 -124.5q0 -78 56 -78q68 0 115 92l8 -3
q-19 -42 -57 -78.5t-90 -36.5q-90 0 -90 94q0 99 99.5 183.5t214.5 84.5q67 0 107.5 -28.5t40.5 -90.5q0 -22 -6.5 -45.5t-24 -56t-25.5 -45.5t-35.5 -53.5t-27.5 -41.5l-31 -45t-45 -67.5l-41 -67.5t-35.5 -70.5t-12.5 -52.5q0 -38 37 -38q61 0 158.5 88t179.5 221z
M916 890q0 -36 -69.5 -83.5t-93.5 -47.5q-11 0 -11 12q0 1 0.5 2.5t1.5 3t2 2.5t3.5 3l4.5 3.5t6 4l7 4.5t8.5 5t9.5 6q27 18 42 41t17.5 39.5t10 28t23.5 11.5t27 -9.5t11 -25.5z" />
    <glyph glyph-name="Thorn" unicode="&#xde;" horiz-adv-x="944" 
d="M500 523h-113q51 110 154 154.5t259 44.5q74 0 114 -5v-10q-43 -4 -93.5 -46t-89 -94t-72.5 -111l2 -2q27 39 75.5 75.5t93.5 36.5q49 0 77.5 -25t28.5 -71q0 -32 -10.5 -64.5t-34.5 -65t-59 -57.5t-89 -40.5t-120 -15.5q-32 0 -56 6l4 10q28 -4 46 -4q85 0 142 69
t57 130q0 56 -42 56q-64 0 -138 -105l-62 -94l-62.5 -95.5t-62.5 -81.5t-73.5 -71.5t-83.5 -44t-104 -18.5q-80 0 -127 30.5t-47 83.5q0 33 19.5 57.5t53.5 24.5q26 0 41.5 -17.5t15.5 -41.5q0 -40 -36 -53q7 -72 77 -72q37 0 74 33t71.5 87.5t72 121.5t83.5 139t96.5 136
t120 116.5t146.5 76.5v2q-30 2 -50 2q-201 0 -299 -187z" />
    <glyph glyph-name="germandbls" unicode="&#xdf;" horiz-adv-x="648" 
d="M760 262l9 -7l-36 -45t-47.5 -58t-49 -49.5t-64.5 -52.5q-96 -66 -225 -66q-66 0 -108 31.5t-42 82.5q0 38 23 62t59 24q23 0 38.5 -15t15.5 -35q0 -52 -52 -52q-3 0 -8 0.5t-8 0.5q-3 -6 -3 -22q0 -24 17.5 -42.5t49.5 -18.5q41 0 65 25t24 64q0 37 -30 93t-30 93
q0 49 36 80t121 53q37 10 56 22t32 37q35 67 35 140q0 48 -16 67.5t-48 19.5q-42 0 -89.5 -33.5t-93 -91.5t-82.5 -117t-73 -128l-37 -71.5l-42 -81t-45 -81.5t-51.5 -84.5t-56 -79t-64 -75t-70 -61.5t-79 -51t-87 -31t-96.5 -12q-40 0 -77.5 7t-72.5 22t-56.5 44t-21.5 68
q0 68 56 101.5t146 33.5q34 0 66 -9v-8q-9 1 -35 1q-51 0 -82 -33t-31 -81q0 -58 31.5 -96t87.5 -38q27 0 52 8t47.5 21t47.5 37.5t45.5 48.5t47 64l47.5 74.5t51.5 89.5l54.5 98.5l61.5 112.5l67.5 122q79 142 195 232t247 90q83 0 129 -33.5t46 -95.5q0 -48 -29 -80
t-70 -48.5l-82 -31.5t-70 -42t-29 -68q0 -43 30 -101.5t30 -85.5q0 -75 -64 -105v-2q43 13 84.5 40.5t81.5 68.5t63 68.5z" />
    <glyph glyph-name="agrave" unicode="&#xe0;" horiz-adv-x="556" 
d="M420 356l142 4q-7 -11 -44.5 -65l-63 -92.5t-49 -86.5t-23.5 -73q0 -29 23 -29q70 0 258 247l6 -4q-6 -7 -17 -22q-49 -64 -75.5 -95.5t-67 -73.5t-75.5 -60t-70 -18q-26 0 -44 8t-26.5 18t-13.5 27t-5.5 26.5t-0.5 25.5l-3 2q-90 -107 -172 -107q-97 0 -97 120
q0 44 22.5 90.5t61.5 85t97 63.5t123 25q72 0 86 -68h2zM165 32q28 0 74.5 44.5t84.5 113t38 124.5q0 21 -13 33.5t-31 12.5q-39 0 -83.5 -50t-73.5 -116t-29 -112q0 -50 33 -50zM275 561q0 16 11 25.5t27 9.5t23.5 -11.5t10 -28t17.5 -39.5t42 -41q4 -3 9.5 -6t8.5 -5
l7 -4.5t6 -4l4.5 -3.5t3.5 -3t2 -2.5t1.5 -3t0.5 -2.5q0 -12 -11 -12q-24 0 -93.5 47.5t-69.5 83.5z" />
    <glyph glyph-name="aacute" unicode="&#xe1;" horiz-adv-x="556" 
d="M420 356l142 4q-7 -11 -44.5 -65l-63 -92.5t-49 -86.5t-23.5 -73q0 -29 23 -29q70 0 258 247l6 -4q-6 -7 -17 -22q-49 -64 -75.5 -95.5t-67 -73.5t-75.5 -60t-70 -18q-26 0 -44 8t-26.5 18t-13.5 27t-5.5 26.5t-0.5 25.5l-3 2q-90 -107 -172 -107q-97 0 -97 120
q0 44 22.5 90.5t61.5 85t97 63.5t123 25q72 0 86 -68h2zM165 32q28 0 74.5 44.5t84.5 113t38 124.5q0 21 -13 33.5t-31 12.5q-39 0 -83.5 -50t-73.5 -116t-29 -112q0 -50 33 -50zM536 561q0 -36 -69.5 -83.5t-93.5 -47.5q-11 0 -11 12q0 1 0.5 2.5t1.5 3t2 2.5t3.5 3
l4.5 3.5t6 4l7 4.5t8.5 5t9.5 6q27 18 42 41t17.5 39.5t10 28t23.5 11.5t27 -9.5t11 -25.5z" />
    <glyph glyph-name="acircumflex" unicode="&#xe2;" horiz-adv-x="556" 
d="M420 356l142 4q-7 -11 -44.5 -65l-63 -92.5t-49 -86.5t-23.5 -73q0 -29 23 -29q70 0 258 247l6 -4q-6 -7 -17 -22q-49 -64 -75.5 -95.5t-67 -73.5t-75.5 -60t-70 -18q-26 0 -44 8t-26.5 18t-13.5 27t-5.5 26.5t-0.5 25.5l-3 2q-90 -107 -172 -107q-97 0 -97 120
q0 44 22.5 90.5t61.5 85t97 63.5t123 25q72 0 86 -68h2zM165 32q28 0 74.5 44.5t84.5 113t38 124.5q0 21 -13 33.5t-31 12.5q-39 0 -83.5 -50t-73.5 -116t-29 -112q0 -50 33 -50zM415 598h24q5 -28 44.5 -91.5t39.5 -70.5q0 -14 -13 -14q-22 0 -93 99q-29 -30 -74 -63
t-72 -33q-10 0 -10 10q0 9 22.5 25t61.5 52t70 86z" />
    <glyph glyph-name="atilde" unicode="&#xe3;" horiz-adv-x="556" 
d="M420 356l142 4q-7 -11 -44.5 -65l-63 -92.5t-49 -86.5t-23.5 -73q0 -29 23 -29q70 0 258 247l6 -4q-6 -7 -17 -22q-49 -64 -75.5 -95.5t-67 -73.5t-75.5 -60t-70 -18q-26 0 -44 8t-26.5 18t-13.5 27t-5.5 26.5t-0.5 25.5l-3 2q-90 -107 -172 -107q-97 0 -97 120
q0 44 22.5 90.5t61.5 85t97 63.5t123 25q72 0 86 -68h2zM165 32q28 0 74.5 44.5t84.5 113t38 124.5q0 21 -13 33.5t-31 12.5q-39 0 -83.5 -50t-73.5 -116t-29 -112q0 -50 33 -50zM491 516q20 0 31 11.5t16 23t10 11.5q10 0 10 -14q0 -12 -5.5 -29.5t-23.5 -36t-45 -18.5
q-30 0 -82 21t-71 21q-15 0 -32.5 -23t-24.5 -23q-10 0 -10 14q0 18 20.5 49t54.5 31q27 0 78 -19q53 -19 74 -19z" />
    <glyph glyph-name="adieresis" unicode="&#xe4;" horiz-adv-x="556" 
d="M420 356l142 4q-7 -11 -44.5 -65l-63 -92.5t-49 -86.5t-23.5 -73q0 -29 23 -29q70 0 258 247l6 -4q-6 -7 -17 -22q-49 -64 -75.5 -95.5t-67 -73.5t-75.5 -60t-70 -18q-26 0 -44 8t-26.5 18t-13.5 27t-5.5 26.5t-0.5 25.5l-3 2q-90 -107 -172 -107q-97 0 -97 120
q0 44 22.5 90.5t61.5 85t97 63.5t123 25q72 0 86 -68h2zM165 32q28 0 74.5 44.5t84.5 113t38 124.5q0 21 -13 33.5t-31 12.5q-39 0 -83.5 -50t-73.5 -116t-29 -112q0 -50 33 -50zM504 580q22 0 37.5 -15.5t15.5 -37.5t-15.5 -37.5t-37.5 -15.5t-37.5 15.5t-15.5 37.5
t15.5 37.5t37.5 15.5zM308 580q22 0 37.5 -15.5t15.5 -37.5t-15.5 -37.5t-37.5 -15.5t-37.5 15.5t-15.5 37.5t15.5 37.5t37.5 15.5z" />
    <glyph glyph-name="aring" unicode="&#xe5;" horiz-adv-x="556" 
d="M420 356l142 4q-7 -11 -44.5 -65l-63 -92.5t-49 -86.5t-23.5 -73q0 -29 23 -29q70 0 258 247l6 -4q-6 -7 -17 -22q-49 -64 -75.5 -95.5t-67 -73.5t-75.5 -60t-70 -18q-26 0 -44 8t-26.5 18t-13.5 27t-5.5 26.5t-0.5 25.5l-3 2q-90 -107 -172 -107q-97 0 -97 120
q0 44 22.5 90.5t61.5 85t97 63.5t123 25q72 0 86 -68h2zM165 32q28 0 74.5 44.5t84.5 113t38 124.5q0 21 -13 33.5t-31 12.5q-39 0 -83.5 -50t-73.5 -116t-29 -112q0 -50 33 -50zM289 497q0 48 41.5 81.5t94.5 33.5q34 0 60 -17.5t26 -57.5q0 -48 -42 -81.5t-91 -33.5
q-37 0 -63 19.5t-26 55.5zM333 467q0 -35 34 -35q38 0 69 48t31 89q0 33 -39 33q-32 0 -63.5 -50.5t-31.5 -84.5z" />
    <glyph glyph-name="ae" unicode="&#xe6;" horiz-adv-x="722" 
d="M308 360q-39 0 -83.5 -50t-73.5 -116t-29 -112q0 -50 33 -50q28 0 74.5 44.5t84.5 113t38 124.5q0 21 -13 33.5t-31 12.5zM410 356l108 4q39 12 76 12q110 0 110 -66q0 -15 -7 -29t-21 -26t-28.5 -22.5t-38 -20l-39.5 -15.5t-43 -13.5l-39 -11t-37 -9t-27 -6.5
q-4 -17 -4 -40q0 -41 19 -68t60 -27q82 0 210 121q61 58 106 124l9 -6q-52 -73 -116 -135q-72 -69 -137 -101.5t-142 -32.5q-135 0 -135 125q0 16 5 28l-2 2q-102 -155 -208 -155q-97 0 -97 120q0 44 22.5 90.5t61.5 85t97 63.5t123 25q72 0 86 -68h2zM604 332q0 28 -28 28
q-41 0 -90.5 -72.5t-59.5 -123.5q80 18 129 67.5t49 100.5z" />
    <glyph glyph-name="ccedilla" unicode="&#xe7;" horiz-adv-x="426" 
d="M536 266l8 -7l-54 -67.5t-52.5 -58.5t-66.5 -62q-102 -83 -220 -83q-7 0 -10 1l-39 -55q24 3 25 3q30 0 50 -15t20 -44q0 -33 -31.5 -54.5t-87.5 -21.5q-24 0 -65.5 9.5t-41.5 25.5q0 12 11 12q5 0 37 -8.5t57 -8.5q63 0 63 44q0 13 -11 21t-27 8q-8 0 -22 -1.5t-20 -1.5
q-7 0 -7 7q0 9 22 42l28 43q-42 10 -68 38t-26 72q0 74 51 137.5t123 97t141 33.5q49 0 78.5 -17t29.5 -49q0 -39 -32 -61t-79 -22h-8q3 21 3 58t-6.5 54t-24.5 17q-27 0 -61.5 -39t-59.5 -96t-25 -102q0 -44 22 -70.5t64 -26.5q79 0 195 113q46 45 117 135z" />
    <glyph glyph-name="egrave" unicode="&#xe8;" horiz-adv-x="426" 
d="M535 263l9 -6q-52 -73 -116 -135q-72 -69 -137 -101.5t-142 -32.5q-68 0 -104.5 32t-36.5 93q0 50 30 99t75.5 83.5t99.5 55.5t101 21q110 0 110 -66q0 -25 -21 -47.5t-47 -37t-69.5 -29t-67 -20.5l-60.5 -15q-12 -3 -17 -4q-4 -17 -4 -40q0 -41 19 -68t62 -27
q82 0 210 121q61 58 106 124zM324 332q0 28 -28 28q-41 0 -91.5 -72.5t-60.5 -123.5q81 18 130.5 67t49.5 101zM228 561q0 16 11 25.5t27 9.5t23.5 -11.5t10 -28t17.5 -39.5t42 -41q4 -3 9.5 -6t8.5 -5l7 -4.5t6 -4l4.5 -3.5t3.5 -3t2 -2.5t1.5 -3t0.5 -2.5q0 -12 -11 -12
q-24 0 -93.5 47.5t-69.5 83.5z" />
    <glyph glyph-name="eacute" unicode="&#xe9;" horiz-adv-x="426" 
d="M535 263l9 -6q-52 -73 -116 -135q-72 -69 -137 -101.5t-142 -32.5q-68 0 -104.5 32t-36.5 93q0 50 30 99t75.5 83.5t99.5 55.5t101 21q110 0 110 -66q0 -25 -21 -47.5t-47 -37t-69.5 -29t-67 -20.5l-60.5 -15q-12 -3 -17 -4q-4 -17 -4 -40q0 -41 19 -68t62 -27
q82 0 210 121q61 58 106 124zM324 332q0 28 -28 28q-41 0 -91.5 -72.5t-60.5 -123.5q81 18 130.5 67t49.5 101zM489 561q0 -36 -69.5 -83.5t-93.5 -47.5q-11 0 -11 12q0 1 0.5 2.5t1.5 3t2 2.5t3.5 3l4.5 3.5t6 4l7 4.5t8.5 5t9.5 6q27 18 42 41t17.5 39.5t10 28t23.5 11.5
t27 -9.5t11 -25.5z" />
    <glyph glyph-name="ecircumflex" unicode="&#xea;" horiz-adv-x="426" 
d="M535 263l9 -6q-52 -73 -116 -135q-72 -69 -137 -101.5t-142 -32.5q-68 0 -104.5 32t-36.5 93q0 50 30 99t75.5 83.5t99.5 55.5t101 21q110 0 110 -66q0 -25 -21 -47.5t-47 -37t-69.5 -29t-67 -20.5l-60.5 -15q-12 -3 -17 -4q-4 -17 -4 -40q0 -41 19 -68t62 -27
q82 0 210 121q61 58 106 124zM324 332q0 28 -28 28q-41 0 -91.5 -72.5t-60.5 -123.5q81 18 130.5 67t49.5 101zM368 598h24q5 -28 44.5 -91.5t39.5 -70.5q0 -14 -13 -14q-22 0 -93 99q-29 -30 -74 -63t-72 -33q-10 0 -10 10q0 9 22.5 25t61.5 52t70 86z" />
    <glyph glyph-name="edieresis" unicode="&#xeb;" horiz-adv-x="426" 
d="M535 263l9 -6q-52 -73 -116 -135q-72 -69 -137 -101.5t-142 -32.5q-68 0 -104.5 32t-36.5 93q0 50 30 99t75.5 83.5t99.5 55.5t101 21q110 0 110 -66q0 -25 -21 -47.5t-47 -37t-69.5 -29t-67 -20.5l-60.5 -15q-12 -3 -17 -4q-4 -17 -4 -40q0 -41 19 -68t62 -27
q82 0 210 121q61 58 106 124zM324 332q0 28 -28 28q-41 0 -91.5 -72.5t-60.5 -123.5q81 18 130.5 67t49.5 101zM457 580q22 0 37.5 -15.5t15.5 -37.5t-15.5 -37.5t-37.5 -15.5t-37.5 15.5t-15.5 37.5t15.5 37.5t37.5 15.5zM261 580q22 0 37.5 -15.5t15.5 -37.5t-15.5 -37.5
t-37.5 -15.5t-37.5 15.5t-15.5 37.5t15.5 37.5t37.5 15.5z" />
    <glyph glyph-name="igrave" unicode="&#xec;" horiz-adv-x="278" 
d="M132 356l143 4l-28.5 -44.5l-28.5 -44.5l-25.5 -41l-24.5 -40.5l-20.5 -36l-18.5 -34t-13 -28t-9 -25.5t-3 -19q0 -33 23 -33q78 0 257 250l8 -3q-86 -121 -141 -177q-50 -51 -88 -73.5t-84 -22.5q-40 0 -61.5 23.5t-21.5 65.5q0 11 3 24.5t7 25.5t13 30.5l15.5 31.5
t20.5 37.5l22.5 38.5l26.5 44.5zM114 561q0 16 11 25.5t27 9.5t23.5 -11.5t10 -28t17.5 -39.5t42 -41q4 -3 9.5 -6t8.5 -5l7 -4.5t6 -4l4.5 -3.5t3.5 -3t2 -2.5t1.5 -3t0.5 -2.5q0 -12 -11 -12q-24 0 -93.5 47.5t-69.5 83.5z" />
    <glyph glyph-name="iacute" unicode="&#xed;" horiz-adv-x="278" 
d="M132 356l143 4l-28.5 -44.5l-28.5 -44.5l-25.5 -41l-24.5 -40.5l-20.5 -36l-18.5 -34t-13 -28t-9 -25.5t-3 -19q0 -33 23 -33q78 0 257 250l8 -3q-86 -121 -141 -177q-50 -51 -88 -73.5t-84 -22.5q-40 0 -61.5 23.5t-21.5 65.5q0 11 3 24.5t7 25.5t13 30.5l15.5 31.5
t20.5 37.5l22.5 38.5l26.5 44.5zM375 561q0 -36 -69.5 -83.5t-93.5 -47.5q-11 0 -11 12q0 1 0.5 2.5t1.5 3t2 2.5t3.5 3l4.5 3.5t6 4l7 4.5t8.5 5t9.5 6q27 18 42 41t17.5 39.5t10 28t23.5 11.5t27 -9.5t11 -25.5z" />
    <glyph glyph-name="icircumflex" unicode="&#xee;" horiz-adv-x="278" 
d="M132 356l143 4l-28.5 -44.5l-28.5 -44.5l-25.5 -41l-24.5 -40.5l-20.5 -36l-18.5 -34t-13 -28t-9 -25.5t-3 -19q0 -33 23 -33q78 0 257 250l8 -3q-86 -121 -141 -177q-50 -51 -88 -73.5t-84 -22.5q-40 0 -61.5 23.5t-21.5 65.5q0 11 3 24.5t7 25.5t13 30.5l15.5 31.5
t20.5 37.5l22.5 38.5l26.5 44.5zM254 598h24q5 -28 44.5 -91.5t39.5 -70.5q0 -14 -13 -14q-22 0 -93 99q-29 -30 -74 -63t-72 -33q-10 0 -10 10q0 9 22.5 25t61.5 52t70 86z" />
    <glyph glyph-name="idieresis" unicode="&#xef;" horiz-adv-x="278" 
d="M132 356l143 4l-28.5 -44.5l-28.5 -44.5l-25.5 -41l-24.5 -40.5l-20.5 -36l-18.5 -34t-13 -28t-9 -25.5t-3 -19q0 -33 23 -33q78 0 257 250l8 -3q-86 -121 -141 -177q-50 -51 -88 -73.5t-84 -22.5q-40 0 -61.5 23.5t-21.5 65.5q0 11 3 24.5t7 25.5t13 30.5l15.5 31.5
t20.5 37.5l22.5 38.5l26.5 44.5zM343 580q22 0 37.5 -15.5t15.5 -37.5t-15.5 -37.5t-37.5 -15.5t-37.5 15.5t-15.5 37.5t15.5 37.5t37.5 15.5zM147 580q22 0 37.5 -15.5t15.5 -37.5t-15.5 -37.5t-37.5 -15.5t-37.5 15.5t-15.5 37.5t15.5 37.5t37.5 15.5z" />
    <glyph glyph-name="eth" unicode="&#xf0;" 
d="M316 360q-45 0 -95 -58t-80.5 -130.5t-30.5 -120.5q0 -23 10.5 -37t29.5 -14q45 0 95 58t80.5 130.5t30.5 120.5q0 23 -10.5 37t-29.5 14zM639 519h-117q-18 -180 -43 -266q30 -41 71 -41q50 0 95 53l8 -8l-6 -7q-6 -6 -10 -9.5l-12 -10.5t-15.5 -11.5t-17 -9t-20.5 -7
t-22 -2.5q-48 0 -77 35q-26 -106 -106 -176.5t-193 -70.5q-75 0 -123.5 32.5t-48.5 103.5q0 73 46 131.5t113 87.5t139 29q47 0 84 -16q6 23 8.5 82t5.5 81h-104q-6 0 -6 6t6 6h105q13 100 61.5 145.5t139.5 45.5q95 0 147 -44l-9 -12q-48 32 -102 32q-51 0 -78 -36.5
t-36 -130.5h117q6 0 6 -6t-6 -6z" />
    <glyph glyph-name="ntilde" unicode="&#xf1;" 
d="M59 6l-136 -6l207 354l142 6q-72 -100 -138 -204l2 -2q35 44 60 72.5t64 67t76.5 58.5t72.5 20q39 0 64 -20.5t25 -58.5q0 -37 -33 -87.5t-66 -96t-33 -70.5t23 -25q37 0 108 71q50 50 150 178l9 -5q-90 -119 -150 -181q-87 -89 -158 -89q-43 0 -66.5 26t-23.5 69
q0 33 19.5 68.5t43.5 61t43.5 52.5t19.5 45q0 28 -27 28q-48 0 -156 -128.5t-142 -203.5zM459 516q20 0 31 11.5t16 23t10 11.5q10 0 10 -14q0 -12 -5.5 -29.5t-23.5 -36t-45 -18.5q-30 0 -82 21t-71 21q-15 0 -32.5 -23t-24.5 -23q-10 0 -10 14q0 18 20.5 49t54.5 31
q27 0 78 -19q53 -19 74 -19z" />
    <glyph glyph-name="ograve" unicode="&#xf2;" 
d="M645 265l8 -8l-6 -7q-6 -6 -10 -9.5l-12 -10.5t-15.5 -11.5t-17 -9t-20.5 -7t-22 -2.5q-48 0 -84 46h-2q0 -104 -88.5 -181t-201.5 -77q-75 0 -123.5 32.5t-48.5 103.5q0 73 46 131.5t113 87.5t139 29q48 0 82 -16.5t52 -40t33 -47t35.5 -40t47.5 -16.5q50 0 95 53z
M316 360q-45 0 -95 -58t-80.5 -130.5t-30.5 -120.5q0 -23 10.5 -37t29.5 -14q45 0 95 58t80.5 130.5t30.5 120.5q0 23 -10.5 37t-29.5 14zM223 561q0 16 11 25.5t27 9.5t23.5 -11.5t10 -28t17.5 -39.5t42 -41q4 -3 9.5 -6t8.5 -5l7 -4.5t6 -4l4.5 -3.5t3.5 -3t2 -2.5t1.5 -3
t0.5 -2.5q0 -12 -11 -12q-24 0 -93.5 47.5t-69.5 83.5z" />
    <glyph glyph-name="oacute" unicode="&#xf3;" 
d="M645 265l8 -8l-6 -7q-6 -6 -10 -9.5l-12 -10.5t-15.5 -11.5t-17 -9t-20.5 -7t-22 -2.5q-48 0 -84 46h-2q0 -104 -88.5 -181t-201.5 -77q-75 0 -123.5 32.5t-48.5 103.5q0 73 46 131.5t113 87.5t139 29q48 0 82 -16.5t52 -40t33 -47t35.5 -40t47.5 -16.5q50 0 95 53z
M316 360q-45 0 -95 -58t-80.5 -130.5t-30.5 -120.5q0 -23 10.5 -37t29.5 -14q45 0 95 58t80.5 130.5t30.5 120.5q0 23 -10.5 37t-29.5 14zM484 561q0 -36 -69.5 -83.5t-93.5 -47.5q-11 0 -11 12q0 1 0.5 2.5t1.5 3t2 2.5t3.5 3l4.5 3.5t6 4l7 4.5t8.5 5t9.5 6q27 18 42 41
t17.5 39.5t10 28t23.5 11.5t27 -9.5t11 -25.5z" />
    <glyph glyph-name="ocircumflex" unicode="&#xf4;" 
d="M645 265l8 -8l-6 -7q-6 -6 -10 -9.5l-12 -10.5t-15.5 -11.5t-17 -9t-20.5 -7t-22 -2.5q-48 0 -84 46h-2q0 -104 -88.5 -181t-201.5 -77q-75 0 -123.5 32.5t-48.5 103.5q0 73 46 131.5t113 87.5t139 29q48 0 82 -16.5t52 -40t33 -47t35.5 -40t47.5 -16.5q50 0 95 53z
M316 360q-45 0 -95 -58t-80.5 -130.5t-30.5 -120.5q0 -23 10.5 -37t29.5 -14q45 0 95 58t80.5 130.5t30.5 120.5q0 23 -10.5 37t-29.5 14zM363 598h24q5 -28 44.5 -91.5t39.5 -70.5q0 -14 -13 -14q-22 0 -93 99q-29 -30 -74 -63t-72 -33q-10 0 -10 10q0 9 22.5 25t61.5 52
t70 86z" />
    <glyph glyph-name="otilde" unicode="&#xf5;" 
d="M645 265l8 -8l-6 -7q-6 -6 -10 -9.5l-12 -10.5t-15.5 -11.5t-17 -9t-20.5 -7t-22 -2.5q-48 0 -84 46h-2q0 -104 -88.5 -181t-201.5 -77q-75 0 -123.5 32.5t-48.5 103.5q0 73 46 131.5t113 87.5t139 29q48 0 82 -16.5t52 -40t33 -47t35.5 -40t47.5 -16.5q50 0 95 53z
M316 360q-45 0 -95 -58t-80.5 -130.5t-30.5 -120.5q0 -23 10.5 -37t29.5 -14q45 0 95 58t80.5 130.5t30.5 120.5q0 23 -10.5 37t-29.5 14zM439 516q20 0 31 11.5t16 23t10 11.5q10 0 10 -14q0 -12 -5.5 -29.5t-23.5 -36t-45 -18.5q-30 0 -82 21t-71 21q-15 0 -32.5 -23
t-24.5 -23q-10 0 -10 14q0 18 20.5 49t54.5 31q27 0 78 -19q53 -19 74 -19z" />
    <glyph glyph-name="odieresis" unicode="&#xf6;" 
d="M645 265l8 -8l-6 -7q-6 -6 -10 -9.5l-12 -10.5t-15.5 -11.5t-17 -9t-20.5 -7t-22 -2.5q-48 0 -84 46h-2q0 -104 -88.5 -181t-201.5 -77q-75 0 -123.5 32.5t-48.5 103.5q0 73 46 131.5t113 87.5t139 29q48 0 82 -16.5t52 -40t33 -47t35.5 -40t47.5 -16.5q50 0 95 53z
M316 360q-45 0 -95 -58t-80.5 -130.5t-30.5 -120.5q0 -23 10.5 -37t29.5 -14q45 0 95 58t80.5 130.5t30.5 120.5q0 23 -10.5 37t-29.5 14zM452 580q22 0 37.5 -15.5t15.5 -37.5t-15.5 -37.5t-37.5 -15.5t-37.5 15.5t-15.5 37.5t15.5 37.5t37.5 15.5zM256 580
q22 0 37.5 -15.5t15.5 -37.5t-15.5 -37.5t-37.5 -15.5t-37.5 15.5t-15.5 37.5t15.5 37.5t37.5 15.5z" />
    <glyph glyph-name="divide" unicode="&#xf7;" horiz-adv-x="600" 
d="M472 148h-360v64h360v-64zM292 69q22 0 38 -16t16 -38t-16 -38t-38 -16t-38 16t-16 38t16 38t38 16zM292 399q22 0 38 -16t16 -38t-16 -38t-38 -16t-38 16t-16 38t16 38t38 16z" />
    <glyph glyph-name="oslash" unicode="&#xf8;" 
d="M129 7l204 349q-7 4 -17 4q-45 0 -95 -58t-80.5 -130.5t-30.5 -120.5q0 -31 19 -44zM341 350l-203 -348q8 -2 12 -2q45 0 95 58t80.5 130.5t30.5 120.5q0 29 -15 41zM391 436l-41 -70q39 -9 68 -35.5t43 -52t36.5 -46t52.5 -20.5q50 0 95 53l8 -8l-6 -7q-6 -6 -10 -9.5
l-12 -10.5t-15.5 -11.5t-17 -9t-20.5 -7t-22 -2.5q-48 0 -84 46h-2q0 -104 -88.5 -181t-201.5 -77q-22 0 -42 3l-50 -85l-9 5l48 82q-119 21 -119 131q0 73 46 131.5t113 87.5t139 29q24 0 40 -4l42 73z" />
    <glyph glyph-name="ugrave" unicode="&#xf9;" 
d="M121 364l144 4l-35 -54q-97 -149 -122.5 -194t-25.5 -69q0 -13 7.5 -21t19.5 -8q43 0 124 92.5t159 241.5l145 4q-9 -15 -59.5 -88.5t-87 -137.5t-36.5 -95q0 -25 22 -25q23 0 61.5 29t79 73.5t70.5 80.5t54 68l9 -8l-38 -47l-49 -59.5t-53 -57t-59.5 -54t-59 -36
t-61.5 -15.5q-41 0 -62.5 25t-21.5 60q0 21 9 44l-2 2q-113 -131 -197 -131q-40 0 -61 24t-21 63q0 35 28 92t72.5 125.5zM278 561q0 16 11 25.5t27 9.5t23.5 -11.5t10 -28t17.5 -39.5t42 -41q4 -3 9.5 -6t8.5 -5l7 -4.5t6 -4l4.5 -3.5t3.5 -3t2 -2.5t1.5 -3t0.5 -2.5
q0 -12 -11 -12q-24 0 -93.5 47.5t-69.5 83.5z" />
    <glyph glyph-name="uacute" unicode="&#xfa;" 
d="M121 364l144 4l-35 -54q-97 -149 -122.5 -194t-25.5 -69q0 -13 7.5 -21t19.5 -8q43 0 124 92.5t159 241.5l145 4q-9 -15 -59.5 -88.5t-87 -137.5t-36.5 -95q0 -25 22 -25q23 0 61.5 29t79 73.5t70.5 80.5t54 68l9 -8l-38 -47l-49 -59.5t-53 -57t-59.5 -54t-59 -36
t-61.5 -15.5q-41 0 -62.5 25t-21.5 60q0 21 9 44l-2 2q-113 -131 -197 -131q-40 0 -61 24t-21 63q0 35 28 92t72.5 125.5zM539 561q0 -36 -69.5 -83.5t-93.5 -47.5q-11 0 -11 12q0 1 0.5 2.5t1.5 3t2 2.5t3.5 3l4.5 3.5t6 4l7 4.5t8.5 5t9.5 6q27 18 42 41t17.5 39.5t10 28
t23.5 11.5t27 -9.5t11 -25.5z" />
    <glyph glyph-name="ucircumflex" unicode="&#xfb;" 
d="M121 364l144 4l-35 -54q-97 -149 -122.5 -194t-25.5 -69q0 -13 7.5 -21t19.5 -8q43 0 124 92.5t159 241.5l145 4q-9 -15 -59.5 -88.5t-87 -137.5t-36.5 -95q0 -25 22 -25q23 0 61.5 29t79 73.5t70.5 80.5t54 68l9 -8l-38 -47l-49 -59.5t-53 -57t-59.5 -54t-59 -36
t-61.5 -15.5q-41 0 -62.5 25t-21.5 60q0 21 9 44l-2 2q-113 -131 -197 -131q-40 0 -61 24t-21 63q0 35 28 92t72.5 125.5zM418 598h24q5 -28 44.5 -91.5t39.5 -70.5q0 -14 -13 -14q-22 0 -93 99q-29 -30 -74 -63t-72 -33q-10 0 -10 10q0 9 22.5 25t61.5 52t70 86z" />
    <glyph glyph-name="udieresis" unicode="&#xfc;" 
d="M121 364l144 4l-35 -54q-97 -149 -122.5 -194t-25.5 -69q0 -13 7.5 -21t19.5 -8q43 0 124 92.5t159 241.5l145 4q-9 -15 -59.5 -88.5t-87 -137.5t-36.5 -95q0 -25 22 -25q23 0 61.5 29t79 73.5t70.5 80.5t54 68l9 -8l-38 -47l-49 -59.5t-53 -57t-59.5 -54t-59 -36
t-61.5 -15.5q-41 0 -62.5 25t-21.5 60q0 21 9 44l-2 2q-113 -131 -197 -131q-40 0 -61 24t-21 63q0 35 28 92t72.5 125.5zM507 580q22 0 37.5 -15.5t15.5 -37.5t-15.5 -37.5t-37.5 -15.5t-37.5 15.5t-15.5 37.5t15.5 37.5t37.5 15.5zM311 580q22 0 37.5 -15.5t15.5 -37.5
t-15.5 -37.5t-37.5 -15.5t-37.5 15.5t-15.5 37.5t15.5 37.5t37.5 15.5z" />
    <glyph glyph-name="yacute" unicode="&#xfd;" 
d="M134 360l142 8q-10 -21 -56.5 -93.5t-84 -137.5t-37.5 -88q0 -31 23 -31q37 0 99 63t103 136l79 139l141 4l-207 -341l2 -2q64 23 158 98.5t155 158.5l8 -6q-47 -67 -139.5 -148.5t-191.5 -118.5q-176 -325 -485 -325q-47 0 -90.5 13.5t-76.5 47.5t-33 82q0 58 49.5 92.5
t109.5 34.5q42 0 86 -9v-9q-8 2 -33 2q-48 0 -70 -32t-22 -83q0 -59 27 -93t74 -34q53 0 104.5 31t97.5 87.5t80.5 108t76 120.5t61.5 97l-2 2q-25 -31 -43 -50.5t-47 -44.5t-62 -38t-68 -13t-53.5 25t-18.5 60q0 44 26.5 96t66 109t51.5 82zM504 561q0 -36 -69.5 -83.5
t-93.5 -47.5q-11 0 -11 12q0 1 0.5 2.5t1.5 3t2 2.5t3.5 3l4.5 3.5t6 4l7 4.5t8.5 5t9.5 6q27 18 42 41t17.5 39.5t10 28t23.5 11.5t27 -9.5t11 -25.5z" />
    <glyph glyph-name="thorn" unicode="&#xfe;" 
d="M305 642l146 10l-202 -301l2 -2q32 23 69 23q38 0 67 -16.5t46.5 -40l33.5 -47t36.5 -40t46.5 -16.5q50 0 95 53l8 -8l-6 -7q-6 -6 -10 -9.5l-12 -10.5t-15.5 -11.5t-17 -9t-20.5 -7t-22 -2.5q-48 0 -84 46h-2q0 -103 -88 -180.5t-196 -77.5q-41 0 -67.5 22.5t-26.5 67.5
v12l-2 2l-231 -410l-143 -6zM356 309q0 23 -12 37t-34 14q-27 0 -53.5 -20.5t-69.5 -84.5q-89 -132 -89 -181q0 -32 18 -50t42 -18q43 0 90.5 56.5t77.5 127.5t30 119z" />
    <glyph glyph-name="ydieresis" unicode="&#xff;" 
d="M134 360l142 8q-10 -21 -56.5 -93.5t-84 -137.5t-37.5 -88q0 -31 23 -31q37 0 99 63t103 136l79 139l141 4l-207 -341l2 -2q64 23 158 98.5t155 158.5l8 -6q-47 -67 -139.5 -148.5t-191.5 -118.5q-176 -325 -485 -325q-47 0 -90.5 13.5t-76.5 47.5t-33 82q0 58 49.5 92.5
t109.5 34.5q42 0 86 -9v-9q-8 2 -33 2q-48 0 -70 -32t-22 -83q0 -59 27 -93t74 -34q53 0 104.5 31t97.5 87.5t80.5 108t76 120.5t61.5 97l-2 2q-25 -31 -43 -50.5t-47 -44.5t-62 -38t-68 -13t-53.5 25t-18.5 60q0 44 26.5 96t66 109t51.5 82zM472 580q22 0 37.5 -15.5
t15.5 -37.5t-15.5 -37.5t-37.5 -15.5t-37.5 15.5t-15.5 37.5t15.5 37.5t37.5 15.5zM276 580q22 0 37.5 -15.5t15.5 -37.5t-15.5 -37.5t-37.5 -15.5t-37.5 15.5t-15.5 37.5t15.5 37.5t37.5 15.5z" />
    <glyph glyph-name="dotlessi" unicode="&#x131;" horiz-adv-x="278" 
d="M132 356l143 4l-28.5 -44.5l-28.5 -44.5l-25.5 -41l-24.5 -40.5l-20.5 -36l-18.5 -34t-13 -28t-9 -25.5t-3 -19q0 -33 23 -33q78 0 257 250l8 -3q-86 -121 -141 -177q-50 -51 -88 -73.5t-84 -22.5q-40 0 -61.5 23.5t-21.5 65.5q0 11 3 24.5t7 25.5t13 30.5l15.5 31.5
t20.5 37.5l22.5 38.5l26.5 44.5z" />
    <glyph glyph-name="Lslash" unicode="&#x141;" horiz-adv-x="648" 
d="M656 354v-16l-200 -59q-19 -30 -38.5 -55t-34.5 -42.5t-39 -35.5t-35 -27.5t-41 -25.5t-39.5 -20.5l-47 -22l-48.5 -22.5v-2h34.5t36 -1t39 -2.5t35.5 -4.5t36 -8t30.5 -12.5t27.5 -17.5t19 -23.5t13 -30.5q50 53 350 336l10 -3l-358 -346q-5 -51 -43 -82.5t-84 -31.5
q-15 0 -15 12q0 6 11 18t11 37q0 77 -47 112.5t-126 35.5q-20 0 -99 -11q-68 -11 -112 -11q-51 0 -51 25q0 27 44 27q35 0 112 -7t96 -7q83 0 198 203l-165 -50v16l177 53q44 77 93 182q-59 10 -102.5 49t-43.5 95q0 55 32.5 86.5t79.5 31.5q32 0 58 -12l-3 -10
q-30 10 -55 10q-45 0 -72.5 -30.5t-27.5 -75.5q0 -51 42 -88t96 -46q55 117 173 197.5t244 80.5q64 0 108.5 -27.5t44.5 -84.5q0 -50 -40 -90t-101.5 -62.5t-125 -34t-118.5 -11.5q-32 0 -59 4q-41 -81 -68 -116l2 -2zM872 643q0 30 -16 48.5t-44 18.5q-39 0 -82.5 -31
t-80 -78t-64 -91.5t-44.5 -83.5q15 -2 51 -2q64 0 115.5 17t81.5 42.5t49.5 57t26.5 56.5t7 46z" />
    <glyph glyph-name="lslash" unicode="&#x142;" horiz-adv-x="278" 
d="M463 496l-7 -22l-161 -65q-116 -190 -155.5 -263.5t-39.5 -108.5q0 -23 21 -23q42 0 125.5 84.5t135.5 165.5l8 -4q-20 -30 -43.5 -62t-70.5 -86.5t-100 -89t-100 -34.5q-41 0 -62.5 20.5t-21.5 53.5q0 40 25.5 95.5t97.5 175.5l-2 2l-116 -48l7 21l125 51l200 337
l147 10l-166 -271l2 -2z" />
    <glyph glyph-name="OE" unicode="&#x152;" horiz-adv-x="1000" 
d="M659 174l-12 1q6 22 18 46t33 53t55 47.5t75 18.5q152 0 152 -117q0 -73 -64.5 -131.5t-156 -88t-183.5 -29.5q-110 0 -175 62q-87 -52 -177 -52q-87 0 -138 61t-51 149q0 84 44.5 171t111.5 151t148 105t151 41q44 0 70 -23t26 -67q0 -34 -22 -68l-9 7q19 32 19 60
q0 37 -22 58t-63 21q-68 0 -143.5 -74.5t-125 -182t-49.5 -198.5q0 -33 6 -63t19 -57.5t39 -44t61 -16.5q52 0 97 30q-43 41 -43 99q0 27 6.5 50.5t23 43.5t28.5 33t40.5 30t39.5 23l43 23q25 13 42.5 33.5t27.5 49t14 49.5t9 57q0 3 1.5 12.5l2 12.5t2 11t3 11.5t4 10
t5 10.5t7 9t9.5 10q-49 108 -162 108q-130 0 -238 -121l-8 7q61 63 121 94.5t138 31.5q55 0 103 -23t77 -66q93 69 184 69q165 0 165 -118q0 -49 -34 -82.5t-78 -46.5t-93 -13q-27 0 -62 11l5 9q29 -8 41 -8q59 -2 92 31.5t33 90.5q0 46 -18 80t-60 34q-49 0 -79 -43.5
t-42 -100.5q-25 -118 -49 -185t-71 -134t-131 -141q60 -102 184 -102q86 0 141 50.5t55 138.5q0 44 -24 71.5t-67 27.5q-44 0 -75.5 -34t-46.5 -84zM476 175q0 -32 11 -59q61 53 100.5 106t55 87.5t37.5 97.5q-99 -31 -151.5 -83t-52.5 -149z" />
    <glyph glyph-name="oe" unicode="&#x153;" horiz-adv-x="722" 
d="M316 360q-45 0 -95 -58t-80.5 -130.5t-30.5 -120.5q0 -23 10.5 -37t29.5 -14q45 0 95 58t80.5 130.5t30.5 120.5q0 23 -10.5 37t-29.5 14zM829 263l9 -6q-52 -73 -116 -135q-72 -69 -137 -101.5t-142 -32.5q-75 0 -110 38q-89 -38 -159 -38q-75 0 -123.5 32.5
t-48.5 103.5q0 73 46 131.5t113 87.5t139 29q93 0 140 -54q86 54 168 54q110 0 110 -66q0 -15 -7 -29t-21 -26t-28.5 -22.5t-38 -20l-39.5 -15.5t-43 -13.5l-39 -11t-37 -9t-27 -6.5q-4 -17 -4 -40q0 -41 19 -68t60 -27q82 0 210 121q61 58 106 124zM618 332q0 28 -28 28
q-41 0 -90.5 -72.5t-59.5 -123.5q80 18 129 67.5t49 100.5z" />
    <glyph glyph-name="Scaron" unicode="&#x160;" horiz-adv-x="704" 
d="M833 615q0 40 -19.5 65.5t-58.5 25.5q-70 0 -97.5 -96t-27.5 -265q0 -171 -93 -266t-264 -95q-99 0 -169 49t-70 134q0 43 21 78t62 35q28 0 46.5 -17.5t18.5 -44.5q0 -28 -15.5 -46.5t-42.5 -19.5q-4 -14 -4 -36q0 -45 40 -83t109 -37q50 1 89 17.5t63 47t40.5 64.5
t24.5 80t11 84t3 84q0 74 17 135.5t51 110t92 76t134 27.5q62 0 108.5 -28t46.5 -85q0 -99 -166 -99q50 44 50 105zM784 751h-24q-5 28 -44.5 91.5t-39.5 70.5q0 14 13 14q22 0 93 -99q29 30 74 63t72 33q10 0 10 -10q0 -9 -22.5 -25t-61.5 -52t-70 -86z" />
    <glyph glyph-name="scaron" unicode="&#x161;" horiz-adv-x="407" 
d="M516 266l7 -8q-42 -62 -80 -105t-90 -83.5t-116.5 -61t-142.5 -20.5q-64 0 -103.5 26.5t-39.5 80.5q0 36 23 58t55 22q22 0 36.5 -12.5t14.5 -35.5q0 -21 -12.5 -32.5t-29.5 -11.5q-12 0 -20 3q-5 -8 -5 -19q0 -67 67 -67q41 0 63 24t22 61q0 27 -41.5 81t-41.5 83
q0 51 45.5 87t121.5 36q59 0 95 -20t36 -56q0 -27 -18.5 -45t-45.5 -18q-24 0 -43 12q15 23 15 50t-12.5 46t-36.5 19q-23 0 -36 -15.5t-13 -42.5q0 -22 15 -46.5t32.5 -42.5t32.5 -44t15 -52q0 -63 -63 -99l2 -2q81 23 159 93t133 157zM281 422h-24q-5 28 -44.5 91.5
t-39.5 70.5q0 14 13 14q22 0 93 -99q29 30 74 63t72 33q10 0 10 -10q0 -9 -22.5 -25t-61.5 -52t-70 -86z" />
    <glyph glyph-name="Ydieresis" unicode="&#x178;" horiz-adv-x="852" 
d="M937 680l151 6q-73 -104 -233.5 -358.5l-243.5 -376.5q-88 -130 -209.5 -196t-237.5 -65q-103 1 -166.5 38t-63.5 109q0 59 49 94t109 35q47 0 108 -21l-2 -9q-30 10 -50 10q-39 0 -66.5 -35t-27.5 -83q0 -59 31 -92.5t79 -33.5q37 0 72 12t69.5 40.5t62 56.5t64.5 79
l61.5 87l68 102l69.5 105l-2 2q-39 -44 -65.5 -70t-68.5 -60t-87.5 -50t-94.5 -16q-44 0 -66.5 24t-22.5 63q0 49 45.5 130t100.5 153.5t100.5 151.5t45.5 126q0 29 -18.5 48.5t-55.5 19.5q-42 0 -92 -30t-88 -87.5t-38 -124.5q0 -78 56 -78q68 0 115 92l8 -3
q-19 -42 -57 -78.5t-90 -36.5q-90 0 -90 94q0 99 99.5 183.5t214.5 84.5q67 0 107.5 -28.5t40.5 -90.5q0 -22 -6.5 -45.5t-24 -56t-25.5 -45.5t-35.5 -53.5t-27.5 -41.5l-31 -45t-45 -67.5l-41 -67.5t-35.5 -70.5t-12.5 -52.5q0 -38 37 -38q61 0 158.5 88t179.5 221z
M904 909q22 0 37.5 -15.5t15.5 -37.5t-15.5 -37.5t-37.5 -15.5t-37.5 15.5t-15.5 37.5t15.5 37.5t37.5 15.5zM708 909q22 0 37.5 -15.5t15.5 -37.5t-15.5 -37.5t-37.5 -15.5t-37.5 15.5t-15.5 37.5t15.5 37.5t37.5 15.5z" />
    <glyph glyph-name="Zcaron" unicode="&#x17d;" horiz-adv-x="722" 
d="M148 102l2 -2q76 40 141 40q58 0 157 -32t142 -32q38 0 74 16.5t67.5 49t51.5 58.5t47 66l8 -5q-75 -117 -172 -197t-209 -80q-25 0 -52 8.5t-43 16.5t-47 25q-88 50 -145 50q-53 0 -97 -50q-5 -5 -15 -17.5t-14.5 -17.5t-12 -10t-14.5 -5q-18 0 -18 15q0 6 4 11t15 13
t24.5 16.5t38.5 26l50 36.5q18 13 124.5 105t251.5 206.5t286 208.5l-2 2q-111 -64 -209 -64q-65 0 -152 27t-117 27q-50 0 -84.5 -31.5t-34.5 -86.5q0 -39 27 -63.5t72 -24.5q77 0 122 63l8 -4q-25 -35 -61.5 -55t-69.5 -20q-54 0 -82 29.5t-28 73.5q0 83 71 147t157 64
q73 0 168 -37q93 -37 143 -37t85.5 14t49.5 31t27.5 31t25.5 14q17 0 17 -20q0 -9 -5 -14.5t-12.5 -9l-24 -11.5t-32.5 -18q-22 -14 -142 -115.5l-280.5 -229t-281.5 -202.5zM649 751h-24q-5 28 -44.5 91.5t-39.5 70.5q0 14 13 14q22 0 93 -99q29 30 74 63t72 33
q10 0 10 -10q0 -9 -22.5 -25t-61.5 -52t-70 -86z" />
    <glyph glyph-name="zcaron" unicode="&#x17e;" horiz-adv-x="463" 
d="M138 110l1 -2q3 0 11 2t13 2q29 0 86.5 -21t78.5 -21q17 0 33.5 3.5t32.5 12.5l28.5 16t29 23t26 24.5t25.5 29l22.5 28.5t23 30t20.5 27l8 -4q-28 -42 -62 -83t-80.5 -86.5t-98.5 -74t-99 -28.5q-44 0 -96.5 30t-79.5 30q-18 0 -43 -30t-40 -30q-12 0 -12 13q0 8 9.5 17
t22 16l34.5 18.5t36 20.5q16 10 66 52.5t106 81t108 55.5l-2 2q-36 -8 -83 -8q-35 0 -71 10t-46 10q-12 0 -19.5 -5t-14 -14t-9.5 -12l-7 5q81 122 144 122q28 0 92 -22t81 -22t27.5 9t13.5 20t9 20t16 9q17 0 17 -18q0 -9 -7 -16t-26.5 -20l-28.5 -19l-57 -43l-62 -46
l-52 -37t-63.5 -42t-61.5 -35zM347 422h-24q-5 28 -44.5 91.5t-39.5 70.5q0 14 13 14q22 0 93 -99q29 30 74 63t72 33q10 0 10 -10q0 -9 -22.5 -25t-61.5 -52t-70 -86z" />
    <glyph glyph-name="florin" unicode="&#x192;" horiz-adv-x="574" 
d="M248 334h-132l7 16h131q20 56 37 95.5t46.5 93t60.5 86.5t76.5 57t96.5 24q54 0 85.5 -27t31.5 -62q0 -43 -33 -70t-79 -27h-35q2 4 7.5 13.5t7.5 13.5l6 12.5t6 14.5t4 14.5t3 17t1 18.5q0 26 -10.5 44t-31.5 18q-24 0 -46 -37.5t-52 -123.5l-61 -175h134l-6 -16h-133
q-15 -40 -35.5 -100.5l-36.5 -108.5t-38.5 -106.5t-43.5 -103t-50 -88.5t-60.5 -72.5t-72.5 -46.5t-87 -18t-78 23.5t-32 69.5q0 42 33 69t77 27q18 0 38 -5q-36 -53 -36 -103q0 -61 38 -61q19 0 34 15t40 71t62 165z" />
    <glyph glyph-name="circumflex" unicode="&#x2c6;" horiz-adv-x="278" 
d="M253 598h24q5 -28 44.5 -91.5t39.5 -70.5q0 -14 -13 -14q-22 0 -93 99q-29 -30 -74 -63t-72 -33q-10 0 -10 10q0 9 22.5 25t61.5 52t70 86z" />
    <glyph glyph-name="caron" unicode="&#x2c7;" horiz-adv-x="278" 
d="M236 422h-24q-5 28 -44.5 91.5t-39.5 70.5q0 14 13 14q22 0 93 -99q29 30 74 63t72 33q10 0 10 -10q0 -9 -22.5 -25t-61.5 -52t-70 -86z" />
    <glyph glyph-name="uni02C9" unicode="&#x2c9;" horiz-adv-x="278" 
d="M143 535h207q25 0 25 -16q0 -34 -35 -34h-222q-11 0 -11 15q0 35 36 35z" />
    <glyph glyph-name="breve" unicode="&#x2d8;" horiz-adv-x="278" 
d="M117 559q0 23 13 23q8 0 17.5 -19t27.5 -38t46 -19q40 0 75.5 18t58 36t29.5 18q14 0 14 -10q0 -20 -59.5 -67t-116.5 -47q-43 0 -74 33.5t-31 71.5z" />
    <glyph glyph-name="dotaccent" unicode="&#x2d9;" horiz-adv-x="278" 
d="M244 580q22 0 37.5 -15.5t15.5 -37.5t-15.5 -37.5t-37.5 -15.5t-37.5 15.5t-15.5 37.5t15.5 37.5t37.5 15.5z" />
    <glyph glyph-name="ring" unicode="&#x2da;" horiz-adv-x="278" 
d="M127 497q0 48 41.5 81.5t94.5 33.5q34 0 60 -17.5t26 -57.5q0 -48 -42 -81.5t-91 -33.5q-37 0 -63 19.5t-26 55.5zM171 467q0 -35 34 -35q38 0 69 48t31 89q0 33 -39 33q-32 0 -63.5 -50.5t-31.5 -84.5z" />
    <glyph glyph-name="ogonek" unicode="&#x2db;" horiz-adv-x="278" 
d="M-10 -119q0 39 53 96q23 23 25 24q4 -1 6 -3l-22 -33q-26 -44 -26 -70q0 -19 14 -33t33 -14t44 12q-2 -48 -61 -48q-6 0 -14 2t-21.5 7.5t-22 21t-8.5 38.5z" />
    <glyph glyph-name="tilde" unicode="&#x2dc;" horiz-adv-x="278" 
d="M329 516q20 0 31 11.5t16 23t10 11.5q10 0 10 -14q0 -12 -5.5 -29.5t-23.5 -36t-45 -18.5q-30 0 -82 21t-71 21q-15 0 -32.5 -23t-24.5 -23q-10 0 -10 14q0 18 20.5 49t54.5 31q27 0 78 -19q53 -19 74 -19z" />
    <glyph glyph-name="hungarumlaut" unicode="&#x2dd;" horiz-adv-x="278" 
d="M374 561q0 -36 -69.5 -83.5t-93.5 -47.5q-11 0 -11 12q0 1 0.5 2.5t1.5 3t2 2.5t3.5 3l4.5 3.5t6 4l7 4.5t8.5 5t9.5 6q27 18 42 41t17.5 39.5t10 28t23.5 11.5t27 -9.5t11 -25.5zM234 553q0 -36 -69.5 -83.5t-93.5 -47.5q-11 0 -11 12q0 1 0.5 2.5t1.5 3t2 2.5t3.5 3
l4.5 3.5t6 4l7 4.5t8.5 5t9.5 6q27 18 42 41t17.5 39.5t10 28t23.5 11.5t27 -9.5t11 -25.5z" />
    <glyph glyph-name="uni03A9" unicode="&#x3a9;" horiz-adv-x="708" 
d="M622 142l-104 -142h-253l3 23q182 140 249 266q53 103 43 153t-76 50q-137 0 -246 -205q-64 -121 -35 -263l-19 -24h-256l52 142l31 1q-2 -35 6.5 -46t39.5 -11h83q-110 86 -46 207q57 107 170 171t242 64q130 0 174.5 -62t-11.5 -168q-58 -109 -275 -212h94
q30 0 48.5 10.5t53.5 46.5z" />
    <glyph glyph-name="uni03BC" unicode="&#x3bc;" 
d="M122 364l144 4l-36 -54q-93 -140 -120.5 -189t-27.5 -74q0 -13 7.5 -21t19.5 -8q43 0 124 92.5t159 241.5l145 4q-9 -15 -59.5 -88.5t-87 -137.5t-36.5 -95q0 -25 27 -25q23 0 61.5 29t79 73.5t70.5 80.5t54 68l9 -8l-38 -47l-49 -59.5t-53 -57t-59.5 -54t-59 -36
t-61.5 -15.5q-42 0 -65.5 22.5t-23.5 47.5q0 36 11 60l-2 3q-116 -133 -203 -133q-9 0 -14 2l-184 -310l-146 -4z" />
    <glyph glyph-name="pi" unicode="&#x3c0;" horiz-adv-x="557" 
d="M586 390l22 -9q-17 -27 -48.5 -63t-47.5 -45q-27 -5 -63 -5q-36 -56 -81 -145q-34 -64 5 -64q17 0 44 12l-2 -26q-31 -24 -73 -39.5t-75 -15.5q-100 0 -44 106q38 72 101 173q-62 2 -108 2l-4 -7q-42 -79 -88 -141t-70.5 -86t-38.5 -33q-47 -12 -69 -14l3 20
q68 51 129.5 127t92.5 135q-65 1 -134 -30l-2 28q71 55 105 71q51 23 112 22q35 0 125.5 -1t135.5 -1q39 0 73 29z" />
    <glyph glyph-name="endash" unicode="&#x2013;" horiz-adv-x="500" 
d="M18 221h500l-58 -82h-500z" />
    <glyph glyph-name="emdash" unicode="&#x2014;" horiz-adv-x="1000" 
d="M18 221h1000l-58 -82h-1000z" />
    <glyph glyph-name="quoteleft" unicode="&#x2018;" horiz-adv-x="222" 
d="M375 656v-8q-191 -11 -212 -154q25 10 38 10q19 0 32.5 -14t13.5 -38q0 -30 -20 -50t-54 -20q-35 0 -56.5 24.5t-21.5 58.5q0 42 25 81.5t70 64.5q77 43 185 45z" />
    <glyph glyph-name="quoteright" unicode="&#x2019;" horiz-adv-x="222" 
d="M104 382v8q191 11 212 154q-25 -10 -38 -10q-19 0 -32.5 14t-13.5 38q0 30 20 50t54 20q35 0 56.5 -24.5t21.5 -58.5q0 -42 -25 -81.5t-70 -64.5q-77 -43 -185 -45z" />
    <glyph glyph-name="quotesinglbase" unicode="&#x201a;" horiz-adv-x="222" 
d="M-86 -152v8q191 11 212 154q-25 -10 -38 -10q-19 0 -32.5 14t-13.5 38q0 30 20 50t54 20q35 0 56.5 -24.5t21.5 -58.5q0 -42 -25 -81.5t-70 -64.5q-77 -43 -185 -45z" />
    <glyph glyph-name="quotedblleft" unicode="&#x201c;" horiz-adv-x="389" 
d="M374 656v-8q-191 -11 -212 -154q25 10 38 10q19 0 32.5 -14t13.5 -38q0 -30 -20 -50t-54 -20q-35 0 -56.5 24.5t-21.5 58.5q0 42 25 81.5t70 64.5q77 43 185 45zM614 656v-8q-191 -11 -212 -154q25 10 38 10q19 0 32.5 -14t13.5 -38q0 -30 -20 -50t-54 -20
q-35 0 -56.5 24.5t-21.5 58.5q0 42 25 81.5t70 64.5q77 43 185 45z" />
    <glyph glyph-name="quotedblright" unicode="&#x201d;" horiz-adv-x="389" 
d="M32 382v8q191 11 212 154q-25 -10 -38 -10q-19 0 -32.5 14t-13.5 38q0 30 20 50t54 20q35 0 56.5 -24.5t21.5 -58.5q0 -42 -25 -81.5t-70 -64.5q-77 -43 -185 -45zM272 382v8q191 11 212 154q-25 -10 -38 -10q-19 0 -32.5 14t-13.5 38q0 30 20 50t54 20q35 0 56.5 -24.5
t21.5 -58.5q0 -42 -25 -81.5t-70 -64.5q-77 -43 -185 -45z" />
    <glyph glyph-name="quotedblbase" unicode="&#x201e;" horiz-adv-x="389" 
d="M-158 -153v8q191 11 212 154q-25 -10 -38 -10q-19 0 -32.5 14t-13.5 38q0 30 20 50t54 20q35 0 56.5 -24.5t21.5 -58.5q0 -42 -25 -81.5t-70 -64.5q-77 -43 -185 -45zM82 -153v8q191 11 212 154q-25 -10 -38 -10q-19 0 -32.5 14t-13.5 38q0 30 20 50t54 20
q35 0 56.5 -24.5t21.5 -58.5q0 -42 -25 -81.5t-70 -64.5q-77 -43 -185 -45z" />
    <glyph glyph-name="dagger" unicode="&#x2020;" horiz-adv-x="500" 
d="M582 431h-169l-365 -541h-51l295 541h-170l19 40h172l98 181q20 38 37 54t45 16t45.5 -17t17.5 -44q0 -25 -41 -84l-75 -106h162z" />
    <glyph glyph-name="daggerdbl" unicode="&#x2021;" horiz-adv-x="500" 
d="M582 431h-169l-65 -96h180l-20 -40h-187l-273 -405h-51l221 405h-170l19 40h173l52 96h-170l19 40h172l98 181q20 38 37 54t45 16t45.5 -17t17.5 -44q0 -25 -41 -84l-75 -106h162z" />
    <glyph glyph-name="bullet" unicode="&#x2022;" horiz-adv-x="500" 
d="M101 352q0 73 51.5 124.5t124.5 51.5t124.5 -51.5t51.5 -124.5t-51.5 -124.5t-124.5 -51.5t-124.5 51.5t-51.5 124.5z" />
    <glyph glyph-name="ellipsis" unicode="&#x2026;" horiz-adv-x="1000" 
d="M442 142q32 0 54 -22t22 -54t-22 -54t-54 -22t-54 22t-22 54t22 54t54 22zM116 142q32 0 54 -22t22 -54t-22 -54t-54 -22t-54 22t-22 54t22 54t54 22zM768 142q32 0 54 -22t22 -54t-22 -54t-54 -22t-54 22t-22 54t22 54t54 22z" />
    <glyph glyph-name="perthousand" unicode="&#x2030;" horiz-adv-x="1130" 
d="M617 302q54 0 86.5 -29t32.5 -82q0 -81 -77.5 -142t-160.5 -61q-51 0 -86 28.5t-35 78.5q0 86 76 146.5t164 60.5zM660 250q0 40 -34 40q-42 0 -107.5 -93.5t-65.5 -160.5q0 -36 30 -36q38 0 81 48.5t69.5 107.5t26.5 94zM292 482q0 40 -33 40q-41 0 -107 -97.5
t-66 -158.5q0 -34 30 -34q38 0 81 48.5t69 107.5t26 94zM10 327q0 86 76 146.5t164 60.5q35 0 59.5 -10.5t37 -26t22.5 -31t24.5 -26t34.5 -10.5q35 0 63.5 20.5t42.5 44.5t30 44.5t29 20.5q12 0 20 -7t8 -18q0 -5 -1.5 -9.5t-5.5 -10t-6 -9t-8 -10.5t-8 -9l-456 -547l-7 5
l371 497l-2 2q-37 -26 -74 -26q-33 0 -54 29h-2v-11q0 -90 -76.5 -153t-160.5 -63q-51 0 -86 28.5t-35 78.5zM1008 302q54 0 86.5 -29t32.5 -82q0 -81 -77.5 -142t-160.5 -61q-51 0 -86 28.5t-35 78.5q0 86 76 146.5t164 60.5zM1051 250q0 40 -34 40q-42 0 -107.5 -93.5
t-65.5 -160.5q0 -36 30 -36q38 0 81 48.5t69.5 107.5t26.5 94z" />
    <glyph glyph-name="guilsinglleft" unicode="&#x2039;" horiz-adv-x="352" 
d="M241 15l-145 160l240 170l8 -8l-151 -161l57 -155z" />
    <glyph glyph-name="guilsinglright" unicode="&#x203a;" horiz-adv-x="352" 
d="M145 345l145 -160l-240 -170l-8 8l150 161l-56 155z" />
    <glyph glyph-name="fraction" unicode="&#x2044;" horiz-adv-x="167" 
d="M366 552l-478 -564h-46l478 564h46z" />
    <glyph glyph-name="Euro" unicode="&#x20ac;" horiz-adv-x="574" 
d="M500 101l12 -10q-3 -3 -13 -14t-13 -13.5t-11 -11t-12 -11.5t-11.5 -9.5t-13.5 -10l-14 -8.5t-17 -10q-56 -30 -165 -30q-91 0 -143 46t-52 128q0 31 4 55h-59l8 16h54q4 26 12 48h-50l8 16h48q47 123 166 196t243 73q150 0 150 -100q0 -47 -33 -78.5t-87 -31.5h-12
q1 7 4.5 22t6 31.5t2.5 34.5q0 106 -55 106q-57 0 -135 -76.5t-116 -176.5h240l-8 -16h-238q-8 -24 -12 -48h230l-8 -16h-224q-3 -20 -3 -38q0 -67 37.5 -106.5t111.5 -39.5q57 0 97 24q35 21 71 59z" />
    <glyph glyph-name="afii61289" unicode="&#x2113;" horiz-adv-x="425" 
d="M322 124l9 -22q-128 -113 -241 -113q-72 0 -90 33q-16 42 29 129l14 25l-70 -29l3 29l89 42l50 95q45 84 79 128.5t79 76.5q78 57 148 57q36 0 50.5 -18t11 -43t-19.5 -55q-34 -64 -98.5 -115.5t-171.5 -106.5l-29 -56q-68 -126 14 -126q54 0 144 69zM260 363l-41 -78
q43 31 65.5 49t52 51.5t50.5 73.5q7 13 12 26t8 26t-0.5 21t-14.5 8q-25 0 -51.5 -37.5t-80.5 -139.5z" />
    <glyph glyph-name="trademark" unicode="&#x2122;" horiz-adv-x="990" 
d="M279 682v-306q0 -33 6.5 -39.5t43.5 -10.5v-24h-186v24q37 4 43.5 10.5t6.5 39.5v306h-48q-51 0 -66 -64h-24v88h361v-88h-24q-15 64 -65 64h-48zM690 301l-143 297h-2v-204q0 -38 9 -51.5t43 -16.5v-24h-132v24q33 3 41.5 16.5t8.5 51.5v239q-9 23 -28 37t-41 14v22h133
l146 -296l154 296h114v-22q-33 -1 -43.5 -12.5t-10.5 -38.5v-257q0 -33 6 -39.5t43 -10.5v-24h-185v24q37 4 43.5 10.5t6.5 39.5v223h-2l-149 -298h-12z" />
    <glyph glyph-name="Omega" unicode="&#x2126;" horiz-adv-x="708" 
d="M622 142l-104 -142h-253l3 23q182 140 249 266q53 103 43 153t-76 50q-137 0 -246 -205q-64 -121 -35 -263l-19 -24h-256l52 142l31 1q-2 -35 6.5 -46t39.5 -11h83q-110 86 -46 207q57 107 170 171t242 64q130 0 174.5 -62t-11.5 -168q-58 -109 -275 -212h94
q30 0 48.5 10.5t53.5 46.5z" />
    <glyph glyph-name="estimated" unicode="&#x212e;" horiz-adv-x="801" 
d="M775 250h-485q-4 0 -4 -3v-147q0 -8 7 -17q78 -80 183 -80q115 0 193 90h43q-40 -48 -102.5 -76t-134.5 -28q-124 0 -211.5 78.5t-87.5 189.5q0 112 87.5 191t211.5 79t212 -79t88 -191v-7zM665 269v148q0 10 -7 17q-79 77 -182 77q-105 0 -182 -79q-8 -8 -8 -19v-144
q0 -5 4 -5h372q3 0 3 5z" />
    <glyph glyph-name="partialdiff" unicode="&#x2202;" horiz-adv-x="515" 
d="M289 335q34 0 58.5 -13.5t27.5 -35.5q33 45 52 82q40 75 39 115q-1 23 -14.5 36.5t-35.5 13.5q-60 0 -177 -67q-10 0 -15.5 14.5t-2.5 35t17 34.5q86 30 155 30q133 0 150 -111q10 -74 -40 -170q-59 -110 -151 -192q-133 -118 -270 -118q-81 0 -106 46.5t15 119.5
q40 77 122 128q85 52 176 52zM301 289q-50 0 -101 -42q-62 -53 -103 -131q-14 -27 -19 -47t2.5 -32.5t27.5 -12.5q45 0 115 70q59 59 122 150q-2 45 -44 45z" />
    <glyph glyph-name="Delta" unicode="&#x2206;" horiz-adv-x="609" 
d="M447 0h-543l17 32l492 482l71 14l-20 -496zM318 56l23 342l-340 -342h317z" />
    <glyph glyph-name="product" unicode="&#x220f;" horiz-adv-x="817" 
d="M791 537v-30q-55 -4 -67 -15.5t-12 -58.5v-386q0 -48 12.5 -60t67.5 -16v-31h-281v31q50 4 59.5 14.5t9.5 62.5v422q0 19 -5 23t-25 4h-133q-19 0 -24 -4.5t-5 -22.5v-422q0 -52 9 -62.5t55 -14.5v-31h-274v31q53 4 65.5 16.5t12.5 60.5v385q0 46 -13 58t-68 16v30h616z
" />
    <glyph glyph-name="summation" unicode="&#x2211;" horiz-adv-x="679" 
d="M658 122l-44 -188h-441v34l189 241l-182 295v33h431l12 -153l-32 -9q-20 66 -38 93q-13 20 -29 27t-61 7h-127l134 -225l-192 -245h217q59 0 77 13.5t54 86.5z" />
    <glyph glyph-name="minus" unicode="&#x2212;" horiz-adv-x="600" 
d="M472 148h-360v64h360v-64z" />
    <glyph glyph-name="uni2215" unicode="&#x2215;" horiz-adv-x="167" 
d="M366 552l-478 -564h-46l478 564h46z" />
    <glyph glyph-name="uni2219" unicode="&#x2219;" horiz-adv-x="287" 
d="M125 256q31 0 53.5 -22t22.5 -54t-22.5 -54t-53.5 -22t-53.5 22t-22.5 54t22.5 54t53.5 22z" />
    <glyph glyph-name="radical" unicode="&#x221a;" horiz-adv-x="644" 
d="M642 666l-150 -775l-32 -14l-191 406l-75 -35l-12 37l171 79l128 -289h2l112 601z" />
    <glyph glyph-name="infinity" unicode="&#x221e;" horiz-adv-x="689" 
d="M653 216v-1q0 -65 -40 -104.5t-94 -39.5q-82 0 -146 88q-36 -43 -69 -65.5t-77 -22.5q-54 0 -93.5 39t-39.5 101t40 102t100 40q80 0 146 -85l13 14q13 15 16 18t16 15t21 16l21 11t27 9t29 2q55 -1 92.5 -38.5t37.5 -98.5zM234 138h1q45 0 102 70l-23.5 31.5t-21 23
t-28.5 19.5t-32 5q-30 0 -49.5 -20.5t-19.5 -55.5q0 -30 20.5 -51.5t50.5 -21.5zM515 287q-6 0 -13 -1.5t-12 -3t-11.5 -6t-11 -7t-11 -8.5t-9.5 -8.5t-9.5 -10.5t-8 -9.5t-8.5 -10t-8 -9.5q33 -44 56.5 -59.5t49.5 -15.5q29 0 47 22.5t18 49.5q0 34 -19 55.5t-50 21.5z" />
    <glyph glyph-name="integral" unicode="&#x222b;" horiz-adv-x="510" 
d="M293 -17l-18 302q-5 86 4 152t26 102t41.5 58.5t45 29.5t42.5 7q25 0 46 -13t21 -34q0 -26 -14.5 -39.5t-35.5 -13.5q-14 0 -23.5 14t-16 28.5t-13.5 14.5q-25 0 -19 -114l15 -288q5 -97 -6 -169t-35 -111t-54 -57.5t-65 -18.5q-27 0 -47.5 15t-21.5 36q-1 22 20 38.5
t43 16.5q16 0 27 -31.5t18 -31.5q26 0 20 107z" />
    <glyph glyph-name="approxequal" unicode="&#x2248;" horiz-adv-x="546" 
d="M471 357l48 -50q-58 -80 -127 -80q-39 0 -98 31q-46 25 -73 25q-42 0 -90 -55l-47 49q22 33 60.5 56.5t77.5 23.5q46 0 91 -27q47 -29 74 -29q44 0 84 56zM471 201l48 -49q-56 -80 -128 -80q-40 0 -97 31q-46 24 -72 24q-27 0 -47 -14t-44 -41l-47 49q22 33 61 56.5
t78 23.5q44 0 89 -26q3 -2 13.5 -8.5t14.5 -8.5t13 -5.5t16.5 -5t16.5 -1.5q24 0 43 13t42 42z" />
    <glyph glyph-name="notequal" unicode="&#x2260;" horiz-adv-x="579" 
d="M458 394l-30 -63h112v-72h-144l-46 -97h190v-71h-222l-43 -93l-59 28l30 65h-111v71h144l45 97h-189v72h221l42 90z" />
    <glyph glyph-name="lessequal" unicode="&#x2264;" horiz-adv-x="630" 
d="M591 99l-404 171v76l403 170v-78l-323 -129v-2l324 -129v-79zM591 -1h-405v73h405v-73z" />
    <glyph glyph-name="greaterequal" unicode="&#x2265;" horiz-adv-x="631" 
d="M187 516l404 -170v-77l-403 -170v79l322 129v2l-323 129v78zM586 -1h-400v73h400v-73z" />
    <glyph glyph-name="lozenge" unicode="&#x25ca;" horiz-adv-x="678" 
d="M644 252l-185 -312h-88l-185 312l187 314h86zM558 252l-141 246h-4l-141 -246l142 -248h2z" />
    <glyph glyph-name="a.begin" unicode="&#xe000;" horiz-adv-x="628" 
d="M492 356l142 4q-7 -11 -44.5 -65l-63 -92.5t-49 -86.5t-23.5 -73q0 -29 23 -29q70 0 258 247l6 -4q-6 -7 -17 -22q-49 -64 -75.5 -95.5t-67 -73.5t-75.5 -60t-70 -18q-26 0 -44 8t-26.5 18t-13.5 27t-5.5 26.5t-0.5 25.5l-3 2q-90 -107 -172 -107q-97 0 -97 120v11
q-109 -112 -198 -147l-5 9q93 39 206 159q16 89 100.5 160.5t200.5 71.5q72 0 86 -68h2zM237 32q28 0 74.5 44.5t84.5 113t38 124.5q0 21 -13 33.5t-31 12.5q-39 0 -83.5 -50t-73.5 -116t-29 -112q0 -50 33 -50z" />
    <glyph glyph-name="aacute.begin" unicode="&#xe001;" horiz-adv-x="628" 
d="M237 32q28 0 74.5 44.5t84.5 113t38 124.5q0 21 -13 33.5t-31 12.5q-39 0 -83.5 -50t-73.5 -116t-29 -112q0 -50 33 -50zM74 119q-109 -112 -198 -147l-5 9q93 39 206 159q16 89 100.5 160.5t200.5 71.5q72 0 86 -68h2l26 52l142 4q-7 -11 -44.5 -65l-63 -92.5t-49 -86.5
t-23.5 -73q0 -29 23 -29q70 0 258 247l6 -4q-6 -7 -17 -22q-49 -64 -75.5 -95.5t-67 -73.5t-75.5 -60t-70 -18q-26 0 -44 8t-26.5 18t-13.5 27t-5.5 26.5t-0.5 25.5l-3 2q-90 -107 -172 -107q-97 0 -97 120v11zM608 561q0 -36 -69.5 -83.5t-93.5 -47.5q-11 0 -11 12
q0 1 0.5 2.5t1.5 3t2 2.5t3.5 3l4.5 3.5t6 4l7 4.5t8.5 5t9.5 6q27 18 42 41t17.5 39.5t10 28t23.5 11.5t27 -9.5t11 -25.5z" />
    <glyph glyph-name="acircumflex.begin" unicode="&#xe002;" horiz-adv-x="628" 
d="M237 32q28 0 74.5 44.5t84.5 113t38 124.5q0 21 -13 33.5t-31 12.5q-39 0 -83.5 -50t-73.5 -116t-29 -112q0 -50 33 -50zM74 119q-109 -112 -198 -147l-5 9q93 39 206 159q16 89 100.5 160.5t200.5 71.5q72 0 86 -68h2l26 52l142 4q-7 -11 -44.5 -65l-63 -92.5t-49 -86.5
t-23.5 -73q0 -29 23 -29q70 0 258 247l6 -4q-6 -7 -17 -22q-49 -64 -75.5 -95.5t-67 -73.5t-75.5 -60t-70 -18q-26 0 -44 8t-26.5 18t-13.5 27t-5.5 26.5t-0.5 25.5l-3 2q-90 -107 -172 -107q-97 0 -97 120v11zM487 598h24q5 -28 44.5 -91.5t39.5 -70.5q0 -14 -13 -14
q-22 0 -93 99q-29 -30 -74 -63t-72 -33q-10 0 -10 10q0 9 22.5 25t61.5 52t70 86z" />
    <glyph glyph-name="adieresis.begin" unicode="&#xe003;" horiz-adv-x="628" 
d="M237 32q28 0 74.5 44.5t84.5 113t38 124.5q0 21 -13 33.5t-31 12.5q-39 0 -83.5 -50t-73.5 -116t-29 -112q0 -50 33 -50zM74 119q-109 -112 -198 -147l-5 9q93 39 206 159q16 89 100.5 160.5t200.5 71.5q72 0 86 -68h2l26 52l142 4q-7 -11 -44.5 -65l-63 -92.5t-49 -86.5
t-23.5 -73q0 -29 23 -29q70 0 258 247l6 -4q-6 -7 -17 -22q-49 -64 -75.5 -95.5t-67 -73.5t-75.5 -60t-70 -18q-26 0 -44 8t-26.5 18t-13.5 27t-5.5 26.5t-0.5 25.5l-3 2q-90 -107 -172 -107q-97 0 -97 120v11zM576 580q22 0 37.5 -15.5t15.5 -37.5t-15.5 -37.5t-37.5 -15.5
t-37.5 15.5t-15.5 37.5t15.5 37.5t37.5 15.5zM380 580q22 0 37.5 -15.5t15.5 -37.5t-15.5 -37.5t-37.5 -15.5t-37.5 15.5t-15.5 37.5t15.5 37.5t37.5 15.5z" />
    <glyph glyph-name="ae.begin" unicode="&#xe004;" horiz-adv-x="794" 
d="M380 360q-39 0 -83.5 -50t-73.5 -116t-29 -112q0 -50 33 -50q28 0 74.5 44.5t84.5 113t38 124.5q0 21 -13 33.5t-31 12.5zM676 332q0 28 -28 28q-41 0 -90.5 -72.5t-59.5 -123.5q80 18 129 67.5t49 100.5zM64 109q-107 -105 -188 -137l-5 9q82 33 194 147q11 91 97 167.5
t206 76.5q72 0 86 -68h2l26 52l108 4q39 12 76 12q110 0 110 -66q0 -15 -7 -29t-21 -26t-28.5 -22.5t-38 -20l-39.5 -15.5t-43 -13.5l-39 -11t-37 -9t-27 -6.5q-4 -17 -4 -40q0 -41 19 -68t60 -27q82 0 210 121q61 58 106 124l9 -6q-52 -73 -116 -135q-72 -69 -137 -101.5
t-142 -32.5q-135 0 -135 125q0 16 5 28l-2 2q-102 -155 -208 -155q-97 0 -97 120v1z" />
    <glyph glyph-name="agrave.begin" unicode="&#xe005;" horiz-adv-x="628" 
d="M237 32q28 0 74.5 44.5t84.5 113t38 124.5q0 21 -13 33.5t-31 12.5q-39 0 -83.5 -50t-73.5 -116t-29 -112q0 -50 33 -50zM74 119q-109 -112 -198 -147l-5 9q93 39 206 159q16 89 100.5 160.5t200.5 71.5q72 0 86 -68h2l26 52l142 4q-7 -11 -44.5 -65l-63 -92.5t-49 -86.5
t-23.5 -73q0 -29 23 -29q70 0 258 247l6 -4q-6 -7 -17 -22q-49 -64 -75.5 -95.5t-67 -73.5t-75.5 -60t-70 -18q-26 0 -44 8t-26.5 18t-13.5 27t-5.5 26.5t-0.5 25.5l-3 2q-90 -107 -172 -107q-97 0 -97 120v11zM347 561q0 16 11 25.5t27 9.5t23.5 -11.5t10 -28t17.5 -39.5
t42 -41q4 -3 9.5 -6t8.5 -5l7 -4.5t6 -4l4.5 -3.5t3.5 -3t2 -2.5t1.5 -3t0.5 -2.5q0 -12 -11 -12q-24 0 -93.5 47.5t-69.5 83.5z" />
    <glyph glyph-name="aring.begin" unicode="&#xe006;" horiz-adv-x="628" 
d="M237 32q28 0 74.5 44.5t84.5 113t38 124.5q0 21 -13 33.5t-31 12.5q-39 0 -83.5 -50t-73.5 -116t-29 -112q0 -50 33 -50zM74 119q-109 -112 -198 -147l-5 9q93 39 206 159q16 89 100.5 160.5t200.5 71.5q72 0 86 -68h2l26 52l142 4q-7 -11 -44.5 -65l-63 -92.5t-49 -86.5
t-23.5 -73q0 -29 23 -29q70 0 258 247l6 -4q-6 -7 -17 -22q-49 -64 -75.5 -95.5t-67 -73.5t-75.5 -60t-70 -18q-26 0 -44 8t-26.5 18t-13.5 27t-5.5 26.5t-0.5 25.5l-3 2q-90 -107 -172 -107q-97 0 -97 120v11zM361 497q0 48 41.5 81.5t94.5 33.5q34 0 60 -17.5t26 -57.5
q0 -48 -42 -81.5t-91 -33.5q-37 0 -63 19.5t-26 55.5zM405 467q0 -35 34 -35q38 0 69 48t31 89q0 33 -39 33q-32 0 -63.5 -50.5t-31.5 -84.5z" />
    <glyph glyph-name="atilde.begin" unicode="&#xe007;" horiz-adv-x="628" 
d="M237 32q28 0 74.5 44.5t84.5 113t38 124.5q0 21 -13 33.5t-31 12.5q-39 0 -83.5 -50t-73.5 -116t-29 -112q0 -50 33 -50zM74 119q-109 -112 -198 -147l-5 9q93 39 206 159q16 89 100.5 160.5t200.5 71.5q72 0 86 -68h2l26 52l142 4q-7 -11 -44.5 -65l-63 -92.5t-49 -86.5
t-23.5 -73q0 -29 23 -29q70 0 258 247l6 -4q-6 -7 -17 -22q-49 -64 -75.5 -95.5t-67 -73.5t-75.5 -60t-70 -18q-26 0 -44 8t-26.5 18t-13.5 27t-5.5 26.5t-0.5 25.5l-3 2q-90 -107 -172 -107q-97 0 -97 120v11zM563 516q20 0 31 11.5t16 23t10 11.5q10 0 10 -14
q0 -12 -5.5 -29.5t-23.5 -36t-45 -18.5q-30 0 -82 21t-71 21q-15 0 -32.5 -23t-24.5 -23q-10 0 -10 14q0 18 20.5 49t54.5 31q27 0 78 -19q53 -19 74 -19z" />
    <glyph glyph-name="b.begin" unicode="&#xe008;" horiz-adv-x="609" 
d="M410 696l146 10l-124 -202q-170 -276 -212 -353t-40 -114q3 -37 39 -37q68 0 132.5 88t86.5 178q-6 20 -6 35q0 28 18 49.5t48 21.5q29 0 46.5 -20.5t17.5 -57.5q0 -24 -7 -52q28 -30 70 -30q46 0 91 53l6 -8q-15 -17 -24.5 -26t-30.5 -20t-44 -11q-42 0 -70 30
q-31 -104 -127 -173t-204 -69q-64 0 -101 34.5t-37 94.5q0 9 1 13q-115 -122 -209 -158l-5 9q96 39 219 173q6 21 18.5 47t42 75.5l57.5 94l89.5 143.5z" />
    <glyph glyph-name="c.begin" unicode="&#xe009;" horiz-adv-x="498" 
d="M608 266l8 -7l-54 -67.5t-52.5 -58.5t-66.5 -62q-102 -83 -220 -83q-60 0 -101.5 29.5t-41.5 86.5q0 15 1 22q-113 -118 -205 -154l-5 9q94 39 214 168q14 63 65.5 115.5t117 80t127.5 27.5q49 0 78.5 -17t29.5 -49q0 -39 -32 -61t-79 -22h-8q3 21 3 58t-6.5 54t-24.5 17
q-27 0 -61.5 -39t-59.5 -96t-25 -102q0 -44 22 -70.5t64 -26.5q79 0 195 113q46 45 117 135z" />
    <glyph glyph-name="ccedilla.begin" unicode="&#xe00a;" horiz-adv-x="498" 
d="M608 266l8 -7l-54 -67.5t-52.5 -58.5t-66.5 -62q-102 -83 -220 -83q-7 0 -10 1l-39 -55q24 3 25 3q30 0 50 -15t20 -44q0 -33 -31.5 -54.5t-87.5 -21.5q-24 0 -65.5 9.5t-41.5 25.5q0 12 11 12q5 0 37 -8.5t57 -8.5q63 0 63 44q0 13 -11 21t-27 8q-8 0 -22 -1.5t-20 -1.5
q-7 0 -7 7q0 9 22 42l28 43q-42 10 -68 38t-26 72q0 15 1 22q-113 -118 -205 -154l-5 9q94 39 214 168q14 63 65.5 115.5t117 80t127.5 27.5q49 0 78.5 -17t29.5 -49q0 -39 -32 -61t-79 -22h-8q3 21 3 58t-6.5 54t-24.5 17q-27 0 -61.5 -39t-59.5 -96t-25 -102
q0 -44 22 -70.5t64 -26.5q79 0 195 113q46 45 117 135z" />
    <glyph glyph-name="d.begin" unicode="&#xe00b;" horiz-adv-x="628" 
d="M682 696l144 10l-320 -537.5t-55 -127.5q0 -27 27 -27q39 0 111 72q65 65 143 176l9 -5q-88 -125 -155 -190q-80 -79 -153 -79q-38 0 -61 23.5t-23 60.5q0 11 5 24l-2 2q-86 -110 -188 -110q-44 0 -68.5 30t-24.5 74q0 9 2 25q-109 -111 -197 -145l-5 9q86 35 205 159
q22 97 114.5 164.5t192.5 67.5q31 0 51.5 -18.5t27.5 -48.5zM432 309q0 51 -40 51q-38 0 -84 -49.5t-76.5 -115t-30.5 -111.5q0 -52 35 -52q44 0 91.5 54t76 118.5t28.5 104.5z" />
    <glyph glyph-name="dotlessi.begin" unicode="&#xe00c;" horiz-adv-x="350" 
d="M204 356l143 4l-28.5 -44.5l-28.5 -44.5l-25.5 -41l-24.5 -40.5l-20.5 -36l-18.5 -34t-13 -28t-9 -25.5t-3 -19q0 -33 23 -33q78 0 257 250l8 -3q-86 -121 -141 -177q-50 -51 -88 -73.5t-84 -22.5q-40 0 -61.5 23.5t-21.5 65.5q0 18 8 44q-112 -115 -200 -149l-5 9
q93 38 217 171q8 19 22 44.5l24.5 43.5l34.5 58z" />
    <glyph glyph-name="e.begin" unicode="&#xe00d;" horiz-adv-x="498" 
d="M607 263l9 -6q-52 -73 -116 -135q-72 -69 -137 -101.5t-142 -32.5q-68 0 -104.5 32t-36.5 93v13q-113 -118 -204 -154l-5 9q91 37 213 166q19 90 114.5 157.5t187.5 67.5q110 0 110 -66q0 -25 -21 -47.5t-47 -37t-69.5 -29t-67 -20.5l-60.5 -15q-12 -3 -17 -4
q-4 -17 -4 -40q0 -41 19 -68t62 -27q82 0 210 121q61 58 106 124zM396 332q0 28 -28 28q-41 0 -91.5 -72.5t-60.5 -123.5q81 18 130.5 67t49.5 101z" />
    <glyph glyph-name="eacute.begin" unicode="&#xe00e;" horiz-adv-x="498" 
d="M396 332q0 28 -28 28q-41 0 -91.5 -72.5t-60.5 -123.5q81 18 130.5 67t49.5 101zM80 126q-113 -118 -204 -154l-5 9q91 37 213 166q19 90 114.5 157.5t187.5 67.5q110 0 110 -66q0 -25 -21 -47.5t-47 -37t-69.5 -29t-67 -20.5l-60.5 -15q-12 -3 -17 -4q-4 -17 -4 -40
q0 -41 19 -68t62 -27q82 0 210 121q61 58 106 124l9 -6q-52 -73 -116 -135q-72 -69 -137 -101.5t-142 -32.5q-68 0 -104.5 32t-36.5 93v13zM561 561q0 -36 -69.5 -83.5t-93.5 -47.5q-11 0 -11 12q0 1 0.5 2.5t1.5 3t2 2.5t3.5 3l4.5 3.5t6 4l7 4.5t8.5 5t9.5 6q27 18 42 41
t17.5 39.5t10 28t23.5 11.5t27 -9.5t11 -25.5z" />
    <glyph glyph-name="ecircumflex.begin" unicode="&#xe00f;" horiz-adv-x="498" 
d="M396 332q0 28 -28 28q-41 0 -91.5 -72.5t-60.5 -123.5q81 18 130.5 67t49.5 101zM80 126q-113 -118 -204 -154l-5 9q91 37 213 166q19 90 114.5 157.5t187.5 67.5q110 0 110 -66q0 -25 -21 -47.5t-47 -37t-69.5 -29t-67 -20.5l-60.5 -15q-12 -3 -17 -4q-4 -17 -4 -40
q0 -41 19 -68t62 -27q82 0 210 121q61 58 106 124l9 -6q-52 -73 -116 -135q-72 -69 -137 -101.5t-142 -32.5q-68 0 -104.5 32t-36.5 93v13zM440 598h24q5 -28 44.5 -91.5t39.5 -70.5q0 -14 -13 -14q-22 0 -93 99q-29 -30 -74 -63t-72 -33q-10 0 -10 10q0 9 22.5 25t61.5 52
t70 86z" />
    <glyph glyph-name="edieresis.begin" unicode="&#xe010;" horiz-adv-x="498" 
d="M396 332q0 28 -28 28q-41 0 -91.5 -72.5t-60.5 -123.5q81 18 130.5 67t49.5 101zM80 126q-113 -118 -204 -154l-5 9q91 37 213 166q19 90 114.5 157.5t187.5 67.5q110 0 110 -66q0 -25 -21 -47.5t-47 -37t-69.5 -29t-67 -20.5l-60.5 -15q-12 -3 -17 -4q-4 -17 -4 -40
q0 -41 19 -68t62 -27q82 0 210 121q61 58 106 124l9 -6q-52 -73 -116 -135q-72 -69 -137 -101.5t-142 -32.5q-68 0 -104.5 32t-36.5 93v13zM529 580q22 0 37.5 -15.5t15.5 -37.5t-15.5 -37.5t-37.5 -15.5t-37.5 15.5t-15.5 37.5t15.5 37.5t37.5 15.5zM333 580
q22 0 37.5 -15.5t15.5 -37.5t-15.5 -37.5t-37.5 -15.5t-37.5 15.5t-15.5 37.5t15.5 37.5t37.5 15.5z" />
    <glyph glyph-name="egrave.begin" unicode="&#xe011;" horiz-adv-x="498" 
d="M396 332q0 28 -28 28q-41 0 -91.5 -72.5t-60.5 -123.5q81 18 130.5 67t49.5 101zM80 126q-113 -118 -204 -154l-5 9q91 37 213 166q19 90 114.5 157.5t187.5 67.5q110 0 110 -66q0 -25 -21 -47.5t-47 -37t-69.5 -29t-67 -20.5l-60.5 -15q-12 -3 -17 -4q-4 -17 -4 -40
q0 -41 19 -68t62 -27q82 0 210 121q61 58 106 124l9 -6q-52 -73 -116 -135q-72 -69 -137 -101.5t-142 -32.5q-68 0 -104.5 32t-36.5 93v13zM300 561q0 16 11 25.5t27 9.5t23.5 -11.5t10 -28t17.5 -39.5t42 -41q4 -3 9.5 -6t8.5 -5l7 -4.5t6 -4l4.5 -3.5t3.5 -3t2 -2.5
t1.5 -3t0.5 -2.5q0 -12 -11 -12q-24 0 -93.5 47.5t-69.5 83.5z" />
    <glyph glyph-name="eth.begin" unicode="&#xe012;" horiz-adv-x="609" 
d="M388 360q-45 0 -95 -58t-80.5 -130.5t-30.5 -120.5q0 -23 10.5 -37t29.5 -14q45 0 95 58t80.5 130.5t30.5 120.5q0 23 -10.5 37t-29.5 14zM711 519h-117q-18 -180 -43 -266q30 -41 71 -41q50 0 95 53l8 -8l-6 -7q-6 -6 -10 -9.5l-12 -10.5t-15.5 -11.5t-17 -9t-20.5 -7
t-22 -2.5q-48 0 -77 35q-26 -106 -106 -176.5t-193 -70.5q-74 0 -122 31t-50 100q-109 -112 -198 -147l-5 9q86 35 203 157q6 103 97.5 168.5t200.5 65.5q47 0 84 -16q6 23 8.5 82t5.5 81h-104q-6 0 -6 6t6 6h105q13 100 61.5 145.5t139.5 45.5q95 0 147 -44l-9 -12
q-48 32 -102 32q-51 0 -78 -36.5t-36 -130.5h117q6 0 6 -6t-6 -6z" />
    <glyph glyph-name="f.begin" unicode="&#xe013;" horiz-adv-x="350" 
d="M114 352h83q183 344 423 344q62 0 99 -24t37 -75q0 -41 -34 -65t-76 -24q-31 0 -47 10q49 51 49 99q0 27 -12 45t-38 18q-100 0 -276 -328h240l-9 -16h-239l-42.5 -84.5l-45 -90t-47.5 -88t-53 -89t-57 -81t-65 -75t-72.5 -61t-83.5 -49.5t-93 -30t-106 -12
q-70 0 -128.5 39t-58.5 106q0 38 16.5 66t44.5 43t59 21.5t66 6.5q14 0 54 -8v-8q-54 0 -87 -32.5t-33 -85.5q0 -55 29.5 -93.5t82.5 -38.5q32 0 64 13.5t58.5 33t56 54.5t51 66t50.5 80.5t47 83.5l46 89q-108 -108 -191 -140l-5 9q93 38 217 171q64 124 101 184h-83z" />
    <glyph glyph-name="fi.begin" unicode="&#xe014;" horiz-adv-x="628" 
d="M106 336l8 16h83q183 344 423 344q62 0 99 -24t37 -75q0 -41 -34 -65t-76 -24q-31 0 -47 10q49 51 49 99q0 27 -12 45t-38 18q-100 0 -276 -328h148q94 0 159 8l-28.5 -44.5l-28.5 -44.5l-25.5 -41l-24.5 -40.5l-20.5 -36l-18.5 -34t-13 -28t-9 -25.5t-3 -19
q0 -33 23 -33q78 0 257 250l8 -3q-86 -121 -141 -177q-51 -51 -88.5 -73.5t-85.5 -22.5q-37 0 -59 23.5t-22 56.5q0 15 2.5 30.5t10 34l13.5 32.5t19.5 38l21.5 38.5t27 45.5l29 48l-159 1l-43 -84.5l-45 -90l-46.5 -88.5t-51.5 -88.5t-56 -80.5t-63 -75t-69.5 -61.5
t-79.5 -50t-88 -30t-100 -11.5q-85 0 -147.5 38t-62.5 107q0 73 53 105t129 32q28 0 58 -8v-8q-54 0 -87 -32.5t-33 -85.5q0 -55 29.5 -93.5t82.5 -38.5q32 0 64 13.5t58.5 33t56 54.5t51 66t50.5 80.5t47 83.5l46 89q-108 -108 -191 -140l-5 9q93 38 217 171
q64 124 101 184h-83z" />
    <glyph glyph-name="fl.begin" unicode="&#xe015;" horiz-adv-x="628" 
d="M322 352h159l38.5 60.5t44 71.5l35 61.5t30 61t9.5 39.5q0 34 -40 34q-109 0 -276 -328zM114 352h83q184 344 411 344q61 0 100 -12l120 22q-38 -68 -139.5 -229.5t-169 -279t-67.5 -152.5q0 -31 20 -31q44 0 126.5 83.5t135.5 166.5l8 -4q-20 -30 -43.5 -62t-70.5 -86.5
t-100 -89t-100 -34.5q-39 0 -61.5 22t-22.5 58q0 73 127 268h-157l-43 -84.5l-45 -90l-46.5 -88.5t-51.5 -88.5t-56 -80.5t-63 -75t-69.5 -61.5t-79.5 -50t-88 -30t-100 -11.5q-85 0 -147.5 38t-62.5 107q0 73 53 105t129 32q35 0 58 -7v-9q-54 0 -87 -32.5t-33 -85.5
q0 -55 29.5 -93.5t82.5 -38.5q32 0 64 13.5t58.5 33t56 54.5t51 66t50.5 80.5t47 83.5l46 89q-108 -108 -191 -140l-5 9q93 38 217 171q64 124 101 184h-83z" />
    <glyph glyph-name="g.begin" unicode="&#xe016;" horiz-adv-x="609" 
d="M58 93v10q-101 -100 -182 -131l-5 9q82 33 189 142q15 96 105.5 172.5t190.5 76.5q71 0 98 -59l24 47l139 6l-206 -347q147 50 306 245l7 -7q-164 -205 -322 -252q-76 -152 -201.5 -240.5t-260.5 -88.5q-59 0 -107 13.5t-82 48t-34 84.5q0 55 45.5 89.5t138.5 34.5h64
v-12h-22q-49 0 -77.5 -29t-28.5 -86q0 -56 32 -93.5t85 -37.5q110 0 221 162l153 223l-2 2q-74 -87 -174 -87q-43 0 -68.5 29t-25.5 76zM188 78q0 -50 36 -50q40 0 88 51.5t79 118t31 111.5q0 24 -12.5 37.5t-32.5 13.5q-40 0 -85.5 -49t-74.5 -115.5t-29 -117.5z" />
    <glyph glyph-name="germandbls.begin" unicode="&#xe017;" horiz-adv-x="720" 
d="M832 262l9 -7l-36 -45t-47.5 -58t-49 -49.5t-64.5 -52.5q-96 -66 -225 -66q-66 0 -108 31.5t-42 82.5q0 38 23 62t59 24q23 0 38.5 -15t15.5 -35q0 -52 -52 -52q-3 0 -8 0.5t-8 0.5q-3 -6 -3 -22q0 -24 17.5 -42.5t49.5 -18.5q41 0 65 25t24 64q0 37 -30 93t-30 93
q0 49 36 80t121 53q37 10 56 22t32 37q35 67 35 140q0 48 -16 67.5t-48 19.5q-42 0 -89.5 -33.5t-93 -91.5t-82.5 -117t-73 -128l-37 -71.5l-42 -81t-45 -81.5t-51.5 -84.5t-56 -79t-64 -75t-70 -61.5t-79 -51t-87 -31t-96.5 -12q-40 0 -77.5 7t-72.5 22t-56.5 44t-21.5 68
q0 68 56 101.5t146 33.5q34 0 66 -9v-8q-9 1 -35 1q-51 0 -82 -33t-31 -81q0 -58 31.5 -96t87.5 -38q40 0 77.5 18t69.5 47.5t70.5 83t71 108l79.5 139.5q-103 -102 -183 -132l-5 9q91 37 211 164l131 239q79 142 195 232t247 90q83 0 129 -33.5t46 -95.5q0 -48 -29 -80
t-70 -48.5l-82 -31.5t-70 -42t-29 -68q0 -43 30 -101.5t30 -85.5q0 -75 -64 -105v-2q43 13 84.5 40.5t81.5 68.5t63 68.5z" />
    <glyph glyph-name="h.begin" unicode="&#xe018;" horiz-adv-x="609" 
d="M132 6l-137 -6l58 98q-100 -97 -177 -126l-5 9q89 37 208 161l322 554l143 10q-254 -425 -337 -549l2 -2q161 217 276 217q36 0 59 -19t23 -57q0 -41 -33 -92.5t-66 -96.5t-33 -69t22 -24q28 0 72 36.5t77 75.5l70.5 87.5t39.5 50.5l6 -5l-44 -58.5t-60 -75.5
t-60.5 -63.5t-74 -55.5t-71.5 -18q-37 0 -58 26.5t-21 63.5q0 43 30 89.5t60 84.5t30 61q0 25 -23 25q-50 0 -151 -118t-147 -214z" />
    <glyph glyph-name="i.begin" unicode="&#xe019;" horiz-adv-x="350" 
d="M204 356l143 4l-28.5 -44.5l-28.5 -44.5l-25.5 -41l-24.5 -40.5l-20.5 -36l-18.5 -34t-13 -28t-9 -25.5t-3 -19q0 -33 23 -33q78 0 257 250l8 -3q-86 -121 -141 -177q-50 -51 -88 -73.5t-84 -22.5q-40 0 -61.5 23.5t-21.5 65.5q0 18 8 44q-112 -115 -200 -149l-5 9
q93 38 217 171q8 19 22 44.5l24.5 43.5l34.5 58zM296 516q0 29 20.5 49.5t49.5 20.5t49.5 -20.5t20.5 -49.5t-20.5 -49.5t-49.5 -20.5t-49.5 20.5t-20.5 49.5z" />
    <glyph glyph-name="iacute.begin" unicode="&#xe01a;" horiz-adv-x="350" 
d="M204 356l143 4l-28.5 -44.5l-28.5 -44.5l-25.5 -41l-24.5 -40.5l-20.5 -36l-18.5 -34t-13 -28t-9 -25.5t-3 -19q0 -33 23 -33q78 0 257 250l8 -3q-86 -121 -141 -177q-50 -51 -88 -73.5t-84 -22.5q-40 0 -61.5 23.5t-21.5 65.5q0 18 8 44q-112 -115 -200 -149l-5 9
q93 38 217 171q8 19 22 44.5l24.5 43.5l34.5 58zM447 561q0 -36 -69.5 -83.5t-93.5 -47.5q-11 0 -11 12q0 1 0.5 2.5t1.5 3t2 2.5t3.5 3l4.5 3.5t6 4l7 4.5t8.5 5t9.5 6q27 18 42 41t17.5 39.5t10 28t23.5 11.5t27 -9.5t11 -25.5z" />
    <glyph glyph-name="icircumflex.begin" unicode="&#xe01b;" horiz-adv-x="350" 
d="M204 356l143 4l-28.5 -44.5l-28.5 -44.5l-25.5 -41l-24.5 -40.5l-20.5 -36l-18.5 -34t-13 -28t-9 -25.5t-3 -19q0 -33 23 -33q78 0 257 250l8 -3q-86 -121 -141 -177q-50 -51 -88 -73.5t-84 -22.5q-40 0 -61.5 23.5t-21.5 65.5q0 18 8 44q-112 -115 -200 -149l-5 9
q93 38 217 171q8 19 22 44.5l24.5 43.5l34.5 58zM326 598h24q5 -28 44.5 -91.5t39.5 -70.5q0 -14 -13 -14q-22 0 -93 99q-29 -30 -74 -63t-72 -33q-10 0 -10 10q0 9 22.5 25t61.5 52t70 86z" />
    <glyph glyph-name="idieresis.begin" unicode="&#xe01c;" horiz-adv-x="350" 
d="M204 356l143 4l-28.5 -44.5l-28.5 -44.5l-25.5 -41l-24.5 -40.5l-20.5 -36l-18.5 -34t-13 -28t-9 -25.5t-3 -19q0 -33 23 -33q78 0 257 250l8 -3q-86 -121 -141 -177q-50 -51 -88 -73.5t-84 -22.5q-40 0 -61.5 23.5t-21.5 65.5q0 18 8 44q-112 -115 -200 -149l-5 9
q93 38 217 171q8 19 22 44.5l24.5 43.5l34.5 58zM415 580q22 0 37.5 -15.5t15.5 -37.5t-15.5 -37.5t-37.5 -15.5t-37.5 15.5t-15.5 37.5t15.5 37.5t37.5 15.5zM219 580q22 0 37.5 -15.5t15.5 -37.5t-15.5 -37.5t-37.5 -15.5t-37.5 15.5t-15.5 37.5t15.5 37.5t37.5 15.5z" />
    <glyph glyph-name="igrave.begin" unicode="&#xe01d;" horiz-adv-x="350" 
d="M204 356l143 4l-28.5 -44.5l-28.5 -44.5l-25.5 -41l-24.5 -40.5l-20.5 -36l-18.5 -34t-13 -28t-9 -25.5t-3 -19q0 -33 23 -33q78 0 257 250l8 -3q-86 -121 -141 -177q-50 -51 -88 -73.5t-84 -22.5q-40 0 -61.5 23.5t-21.5 65.5q0 18 8 44q-112 -115 -200 -149l-5 9
q93 38 217 171q8 19 22 44.5l24.5 43.5l34.5 58zM186 561q0 16 11 25.5t27 9.5t23.5 -11.5t10 -28t17.5 -39.5t42 -41q4 -3 9.5 -6t8.5 -5l7 -4.5t6 -4l4.5 -3.5t3.5 -3t2 -2.5t1.5 -3t0.5 -2.5q0 -12 -11 -12q-24 0 -93.5 47.5t-69.5 83.5z" />
    <glyph glyph-name="j.begin" unicode="&#xe01e;" horiz-adv-x="350" 
d="M205 356l139 4l-86 -145.5l-118 -195.5l2 -2q88 28 159.5 88.5t156.5 157.5l8 -5q-174 -211 -338 -259q-26 -48 -51.5 -86t-68.5 -85t-90 -78t-114.5 -52.5t-143.5 -21.5q-51 0 -96 12.5t-80.5 47t-35.5 86.5q0 61 56.5 95.5t120.5 34.5q47 0 72 -10v-8q-14 2 -27 2
q-46 0 -74 -31t-28 -77q0 -58 32 -97t88 -39q47 0 97.5 35t101.5 102t90 129.5t89 152.5q-104 -106 -190 -139l-5 9q95 38 219 173q90 164 115 202zM366 586q29 0 49.5 -20.5t20.5 -49.5t-20.5 -49.5t-49.5 -20.5t-49.5 20.5t-20.5 49.5t20.5 49.5t49.5 20.5z" />
    <glyph glyph-name="k.begin" unicode="&#xe01f;" horiz-adv-x="609" 
d="M129 6l-138 -6l53 90q-95 -90 -168 -118l-5 9q87 36 199 152l330 563l144 10q-211 -356 -337 -550l2 -2q83 102 117 135q87 83 164 83q38 0 63 -17t25 -52q0 -21 -10 -38t-31 -28.5t-38.5 -19t-46.5 -12.5t-40.5 -6.5l-34.5 -4.5v-2q3 -1 14.5 -5.5t15.5 -6.5l14 -7
t13.5 -8l10.5 -9t9.5 -11.5t5 -13.5t2.5 -17q0 -14 -11.5 -42.5t-11.5 -38.5q0 -19 17 -19q44 0 126.5 87t131.5 162l9 -4q-68 -100 -140 -172q-57 -57 -97.5 -77.5t-87.5 -21.5q-43 0 -69 18.5t-26 54.5q0 29 24 66t24 61q-37 -13 -55 -13q-17 0 -17 14q0 16 24 16
q12 0 28 -2.5t21 -2.5q29 0 59.5 33.5t30.5 67.5q0 12 -7.5 20.5t-19.5 8.5q-49 0 -147.5 -121t-138.5 -203z" />
    <glyph glyph-name="l.begin" unicode="&#xe020;" horiz-adv-x="350" 
d="M401 696l147 10l-139 -229l-110.5 -180.5l-68.5 -117t-46.5 -92t-11.5 -50.5q0 -23 21 -23q42 0 125.5 84.5t135.5 165.5l8 -4q-20 -30 -43.5 -62t-70.5 -86.5t-100 -89t-100 -34.5q-41 0 -62.5 20.5t-21.5 53.5q0 27 10 57q-109 -112 -198 -147l-5 9q94 39 214 168
q14 31 42 82l58 101.5l96 161.5z" />
    <glyph glyph-name="lslash.begin" unicode="&#xe021;" horiz-adv-x="350" 
d="M535 496l-7 -22l-161 -65q-116 -190 -155.5 -263.5t-39.5 -108.5q0 -23 21 -23q42 0 125.5 84.5t135.5 165.5l8 -4q-20 -30 -43.5 -62t-70.5 -86.5t-100 -89t-100 -34.5q-41 0 -62.5 20.5t-21.5 53.5q0 27 10 57q-109 -112 -198 -147l-5 9q94 39 215 169q23 52 101 183
l-2 2l-116 -48l7 21l125 51l200 337l147 10l-166 -271l2 -2z" />
    <glyph glyph-name="m.begin" unicode="&#xe022;" horiz-adv-x="868" 
d="M404 6l-139 -6q1 1 52.5 83.5t88 147t36.5 82.5q0 25 -26 25q-43 0 -148.5 -125.5t-147.5 -206.5l-135 -6l41 73q-87 -77 -150 -101l-5 9q76 31 178 131l47 78.5l54.5 90.5l42.5 75l144 4l-133 -195l2 -2q2 3 22 28l27.5 34.5t29 33.5t34 35l34.5 29t40 26.5t40.5 15.5
t43.5 7q36 0 57.5 -19t21.5 -54q0 -34 -19 -70l2 -2q3 4 18.5 21l22 24.5t22.5 23.5t26 24t26 19.5t29 17.5t29 10.5t31 4.5q36 0 59.5 -20t23.5 -56q0 -40 -33.5 -92t-67 -97t-33.5 -67q0 -26 26 -26q22 0 51.5 19t61 53t55.5 62.5t52.5 66.5t35.5 46l7 -6q-5 -6 -36 -47
l-55 -70.5t-48 -55.5q-89 -94 -167 -94q-42 0 -63.5 25.5t-21.5 59.5q0 41 32 91t64 90.5t32 57.5q0 12 -7.5 19t-17.5 7q-43 0 -145 -125t-144 -207z" />
    <glyph glyph-name="n.begin" unicode="&#xe023;" horiz-adv-x="609" 
d="M131 6l-136 -6l56 96q-97 -94 -175 -124l-5 9q93 39 206 159l125 214l142 6q-72 -100 -138 -204l2 -2q35 44 60 72.5t64 67t76.5 58.5t72.5 20q39 0 64 -20.5t25 -58.5q0 -37 -33 -87.5t-66 -96t-33 -70.5t23 -25q37 0 108 71q50 50 150 178l9 -5q-90 -119 -150 -181
q-87 -89 -158 -89q-43 0 -66.5 26t-23.5 69q0 33 19.5 68.5t43.5 61t43.5 52.5t19.5 45q0 28 -27 28q-48 0 -156 -128.5t-142 -203.5z" />
    <glyph glyph-name="ntilde.begin" unicode="&#xe024;" horiz-adv-x="609" 
d="M131 6l-136 -6l56 96q-97 -94 -175 -124l-5 9q93 39 206 159l125 214l142 6q-72 -100 -138 -204l2 -2q35 44 60 72.5t64 67t76.5 58.5t72.5 20q39 0 64 -20.5t25 -58.5q0 -37 -33 -87.5t-66 -96t-33 -70.5t23 -25q37 0 108 71q50 50 150 178l9 -5q-90 -119 -150 -181
q-87 -89 -158 -89q-43 0 -66.5 26t-23.5 69q0 33 19.5 68.5t43.5 61t43.5 52.5t19.5 45q0 28 -27 28q-48 0 -156 -128.5t-142 -203.5zM531 516q20 0 31 11.5t16 23t10 11.5q10 0 10 -14q0 -12 -5.5 -29.5t-23.5 -36t-45 -18.5q-30 0 -82 21t-71 21q-15 0 -32.5 -23
t-24.5 -23q-10 0 -10 14q0 18 20.5 49t54.5 31q27 0 78 -19q53 -19 74 -19z" />
    <glyph glyph-name="o.begin" unicode="&#xe025;" horiz-adv-x="609" 
d="M717 265l8 -8l-6 -7q-6 -6 -10 -9.5l-12 -10.5t-15.5 -11.5t-17 -9t-20.5 -7t-22 -2.5q-48 0 -84 46h-2q0 -104 -88.5 -181t-201.5 -77q-74 0 -122 31t-50 100q-109 -112 -198 -147l-5 9q86 35 203 157q6 103 97.5 168.5t200.5 65.5q48 0 82 -16.5t52 -40t33 -47
t35.5 -40t47.5 -16.5q50 0 95 53zM388 360q-45 0 -95 -58t-80.5 -130.5t-30.5 -120.5q0 -23 10.5 -37t29.5 -14q45 0 95 58t80.5 130.5t30.5 120.5q0 23 -10.5 37t-29.5 14z" />
    <glyph glyph-name="oacute.begin" unicode="&#xe026;" horiz-adv-x="609" 
d="M388 360q-45 0 -95 -58t-80.5 -130.5t-30.5 -120.5q0 -23 10.5 -37t29.5 -14q45 0 95 58t80.5 130.5t30.5 120.5q0 23 -10.5 37t-29.5 14zM74 119q-109 -112 -198 -147l-5 9q86 35 203 157q6 103 97.5 168.5t200.5 65.5q48 0 82 -16.5t52 -40t33 -47t35.5 -40t47.5 -16.5
q50 0 95 53l8 -8l-6 -7q-6 -6 -10 -9.5l-12 -10.5t-15.5 -11.5t-17 -9t-20.5 -7t-22 -2.5q-48 0 -84 46h-2q0 -104 -88.5 -181t-201.5 -77q-74 0 -122 31t-50 100zM556 561q0 -36 -69.5 -83.5t-93.5 -47.5q-11 0 -11 12q0 1 0.5 2.5t1.5 3t2 2.5t3.5 3l4.5 3.5t6 4l7 4.5
t8.5 5t9.5 6q27 18 42 41t17.5 39.5t10 28t23.5 11.5t27 -9.5t11 -25.5z" />
    <glyph glyph-name="ocircumflex.begin" unicode="&#xe027;" horiz-adv-x="609" 
d="M388 360q-45 0 -95 -58t-80.5 -130.5t-30.5 -120.5q0 -23 10.5 -37t29.5 -14q45 0 95 58t80.5 130.5t30.5 120.5q0 23 -10.5 37t-29.5 14zM74 119q-109 -112 -198 -147l-5 9q86 35 203 157q6 103 97.5 168.5t200.5 65.5q48 0 82 -16.5t52 -40t33 -47t35.5 -40t47.5 -16.5
q50 0 95 53l8 -8l-6 -7q-6 -6 -10 -9.5l-12 -10.5t-15.5 -11.5t-17 -9t-20.5 -7t-22 -2.5q-48 0 -84 46h-2q0 -104 -88.5 -181t-201.5 -77q-74 0 -122 31t-50 100zM435 598h24q5 -28 44.5 -91.5t39.5 -70.5q0 -14 -13 -14q-22 0 -93 99q-29 -30 -74 -63t-72 -33
q-10 0 -10 10q0 9 22.5 25t61.5 52t70 86z" />
    <glyph glyph-name="odieresis.begin" unicode="&#xe028;" horiz-adv-x="609" 
d="M388 360q-45 0 -95 -58t-80.5 -130.5t-30.5 -120.5q0 -23 10.5 -37t29.5 -14q45 0 95 58t80.5 130.5t30.5 120.5q0 23 -10.5 37t-29.5 14zM74 119q-109 -112 -198 -147l-5 9q86 35 203 157q6 103 97.5 168.5t200.5 65.5q48 0 82 -16.5t52 -40t33 -47t35.5 -40t47.5 -16.5
q50 0 95 53l8 -8l-6 -7q-6 -6 -10 -9.5l-12 -10.5t-15.5 -11.5t-17 -9t-20.5 -7t-22 -2.5q-48 0 -84 46h-2q0 -104 -88.5 -181t-201.5 -77q-74 0 -122 31t-50 100zM524 580q22 0 37.5 -15.5t15.5 -37.5t-15.5 -37.5t-37.5 -15.5t-37.5 15.5t-15.5 37.5t15.5 37.5t37.5 15.5z
M328 580q22 0 37.5 -15.5t15.5 -37.5t-15.5 -37.5t-37.5 -15.5t-37.5 15.5t-15.5 37.5t15.5 37.5t37.5 15.5z" />
    <glyph glyph-name="oe.begin" unicode="&#xe029;" horiz-adv-x="794" 
d="M388 360q-45 0 -95 -58t-80.5 -130.5t-30.5 -120.5q0 -23 10.5 -37t29.5 -14q45 0 95 58t80.5 130.5t30.5 120.5q0 23 -10.5 37t-29.5 14zM690 332q0 28 -28 28q-41 0 -90.5 -72.5t-59.5 -123.5q80 18 129 67.5t49 100.5zM74 119q-109 -112 -198 -147l-5 9q86 35 203 157
q6 103 97.5 168.5t200.5 65.5q93 0 140 -54q86 54 168 54q110 0 110 -66q0 -15 -7 -29t-21 -26t-28.5 -22.5t-38 -20l-39.5 -15.5t-43 -13.5l-39 -11t-37 -9t-27 -6.5q-4 -17 -4 -40q0 -41 19 -68t60 -27q82 0 210 121q61 58 106 124l9 -6q-52 -73 -116 -135
q-72 -69 -137 -101.5t-142 -32.5q-75 0 -110 38q-89 -38 -159 -38q-74 0 -122 31t-50 100z" />
    <glyph glyph-name="ograve.begin" unicode="&#xe02a;" horiz-adv-x="609" 
d="M388 360q-45 0 -95 -58t-80.5 -130.5t-30.5 -120.5q0 -23 10.5 -37t29.5 -14q45 0 95 58t80.5 130.5t30.5 120.5q0 23 -10.5 37t-29.5 14zM74 119q-109 -112 -198 -147l-5 9q86 35 203 157q6 103 97.5 168.5t200.5 65.5q48 0 82 -16.5t52 -40t33 -47t35.5 -40t47.5 -16.5
q50 0 95 53l8 -8l-6 -7q-6 -6 -10 -9.5l-12 -10.5t-15.5 -11.5t-17 -9t-20.5 -7t-22 -2.5q-48 0 -84 46h-2q0 -104 -88.5 -181t-201.5 -77q-74 0 -122 31t-50 100zM295 561q0 16 11 25.5t27 9.5t23.5 -11.5t10 -28t17.5 -39.5t42 -41q4 -3 9.5 -6t8.5 -5l7 -4.5t6 -4
l4.5 -3.5t3.5 -3t2 -2.5t1.5 -3t0.5 -2.5q0 -12 -11 -12q-24 0 -93.5 47.5t-69.5 83.5z" />
    <glyph glyph-name="oslash.begin" unicode="&#xe02b;" horiz-adv-x="609" 
d="M201 7l204 349q-7 4 -17 4q-45 0 -95 -58t-80.5 -130.5t-30.5 -120.5q0 -31 19 -44zM413 350l-203 -348q8 -2 12 -2q45 0 95 58t80.5 130.5t30.5 120.5q0 29 -15 41zM74 119q-109 -112 -198 -147l-5 9q86 35 203 157q6 103 97.5 168.5t200.5 65.5q24 0 40 -4l42 73l9 -5
l-41 -70q39 -9 68 -35.5t43 -52t36.5 -46t52.5 -20.5q50 0 95 53l8 -8l-6 -7q-6 -6 -10 -9.5l-12 -10.5t-15.5 -11.5t-17 -9t-20.5 -7t-22 -2.5q-48 0 -84 46h-2q0 -104 -88.5 -181t-201.5 -77q-22 0 -42 3l-50 -85l-9 5l48 82q-116 21 -119 126z" />
    <glyph glyph-name="otilde.begin" unicode="&#xe02c;" horiz-adv-x="609" 
d="M388 360q-45 0 -95 -58t-80.5 -130.5t-30.5 -120.5q0 -23 10.5 -37t29.5 -14q45 0 95 58t80.5 130.5t30.5 120.5q0 23 -10.5 37t-29.5 14zM74 119q-109 -112 -198 -147l-5 9q86 35 203 157q6 103 97.5 168.5t200.5 65.5q48 0 82 -16.5t52 -40t33 -47t35.5 -40t47.5 -16.5
q50 0 95 53l8 -8l-6 -7q-6 -6 -10 -9.5l-12 -10.5t-15.5 -11.5t-17 -9t-20.5 -7t-22 -2.5q-48 0 -84 46h-2q0 -104 -88.5 -181t-201.5 -77q-74 0 -122 31t-50 100zM511 516q20 0 31 11.5t16 23t10 11.5q10 0 10 -14q0 -12 -5.5 -29.5t-23.5 -36t-45 -18.5q-30 0 -82 21
t-71 21q-15 0 -32.5 -23t-24.5 -23q-10 0 -10 14q0 18 20.5 49t54.5 31q27 0 78 -19q53 -19 74 -19z" />
    <glyph glyph-name="p.begin" unicode="&#xe02d;" horiz-adv-x="609" 
d="M325 552l143 10l-250 -373l2 -2q1 1 17 22t19.5 25t19.5 23.5t22.5 25.5t22 22.5t25 22.5t25 17t28 15t28 8t30.5 4q43 0 71 -32t28 -76q0 -86 -70 -158v-2q133 38 230 162l8 -5q-46 -65 -111.5 -110t-139.5 -62q-49 -42 -114 -71.5t-109 -29.5q-60 0 -60 37q0 59 167 68
q1 2 9.5 15t11.5 18l11 19t11.5 22.5l9.5 23t9 26t5 26t2 28.5q0 53 -39 53q-18 0 -41.5 -17.5t-51 -52.5l-47 -62t-50 -73l-39.5 -59l-61.5 -95.5l-54 -90l-57 -100l-52.5 -92.5l-143 -6l258 417q-96 -91 -172 -121l-5 9q88 35 204 157zM238 21q0 -21 18 -21q16 0 31 12
t35.5 37.5t26.5 31.5q-47 -3 -79 -19t-32 -41z" />
    <glyph glyph-name="q.begin" unicode="&#xe02e;" horiz-adv-x="609" 
d="M478 352l146 8l-206 -337l2 -2q72 29 155.5 98t140.5 142l9 -6q-62 -82 -148.5 -151t-170.5 -105q-93 -144 -186 -317l-144 -6l66.5 108l104.5 165.5t97 136.5l-2 2q-96 -100 -181 -100q-47 0 -73 26.5t-26 78.5v14q-102 -102 -186 -135l-5 9q82 33 194 147
q16 99 106 171.5t199 72.5q71 0 88 -64h2zM428 307q0 25 -13.5 39t-33.5 14q-42 0 -88 -52t-73.5 -116t-27.5 -105q0 -61 38 -61q31 0 78.5 47.5t83.5 115.5t36 118z" />
    <glyph glyph-name="r.begin" unicode="&#xe02f;" horiz-adv-x="535" 
d="M131 6l-134 -6l55 97q-102 -97 -176 -125l-5 9q88 35 205 158l123 217l144 4l-153 -226l2 -2q110 158 186 190q22 26 35.5 34.5t44 13.5t101.5 8q-69 -71 -69 -129q0 -23 11 -40t33 -17q49 0 108 72l7 -6q-35 -43 -65 -61q-51 -31 -118 -31q-47 0 -76.5 26t-29.5 63
q0 30 8 47v2q-55 -29 -129 -127t-108 -171z" />
    <glyph glyph-name="s.begin" unicode="&#xe030;" horiz-adv-x="479" 
d="M122 172q30 -10 30 -45q0 -21 -12.5 -32.5t-29.5 -11.5q-12 0 -20 3q-5 -8 -5 -19q0 -67 67 -67q41 0 63 24t22 61q0 26 -35 73t-42 62q-24 -32 -38 -48zM588 266l7 -8q-42 -62 -80 -105t-90 -83.5t-116.5 -61t-142.5 -20.5q-124 0 -141 84q-83 -75 -149 -100l-5 9
q67 28 152 106v8q0 36 23 58t55 22h8q28 32 47 57q-2 10 -2 17q0 51 45.5 87t121.5 36q59 0 95 -20t36 -56q0 -27 -18.5 -45t-45.5 -18q-24 0 -43 12q15 23 15 50t-12.5 46t-36.5 19q-23 0 -36 -15.5t-13 -42.5q0 -22 15 -46.5t32.5 -42.5t32.5 -44t15 -52q0 -63 -63 -99
l2 -2q81 23 159 93t133 157z" />
    <glyph glyph-name="scaron.begin" unicode="&#xe031;" horiz-adv-x="479" 
d="M122 172q30 -10 30 -45q0 -21 -12.5 -32.5t-29.5 -11.5q-12 0 -20 3q-5 -8 -5 -19q0 -67 67 -67q41 0 63 24t22 61q0 26 -35 73t-42 62q-24 -32 -38 -48zM588 266l7 -8q-42 -62 -80 -105t-90 -83.5t-116.5 -61t-142.5 -20.5q-124 0 -141 84q-83 -75 -149 -100l-5 9
q67 28 152 106v8q0 36 23 58t55 22h8q28 32 47 57q-2 10 -2 17q0 51 45.5 87t121.5 36q59 0 95 -20t36 -56q0 -27 -18.5 -45t-45.5 -18q-24 0 -43 12q15 23 15 50t-12.5 46t-36.5 19q-23 0 -36 -15.5t-13 -42.5q0 -22 15 -46.5t32.5 -42.5t32.5 -44t15 -52q0 -63 -63 -99
l2 -2q81 23 159 93t133 157zM353 422h-24q-5 28 -44.5 91.5t-39.5 70.5q0 14 13 14q22 0 93 -99q29 30 74 63t72 33q10 0 10 -10q0 -9 -22.5 -25t-61.5 -52t-70 -86z" />
    <glyph glyph-name="t.begin" unicode="&#xe032;" horiz-adv-x="405" 
d="M195 336h-81l7 16h83l85 145l139 5l-90 -150h137l-8 -16h-138q-2 -4 -49.5 -80t-72.5 -127.5t-25 -81.5q0 -33 36 -33q25 0 56 15.5t56.5 35.5t58.5 54t51 54.5l46 54.5t31 38l8 -4l-46 -56.5t-53 -64t-54 -55.5t-63.5 -52.5t-66 -31.5t-77.5 -14q-44 0 -67.5 24
t-23.5 64q0 24 10 53q-116 -122 -208 -157l-5 9q101 42 228 183q12 26 96 172z" />
    <glyph glyph-name="thorn.begin" unicode="&#xe033;" horiz-adv-x="609" 
d="M377 642l146 10l-202 -301l2 -2q32 23 69 23q38 0 67 -16.5t46.5 -40l33.5 -47t36.5 -40t46.5 -16.5q50 0 95 53l8 -8l-6 -7q-6 -6 -10 -9.5l-12 -10.5t-15.5 -11.5t-17 -9t-20.5 -7t-22 -2.5q-48 0 -84 46h-2q0 -103 -88 -180.5t-196 -77.5q-41 0 -67.5 22.5t-26.5 67.5
v12l-2 2l-231 -410l-143 -6l248 401q-87 -79 -154 -105l-5 9q80 33 185 138zM428 309q0 23 -12 37t-34 14q-27 0 -53.5 -20.5t-69.5 -84.5q-89 -132 -89 -181q0 -32 18 -50t42 -18q43 0 90.5 56.5t77.5 127.5t30 119z" />
    <glyph glyph-name="u.begin" unicode="&#xe034;" horiz-adv-x="609" 
d="M193 364l144 4l-35 -54q-97 -149 -122.5 -194t-25.5 -69q0 -13 7.5 -21t19.5 -8q43 0 124 92.5t159 241.5l145 4q-9 -15 -59.5 -88.5t-87 -137.5t-36.5 -95q0 -25 22 -25q23 0 61.5 29t79 73.5t70.5 80.5t54 68l9 -8l-38 -47l-49 -59.5t-53 -57t-59.5 -54t-59 -36
t-61.5 -15.5q-41 0 -62.5 25t-21.5 60q0 21 9 44l-2 2q-113 -131 -197 -131q-40 0 -61 24t-21 63q0 6 2 18q-96 -91 -172 -121l-5 9q78 33 183 136q12 38 40.5 88.5t61 100t37.5 58.5z" />
    <glyph glyph-name="uacute.begin" unicode="&#xe035;" horiz-adv-x="609" 
d="M193 364l144 4l-35 -54q-97 -149 -122.5 -194t-25.5 -69q0 -13 7.5 -21t19.5 -8q43 0 124 92.5t159 241.5l145 4q-9 -15 -59.5 -88.5t-87 -137.5t-36.5 -95q0 -25 22 -25q23 0 61.5 29t79 73.5t70.5 80.5t54 68l9 -8l-38 -47l-49 -59.5t-53 -57t-59.5 -54t-59 -36
t-61.5 -15.5q-41 0 -62.5 25t-21.5 60q0 21 9 44l-2 2q-113 -131 -197 -131q-40 0 -61 24t-21 63q0 6 2 18q-96 -91 -172 -121l-5 9q78 33 183 136q12 38 40.5 88.5t61 100t37.5 58.5zM611 561q0 -36 -69.5 -83.5t-93.5 -47.5q-11 0 -11 12q0 1 0.5 2.5t1.5 3t2 2.5t3.5 3
l4.5 3.5t6 4l7 4.5t8.5 5t9.5 6q27 18 42 41t17.5 39.5t10 28t23.5 11.5t27 -9.5t11 -25.5z" />
    <glyph glyph-name="ucircumflex.begin" unicode="&#xe036;" horiz-adv-x="609" 
d="M193 364l144 4l-35 -54q-97 -149 -122.5 -194t-25.5 -69q0 -13 7.5 -21t19.5 -8q43 0 124 92.5t159 241.5l145 4q-9 -15 -59.5 -88.5t-87 -137.5t-36.5 -95q0 -25 22 -25q23 0 61.5 29t79 73.5t70.5 80.5t54 68l9 -8l-38 -47l-49 -59.5t-53 -57t-59.5 -54t-59 -36
t-61.5 -15.5q-41 0 -62.5 25t-21.5 60q0 21 9 44l-2 2q-113 -131 -197 -131q-40 0 -61 24t-21 63q0 6 2 18q-96 -91 -172 -121l-5 9q78 33 183 136q12 38 40.5 88.5t61 100t37.5 58.5zM490 598h24q5 -28 44.5 -91.5t39.5 -70.5q0 -14 -13 -14q-22 0 -93 99q-29 -30 -74 -63
t-72 -33q-10 0 -10 10q0 9 22.5 25t61.5 52t70 86z" />
    <glyph glyph-name="udieresis.begin" unicode="&#xe037;" horiz-adv-x="609" 
d="M193 364l144 4l-35 -54q-97 -149 -122.5 -194t-25.5 -69q0 -13 7.5 -21t19.5 -8q43 0 124 92.5t159 241.5l145 4q-9 -15 -59.5 -88.5t-87 -137.5t-36.5 -95q0 -25 22 -25q23 0 61.5 29t79 73.5t70.5 80.5t54 68l9 -8l-38 -47l-49 -59.5t-53 -57t-59.5 -54t-59 -36
t-61.5 -15.5q-41 0 -62.5 25t-21.5 60q0 21 9 44l-2 2q-113 -131 -197 -131q-40 0 -61 24t-21 63q0 6 2 18q-96 -91 -172 -121l-5 9q78 33 183 136q12 38 40.5 88.5t61 100t37.5 58.5zM579 580q22 0 37.5 -15.5t15.5 -37.5t-15.5 -37.5t-37.5 -15.5t-37.5 15.5t-15.5 37.5
t15.5 37.5t37.5 15.5zM383 580q22 0 37.5 -15.5t15.5 -37.5t-15.5 -37.5t-37.5 -15.5t-37.5 15.5t-15.5 37.5t15.5 37.5t37.5 15.5z" />
    <glyph glyph-name="ugrave.begin" unicode="&#xe038;" horiz-adv-x="609" 
d="M193 364l144 4l-35 -54q-97 -149 -122.5 -194t-25.5 -69q0 -13 7.5 -21t19.5 -8q43 0 124 92.5t159 241.5l145 4q-9 -15 -59.5 -88.5t-87 -137.5t-36.5 -95q0 -25 22 -25q23 0 61.5 29t79 73.5t70.5 80.5t54 68l9 -8l-38 -47l-49 -59.5t-53 -57t-59.5 -54t-59 -36
t-61.5 -15.5q-41 0 -62.5 25t-21.5 60q0 21 9 44l-2 2q-113 -131 -197 -131q-40 0 -61 24t-21 63q0 6 2 18q-96 -91 -172 -121l-5 9q78 33 183 136q12 38 40.5 88.5t61 100t37.5 58.5zM350 561q0 16 11 25.5t27 9.5t23.5 -11.5t10 -28t17.5 -39.5t42 -41q4 -3 9.5 -6t8.5 -5
l7 -4.5t6 -4l4.5 -3.5t3.5 -3t2 -2.5t1.5 -3t0.5 -2.5q0 -12 -11 -12q-24 0 -93.5 47.5t-69.5 83.5z" />
    <glyph glyph-name="v.begin" unicode="&#xe039;" horiz-adv-x="609" 
d="M202 356l142 4q-11 -20 -58 -90t-78.5 -129t-31.5 -95q0 -46 41 -46q60 0 122 80t92 182q-7 17 -7 42q0 27 16.5 47.5t42.5 20.5q71 0 71 -82q0 -26 -6 -48q30 -30 72 -30q56 0 98 56l9 -6q-48 -62 -107 -62q-41 0 -75 28q-27 -102 -127 -171t-208 -69q-60 0 -93 33
t-33 89q0 7 2 21q-117 -123 -210 -159l-5 9q95 38 220 174q5 16 12 32.5t20.5 40l21 36.5t29 46.5t28.5 45.5z" />
    <glyph glyph-name="w.begin" unicode="&#xe03a;" horiz-adv-x="850" 
d="M462 355l143 5l-42 -61.5l-65 -97.5t-50.5 -89.5t-25.5 -74.5q0 -37 38 -37q39 0 79.5 34t68.5 79.5t46.5 86.5t21.5 62q0 4 -4 19t-4 25q0 26 16.5 46t42.5 20q37 0 56 -21.5t19 -58.5q0 -27 -8 -56q36 -28 70 -28q21 0 40 9.5t27.5 17.5t22.5 24l6 -9q-41 -54 -95 -54
q-38 0 -74 27q-31 -94 -132 -164.5t-199 -70.5q-130 0 -130 96q0 14 7 40l-2 1q-27 -38 -49.5 -63t-61.5 -49.5t-78 -24.5q-41 0 -65.5 27.5t-24.5 69.5q0 11 1 17q-100 -99 -181 -130l-5 9q85 35 192 144l6.5 17t8.5 20t9.5 19.5t13 23l14 24l17 28l18 28.5l21 33l22.5 36
l141 6q-8 -14 -58.5 -88.5t-84 -135.5t-33.5 -92q0 -30 27 -30q51 0 129 103q29 38 59.5 87t57 96t31.5 55z" />
    <glyph glyph-name="x.begin" unicode="&#xe03b;" horiz-adv-x="628" 
d="M96 142q12 -14 12 -31q0 -19 -12.5 -32t-29.5 -13q-12 0 -20 2q-4 -14 -4 -24q0 -20 13 -32t35 -12q57 0 110.5 49t83.5 116.5t30 124.5q0 18 -10 29t-26 11t-37 -16.5t-31 -28.5t-30 -38q-58 -76 -84 -105zM734 263l8 -4l-51 -69t-58.5 -69t-71.5 -68.5t-76.5 -44.5
t-86.5 -20q-56 0 -81 24t-27 73l-2 2q-29 -42 -86 -70.5t-113 -28.5q-32 0 -58.5 14.5t-37.5 41.5q-62 -50 -117 -72l-5 9q53 22 118 76q-3 11 -3 24q0 31 19.5 55t50.5 24q18 0 31 -9q15 17 80 96q31 38 49.5 58.5t51 43.5t60.5 23q39 0 61 -29t27 -70q47 42 87.5 64.5
t86.5 22.5q37 0 57.5 -16t20.5 -42q0 -32 -20.5 -52.5t-54.5 -20.5q-24 0 -34 8q21 30 21 78q0 33 -21 33q-27 0 -67 -41t-70 -102t-30 -110q0 -35 16.5 -54t44.5 -19q34 0 76.5 26.5t82 67t70 77.5t52.5 70z" />
    <glyph glyph-name="y.begin" unicode="&#xe03c;" horiz-adv-x="609" 
d="M206 360l142 8q-10 -21 -56.5 -93.5t-84 -137.5t-37.5 -88q0 -31 23 -31q37 0 99 63t103 136l79 139l141 4l-207 -341l2 -2q64 23 158 98.5t155 158.5l8 -6q-47 -67 -139.5 -148.5t-191.5 -118.5q-176 -325 -485 -325q-47 0 -90.5 13.5t-76.5 47.5t-33 82q0 58 49.5 92.5
t109.5 34.5q42 0 86 -9v-9q-8 2 -33 2q-48 0 -70 -32t-22 -83q0 -59 27 -93t74 -34q53 0 104.5 31t97.5 87.5t80.5 108t76 120.5t61.5 97l-2 2q-25 -31 -43 -50.5t-47 -44.5t-62 -38t-68 -13t-53.5 25t-18.5 60q0 17 5 39q-108 -108 -191 -140l-5 9q88 35 204 157
q17 45 68.5 122t62.5 100z" />
    <glyph glyph-name="yacute.begin" unicode="&#xe03d;" horiz-adv-x="609" 
d="M206 360l142 8q-10 -21 -56.5 -93.5t-84 -137.5t-37.5 -88q0 -31 23 -31q37 0 99 63t103 136l79 139l141 4l-207 -341l2 -2q64 23 158 98.5t155 158.5l8 -6q-47 -67 -139.5 -148.5t-191.5 -118.5q-176 -325 -485 -325q-47 0 -90.5 13.5t-76.5 47.5t-33 82q0 58 49.5 92.5
t109.5 34.5q42 0 86 -9v-9q-8 2 -33 2q-48 0 -70 -32t-22 -83q0 -59 27 -93t74 -34q53 0 104.5 31t97.5 87.5t80.5 108t76 120.5t61.5 97l-2 2q-25 -31 -43 -50.5t-47 -44.5t-62 -38t-68 -13t-53.5 25t-18.5 60q0 17 5 39q-108 -108 -191 -140l-5 9q88 35 204 157
q17 45 68.5 122t62.5 100zM576 561q0 -36 -69.5 -83.5t-93.5 -47.5q-11 0 -11 12q0 1 0.5 2.5t1.5 3t2 2.5t3.5 3l4.5 3.5t6 4l7 4.5t8.5 5t9.5 6q27 18 42 41t17.5 39.5t10 28t23.5 11.5t27 -9.5t11 -25.5z" />
    <glyph glyph-name="ydieresis.begin" unicode="&#xe03e;" horiz-adv-x="609" 
d="M206 360l142 8q-10 -21 -56.5 -93.5t-84 -137.5t-37.5 -88q0 -31 23 -31q37 0 99 63t103 136l79 139l141 4l-207 -341l2 -2q64 23 158 98.5t155 158.5l8 -6q-47 -67 -139.5 -148.5t-191.5 -118.5q-176 -325 -485 -325q-47 0 -90.5 13.5t-76.5 47.5t-33 82q0 58 49.5 92.5
t109.5 34.5q42 0 86 -9v-9q-8 2 -33 2q-48 0 -70 -32t-22 -83q0 -59 27 -93t74 -34q53 0 104.5 31t97.5 87.5t80.5 108t76 120.5t61.5 97l-2 2q-25 -31 -43 -50.5t-47 -44.5t-62 -38t-68 -13t-53.5 25t-18.5 60q0 17 5 39q-108 -108 -191 -140l-5 9q88 35 204 157
q17 45 68.5 122t62.5 100zM544 580q22 0 37.5 -15.5t15.5 -37.5t-15.5 -37.5t-37.5 -15.5t-37.5 15.5t-15.5 37.5t15.5 37.5t37.5 15.5zM348 580q22 0 37.5 -15.5t15.5 -37.5t-15.5 -37.5t-37.5 -15.5t-37.5 15.5t-15.5 37.5t15.5 37.5t37.5 15.5z" />
    <glyph glyph-name="z.begin" unicode="&#xe03f;" horiz-adv-x="535" 
d="M210 110l1 -2q3 0 11 2t13 2q29 0 86.5 -21t78.5 -21q17 0 33.5 3.5t32.5 12.5l28.5 16t29 23t26 24.5t25.5 29l22.5 28.5t23 30t20.5 27l8 -4q-28 -42 -62 -83t-80.5 -86.5t-98.5 -74t-99 -28.5q-44 0 -96.5 30t-79.5 30q-18 0 -43 -30t-40 -30q-12 0 -12 13q0 8 9.5 17
t22 16l34.5 18.5t36 20.5q16 10 66 52.5t106 81t108 55.5l-2 2q-36 -8 -83 -8q-35 0 -71 10t-45 10q-22 0 -35 -20q-56 -89 -146 -172.5t-162 -111.5l-5 9q58 24 160 117.5t137 151.5q24 41 65 81.5t79 40.5q28 0 92 -22t81 -22t27.5 9t13.5 20t9 20t16 9q17 0 17 -18
q0 -9 -7 -16t-26.5 -20l-28.5 -19l-57 -43l-62 -46l-52 -37t-63.5 -42t-61.5 -35z" />
    <glyph glyph-name="zcaron.begin" unicode="&#xe040;" horiz-adv-x="535" 
d="M419 422h-24q-5 28 -44.5 91.5t-39.5 70.5q0 14 13 14q22 0 93 -99q29 30 74 63t72 33q10 0 10 -10q0 -9 -22.5 -25t-61.5 -52t-70 -86zM210 110l1 -2q3 0 11 2t13 2q29 0 86.5 -21t78.5 -21q17 0 33.5 3.5t32.5 12.5l28.5 16t29 23t26 24.5t25.5 29l22.5 28.5t23 30
t20.5 27l8 -4q-28 -42 -62 -83t-80.5 -86.5t-98.5 -74t-99 -28.5q-44 0 -96.5 30t-79.5 30q-18 0 -43 -30t-40 -30q-12 0 -12 13q0 8 9.5 17t22 16l34.5 18.5t36 20.5q16 10 66 52.5t106 81t108 55.5l-2 2q-36 -8 -83 -8q-35 0 -71 10t-45 10q-22 0 -35 -20
q-56 -89 -146 -172.5t-162 -111.5l-5 9q58 24 160 117.5t137 151.5q24 41 65 81.5t79 40.5q28 0 92 -22t81 -22t27.5 9t13.5 20t9 20t16 9q17 0 17 -18q0 -9 -7 -16t-26.5 -20l-28.5 -19l-57 -43l-62 -46l-52 -37t-63.5 -42t-61.5 -35z" />
    </font>
</defs>
</svg>
