<?xml version="1.0" standalone="no"?>
<!DOCTYPE svg PUBLIC "-//W3C//DTD SVG 1.1//EN" "http://www.w3.org/Graphics/SVG/1.1/DTD/svg11.dtd" >
<svg>
<metadata>
Created by FontForge 20090622 at Sun Oct 23 20:25:36 2016
 By deploy user
Copyright &#194;&#169; 1990, 1995, 2001, 2002 Adobe Systems Incorporated.  All Rights Reserved. &#194;&#169; 1981, 2001, 2002 Heidelberger Druckmaschinen AG. All rights reserved.
</metadata>
<defs>
<font id="SnellRoundhandLTStd-Scr" horiz-adv-x="444" >
  <font-face 
    font-family="Snell Roundhand LT Std Scr"
    font-weight="400"
    font-style="italic"
    font-stretch="normal"
    units-per-em="1000"
    panose-1="0 0 5 0 0 0 0 0 0 0"
    ascent="704"
    descent="-296"
    x-height="344"
    cap-height="696"
    bbox="-571 -324 1277 894"
    underline-thickness="50"
    underline-position="-50"
    slope="-28"
    unicode-range="U+0020-U+FB02"
  />
<missing-glyph horiz-adv-x="743" 
d="M243 0v700h500v-700h-500zM493 395l170 255h-340zM523 350l170 -255v510zM323 50h340l-170 255zM293 605v-510l170 255z" />
    <glyph glyph-name="fi" unicode="fi" 
d="M375 332h-176l-3 -4l-117.5 -197t-101.5 -153.5t-96 -120t-91.5 -79.5t-97 -49.5t-105.5 -14.5q-63 0 -108 32t-45 88q0 42 26 68t81 26h9v-8q-31 -2 -51.5 -23.5t-20.5 -57.5q0 -53 29.5 -83t84.5 -30q45 0 88 17t84.5 53.5t75.5 74t77 101l72.5 110.5l77 125.5
l76.5 124.5h-71v12h77l45.5 72.5l46 69t50 68t50 55.5t55 47.5t56 28t60.5 11.5q33 0 52.5 -14t19.5 -41q0 -24 -15 -39.5t-38 -17.5q9 32 9 56q0 44 -42 44q-21 0 -42.5 -10.5t-44.5 -33.5t-42.5 -45.5t-44.5 -60l-40.5 -62l-41.5 -67.5l-37 -61h111q12 0 58.5 2.5
t72.5 3.5q-26 -43 -80.5 -122t-85.5 -129.5t-31 -71.5q0 -23 23 -23q54 0 153.5 97.5t134.5 162.5l8 -5q-46 -78 -143 -172.5t-161 -94.5q-28 0 -43.5 15.5t-15.5 41.5q0 27 19.5 62t70 105.5t79.5 115.5z" />
    <glyph glyph-name="fl" unicode="fl" 
d="M206 344h173l146 234q15 25 15 62q0 44 -42 44q-21 0 -42.5 -10.5t-45 -34t-42 -45t-44 -60l-40 -61.5l-41.5 -67.5zM568 679l96 17l-234 -364q-149 -232 -167 -269q-13 -26 -13 -38q0 -21 25 -21q42 0 139.5 88.5t146.5 172.5l7 -4q-39 -71 -140.5 -170t-157.5 -99
q-60 0 -60 54q0 15 8.5 37.5t26.5 53l34 55.5l43 65.5l42 63.5l7 11h-171l-119 -198.5t-103 -155t-96.5 -120.5t-91.5 -79.5t-97.5 -50t-105.5 -14.5q-63 0 -108 32t-45 88q0 42 26 68t81 26h9v-8q-31 -2 -51.5 -23.5t-20.5 -57.5q0 -53 29.5 -83t84.5 -30q45 0 88 17
t84.5 53.5t75.5 74t77 101l72.5 110.5l77 125.5l76.5 124.5h-71v12h77l45.5 72.5l46 69t50 68t50 55.5t55 47.5t56 28t60.5 11.5q36 0 56 -17z" />
    <glyph glyph-name=".notdef" horiz-adv-x="743" 
d="M243 0v700h500v-700h-500zM493 395l170 255h-340zM523 350l170 -255v510zM323 50h340l-170 255zM293 605v-510l170 255z" />
    <glyph glyph-name=".null" horiz-adv-x="0" 
 />
    <glyph glyph-name="nonmarkingreturn" horiz-adv-x="333" 
 />
    <glyph glyph-name="space" unicode=" " horiz-adv-x="250" 
 />
    <glyph glyph-name="exclam" unicode="!" horiz-adv-x="333" 
d="M166 139l-6 4q6 9 26 42l28 45.5t25 41.5l26.5 46.5l22.5 42.5t23 47.5t19 45.5q17 44 30.5 60t32.5 16q14 0 23.5 -10t9.5 -24q0 -5 -1.5 -10.5t-4.5 -11.5l-5 -10t-7.5 -10t-8 -9l-8 -9.5t-7.5 -8.5q-122 -137 -218 -288zM107 74q15 0 26 -11t11 -26t-11 -26t-26 -11
t-26 11t-11 26t11 26t26 11z" />
    <glyph glyph-name="quotedbl" unicode="&#x22;" horiz-adv-x="333" 
d="M276 640l-16 -179q0 -1 -0.5 -5t-1 -7t-2 -7t-4 -6t-6.5 -2q-5 0 -8 3.5t-4 7t-2 9.5v7l-16 179q-7 72 30 72t30 -72zM411 640l-16 -179q0 -1 -0.5 -5t-1 -7t-2 -7t-4 -6t-6.5 -2q-5 0 -8 3.5t-4 7t-1 9.5l-1 7l-16 179q-7 72 30 72t30 -72z" />
    <glyph glyph-name="numbersign" unicode="#" horiz-adv-x="500" 
d="M503 206l-10 -32h-84l-71 -174h-38l72 174h-106l-72 -174h-38l72 174h-86l10 32h90l49 122h-86l10 32h90l71 170h38l-71 -170h106l71 170h38l-71 -170h79l-10 -32h-83l-49 -122h79zM435 328h-106l-49 -122h106z" />
    <glyph glyph-name="dollar" unicode="$" horiz-adv-x="500" 
d="M394 314l133 207q-19 5 -46 5q-52 0 -84.5 -36.5t-32.5 -91.5q0 -35 30 -84zM370 259l-152 -237q24 -10 59 -10q62 0 100.5 37t38.5 97q0 54 -46 113zM578 600l8 -5l-41 -64q87 -23 87 -97q0 -31 -17 -51.5t-40 -20.5q-10 0 -19 3q28 24 28 76q0 58 -48 77l-136 -212
q36 -48 50 -75t14 -61q0 -75 -58 -122.5t-130 -47.5q-43 0 -67 8l-31 -48l-8 5l29 46q-44 15 -71.5 46.5t-27.5 70.5q0 44 24 72t64 28q10 0 26 -3q-60 -38 -60 -105t55 -94l155 240q-48 61 -48 114q0 67 49 112.5t126 45.5q22 0 44 -5z" />
    <glyph glyph-name="percent" unicode="%" horiz-adv-x="778" 
d="M731 298q42 0 63.5 -24t21.5 -59q0 -65 -71 -140t-149 -75q-91 0 -91 92q0 77 74 141.5t152 64.5zM729 286q-59 0 -119.5 -83t-60.5 -150q0 -41 46 -41q40 0 82.5 43t68.5 98t26 94t-43 39zM641 460l-2 2q-42 -36 -90 -36q-38 0 -65 36l-2 -2q3 -75 -74 -153.5
t-152 -78.5q-41 0 -64.5 24t-23.5 65q0 75 75 145t150 70q30 0 49.5 -9.5t29.5 -23.5t19 -28t24 -23.5t37 -9.5q40 0 73 24.5t49 48.5q15 22 23.5 28.5t20.5 6.5q11 0 11 -14q0 -11 -153 -188l-137 -163l-135.5 -162.5t-51.5 -59.5q-5 0 -5 5q0 1 394 496zM212 285
q0 -45 39 -45q42 0 87 43t72.5 98.5t27.5 95.5q0 43 -42 43q-61 0 -122.5 -81t-61.5 -154z" />
    <glyph glyph-name="ampersand" unicode="&#x26;" horiz-adv-x="611" 
d="M735 125l5 -4q-41 -61 -104 -95t-132 -34q-43 0 -91.5 13.5t-82.5 40.5q-66 -54 -132 -54q-65 0 -104 38t-39 96q0 62 43.5 113.5t104.5 77.5q0 71 53.5 146t122.5 75q28 0 45.5 -16t17.5 -44q0 -20 -13.5 -39t-38 -36t-45.5 -29.5t-50 -27t-38 -19.5q1 -134 104 -240
q30 27 66 69.5t59 72.5t53.5 52.5t59.5 22.5q26 0 43.5 -14t17.5 -37q0 -19 -16 -35q-19 40 -70 40q-24 0 -48 -15t-35.5 -28l-39.5 -47q-38 -46 -82 -88q72 -72 158 -72q60 0 116 33t92 84zM402 483q0 43 -36 43q-23 0 -47 -21t-41 -59q-21 -49 -21 -108q70 31 107.5 63
t37.5 82zM109 142q0 -51 29 -88.5t75 -37.5q62 0 108 37q-55 46 -86.5 114t-31.5 139q-45 -19 -69.5 -65.5t-24.5 -98.5z" />
    <glyph glyph-name="quotesingle" unicode="'" horiz-adv-x="222" 
d="M273 640l-16 -179q0 -1 -0.5 -5t-1 -7t-2 -7t-4 -6t-6.5 -2q-5 0 -8 3.5t-4 7t-1 9.5l-1 7l-16 179q-7 72 30 72t30 -72z" />
    <glyph glyph-name="parenleft" unicode="(" horiz-adv-x="389" 
d="M661 696v-10q-234 -119 -406 -367q-93 -134 -149 -291.5t-56 -313.5h-12q1 217 43.5 351.5t146.5 288.5q147 219 433 342z" />
    <glyph glyph-name="parenright" unicode=")" horiz-adv-x="389" 
d="M-229 -286v10q234 119 406 367q93 134 149 291.5t56 313.5h12q-1 -217 -43.5 -351.5t-146.5 -288.5q-147 -219 -433 -342z" />
    <glyph glyph-name="asterisk" unicode="*" horiz-adv-x="333" 
d="M204 538q0 20 28 24l95 14l-33 27l-26 21t-17.5 14.5t-11.5 12.5t-3 10q0 8 5 13.5t12 5.5q5 0 12 -5.5t17 -17t17.5 -21.5l19.5 -26t18 -23l9 52l6 32q7 41 25 41q15 0 15 -21q0 -8 -6.5 -25.5t-17 -42.5t-15.5 -40l40.5 15l45.5 17t24 7q7 0 12 -5.5t5 -13.5
q0 -13 -22.5 -19t-101.5 -16q12 -12 36.5 -31t39.5 -33t15 -24q0 -14 -14 -14q-8 0 -24.5 16.5t-38 43t-24.5 30.5q-11 -76 -17.5 -99t-19.5 -23q-16 0 -16 16q0 8 16 51t20 59q-9 -3 -36.5 -14.5t-45 -17.5t-26.5 -6q-7 0 -12 4.5t-5 11.5z" />
    <glyph glyph-name="plus" unicode="+" horiz-adv-x="600" 
d="M367 189v155h34v-155h155v-34h-155v-155h-34v155h-155v34h155z" />
    <glyph glyph-name="comma" unicode="," horiz-adv-x="250" 
d="M-32 -124v6q53 8 96.5 40.5t47.5 79.5q-3 -2 -12 -2q-13 0 -23.5 8.5t-10.5 24.5q0 18 10.5 29.5t28.5 11.5t28.5 -14t10.5 -32q0 -57 -54.5 -100.5t-121.5 -51.5z" />
    <glyph glyph-name="hyphen" unicode="-" horiz-adv-x="333" 
d="M85 186h231l-12 -28h-230z" />
    <glyph glyph-name="period" unicode="." horiz-adv-x="250" 
d="M103 74q15 0 26 -11t11 -26t-11 -26t-26 -11t-26 11t-11 26t11 26t26 11z" />
    <glyph glyph-name="slash" unicode="/" horiz-adv-x="278" 
d="M145 -16h-37l283 728h37z" />
    <glyph glyph-name="zero" unicode="0" horiz-adv-x="500" 
d="M110 122q0 87 57.5 183.5t144 160.5t164.5 64q118 0 118 -134q0 -80 -58.5 -175.5t-146 -162t-164.5 -66.5q-56 0 -85.5 35.5t-29.5 94.5zM170 118q0 -110 72 -110q48 0 100.5 35t94.5 89.5t69.5 127.5t27.5 143q0 49 -21 80t-65 31q-58 0 -123.5 -60t-110 -153.5
t-44.5 -182.5z" />
    <glyph glyph-name="one" unicode="1" horiz-adv-x="370" 
d="M108 -8l292 446l-2 2q-87 -59 -208 -92l-4 11q151 35 326 171l4 -4l-59 -89l-75 -114.5l-69 -107.5l-72 -116t-51 -91z" />
    <glyph glyph-name="two" unicode="2" horiz-adv-x="500" 
d="M497 165l7 -1q-86 -172 -203 -172q-21 0 -83 32q-60 31 -94 31q-49 0 -80 -31q-5 -5 -10.5 -11.5l-9 -10.5t-7 -7t-5.5 -3q-6 0 -6 10q0 17 73.5 62t208.5 106q127 57 173.5 113t46.5 124q0 52 -27 83.5t-77 31.5q-48 0 -90 -33.5t-42 -85.5q0 -27 16.5 -47t42.5 -20
q12 0 38 11l4 -3q-24 -44 -73 -44q-31 0 -49.5 20.5t-18.5 55.5q0 58 52 110t136 52q73 0 112.5 -37t39.5 -88q0 -56 -31 -100.5t-85 -76.5t-110 -56.5l-124 -54t-108 -56.5l2 -4q44 22 66 22q20 0 89 -27q69 -28 86 -28q72 0 140 133z" />
    <glyph glyph-name="three" unicode="3" horiz-adv-x="500" 
d="M272 264v16q11 1 44.5 4.5t51.5 6t48.5 8.5t48.5 16t36.5 24.5t27.5 37.5t9 52q0 41 -21.5 67t-61.5 26q-42 0 -74.5 -25t-32.5 -64q0 -24 12 -41.5t35 -17.5q18 0 35 8q-1 -18 -19 -31t-42 -13q-28 0 -44.5 18.5t-16.5 45.5q0 55 48 95.5t115 40.5q62 0 94.5 -31
t32.5 -78q0 -117 -224 -147v-2q51 -3 80.5 -30.5t29.5 -77.5q0 -78 -78 -129t-181 -51q-69 0 -120.5 35t-51.5 92q0 41 24 70t65 29q32 0 54 -22l-1 -4q-8 2 -14 2q-31 0 -52.5 -25t-21.5 -68q0 -47 33 -72t86 -25q79 0 138.5 47t59.5 123q0 44 -25 69t-70 25q-19 0 -57 -4z
" />
    <glyph glyph-name="four" unicode="4" horiz-adv-x="500" 
d="M616 516l-202 -317h122l-7 -12h-122l-113 -177l-70 -10l123 187h-269l498 422h26l-492 -406v-4h244l205 311z" />
    <glyph glyph-name="five" unicode="5" horiz-adv-x="500" 
d="M226 273l252 257q33 -38 80 -38q43 0 80 28l3 -4q-17 -25 -53 -46.5t-64 -21.5q-27 0 -82 25l-172 -172l2 -2q45 19 86 19q61 0 94.5 -29t33.5 -85q0 -81 -78 -146.5t-172 -65.5q-68 0 -116.5 34.5t-48.5 97.5q0 41 25.5 69.5t65.5 28.5q34 0 58 -26l-1 -4q-12 2 -19 2
q-33 0 -54 -24.5t-21 -61.5q0 -48 29.5 -76t79.5 -28q84 0 138 61.5t54 145.5q0 42 -22 66.5t-65 24.5q-47 0 -108 -33z" />
    <glyph glyph-name="six" unicode="6" horiz-adv-x="500" 
d="M468 300q0 90 -62 90q-31 0 -68.5 -25t-70 -65t-54.5 -94t-22 -107q0 -95 64 -95q49 0 100 48.5t82 118t31 129.5zM249 301h2q86 105 175 105q102 0 102 -109q0 -60 -43 -132t-110.5 -122.5t-129.5 -50.5q-53 0 -80.5 39.5t-27.5 95.5q0 88 56.5 189.5t140.5 182t187 134
t190 53.5q65 0 98 -25.5t33 -62.5q0 -36 -34 -62q2 20 2 24q0 40 -28 75t-88 35q-69 0 -139.5 -36.5t-128 -95.5t-101 -117.5t-76.5 -119.5z" />
    <glyph glyph-name="seven" unicode="7" horiz-adv-x="500" 
d="M176 -96l-88 -10l555 619l-2 2q-63 -55 -128 -55q-28 0 -74 21q-48 21 -71 21q-29 0 -53 -22.5t-38.5 -45t-20.5 -22.5t-6 8q0 5 12.5 19t28 29.5t18.5 20.5q6 9 41 73l8 -3q-16 -33 -37 -64l2 -2q23 18 33 24.5t29 13.5t41 7t66 -21q42 -21 72 -21q54 0 100 48l6 -4z
" />
    <glyph glyph-name="eight" unicode="8" horiz-adv-x="500" 
d="M494 295l-2 9q122 29 122 156q0 66 -31.5 107t-83.5 41q-51 0 -83 -38.5t-32 -101.5q0 -60 42.5 -151.5t42.5 -146.5q0 -76 -56.5 -127t-136.5 -51q-69 0 -115.5 45t-46.5 114q0 89 72.5 145t165.5 56q-22 59 -22 98q0 74 56 122t131 48q68 0 106.5 -40.5t38.5 -108.5
q0 -65 -49.5 -112t-118.5 -64zM168 163q0 -63 37 -109t99 -46q111 0 111 149q0 19 -3 37.5t-11 41.5t-12 32.5t-17.5 39t-15.5 32.5q-95 -2 -141.5 -44t-46.5 -133z" />
    <glyph glyph-name="nine" unicode="9" horiz-adv-x="500" 
d="M488 437q0 89 -63 89q-51 0 -100 -49t-77 -115.5t-28 -122.5q0 -95 59 -95q66 0 137.5 89t71.5 204zM439 245h-2q-33 -49 -81.5 -83t-102.5 -34q-45 0 -69 29t-24 78q0 101 96.5 202t181.5 101q54 0 82 -32t28 -85q0 -92 -58 -205t-146 -208t-200.5 -159.5t-212.5 -64.5
q-73 0 -122 32.5t-49 81.5q0 52 47 66q-3 -15 -3 -32q0 -58 44 -95t111 -37q73 0 150 45t139.5 115t111 143t79.5 142z" />
    <glyph glyph-name="colon" unicode=":" horiz-adv-x="250" 
d="M66 38q0 17 10.5 27.5t27.5 10.5q14 0 25 -12t11 -26t-11.5 -25t-25.5 -11q-16 0 -26.5 10t-10.5 26zM246 307q0 16 11.5 26.5t27.5 10.5q15 0 25 -11.5t10 -26.5t-11 -25.5t-26 -10.5q-17 0 -27 10t-10 27z" />
    <glyph glyph-name="semicolon" unicode=";" horiz-adv-x="250" 
d="M-32 -124v6q53 8 96.5 40.5t47.5 79.5q-3 -2 -12 -2q-13 0 -23.5 8.5t-10.5 24.5q0 18 10.5 29.5t28.5 11.5t28.5 -14t10.5 -32q0 -57 -54.5 -100.5t-121.5 -51.5zM246 307q0 16 11.5 26.5t27.5 10.5q13 0 24 -10.5t11 -23.5q0 -15 -11 -27.5t-26 -12.5q-17 0 -27 10
t-10 27z" />
    <glyph glyph-name="less" unicode="&#x3c;" horiz-adv-x="600" 
d="M546 28v-34l-344 159v37l344 160v-34l-310 -144z" />
    <glyph glyph-name="equal" unicode="=" horiz-adv-x="600" 
d="M556 255v-34h-344v34h344zM556 123v-34h-344v34h344z" />
    <glyph glyph-name="greater" unicode="&#x3e;" horiz-adv-x="600" 
d="M244 -6v34l310 144l-310 144v34l344 -160v-37z" />
    <glyph glyph-name="question" unicode="?" 
d="M157 129l-9 3q21 34 59 58t83.5 46t69.5 42q65 54 65 144q0 48 -26.5 76t-72.5 28q-55 0 -103.5 -42.5t-48.5 -99.5q0 -84 62 -84q48 0 80 40l7 -5q-34 -47 -89 -47q-42 0 -66 24.5t-24 66.5q0 64 62.5 111.5t133.5 47.5q63 0 101 -31t38 -92q0 -53 -44 -98t-110 -76
q-3 -1 -19.5 -8.5t-22 -10.5t-21 -10.5t-23 -12l-20.5 -12t-20.5 -13.5t-16.5 -14t-15 -15.5t-10 -15.5zM107 74q15 0 26 -11t11 -26t-11 -26t-26 -11t-26 11t-11 26t11 26t26 11z" />
    <glyph glyph-name="at" unicode="@" horiz-adv-x="800" 
d="M386 279q0 -93 56 -93q53 0 101.5 80.5t48.5 149.5q0 37 -16.5 59t-45.5 22q-50 0 -97 -70.5t-47 -147.5zM607 478l11 42h64l-63 -250q-8 -34 -8 -47q0 -47 47 -47q68 0 111 72.5t43 151.5q0 130 -93 212t-228 82q-137 0 -228 -101t-91 -272q0 -77 39.5 -148.5
t116.5 -119t173 -47.5q93 0 209 58l8 -18q-114 -62 -216 -62q-98 0 -176 34t-123 87.5t-68 112t-23 114.5q0 167 110 273.5t269 106.5q153 0 250 -89.5t97 -221.5q0 -56 -22 -112.5t-68.5 -97.5t-105.5 -41q-32 0 -55.5 16.5t-32 32.5t-7.5 25h-2q-51 -74 -115 -74
q-48 0 -74 35t-26 97q0 91 58.5 171t141.5 80q29 0 46 -15t31 -40z" />
    <glyph glyph-name="A" unicode="A" horiz-adv-x="944" 
d="M734 311h-137q-251 -319 -410 -319q-57 0 -78.5 21t-21.5 47q0 17 10.5 29t27.5 12q15 0 24.5 -10.5t9.5 -26.5q0 -24 -19 -29q15 -23 58 -23q141 0 375 288q1 1 25.5 32t34 42l38 44.5t45 50.5l47.5 49t54 51l56 44.5t61 42t61 32t65 24.5l3 -4q-109 -102 -215 -296.5
t-106 -321.5q0 -74 53 -74q35 0 95.5 52.5t103 103.5t73.5 93l7 -3q-36 -47 -48.5 -62l-47 -57.5t-54.5 -60.5l-50 -44t-55 -36t-48 -10q-45 0 -67 30t-22 76q0 79 52 213zM605 323h134q98 204 252 351l-2 2q-177 -88 -384 -353z" />
    <glyph glyph-name="B" unicode="B" horiz-adv-x="889" 
d="M453 448l11 1q5 -35 5 -66q0 -93 -49.5 -158t-130.5 -65q-71 0 -112 47.5t-41 116.5q0 66 38 135t102 125t158.5 92t198.5 36q117 0 192 -42q65 36 139 48v-12q-70 -10 -124 -45q65 -51 65 -125q0 -71 -57 -119t-133 -62v-2q61 -3 99 -35t38 -93q0 -93 -78.5 -163
t-164.5 -70q-56 0 -91 24.5t-35 62.5q0 26 15.5 43.5t41.5 17.5q16 0 28 -12q-31 -6 -31 -61q0 -27 20 -45t51 -18q87 0 135.5 67.5t48.5 160.5q0 113 -140 111v12q88 -1 143.5 56t55.5 145q0 47 -34 84q-43 -38 -90.5 -106.5t-85.5 -138.5t-86.5 -145.5t-96 -133
t-112.5 -95t-136 -37.5q-50 0 -81 21.5t-31 53.5q0 20 11 31.5t29 11.5q16 0 25 -10.5t9 -26.5q0 -14 -9.5 -23.5t-23.5 -9.5q4 -19 25.5 -27.5t43.5 -8.5q27 0 52 7t44 15.5t42 31l36 36t37.5 50l36 54.5l40.5 66q5 9 8 13l43 70.5l42.5 69.5l38 59t41.5 59t39.5 47
t46.5 46t48 35q-55 45 -175 45q-183 0 -319.5 -113.5t-136.5 -256.5q0 -61 30.5 -109.5t86.5 -48.5q74 0 121 60t47 153q0 21 -4 63z" />
    <glyph glyph-name="C" unicode="C" horiz-adv-x="667" 
d="M534 556h12q-1 -8 -1 -24q0 -38 24.5 -55.5t61.5 -17.5q56 0 107 52t51 118q0 39 -21.5 55t-63.5 16q-67 0 -153.5 -48t-162 -122.5t-128 -177t-52.5 -200.5q0 -64 31.5 -110t94.5 -46q96 0 170.5 79.5t74.5 170.5q0 39 -23.5 60.5t-63.5 21.5l-1 12q64 0 94 -25.5
t30 -84.5q0 -37 -19 -78.5t-53.5 -79.5t-90.5 -63t-122 -25q-49 0 -87 17.5t-58.5 45.5t-30.5 58t-10 59q0 91 58 192t142.5 178t182 127.5t173.5 50.5q125 0 125 -102q0 -68 -59.5 -115.5t-135.5 -47.5q-94 0 -97 82q0 19 1 27z" />
    <glyph glyph-name="D" unicode="D" horiz-adv-x="889" 
d="M992 738l2 -8q-102 -19 -178 -90q84 -81 84 -233q0 -87 -39 -167t-102 -135t-143.5 -88t-162.5 -33q-90 0 -168 19q-82 -13 -115 -13q-50 0 -50 21t38 21q15 0 30 -2.5t42.5 -8t53.5 -9.5q57 15 109.5 68t97 127l87.5 151t99.5 156.5t114.5 127.5q-78 64 -188 64
q-107 0 -204.5 -48t-159 -134.5t-61.5 -189.5q0 -158 126 -158q88 0 145.5 78.5t57.5 187.5v34h12v-29q0 -124 -65 -205.5t-165 -81.5q-72 0 -111.5 50.5t-39.5 125.5q0 62 36 129t96 123.5t148 93t182 36.5q116 0 202 -67q96 74 189 87zM436 -4q100 0 182 45t131.5 116.5
t76 154.5t26.5 166q0 97 -47 148q-42 -48 -88 -126l-85 -148.5t-85 -141.5t-108.5 -124.5t-136.5 -77.5v-2q51 -10 134 -10z" />
    <glyph glyph-name="E" unicode="E" horiz-adv-x="667" 
d="M342 180l-7 5q68 95 168 95q51 0 79.5 -26.5t28.5 -68.5q0 -46 -45 -93.5t-113 -77.5t-133 -30q-107 0 -168.5 45.5t-61.5 118.5q0 28 7 53t17 43.5t29.5 37t35 30.5t44 27t46 23l49.5 23q34 15 43 32.5t9 74.5q0 93 59.5 156.5t170.5 63.5q54 0 95 -25.5t41 -76.5
q0 -63 -51 -101t-113 -38q-24 0 -45 6l1 11q12 -5 44 -5q54 0 87 44t33 85q0 88 -102 88q-42 0 -74 -19t-49 -50t-25 -63t-8 -64q0 -76 -67 -106q-6 -3 -18 -8q-33 -14 -49.5 -22.5t-44 -24t-42 -31t-30 -37t-22.5 -49.5t-7 -62q0 -65 50 -114.5t126 -49.5q51 0 101.5 18.5
t88 61t37.5 98.5q0 90 -76 90q-38 0 -76 -26t-63 -62z" />
    <glyph glyph-name="F" unicode="F" horiz-adv-x="778" 
d="M602 323h-39l2 12h43q81 125 120 170q86 99 187 125v2q-27 0 -111.5 2t-157.5 2q-196 0 -317.5 -64.5t-124.5 -164.5q-2 -47 34.5 -76t99.5 -29q87 0 164.5 54t77.5 130q0 24 -9 55l10 2q11 -28 11 -58q0 -73 -78 -134t-177 -61q-67 0 -106 30.5t-39 83.5
q0 115 151 197.5t405 82.5q68 0 153.5 -2t97.5 -2q16 0 41 2t34 2q17 0 25 -0.5t15.5 -5.5t7.5 -14q0 -21 -18 -27q-22 -7 -172 -7q-44 -16 -79.5 -41.5t-61.5 -58.5t-44.5 -62.5t-40.5 -68.5t-39 -62q6 1 39 3.5t54 6t26 10.5q27 36 55 36q13 0 25 -4q-90 -78 -142 -162
l-6 3q6 17 14 33.5t20.5 39.5l17.5 32q-25 -3 -108 -11q-35 -58 -61.5 -97t-69 -87.5t-83 -77.5t-96 -49.5t-116.5 -20.5q-64 0 -119 31.5t-55 90.5q0 21 12 37.5t33 16.5q15 0 24 -10t9 -25q0 -35 -28 -35q-6 0 -10 1q0 -6 1 -13.5t8.5 -23.5t21 -27.5t41.5 -21t67 -9.5
q34 0 67.5 11t59.5 25.5t55.5 42.5t48 49t44.5 58t38 55.5l35 56.5q9 14 13 21z" />
    <glyph glyph-name="G" unicode="G" horiz-adv-x="611" 
d="M454 799l6 -6q-47 -41 -47 -100q0 -46 22 -73q149 92 291 92q28 0 50.5 -5t41 -21.5t18.5 -43.5q0 -41 -33.5 -69t-78 -38.5t-96.5 -10.5q-119 0 -184 65q-62 -43 -118 -129.5t-56 -152.5q0 -101 82 -101q50 0 107.5 35.5t68.5 59.5l7.5 15.5t7.5 16t7 14t8 13.5t8 11.5
t9.5 10.5l11 7.5t12.5 6.5t14.5 3.5t17.5 1.5q17 0 17 -15q0 -7 -8 -18.5t-26.5 -33.5l-26.5 -32q-176 -318 -399 -318q-69 0 -115.5 37t-46.5 95q0 28 13.5 47t39.5 19q14 0 24.5 -10.5t10.5 -24.5q0 -16 -9.5 -26t-25.5 -9q-11 0 -17 3q-2 -9 -2 -23q0 -43 38.5 -69.5
t92.5 -26.5q30 0 59.5 10t52 22.5t49.5 38t42.5 42t40 51l33.5 48l32 48.5l-2 2q-82 -68 -171 -68q-55 0 -88 33t-33 89q0 80 68 162.5t152 137.5q-25 36 -25 79q0 62 53 108zM796 651q0 22 -16 33.5t-32 13.5t-40 2q-61 0 -131 -30t-125 -73q52 -61 177 -61q68 0 117.5 31
t49.5 84z" />
    <glyph glyph-name="H" unicode="H" horiz-adv-x="833" 
d="M456 531l12 1q11 -19 11 -45q0 -62 -55.5 -104t-119.5 -42q-60 0 -95.5 30.5t-35.5 75.5q0 57 40 103t105.5 75t154.5 48t180 27t189 8q20 0 45.5 7t34.5 7q15 0 15 -10q0 -11 -10.5 -13.5t-41.5 -2.5q-152 0 -357 -349h144q39 58 87 116t110 117t131.5 95.5t132.5 36.5
q22 0 39.5 -13t17.5 -34q0 -14 -9.5 -23.5t-22.5 -9.5q-15 0 -34 28t-40 28q-68 0 -176 -110.5t-191 -262.5t-83 -256q0 -25 9 -42t25 -17q59 0 139.5 82.5t140.5 183.5l9 -4q-19 -34 -48.5 -75t-71.5 -90t-91 -81t-92 -32t-63.5 26.5t-20.5 67.5q0 98 97 257h-144l-33 -53
l-35 -54t-42 -59.5l-44 -52.5t-51.5 -50.5t-53 -37t-60.5 -28t-63 -8.5q-37 0 -70 17t-33 51q0 17 12 28t29 11q15 0 24 -9t9 -23q0 -32 -31 -32q11 -31 65 -31q30 0 61.5 17t56 39.5t55 63.5t49 69.5l48.5 78l43 69.5q4 7 28.5 44.5l30.5 46.5l29 42.5t32.5 44.5l32.5 38
t37.5 38.5l39 31t45.5 29.5t47.5 21t54.5 17v2q-273 0 -441 -72t-168 -188q0 -33 21.5 -58t61.5 -25q55 0 106 38.5t51 93.5q0 22 -11 46z" />
    <glyph glyph-name="I" unicode="I" horiz-adv-x="611" 
d="M-15 108q0 22 13.5 37t35.5 15q17 0 27 -9.5t10 -25.5t-11 -27t-26 -8q-9 -36 26.5 -65t95.5 -29q46 0 91.5 21t79.5 49.5t70 73t57 77l48 77t36 57.5l12 18l57.5 83.5t63 81t81.5 82.5t82 48v2q-53 0 -104.5 -3t-120 -11t-124.5 -25.5t-106 -42.5t-78.5 -66t-28.5 -93
q0 -42 23.5 -65t63.5 -23q57 0 105.5 41.5t48.5 91.5q0 23 -5 38l11 2q6 -16 6 -38q0 -59 -50.5 -103t-118.5 -44q-60 0 -96 30.5t-36 85.5q0 51 38 93t98 68.5t136.5 44.5t151 25t144.5 6q39 0 74 4.5t56 9t25 4.5q17 0 17 -11q0 -10 -18 -13.5t-71 -3.5q-91 0 -284 -337
q-94 -165 -198.5 -256t-238.5 -91q-64 0 -116.5 32t-52.5 92z" />
    <glyph glyph-name="J" unicode="J" horiz-adv-x="611" 
d="M499 500l11 1q7 -18 7 -41q0 -61 -51 -104t-116 -43q-63 0 -99 31t-36 81q0 61 47.5 108.5t115.5 73.5t155.5 42.5t153.5 21.5t124 5q31 0 75 10t53 10q17 0 17 -12q0 -20 -92 -20q-41 0 -105.5 -76.5t-119 -169.5l-121 -207.5t-97.5 -157.5l2 -2q116 35 179.5 80.5
t126.5 136.5l8 -5q-63 -94 -132.5 -143t-196.5 -84q-44 -68 -86 -120.5t-98 -104.5t-120.5 -80.5t-133.5 -28.5q-62 0 -109 32.5t-47 86.5q0 37 15.5 65t46.5 46.5t67 31t88 22t98.5 16l109.5 16t110 18.5l77 130.5l90 151.5t91 137t109.5 126.5t117.5 80.5v2
q-59 0 -124.5 -5.5t-148 -22t-146.5 -42.5t-108 -73t-44 -108q0 -37 22 -62.5t65 -25.5q61 0 108 40t47 96q0 17 -6 39zM-32 -286q181 0 372 309q-42 -8 -100 -17l-99 -15t-88 -15t-78 -21t-58.5 -29.5t-41 -44.5t-13.5 -62q0 -54 29 -79.5t77 -25.5z" />
    <glyph glyph-name="K" unicode="K" horiz-adv-x="889" 
d="M1008 266l6 -4q-38 -51 -90 -107.5t-124 -109.5t-121 -53q-31 0 -53 17t-22 47q0 35 44 121.5t44 122.5q0 27 -14.5 39t-32.5 12q-3 0 -11 -1t-11 -1q-14 0 -14 9q0 8 10 8q5 0 18.5 -1.5t19.5 -1.5q45 0 90 25.5t80.5 63l76 82l76.5 82t81.5 63t91.5 25.5q40 0 65 -15
t25 -40q0 -17 -11 -30t-26 -13t-17 8q14 11 14 35q0 19 -13.5 31t-37.5 12q-32 0 -69 -33.5t-76.5 -81.5t-85.5 -97t-112.5 -85t-141.5 -40v-2q33 -16 47 -41.5t14 -65.5q0 -36 -35 -111.5t-35 -95.5q0 -35 31 -35q42 0 111 52.5t122 108.5t86 101zM453 495l10 3
q9 -22 9 -47q0 -50 -50 -95.5t-128 -45.5q-51 0 -89 32.5t-38 82.5q0 63 57 114t153.5 83.5t219 50t258.5 17.5q21 0 64 10q44 12 45 12q15 0 15 -10q0 -14 -52 -14q-29 0 -57.5 -9.5t-52 -24t-48.5 -39.5t-43.5 -48t-42 -58l-39 -60l-39 -64l-37.5 -61l-38.5 -61t-42 -61
t-49.5 -65t-51.5 -54.5t-59.5 -49t-62 -29t-69 -12.5q-39 0 -71 17t-32 52q0 17 11 28.5t28 11.5q15 0 24 -9.5t9 -24.5q0 -11 -7 -20.5t-18 -9.5q0 -14 18.5 -23.5t43.5 -9.5t50 10t50 33t44.5 43.5t45.5 59l40 60t41 66.5l36 60l65 102t61 84.5t65.5 72.5t69.5 50.5
t82 34.5v2q-59 -1 -128 -7t-162 -24.5t-166 -47t-124 -79.5t-51 -116q0 -39 23.5 -62.5t56.5 -23.5q64 0 111.5 41t47.5 90q0 16 -7 42z" />
    <glyph glyph-name="L" unicode="L" horiz-adv-x="556" 
d="M676 265l5 -6l-110.5 -100.5l-161 -149t-102.5 -106.5q-12 -30 -29.5 -50.5t-34.5 -20.5q-13 0 -13 11q0 9 12 22.5t12 26.5q0 62 -41 97t-103 35q-16 0 -70 -19q-63 -21 -97 -21q-29 0 -29 16q0 9 16 15.5t43.5 10t51.5 5.5t51.5 3.5t33.5 1.5q32 10 63 33.5t56 51.5
t54.5 71.5t50.5 79l54 90.5l55 90q-66 10 -110.5 51.5t-44.5 103.5q0 43 31 74t76 31q36 0 66 -15l-4 -11q-28 14 -63 14q-40 0 -67 -28.5t-27 -64.5q0 -55 45 -96.5t107 -46.5q65 99 162.5 173.5t196.5 74.5q83 0 83 -70t-101 -134.5t-237 -64.5q-20 0 -54 2l-41.5 -66.5
l-45 -71.5t-44.5 -65t-52.5 -66t-55 -55t-66 -51t-72.5 -36l2 -2q30 3 40 3q124 0 142 -114q48 53 108.5 110.5l143 130.5zM800 700q-43 0 -88 -23.5t-83.5 -62t-68.5 -78t-53 -79.5q30 -2 51 -2q64 0 131 20t119 64.5t52 101.5q0 59 -60 59z" />
    <glyph glyph-name="M" unicode="M" horiz-adv-x="1000" 
d="M1115 271l8 -2q-60 -135 -170 -202t-251 -67q-33 0 -58 -4t-27 -4q-21 0 -21 11t22 11l54 -6q56 27 102 83.5t74.5 122l61.5 141l63.5 140.5t79.5 120.5t110 80.5l-2 2q-81 -13 -182.5 -108t-198.5 -230q-7 -9 -38.5 -54t-42.5 -59.5l-39.5 -52.5t-46 -57.5l-44.5 -49
t-53 -52t-54 -43.5l-7 10q36 58 64 142t48 157.5t48 148.5t79.5 137.5t127.5 101.5l-2 2q-51 -17 -99 -49t-84.5 -67t-76.5 -86.5t-65.5 -91l-61.5 -97.5l-23 -38l-44 -71.5l-41 -61.5t-45.5 -57.5t-45.5 -40.5t-53.5 -30t-57.5 -9q-72 0 -72 52q0 15 10 25t25 10
q12 0 20.5 -10t8.5 -23q0 -24 -15 -28q1 -6 11.5 -10t21.5 -4q21 0 42.5 8t39 18.5t39 33.5t35.5 40t37 50.5t35.5 53.5l37.5 61l38 61q53 84 93.5 139t95.5 110.5t120 89.5t143 49l1 -9q-69 -22 -118 -76.5t-78.5 -129.5t-53.5 -152t-58.5 -163.5t-77.5 -144.5l2 -2
q35 30 78 80t67 82l75.5 103.5t59.5 83.5q75 102 142 171t122.5 102.5t97.5 46t86 12.5q43 0 43 -19q0 -12 -20 -12q-9 0 -29.5 3.5t-30.5 3.5q-31 0 -68.5 -41t-71.5 -105t-55.5 -110.5t-37.5 -88.5q-16 -41 -24.5 -61t-27.5 -60.5t-37.5 -66t-45.5 -57.5t-62 -56t-76 -42
v-2q301 0 424 263z" />
    <glyph glyph-name="N" unicode="N" horiz-adv-x="722" 
d="M1004 543v6q36 22 36 76q0 20 -13.5 32.5t-35.5 12.5q-58 0 -125.5 -66.5t-119.5 -145.5q-108 -167 -238 -466h-7q12 59 12 115q0 59 -19 198q-19 137 -19 197q0 12 0.5 35.5t0.5 36.5h-2l-17 -37l-40.5 -88t-48.5 -97t-59 -106t-65 -95t-73.5 -84t-77.5 -53t-84 -22
q-28 0 -52.5 13t-24.5 39q0 16 11 26.5t27 10.5q13 0 21.5 -8.5t8.5 -21.5q0 -21 -13 -24q1 -7 11 -13t27 -6q38 0 79 24t76 58.5t75 92.5t68.5 106.5t64.5 120.5t55.5 114.5l48.5 107.5q4 28 18.5 54t39.5 26l-8 -20t-9.5 -26t-6.5 -36t-3 -56q0 -45 19 -165t19 -187
q0 -61 -18 -127l2 -2q104 236 193 372q157 239 275 239q33 0 54 -18.5t21 -46.5q0 -33 -25 -58.5t-59 -37.5z" />
    <glyph glyph-name="O" unicode="O" horiz-adv-x="778" 
d="M698 583h-12q0 39 -16 61.5t-61 22.5q-16 0 -24 -2q-31 -33 -54.5 -87.5t-23.5 -110.5q0 -155 124 -232q105 167 105 346q0 24 -2 41t-8.5 37t-22 30.5t-39.5 10.5q-37 0 -64 -19l2 -2h14q82 0 82 -96zM232 146q0 -54 28.5 -96t79.5 -42q68 0 155 71.5t130 145.5
q-65 39 -99.5 99.5t-34.5 134.5q0 116 75 201l-2 2q-126 -38 -229 -196.5t-103 -319.5zM897 270l6 -7q-30 -32 -74 -51t-83 -19q-51 0 -98 20q-57 -83 -148 -152t-174 -69q-77 0 -117.5 45t-40.5 123q0 88 44 180.5t108.5 162t135 117.5t125.5 57q39 35 86 35
q117 0 117 -154q0 -75 -39.5 -168.5t-90.5 -166.5q40 -18 93 -18q80 0 150 65z" />
    <glyph glyph-name="P" unicode="P" horiz-adv-x="778" 
d="M977 727l2 -4q-70 -25 -94 -39q82 -47 82 -145q0 -73 -67.5 -131t-137.5 -58q-34 0 -53 14.5t-19 37.5q0 15 9.5 25t24.5 10q19 0 26 -16q-12 -14 -12 -26q0 -33 36 -33q51 0 95 69t44 147q0 67 -43 97q-56 -33 -111 -105t-101.5 -153t-98 -162t-122.5 -148.5t-154 -96.5
v-2q77 -12 166 -12q278 0 446 261l8 -4q-63 -95 -125 -151.5t-145 -87t-193 -30.5q-82 0 -173 20q-2 0 -25.5 -5t-65 -10t-86.5 -5q-92 0 -92 29t54 29q71 0 213 -29q49 11 105 73.5t110.5 149l111.5 175.5t126.5 166t136.5 106q-37 17 -105 17q-83 0 -175 -30t-171.5 -81.5
t-131.5 -129t-52 -163.5q0 -48 23 -74t66 -26q73 0 127 67.5t54 142.5v38h12v-38q0 -80 -58 -151t-139 -71q-52 0 -84.5 36t-32.5 89q0 68 47.5 140t124 130t182.5 95.5t214 37.5q65 0 115 -21q50 22 106 36z" />
    <glyph glyph-name="Q" unicode="Q" horiz-adv-x="722" 
d="M608 415l6 -7q-76 -82 -172 -82q-62 0 -100.5 37t-38.5 95q0 93 97.5 173.5t221.5 80.5q79 0 125 -37t46 -114q0 -72 -53.5 -152.5t-135 -147t-163 -117.5t-152.5 -83q111 -35 205 -35q25 0 49.5 5t45 11t43 19.5l38 23t36.5 29.5l31.5 30t30.5 33l27 31.5l25.5 32.5
l22.5 29l6 -4q-207 -292 -417 -292q-80 0 -201 59q-92 -41 -183 -41q-34 0 -56 9.5t-22 26.5q0 57 146 57q69 0 160 -19q52 26 104.5 57.5t118 82t114.5 103.5t82.5 121.5t33.5 136.5q0 58 -34 95.5t-93 37.5q-98 0 -182.5 -77t-84.5 -176q0 -51 27.5 -80t79.5 -29
q55 0 89.5 18.5t76.5 58.5zM6 33q0 -29 67 -29q65 0 145 35q-66 30 -143 30q-25 0 -47 -8.5t-22 -27.5z" />
    <glyph glyph-name="R" unicode="R" horiz-adv-x="889" 
d="M464 434h12q0 -87 -57.5 -156.5t-142.5 -69.5q-63 0 -100.5 37t-37.5 100q0 73 48 142t123 117.5t168.5 78t183.5 29.5q108 0 167 -31q72 28 105 31l1 -6q-43 -5 -91 -32q76 -43 76 -124q0 -99 -69.5 -147.5t-169.5 -48.5v-2q62 -26 62 -90q0 -33 -31 -120
q-32 -88 -32 -114q0 -32 29 -32q68 0 153 84q77 75 145 183l9 -4q-69 -107 -131 -171q-99 -104 -183 -104q-35 0 -55.5 17.5t-20.5 50.5q0 31 37 117q36 83 36 124q0 35 -17.5 48t-56.5 19l4 10q28 -4 42 -4q86 0 140.5 60.5t54.5 148.5q0 56 -38 85q-40 -24 -83.5 -75
t-81.5 -112l-79 -129.5t-84.5 -131.5t-90 -114.5t-102.5 -82.5t-115 -31q-37 0 -66 18t-29 52q0 18 11 29t30 11q13 0 22 -9t9 -22t-7.5 -23.5t-20.5 -9.5q3 -13 21.5 -23.5t40.5 -10.5q58 0 115 56.5t109.5 143.5l107 178.5t127.5 175.5t151 121q-58 29 -154 29
q-61 0 -127 -15.5t-129.5 -46.5t-114.5 -73.5t-82 -101.5t-31 -124q0 -55 27.5 -87t75.5 -32q81 0 134 67.5t53 146.5z" />
    <glyph glyph-name="S" unicode="S" horiz-adv-x="556" 
d="M32 257q22 0 34 -10.5t12 -27.5q0 -15 -9 -25.5t-24 -10.5q-14 0 -21 10q-18 -21 -18 -65q0 -54 49.5 -93t128.5 -39q65 0 114.5 30.5t77 80.5t41 106t14.5 115q2 180 65 282t180 102q52 0 85.5 -25.5t33.5 -66.5q0 -30 -22 -47t-54 -17q22 34 22 73q0 34 -20 52.5
t-51 18.5q-113 0 -152 -148q-16 -63 -27 -218q-7 -99 -36 -169.5t-73.5 -108.5t-94.5 -55t-110 -17q-90 0 -146.5 54t-56.5 138q0 35 16 58t42 23z" />
    <glyph glyph-name="T" unicode="T" horiz-adv-x="778" 
d="M639 494h12q1 -13 1 -37q0 -80 -72 -138.5t-179 -58.5q-79 0 -121 36t-42 97q0 40 19.5 79t67.5 77.5t119.5 67.5t184 47t252.5 18q41 0 102 -3t79 -3q22 0 49 3t33 3q13 0 22.5 -8t9.5 -21q0 -18 -22 -21.5t-100 -3.5q-46 0 -83.5 -12.5t-63 -29.5t-57.5 -58.5
t-52 -73.5l-62.5 -102l-74.5 -120q-160 -248 -373 -248q-42 0 -79.5 11t-66 40.5t-28.5 73.5q0 23 13 38t35 15q16 0 26.5 -10.5t10.5 -26.5q0 -14 -10 -23.5t-23 -9.5q-7 0 -12 2q4 -47 44 -72.5t100 -25.5q61 0 116 32t98 83.5t84 114.5l81.5 128.5t83 121.5t96.5 96.5
t113 51.5v2q-30 0 -98 4t-98 4q-245 0 -384.5 -68t-139.5 -173q0 -59 40.5 -90t114.5 -31q101 0 168 55t67 128q0 26 -1 39z" />
    <glyph glyph-name="U" unicode="U" horiz-adv-x="833" 
d="M909 696h67l-125 -194.5l-108.5 -163.5l-79 -122t-55 -98.5t-17.5 -64.5q0 -49 45 -49q110 0 317 262l8 -3q-47 -60 -82.5 -100t-81 -83.5t-89.5 -65.5t-85 -22q-80 0 -80 87q0 39 32 89l-2 2q-165 -178 -279 -178q-35 0 -55.5 18.5t-20.5 51.5q0 45 50.5 131.5
t110.5 167.5t110.5 166t50.5 129t-58 44q-100 0 -194.5 -85t-94.5 -175q0 -74 73 -74q36 0 66.5 22.5t49.5 52.5l11 -2q-21 -34 -55.5 -59.5t-72.5 -25.5q-40 0 -62 22t-22 63q0 60 44 123.5t117.5 106.5t150.5 43q43 0 69 -20.5t26 -58.5q0 -44 -49.5 -129.5t-108.5 -165
t-108.5 -162.5t-49.5 -124q0 -22 11.5 -33t26.5 -11q63 0 155 76.5t142 143.5q23 30 57 81.5l63 97.5l86.5 138z" />
    <glyph glyph-name="V" unicode="V" horiz-adv-x="722" 
d="M699 712l7 -5q-60 -47 -104.5 -116t-72.5 -142l-54 -145.5t-64.5 -147.5t-88.5 -128l2 -2l212 131q95 61 166.5 125.5t108 114t58.5 98.5t27.5 77t5.5 52q-22 6 -22 35q0 17 11 28t28 11q45 0 45 -64q0 -74 -70 -170t-166.5 -178t-203.5 -148l-241 -146l-5 5
q38 54 70 132t56.5 149.5t54.5 144t77.5 136.5t111.5 106l-2 2q-25 -13 -54 -22.5t-75 -21l-62 -15.5q-38 -11 -72 -25t-70 -37t-57.5 -56t-21.5 -73q0 -34 21.5 -53.5t52.5 -19.5q37 0 66.5 28t29.5 69q0 23 -2 35h11q3 -33 3 -37q0 -42 -32.5 -74.5t-78.5 -32.5
q-42 0 -70.5 25t-28.5 67q0 35 17 65.5t39.5 49t59.5 36t60.5 25.5t59.5 18l59 14.5t72.5 18.5t66 24t59.5 37z" />
    <glyph glyph-name="W" unicode="W" horiz-adv-x="944" 
d="M671 704l4 -8q-50 -39 -90.5 -97t-68 -123.5t-51.5 -130.5t-54.5 -136t-62.5 -121l2 -2q105 98 227 227t176 204l22.5 33l37 52.5t40 50.5t44.5 43.5t37 15.5q13 0 13 -14q0 -16 -45 -55q-46 -41 -80.5 -98.5t-56 -119l-42 -123t-51 -127t-70.5 -114.5l2 -2l87.5 58.5
l90.5 64t98 76.5t85 80t78 91t51 94t28 102q-22 12 -22 42q0 16 11.5 26.5t28.5 10.5q23 0 33.5 -18t10.5 -41q0 -62 -50 -139.5t-128.5 -151t-146 -127t-130.5 -96.5l-50 -33.5l-59 -40l-44.5 -32.5t-39.5 -33l-6 8q55 75 117 249t88 226l-2 1q-65 -83 -178 -201t-216 -211
q-15 -13 -32.5 -33.5t-28 -29.5t-23.5 -9q-14 0 -14 10q0 8 24.5 26t28.5 26q30 52 56.5 125.5t47 136.5t48.5 128.5t74.5 125.5t111.5 104l-2 2q-31 -13 -93.5 -32.5t-113 -37.5t-102 -43t-80.5 -61.5t-29 -81.5q0 -36 19.5 -56.5t52.5 -20.5q45 0 73.5 32t28.5 73
q0 8 -2 24h12q2 -16 2 -24q0 -51 -33.5 -84t-83.5 -33q-43 0 -70 24.5t-27 68.5q0 35 17 64t42 50t69 40.5t83.5 33t99.5 30.5q160 45 176 62z" />
    <glyph glyph-name="X" unicode="X" horiz-adv-x="833" 
d="M518 421h9q-25 -60 -72 -101.5t-104 -41.5t-91 35t-34 93q0 48 22 101t60 99t96 76t123 30q72 0 113 -36.5t41 -111.5q0 -42 -19 -101l2 -2q92 133 188.5 188t183.5 55q86 0 86 -49q0 -13 -8.5 -22.5t-21.5 -9.5q-19 0 -26 10t-7.5 22.5t-15 22.5t-45.5 10
q-91 0 -195.5 -93.5t-173 -223.5t-68.5 -233q0 -130 72 -130q40 0 88 27t92 71t76 82t61 78l7 -3q-85 -120 -173.5 -195.5t-166.5 -75.5q-60 0 -88 36.5t-28 91.5q0 52 19 112l-2 2q-54 -91 -160.5 -166.5t-202.5 -75.5q-52 0 -85.5 17.5t-33.5 46.5q0 20 11 32t26 12
q17 0 27 -11t10 -28q0 -19 -16 -30q2 -11 20 -19t43 -8q103 0 213.5 95.5t180.5 228t70 240.5q0 58 -29 95t-85 37q-91 0 -169 -86.5t-78 -203.5q0 -48 25.5 -84t72.5 -36q48 0 91.5 39t68.5 92z" />
    <glyph glyph-name="Y" unicode="Y" horiz-adv-x="778" 
d="M944 696h68l-429 -660q-212 -328 -431 -328q-71 0 -120 34t-49 99q0 52 35 83.5t82 31.5q46 0 88 -27l-4 -8q-49 19 -71 19q-32 0 -54 -27.5t-22 -78.5q0 -52 35.5 -83t92.5 -31q54 0 109.5 35t108 97.5t93 119.5t88 131t68.5 103l-2 2q-70 -84 -157 -150t-156 -66
q-84 0 -84 78q0 41 51.5 124.5t113.5 164t113.5 166t51.5 130.5q0 21 -12.5 33t-36.5 12q-56 0 -124.5 -37t-118.5 -99.5t-50 -125.5q0 -32 15 -52t45 -20q42 0 72 20t58 56l8 -1q-57 -87 -142 -87q-39 0 -58.5 25t-19.5 61q0 59 51 123.5t127 106.5t143 42q97 0 97 -84
q0 -34 -34 -95.5t-82.5 -129.5l-97 -135t-82.5 -127.5t-34 -92.5q0 -23 11 -33.5t26 -10.5q65 0 174 87.5t185 204.5z" />
    <glyph glyph-name="Z" unicode="Z" horiz-adv-x="667" 
d="M783 265l7 -3q-64 -115 -156.5 -192.5t-187.5 -77.5q-47 0 -123 44t-113 44q-34 0 -64.5 -15t-47.5 -33l-31.5 -33t-18.5 -15q-8 0 -8 10q0 13 26 35l703 603l-2 2q-77 -46 -142 -46q-57 0 -141 40t-118 40q-58 0 -96.5 -40t-38.5 -99q0 -47 27 -74.5t67 -27.5
q30 0 64 16l2 -11q-34 -17 -65 -17q-45 0 -76 30t-31 82q0 78 57.5 123.5t138.5 45.5q47 0 136 -35t141 -35q44 0 75 13.5t44 29.5t26.5 29.5t26.5 13.5q12 0 12 -10q0 -6 -10.5 -14t-29.5 -20t-29 -20q-29 -22 -167.5 -145.5l-289.5 -253.5t-227 -183l2 -2q86 44 140 44
q35 0 118 -36t124 -36q135 0 276 229z" />
    <glyph glyph-name="bracketleft" unicode="[" horiz-adv-x="389" 
d="M-164 -289l633 988h204l-5 -12h-159l-619 -964h163l-4 -12h-213z" />
    <glyph glyph-name="backslash" unicode="\" horiz-adv-x="278" 
d="M298 -16h-37l-117 728h37z" />
    <glyph glyph-name="bracketright" unicode="]" horiz-adv-x="389" 
d="M373 699h212l-633 -988h-205l4 12h159l621 964h-163z" />
    <glyph glyph-name="asciicircum" unicode="^" horiz-adv-x="600" 
d="M248 166h-40l184 364h20l184 -364h-39l-155 306z" />
    <glyph glyph-name="underscore" unicode="_" horiz-adv-x="500" 
d="M500 -125h-500v50h500v-50z" />
    <glyph glyph-name="grave" unicode="`" horiz-adv-x="222" 
d="M96 572q16 0 26 -17.5t12 -44.5q2 -21 21 -44t37.5 -38t18.5 -18q0 -4 -5 -4q-15 0 -73.5 51.5t-58.5 87.5q0 10 6 18.5t16 8.5z" />
    <glyph glyph-name="a" unicode="a" 
d="M354 285l33 59h65l-73.5 -104l-56.5 -84t-46.5 -79.5t-13.5 -46.5q0 -26 27 -26q42 0 124.5 77.5t153.5 185.5l6 -2q-67 -103 -150 -188t-145 -85q-27 0 -41.5 14t-14.5 35q0 19 14 55l-2 1q-36 -39 -82 -72t-85 -33q-34 0 -50.5 21.5t-16.5 53.5q0 53 43 121t107 116
t118 48q70 0 84 -67h2zM60 64q0 -48 36 -48q34 0 87 44t95 111t42 122q0 22 -13 34.5t-32 12.5q-39 0 -90 -43.5t-88 -109.5t-37 -123z" />
    <glyph glyph-name="b" unicode="b" 
d="M384 690l66 2l-165 -253q-154 -235 -189 -295t-35 -95q0 -20 12 -32.5t31 -12.5q45 0 102 49.5t95.5 114t38.5 107.5q0 7 -5 21.5t-5 22.5q0 33 28 33q17 0 26.5 -18t9.5 -47q0 -24 -4 -44q10 -13 31.5 -23.5t45.5 -10.5q54 0 95 52l7 -7q-44 -55 -103 -55q-44 0 -80 31
q-27 -86 -116 -162t-173 -76q-36 0 -60 21.5t-24 57.5q0 41 43.5 115t221.5 343z" />
    <glyph glyph-name="c" unicode="c" horiz-adv-x="333" 
d="M448 257l7 -6q-53 -84 -142 -159q-118 -100 -214 -100q-38 0 -62.5 20t-24.5 57q0 62 45.5 129t111.5 110.5t124 43.5q72 0 72 -47q0 -39 -64 -44q10 26 10 42q0 37 -35 37q-55 0 -129.5 -92t-74.5 -175q0 -28 13 -46.5t38 -18.5q68 0 169 80q94 73 156 169z" />
    <glyph glyph-name="d" unicode="d" 
d="M611 692h66q-52 -83 -168.5 -254.5t-180.5 -275t-64 -134.5q0 -24 22 -24q48 0 134 83q79 76 140 176l8 -4q-49 -87 -134 -173q-92 -94 -151 -94q-63 0 -63 48q0 26 24 69l-2 1q-24 -27 -37 -40t-38.5 -35.5t-49.5 -32.5t-49 -10q-35 0 -55 21.5t-20 52.5q0 54 48 122.5
t116.5 116t123.5 47.5q32 0 51 -20t18 -51h3zM322 280q0 28 -9 44t-36 16q-39 0 -93 -49.5t-92.5 -115.5t-38.5 -110q0 -49 37 -49q34 0 90 49t99 113t43 102z" />
    <glyph glyph-name="e" unicode="e" horiz-adv-x="333" 
d="M300 312q0 28 -26 28q-38 0 -91 -55t-76 -105q34 6 76.5 23t79.5 47t37 62zM454 264l8 -5q-31 -55 -87 -114.5t-131.5 -106t-138.5 -46.5q-42 0 -65 21.5t-23 61.5q0 42 27 92t67 90.5t90.5 67.5t93.5 27q53 0 53 -41q0 -29 -44.5 -60t-98 -51t-103.5 -31
q-25 -46 -25 -95q0 -27 12 -46.5t37 -19.5q67 0 168 79t160 177z" />
    <glyph glyph-name="f" unicode="f" horiz-adv-x="222" 
d="M143 332h-71v12h77l45.5 72.5l46 69t50 68t50 55.5t55 47.5t56 28t60.5 11.5q33 0 52.5 -14t19.5 -41q0 -24 -15 -39.5t-38 -17.5q9 32 9 56q0 44 -42 44q-21 0 -42.5 -10.5t-45 -34t-42 -45t-44 -60l-40 -61.5l-41.5 -67.5l-37 -61.5h226v-12h-232l-119 -198.5
t-103 -155t-96.5 -120.5t-91.5 -79.5t-97.5 -50t-105.5 -14.5q-63 0 -108 32t-45 88q0 42 26 68t81 26h9v-8q-31 -2 -51.5 -23.5t-20.5 -57.5q0 -53 29.5 -83t84.5 -30q45 0 88 17t84.5 53.5t75.5 74t77 101l72.5 110.5l77 125.5z" />
    <glyph glyph-name="g" unicode="g" 
d="M390 344h69q-45 -61 -121.5 -178t-102.5 -154q96 20 186.5 93.5t144.5 164.5l4 -6q-41 -70 -95 -124t-104.5 -82t-85.5 -41.5t-57 -16.5q-3 -2 -25.5 -35t-57 -74.5t-80.5 -84t-111 -71.5t-134 -29q-73 0 -120.5 31.5t-47.5 82.5q0 43 31 71.5t78 28.5q12 0 30 -4v-8h-8
q-38 0 -57.5 -24t-19.5 -66q0 -52 33.5 -76t88.5 -24q42 0 87.5 22t80 51t76 78t65 82l59 85l45.5 66l-2 2q-96 -112 -173 -112q-36 0 -54.5 23.5t-18.5 54.5q0 59 47.5 126.5t114.5 111.5t121 44q37 0 55.5 -18.5t18.5 -46.5h3zM274 340q-66 0 -143.5 -96t-77.5 -179
q0 -22 11.5 -35.5t29.5 -13.5q30 0 82.5 42t96 110t43.5 129q0 43 -42 43z" />
    <glyph glyph-name="h" unicode="h" 
d="M387 689l67 3l-354 -526l2 -2q30 38 49 60t54.5 57t70.5 53t68 18q61 0 61 -61q0 -28 -39 -81l-78 -105t-39 -75q0 -26 24 -26q60 0 156.5 95.5t135.5 162.5l6 -2q-18 -31 -53 -74.5t-78 -88t-90 -75t-82 -30.5q-26 0 -42.5 16t-16.5 44q0 35 39 89t78 102.5t39 68.5
q0 28 -31 28q-45 0 -116.5 -67t-128 -144t-82.5 -129h-65z" />
    <glyph glyph-name="i" unicode="i" horiz-adv-x="222" 
d="M168 344h64l-45 -65l-39 -56l-32 -46l-27 -39.5l-21 -31t-16.5 -26.5t-10 -20t-6.5 -17t-2 -13q0 -26 21 -26q54 0 153.5 97.5t134.5 162.5l8 -5q-46 -78 -143 -172.5t-161 -94.5q-25 0 -39 14t-14 34q0 12 2.5 24t10.5 28.5t16 31t24.5 40l31 46.5l41.5 60.5zM290 530
q13 0 22.5 -9.5t9.5 -23.5t-9 -23.5t-23 -9.5t-23 9.5t-9 23.5t9.5 23.5t22.5 9.5z" />
    <glyph glyph-name="j" unicode="j" horiz-adv-x="222" 
d="M156 344h62l-211 -333q89 14 178 82.5t158 173.5l9 -4q-68 -104 -158.5 -176t-193.5 -87q-184 -294 -405 -294q-69 0 -117.5 30.5t-48.5 87.5q0 43 33.5 69.5t76.5 26.5q6 0 27 -3v-9h-7q-38 0 -60 -24t-22 -56q0 -110 124 -110q47 0 95 23t83.5 54t77.5 84.5t65.5 90
l60.5 95.5zM280 530q13 0 22.5 -9.5t9.5 -23.5t-9 -23.5t-23 -9.5t-23 9.5t-9 23.5t9.5 23.5t22.5 9.5z" />
    <glyph glyph-name="k" unicode="k" 
d="M384 689l62 3q-201 -318 -334 -503l2 -2q4 4 22.5 25l24 27l22 24t24.5 25l23.5 20t26 18.5l25 13t28 10t27.5 2.5q62 0 62 -55q0 -44 -45 -71t-99 -37v-2q12 -6 20.5 -22.5t8.5 -34.5q0 -16 -15 -52t-15 -55t16 -19q61 0 155 94q69 69 136 165l9 -6q-66 -95 -141 -170
q-95 -95 -166 -95q-63 0 -63 53q0 21 22 65.5t22 54.5q0 19 -17 19q-5 0 -23.5 -4t-30.5 -4q-15 0 -15 9t15 9q3 0 13.5 -1t18.5 -1q61 0 100.5 28t39.5 75q0 20 -10 30.5t-24 10.5q-53 0 -151.5 -113.5t-153.5 -222.5h-66z" />
    <glyph glyph-name="l" unicode="l" horiz-adv-x="222" 
d="M385 696h70l-108 -163l-89.5 -133.5l-70.5 -105l-55.5 -83.5l-40 -61t-29 -46.5t-17 -32t-10 -25t-2.5 -17.5q0 -25 22 -25q48 0 128 74.5t159 186.5l11 -4q-78 -111 -153 -181q-94 -88 -149 -88q-58 0 -58 51q0 25 10 50.5t41.5 76.5l68.5 106l114.5 174z" />
    <glyph glyph-name="m" unicode="m" horiz-adv-x="667" 
d="M7 0h-65l106.5 167.5t111.5 176.5h61l-132 -186l2 -2q2 2 23.5 29t31 37.5l32 35.5t39 37l38.5 28t44 22.5t43 6.5q25 0 40 -13t15 -36q0 -13 -11 -35t-21.5 -38t-29.5 -42.5t-21 -29.5l2 -2q51 73 121.5 134.5t129.5 61.5q58 0 58 -53q0 -30 -39 -85.5l-78 -108
t-39 -75.5q0 -12 7.5 -19t18.5 -7q48 0 125.5 70.5t162.5 187.5l8 -4q-196 -266 -301 -266q-30 0 -45.5 17t-15.5 44q0 33 39 88t78 104.5t39 69.5q0 25 -26 25q-61 0 -164 -108t-161 -232h-64q29 53 78.5 127.5l79 121.5t29.5 64q0 27 -28 27q-68 0 -172.5 -123
t-149.5 -217z" />
    <glyph glyph-name="n" unicode="n" 
d="M155 341l65 3l-132 -183l2 -2l20 23q19 24 23.5 29l24 27t28 29.5l27 25t31 25l29 17.5t31.5 13.5t30 3.5q29 0 46 -16.5t17 -42.5q0 -34 -77 -135.5t-77 -125.5q0 -28 28 -28q61 0 154 94q38 39 79.5 90.5t59.5 80.5l7 -4q-51 -78 -120 -153q-111 -120 -181 -120
q-30 0 -48.5 16.5t-18.5 43.5q0 26 24 65t53 72t53 69t24 58q0 24 -29 24q-46 0 -118 -67t-128.5 -144t-81.5 -129h-62q36 60 113 178t104 163z" />
    <glyph glyph-name="o" unicode="o" 
d="M561 258l8 -5q-52 -59 -113 -59q-53 0 -79 42h-2q-23 -84 -106 -164t-170 -80q-42 0 -64.5 25t-22.5 67q0 46 40 108.5t107 111t133 48.5q40 0 63 -23.5t25 -62.5q2 -25 22.5 -43.5t52.5 -18.5q55 0 106 54zM66 60q0 -56 40 -56q50 0 103 51t85 118t32 117q0 22 -11 36
t-32 14q-41 0 -92.5 -47.5t-88 -114.5t-36.5 -118z" />
    <glyph glyph-name="p" unicode="p" 
d="M292 538h66q-31 -48 -106.5 -154t-112.5 -165l2 -2q102 135 183 135q76 0 76 -76q0 -81 -81 -164l2 -2q73 13 131 49.5t116 107.5l8 -4q-25 -30 -48.5 -54t-47.5 -40.5l-39 -27.5t-40.5 -19t-32.5 -10.5t-34 -8.5t-28 -6l-36.5 -29.5t-49 -37.5t-47 -25t-54.5 -13
q-15 0 -28 8.5t-13 23.5q0 58 186 77q29 35 52.5 86t23.5 93q0 56 -34 56q-26 0 -57.5 -21.5t-65 -62t-57 -72t-54 -77.5t-35.5 -53q-34 -48 -113.5 -172.5t-122.5 -201.5h-62zM133 4q27 0 63.5 29t57.5 54l-2 2q-5 -1 -32 -4.5t-41.5 -7t-34.5 -10t-30 -16.5t-10 -23
q0 -24 29 -24z" />
    <glyph glyph-name="q" unicode="q" 
d="M386 344h60l-215 -332q195 40 335 252l6 -5q-58 -93 -148 -166t-200 -92l-210 -325h-64q12 17 122 182.5t172 248.5l-2 2q-3 -3 -9 -10q-31 -34 -49 -52t-52.5 -36.5t-68.5 -18.5q-36 0 -55 22t-19 59q0 53 49.5 120t118.5 113t122 46q31 0 51 -20t20 -45h2zM274 340
q-45 0 -99 -52t-90 -119t-36 -112q0 -49 40 -49q34 0 89 50t97.5 117.5t42.5 112.5q0 52 -44 52z" />
    <glyph glyph-name="r" unicode="r" horiz-adv-x="333" 
d="M161 344h61l-127 -185l2 -2q31 38 85.5 88.5t105.5 84.5q3 6 4 7.5t4 5.5t6 5.5t8.5 2.5t12.5 1q13 0 37 -2q-49 -49 -49 -95q0 -23 11.5 -36t28.5 -13q18 0 40.5 12t32 19.5t30.5 26.5l6 -4l-33.5 -30t-36.5 -23t-48 -13q-32 0 -51.5 20t-19.5 54q0 24 11 43l-2 2
q-84 -58 -194 -181q-46 -51 -79 -132h-65z" />
    <glyph glyph-name="s" unicode="s" horiz-adv-x="333" 
d="M453 261l6 -3q-170 -266 -377 -266q-50 0 -83 25.5t-33 72.5q0 27 17.5 47.5t45.5 20.5q34 0 34 -30q0 -34 -28 -34q-21 0 -26 21q-19 -10 -19 -41q0 -33 25 -51.5t61 -18.5q40 0 61.5 29t21.5 69q0 28 -21 80q-22 54 -22 76q0 43 32.5 68.5t78.5 25.5q40 0 65 -17.5
t25 -46.5q0 -24 -18.5 -37t-44.5 -13q15 28 15 55q0 21 -12.5 34t-35.5 13q-27 0 -42 -17t-15 -43q0 -30 25 -82q24 -52 24 -88t-30.5 -67.5t-67.5 -38.5l2 -2q98 12 185 85.5t151 173.5z" />
    <glyph glyph-name="t" unicode="t" horiz-adv-x="278" 
d="M236 460h60l-79 -116h132l-6 -12h-134l-58 -92l-48 -74t-33 -53t-22.5 -44t-6.5 -31q0 -34 43 -34q44 0 108.5 48t113 101.5t92.5 111.5l6 -4q-41 -52 -76 -92t-80.5 -84t-89.5 -68.5t-81 -24.5q-32 0 -54 19.5t-22 52.5q0 22 14 53.5t31 57.5l50.5 75.5t53.5 81.5h-54
l6 12h56z" />
    <glyph glyph-name="u" unicode="u" 
d="M166 344h66l-59.5 -80l-57.5 -78l-41 -59t-32.5 -54.5t-9.5 -33.5q0 -31 29 -31q49 0 122 73.5t109 128.5l88 134h69q-121 -164 -158.5 -222t-37.5 -89q0 -12 7.5 -20.5t19.5 -8.5q53 0 141 91t142 169l10 -3l-40.5 -54.5t-56.5 -68t-68 -71.5t-69 -52.5t-65 -22.5
t-44.5 15.5t-16.5 41.5q0 38 16 62l-2 2q-108 -121 -183 -121q-30 0 -45 14t-15 35q0 19 7.5 40.5t26.5 52t36 55l52.5 73z" />
    <glyph glyph-name="v" unicode="v" 
d="M166 344h65q-4 -6 -29 -38.5l-38.5 -51l-36.5 -52.5t-35.5 -57.5t-22.5 -50.5t-10 -46q0 -44 48 -44t104.5 51.5t92.5 117.5t36 110q0 5 -4 17t-4 20q0 13 7.5 22.5t19.5 9.5q35 0 35 -71q0 -8 -2 -22t-2 -17q10 -15 31.5 -24.5t41.5 -9.5q29 0 57.5 14.5t46.5 43.5l8 -5
q-14 -29 -46.5 -47t-66.5 -18q-41 0 -76 31q-26 -82 -115 -158.5t-173 -76.5q-87 0 -87 84q0 35 27.5 83.5t71.5 106.5t56 78z" />
    <glyph glyph-name="w" unicode="w" horiz-adv-x="667" 
d="M169 344h66q-29 -40 -75 -98.5t-64 -84t-34 -57.5t-16 -58q0 -42 35 -42q21 0 44 11.5t49 38t47 50.5t53 70l50 73.5l53 82.5q6 9 9 14h69q-4 -6 -28 -38.5l-38 -51.5t-36.5 -53.5t-35.5 -58t-23 -50t-10 -44.5q0 -20 11 -32t30 -12q70 0 149.5 95t87.5 183
q-12 17 -12 38q0 32 30 32q36 0 36 -62q0 -19 -6 -49q35 -33 75 -33q69 0 100 55l9 -6q-34 -61 -111 -61q-42 0 -76 31q-33 -85 -124 -160t-168 -75q-35 0 -57 18.5t-22 52.5q0 11 2.5 22.5t6 21t3.5 11.5l-2 2q-97 -128 -172 -128q-37 0 -56.5 19t-19.5 53q0 12 3.5 25
t8 25t15 30t18.5 30.5t25.5 36l28.5 38.5l34.5 46z" />
    <glyph glyph-name="x" unicode="x" horiz-adv-x="500" 
d="M620 269l8 -3q-52 -91 -156 -182.5t-182 -91.5q-35 0 -54.5 17t-19.5 43q0 25 11 47l-2 2q-86 -109 -183 -109q-46 0 -73 23t-27 61q0 26 15 44t36 18q35 0 35 -33q0 -13 -8 -22t-21 -9q-19 0 -25 14q-12 -10 -12 -26q0 -27 22 -42.5t58 -15.5q50 0 108 51.5t95.5 119
t37.5 116.5q0 25 -12 41t-35 16q-52 0 -109 -91l-9 6q29 47 57 72t72 25q43 0 66 -26.5t24 -64.5q30 33 73 58t89 25q31 0 50 -15.5t19 -37.5q0 -15 -13.5 -26.5t-33.5 -11.5q-4 0 -14 2q13 33 13 47q0 30 -28 30q-44 0 -98.5 -48t-92 -113t-37.5 -111q0 -60 49 -60
q60 0 161.5 91.5t145.5 169.5z" />
    <glyph glyph-name="y" unicode="y" 
d="M165 344h67q-30 -44 -89.5 -124t-85.5 -121t-26 -62q0 -29 28 -29q55 0 144.5 97t177.5 239h62q-44 -61 -117.5 -179l-99.5 -157q92 16 179 82t156 167l7 -3q-71 -109 -162.5 -176t-186.5 -82q-92 -127 -135 -173q-125 -131 -271 -131q-67 0 -114.5 32.5t-47.5 80.5
q0 50 33 75t85 25v-3q-70 -16 -70 -94q0 -48 34.5 -76t80.5 -28q34 0 69 13.5t64.5 33t63 53t56.5 61.5t54 71.5t48 70.5l44.5 71l37.5 60l-2 2l-41 -46t-46.5 -45t-62.5 -43t-62 -14q-60 0 -60 48q0 15 6 31.5t23 43.5t34.5 51.5l55 77.5z" />
    <glyph glyph-name="z" unicode="z" horiz-adv-x="389" 
d="M514 267l5 -4q-50 -95 -137.5 -183t-157.5 -88q-30 0 -76 24t-76 24q-21 0 -46 -23q-3 -3 -8.5 -8t-8 -7.5t-6.5 -5t-7 -2.5q-6 0 -6 7q0 6 55.5 48.5l158 120t177.5 140.5l-2 2q-30 -24 -75 -24q-14 0 -53 16t-58 16q-12 0 -23 -8t-17 -15t-17 -24.5t-14 -21.5l-7 3
q19 36 30.5 52.5t33.5 31t50 14.5q34 0 74 -16t52 -16q23 0 39 7.5t23 16.5t13.5 16.5t11.5 7.5q6 0 6 -8q0 -12 -162 -140.5t-228 -169.5l2 -2q43 18 74 18q34 0 74 -21t54 -21q51 0 123 73.5t129 169.5z" />
    <glyph glyph-name="braceleft" unicode="{" horiz-adv-x="389" 
d="M408 543l-121 -191q-42 -66 -78.5 -99t-94.5 -47l-1 -2q34 -11 34 -44q0 -32 -45 -102l-121 -191q-46 -73 -46 -103q0 -14 12 -26t29 -12l-9 -12q-40 0 -59 15t-19 37q0 34 46 107l127 202q39 62 39 87q0 29 -33 43q55 15 88.5 43.5t69.5 86.5l128 202q60 94 113.5 126.5
t119.5 32.5l-8 -12q-48 0 -85 -32t-86 -109z" />
    <glyph glyph-name="bar" unicode="|" horiz-adv-x="222" 
d="M196 750h34v-1000h-34v1000z" />
    <glyph glyph-name="braceright" unicode="}" horiz-adv-x="389" 
d="M-13 -133l121 191q42 66 78.5 99t94.5 47l1 2q-34 11 -34 44q0 32 45 102l121 191q46 73 46 103q0 14 -12 26t-29 12l9 12q40 0 59 -15t19 -37q0 -34 -46 -107l-127 -202q-39 -62 -39 -87q0 -29 33 -43q-55 -15 -88.5 -43.5t-69.5 -86.5l-128 -202q-60 -94 -113.5 -126.5
t-119.5 -32.5l8 12q48 0 85 32t86 109z" />
    <glyph glyph-name="asciitilde" unicode="~" horiz-adv-x="600" 
d="M567 227l36 -20q-20 -27 -33 -42t-38 -29.5t-54 -14.5q-42 0 -102 33q-62 35 -103 35q-63 0 -96 -72l-36 20q45 86 125 86q39 0 111 -32l21.5 -9.5t23 -10l20 -8t20.5 -6.5t17 -2q19 0 36.5 12t27 24.5t24.5 35.5z" />
    <glyph glyph-name="uni00A0" unicode="&#xa0;" horiz-adv-x="250" 
 />
    <glyph glyph-name="exclamdown" unicode="&#xa1;" horiz-adv-x="333" 
d="M216 213l6 -4q-6 -9 -26 -42l-28 -45.5t-25 -41.5l-26.5 -46.5l-22.5 -42.5t-23 -47.5t-19 -45.5q-17 -44 -30.5 -60t-32.5 -16q-14 0 -23.5 10t-9.5 24q0 5 1.5 10.5t4.5 11.5l5 10t7.5 10t8 9l8 9.5t7.5 8.5q122 137 218 288zM275 278q-15 0 -26 11t-11 26t11 26t26 11
t26 -11t11 -26t-11 -26t-26 -11z" />
    <glyph glyph-name="cent" unicode="&#xa2;" horiz-adv-x="500" 
d="M448 458l8 -2l-57 -104q65 -2 65 -44q0 -16 -13.5 -29t-32.5 -13q-6 0 -14 2q6 30 6 34q0 32 -19 36l-179 -323q9 -3 19 -3q39 0 94 31.5t90 61.5l5 -6q-44 -43 -107.5 -74.5t-113.5 -32.5l-67 -120l-8 2l66 118q-80 2 -80 80q0 90 92 182.5t187 97.5zM204 18l179 322
q-47 0 -97.5 -49.5t-81 -111t-30.5 -102.5q0 -44 30 -59z" />
    <glyph glyph-name="sterling" unicode="&#xa3;" horiz-adv-x="741" 
d="M447 266h-281v12h286q80 165 131 237q119 169 259 169q60 0 93 -34.5t33 -88.5q0 -78 -56.5 -141.5t-126.5 -63.5q-36 0 -60 20t-24 54q0 54 43.5 96t102.5 61l2 -6q-49 -16 -92.5 -58t-43.5 -92q0 -29 20.5 -46t50.5 -17q61 0 111.5 69.5t50.5 134.5q0 100 -100 100
q-38 0 -77 -22.5t-67 -52t-61 -80.5t-50.5 -84l-44.5 -87.5t-34 -67.5h244v-12h-249q-76 -153 -222 -230q79 -36 182 -36q82 0 139.5 36t100.5 109l7 -4q-95 -169 -279 -169q-73 0 -186 48q-84 -30 -164 -30q-63 0 -106 16.5t-43 46.5q0 23 20.5 36t55.5 13q77 0 258 -62
q95 59 177 226zM2 90q-24 0 -39 -9.5t-15 -27.5q0 -22 37.5 -36.5t98.5 -14.5q78 0 150 22q-58 25 -129.5 45.5t-102.5 20.5z" />
    <glyph glyph-name="currency" unicode="&#xa4;" horiz-adv-x="500" 
d="M163 100l43 44q-43 55 -43 121q0 73 44 123l-44 42l31 29l42 -43q53 43 123 43q69 0 119 -43l44 43l29 -29l-42 -42q42 -50 42 -123q0 -70 -41 -121l41 -44l-29 -29l-41 46q-50 -46 -122 -46t-125 46l-40 -46zM357 105q63 0 109.5 48t46.5 112t-46.5 112t-109.5 48
t-109.5 -48t-46.5 -112t46.5 -112t109.5 -48z" />
    <glyph glyph-name="yen" unicode="&#xa5;" horiz-adv-x="500" 
d="M589 303h-170q-161 -241 -179 -295l-77 -8q17 28 89 136.5l108 166.5h-144l8 12h144l38 61h-167l7 12h167q60 88 60 188q0 124 -142 124q-88 0 -137 -40t-49 -96q0 -23 17 -38.5t43 -15.5q12 0 38 11l4 -3q-26 -46 -73 -46q-31 0 -54 21t-23 51q0 57 39.5 97t90.5 55.5
t105 15.5q181 0 181 -144q0 -43 -23 -112l2 -2q33 53 65.5 93t78 80.5t104 62.5t125.5 22q48 0 73 -14.5t25 -33.5t-11.5 -32.5t-34.5 -13.5q-29 0 -44 20q22 1 32 11.5t10 25.5q0 25 -56 25q-52 0 -104 -23t-89 -52t-78 -78.5t-62.5 -80t-51.5 -78.5h149l-7 -12h-150
l-39 -61h170z" />
    <glyph glyph-name="brokenbar" unicode="&#xa6;" horiz-adv-x="222" 
d="M196 675h34v-350h-34v350zM196 175h34v-350h-34v350z" />
    <glyph glyph-name="section" unicode="&#xa7;" horiz-adv-x="500" 
d="M513 712q59 0 101 -25.5t42 -80.5q0 -25 -17.5 -46.5t-42.5 -21.5q-5 0 -13 2q25 33 25 70q0 45 -27 67.5t-72 22.5q-55 0 -86.5 -36.5t-31.5 -90.5q0 -41 32.5 -93l65 -104t32.5 -93q0 -62 -52.5 -107t-124.5 -54q6 -26 6 -51q0 -69 -58 -112t-141 -43q-74 0 -121 34
t-47 94q0 41 29.5 68.5t68.5 27.5q13 0 20 -6q-58 -33 -58 -104q0 -45 31.5 -73.5t80.5 -28.5q62 0 104.5 32.5t42.5 94.5q0 32 -21 72.5t-45.5 73t-45.5 73.5t-21 73q0 71 54 111.5t127 42.5q-13 27 -13 54q0 70 52.5 113.5t123.5 43.5zM223 366q0 -41 22 -80t52.5 -80
t41.5 -72q57 10 92.5 42.5t35.5 86.5q0 33 -17 68.5t-48.5 82.5t-45.5 75q-58 0 -95.5 -35t-37.5 -88z" />
    <glyph glyph-name="dieresis" unicode="&#xa8;" horiz-adv-x="222" 
d="M296 522q11 0 18 -11.5t7 -23.5q0 -15 -11 -26t-27 -11q-12 0 -19 10.5t-7 23.5q0 17 11 27.5t28 10.5zM152 522q11 0 18 -11.5t7 -23.5q0 -15 -11 -26t-27 -11q-12 0 -19 10.5t-7 23.5q0 17 11 27.5t28 10.5z" />
    <glyph glyph-name="copyright" unicode="&#xa9;" horiz-adv-x="800" 
d="M64 348q0 151 106.5 257.5t257.5 106.5t257.5 -106.5t106.5 -257.5t-106.5 -257.5t-257.5 -106.5t-257.5 106.5t-106.5 257.5zM750 348q0 136 -94 233t-228 97t-228 -97t-94 -233t94 -233t228 -97t228 97t94 233zM590 255h15l-17 -71q0 -12 -26 -20q-53 -17 -112 -17
q-97 0 -159 50.5t-62 157.5q0 34 14.5 69t41.5 65.5t71.5 50t99.5 19.5q51 0 110 -19q23 -7 23 -22v-74h-16q-2 40 -31 68.5t-91 28.5q-77 0 -120 -50.5t-44 -130.5q-1 -88 44 -141.5t129 -53.5q94 0 130 90z" />
    <glyph glyph-name="ordfeminine" unicode="&#xaa;" horiz-adv-x="266" 
d="M386 498l21 36h42l-48 -63l-36 -50.5t-30 -48t-9 -27.5q0 -13 17 -13t44 18l2 -9q-30 -19 -53 -19q-36 0 -36 29q0 11 7 32h-2q-1 -1 -14.5 -13t-20.5 -17l-20 -14t-25.5 -13t-25.5 -4q-44 0 -44 49q0 47 60.5 107t113.5 60q44 0 56 -40h1zM331 528q-38 0 -87 -55.5
t-49 -107.5q0 -29 18 -29q30 0 90 62.5t60 105.5q0 24 -32 24z" />
    <glyph glyph-name="guillemotleft" unicode="&#xab;" 
d="M411 334l5 -7q-13 -12 -73.5 -72t-95.5 -90q4 -6 14.5 -24l15 -25.5t13 -23.5t13.5 -26.5t10.5 -25t8.5 -27.5l-7 -3q-29 44 -122 155q44 31 123 94t95 75zM286 334l5 -7q-13 -12 -73.5 -72t-95.5 -90q4 -6 14.5 -24l15 -25.5t13 -23.5t13.5 -26.5t10.5 -25t8.5 -27.5
l-7 -3q-29 44 -122 155q44 31 123 94t95 75z" />
    <glyph glyph-name="logicalnot" unicode="&#xac;" horiz-adv-x="600" 
d="M522 73v148h-310v34h344v-182h-34z" />
    <glyph glyph-name="uni00AD" unicode="&#xad;" horiz-adv-x="333" 
d="M85 186h231l-12 -28h-230z" />
    <glyph glyph-name="registered" unicode="&#xae;" horiz-adv-x="800" 
d="M64 348q0 151 106.5 257.5t257.5 106.5t257.5 -106.5t106.5 -257.5t-106.5 -257.5t-257.5 -106.5t-257.5 106.5t-106.5 257.5zM750 348q0 136 -94 233t-228 97t-228 -97t-94 -233t94 -233t228 -97t228 97t94 233zM432 332h-60v-101q0 -54 53 -54v-18h-166v18q29 0 43 12
t14 42v243q0 53 -57 53v18h179q51 0 87 -23t36 -69q0 -42 -23.5 -71t-61.5 -42l62 -84q56 -74 86 -90v-7h-57q-11 0 -20.5 6.5t-21.5 23t-22.5 33l-31.5 50zM370 527v-177h53q40 0 62 25t22 73q0 79 -88 79h-49z" />
    <glyph glyph-name="macron" unicode="&#xaf;" horiz-adv-x="222" 
d="M131 491h182q24 0 24 -7q0 -19 -37 -19h-200q-13 0 -13 6q0 20 44 20z" />
    <glyph glyph-name="degree" unicode="&#xb0;" horiz-adv-x="400" 
d="M346 252q-60 0 -101 41.5t-41 101.5t41 101.5t101 41.5t101 -41.5t41 -101.5t-41 -101.5t-101 -41.5zM346 510q-46 0 -78 -34t-32 -81t32 -81t78 -34t78 34t32 81t-32 81t-78 34z" />
    <glyph glyph-name="plusminus" unicode="&#xb1;" horiz-adv-x="600" 
d="M367 220v124h34v-124h155v-34h-155v-125h-34v125h-155v34h155zM212 0v34h344v-34h-344z" />
    <glyph glyph-name="twosuperior" unicode="&#xb2;" horiz-adv-x="300" 
d="M407 314l9 -1q-58 -103 -132 -103q-18 0 -58 19q-36 17 -61 17q-29 0 -50 -17l-7 -7t-6.5 -6l-5 -4t-4.5 -2q-8 0 -8 6q0 7 19.5 20.5t62 35t101.5 45.5q83 34 111.5 66.5t28.5 76.5q0 29 -16 47.5t-44 18.5q-34 0 -58 -21t-24 -46q0 -18 10 -29t24 -11q10 0 24 7l4 -6
q-18 -29 -48 -29q-20 0 -34 13.5t-14 36.5q0 46 42 71.5t90 25.5q40 0 70 -21t30 -57q0 -40 -34 -72t-76.5 -48.5l-101 -39.5t-87.5 -40l2 -2q24 13 41 13q15 0 53 -16q40 -17 56 -17q49 0 91 76z" />
    <glyph glyph-name="threesuperior" unicode="&#xb3;" horiz-adv-x="300" 
d="M266 374v10q7 1 28.5 3t32.5 3.5t30.5 5t30 9.5t22 14.5t17 22t5.5 30.5q0 54 -47 54q-26 0 -45 -17t-19 -39q0 -13 6.5 -22t18.5 -9q8 0 23 5q-1 -11 -14 -18t-28 -7q-17 0 -28.5 11t-11.5 26q0 32 34 57t78 25q39 0 62 -19t23 -47q0 -27 -26 -47t-58.5 -29.5
t-67.5 -12.5v-2q34 0 55 -16.5t21 -46.5q0 -47 -52.5 -77.5t-120.5 -30.5q-46 0 -79.5 20t-33.5 56q0 26 16.5 43.5t43.5 17.5q18 0 35 -13l-1 -4q-25 0 -38.5 -13t-13.5 -33q0 -28 19 -45t53 -17q52 0 88 25.5t36 71.5q0 57 -57 57q-13 0 -37 -2z" />
    <glyph glyph-name="acute" unicode="&#xb4;" horiz-adv-x="222" 
d="M291 572q10 0 16 -8.5t6 -18.5q0 -36 -58.5 -87.5t-73.5 -51.5q-5 0 -5 4q0 3 18.5 18t37.5 38t21 44q2 27 12 44.5t26 17.5z" />
    <glyph glyph-name="mu" unicode="&#xb5;" 
d="M166 344h66l-59.5 -80l-57.5 -78l-41 -59t-32.5 -54.5t-9.5 -33.5q0 -31 29 -31q49 0 122 73.5t109 128.5l88 134h69q-121 -164 -158.5 -222t-37.5 -89q0 -12 7.5 -20.5t19.5 -8.5q53 0 141 91t142 169l10 -3l-40.5 -54.5t-56.5 -68t-68 -71.5t-69 -52.5t-65 -22.5
t-44.5 15.5t-16.5 41.5q0 38 16 62l-2 2q-108 -121 -183 -121q-34 0 -50 19l-237 -335h-68z" />
    <glyph glyph-name="paragraph" unicode="&#xb6;" horiz-adv-x="600" 
d="M148 -166h-52l272 452q-62 0 -90 26t-28 80q0 30 15 68.5t47 80t76.5 76t110 57t139.5 22.5h222l-13 -22q-40 0 -70.5 -12.5t-53.5 -51.5l-467 -776h-52l501 832h-56z" />
    <glyph glyph-name="periodcentered" unicode="&#xb7;" horiz-adv-x="250" 
d="M204 209q15 0 26 -11t11 -26t-11 -26t-26 -11t-26 11t-11 26t11 26t26 11z" />
    <glyph glyph-name="cedilla" unicode="&#xb8;" horiz-adv-x="222" 
d="M-155 -175l1 8q29 -5 68 -5q22 0 43.5 4t41.5 18t20 36q0 23 -15.5 29t-61.5 7l45 74h11l-33 -54q21 -1 34 -2.5t30 -6.5t25.5 -16t8.5 -27q0 -22 -15.5 -37.5t-40 -23t-46 -10.5t-40.5 -3q-52 0 -76 9z" />
    <glyph glyph-name="onesuperior" unicode="&#xb9;" horiz-adv-x="300" 
d="M185 210l190 261l-2 2q-52 -32 -129 -51l-2 8q98 21 211 103l11 -2l-49 -68.5l-62.5 -88.5l-54 -79.5t-46.5 -74.5z" />
    <glyph glyph-name="ordmasculine" unicode="&#xba;" horiz-adv-x="266" 
d="M187 377q0 45 59 103t123 58q27 0 42 -15t15 -40q0 -45 -60 -103t-127 -58q-24 0 -38 15t-14 40zM390 496q0 32 -22 32q-43 0 -94 -58.5t-51 -106.5q0 -31 25 -31q48 0 95 59.5t47 104.5z" />
    <glyph glyph-name="guillemotright" unicode="&#xbb;" 
d="M163 10l-4 7q110 112 169 162q-60 91 -76 153l7 2q44 -67 121 -155q-40 -29 -112 -87t-105 -82zM38 10l-4 7q110 112 169 162q-60 91 -76 153l7 2q46 -71 122 -155q-41 -29 -114 -87.5t-104 -81.5z" />
    <glyph glyph-name="onequarter" unicode="&#xbc;" horiz-adv-x="750" 
d="M784 310l-128 -182h70l-5 -18h-73l-74 -104l-53 -6l78 110h-183l330 256h30l-311 -236v-2h142l130 178zM214 -8l413 546h29l-414 -546h-28zM185 210l190 261l-2 2q-52 -32 -129 -51l-2 8q98 21 211 103l11 -2l-49 -68.5l-62.5 -88.5l-54 -79.5t-46.5 -74.5z" />
    <glyph glyph-name="onehalf" unicode="&#xbd;" horiz-adv-x="750" 
d="M707 104l9 -1q-58 -103 -132 -103q-18 0 -58 19q-36 17 -61 17q-29 0 -50 -17l-7 -7t-6.5 -6l-5 -4t-4.5 -2q-8 0 -8 6q0 7 19.5 20.5t62 35t101.5 45.5q83 34 111.5 66.5t28.5 76.5q0 29 -16 47.5t-44 18.5q-34 0 -58 -21t-24 -46q0 -18 10 -29t24 -11q10 0 24 7l4 -6
q-18 -29 -48 -29q-20 0 -34 13.5t-14 36.5q0 46 42 71.5t90 25.5q40 0 70 -21t30 -57q0 -40 -34 -72t-76.5 -48.5l-101 -39.5t-87.5 -40l2 -2q24 13 41 13q15 0 53 -16q40 -17 56 -17q49 0 91 76zM203 -8l413 546h29l-414 -546h-28zM185 210l190 261l-2 2q-52 -32 -129 -51
l-2 8q98 21 211 103l11 -2l-49 -68.5l-62.5 -88.5l-54 -79.5t-46.5 -74.5z" />
    <glyph glyph-name="threequarters" unicode="&#xbe;" horiz-adv-x="750" 
d="M273 -8l413 546h29l-414 -546h-28zM266 374v10q7 1 28.5 3t32.5 3.5t30.5 5t30 9.5t22 14.5t17 22t5.5 30.5q0 54 -47 54q-26 0 -45 -17t-19 -39q0 -13 6.5 -22t18.5 -9q8 0 23 5q-1 -11 -14 -18t-28 -7q-17 0 -28.5 11t-11.5 26q0 32 34 57t78 25q39 0 62 -19t23 -47
q0 -27 -26 -47t-58.5 -29.5t-67.5 -12.5v-2q34 0 55 -16.5t21 -46.5q0 -47 -52.5 -77.5t-120.5 -30.5q-46 0 -79.5 20t-33.5 56q0 26 16.5 43.5t43.5 17.5q18 0 35 -13l-1 -4q-25 0 -38.5 -13t-13.5 -33q0 -28 19 -45t53 -17q52 0 88 25.5t36 71.5q0 57 -57 57q-13 0 -37 -2
zM824 310l-128 -182h70l-5 -18h-73l-74 -104l-53 -6l78 110h-183l330 256h30l-311 -236v-2h142l130 178z" />
    <glyph glyph-name="questiondown" unicode="&#xbf;" 
d="M322 223l9 -3q-21 -34 -59 -58t-83.5 -46t-69.5 -42q-65 -54 -65 -144q0 -48 26.5 -76t72.5 -28q55 0 103.5 42.5t48.5 99.5q0 84 -62 84q-48 0 -80 -40l-7 5q34 47 89 47q42 0 66 -24.5t24 -66.5q0 -64 -62.5 -111.5t-133.5 -47.5q-63 0 -101 31t-38 92q0 53 44 98
t110 76q3 1 19.5 8.5t22 10.5t21 10.5t23 12l20.5 12t20.5 13.5t16.5 14t15 15.5t10 15.5zM372 278q-15 0 -26 11t-11 26t11 26t26 11t26 -11t11 -26t-11 -26t-26 -11z" />
    <glyph glyph-name="Agrave" unicode="&#xc0;" horiz-adv-x="944" 
d="M734 311h-137q-251 -319 -410 -319q-57 0 -78.5 21t-21.5 47q0 17 10.5 29t27.5 12q15 0 24.5 -10.5t9.5 -26.5q0 -24 -19 -29q15 -23 58 -23q141 0 375 288q1 1 25.5 32t34 42l38 44.5t45 50.5l47.5 49t54 51l56 44.5t61 42t61 32t65 24.5l3 -4q-109 -102 -215 -296.5
t-106 -321.5q0 -74 53 -74q35 0 95.5 52.5t103 103.5t73.5 93l7 -3q-36 -47 -48.5 -62l-47 -57.5t-54.5 -60.5l-50 -44t-55 -36t-48 -10q-45 0 -67 30t-22 76q0 79 52 213zM605 323h134q98 204 252 351l-2 2q-177 -88 -384 -353zM932 892q16 0 26 -17.5t12 -44.5
q2 -21 21 -44t37.5 -38t18.5 -18q0 -4 -5 -4q-15 0 -73.5 51.5t-58.5 87.5q0 10 6 18.5t16 8.5z" />
    <glyph glyph-name="Aacute" unicode="&#xc1;" horiz-adv-x="944" 
d="M734 311h-137q-251 -319 -410 -319q-57 0 -78.5 21t-21.5 47q0 17 10.5 29t27.5 12q15 0 24.5 -10.5t9.5 -26.5q0 -24 -19 -29q15 -23 58 -23q141 0 375 288q1 1 25.5 32t34 42l38 44.5t45 50.5l47.5 49t54 51l56 44.5t61 42t61 32t65 24.5l3 -4q-109 -102 -215 -296.5
t-106 -321.5q0 -74 53 -74q35 0 95.5 52.5t103 103.5t73.5 93l7 -3q-36 -47 -48.5 -62l-47 -57.5t-54.5 -60.5l-50 -44t-55 -36t-48 -10q-45 0 -67 30t-22 76q0 79 52 213zM605 323h134q98 204 252 351l-2 2q-177 -88 -384 -353zM1127 892q10 0 16 -8.5t6 -18.5
q0 -36 -58.5 -87.5t-73.5 -51.5q-5 0 -5 4q0 3 18.5 18t37.5 38t21 44q2 27 12 44.5t26 17.5z" />
    <glyph glyph-name="Acircumflex" unicode="&#xc2;" horiz-adv-x="944" 
d="M734 311h-137q-251 -319 -410 -319q-57 0 -78.5 21t-21.5 47q0 17 10.5 29t27.5 12q15 0 24.5 -10.5t9.5 -26.5q0 -24 -19 -29q15 -23 58 -23q141 0 375 288q1 1 25.5 32t34 42l38 44.5t45 50.5l47.5 49t54 51l56 44.5t61 42t61 32t65 24.5l3 -4q-109 -102 -215 -296.5
t-106 -321.5q0 -74 53 -74q35 0 95.5 52.5t103 103.5t73.5 93l7 -3q-36 -47 -48.5 -62l-47 -57.5t-54.5 -60.5l-50 -44t-55 -36t-48 -10q-45 0 -67 30t-22 76q0 79 52 213zM605 323h134q98 204 252 351l-2 2q-177 -88 -384 -353zM932 726l-4 7q83 78 144 159h16
q0 -72 56 -163l-8 -5q-47 53 -76 109q-81 -77 -128 -107z" />
    <glyph glyph-name="Atilde" unicode="&#xc3;" horiz-adv-x="944" 
d="M734 311h-137q-251 -319 -410 -319q-57 0 -78.5 21t-21.5 47q0 17 10.5 29t27.5 12q15 0 24.5 -10.5t9.5 -26.5q0 -24 -19 -29q15 -23 58 -23q141 0 375 288q1 1 25.5 32t34 42l38 44.5t45 50.5l47.5 49t54 51l56 44.5t61 42t61 32t65 24.5l3 -4q-109 -102 -215 -296.5
t-106 -321.5q0 -74 53 -74q35 0 95.5 52.5t103 103.5t73.5 93l7 -3q-36 -47 -48.5 -62l-47 -57.5t-54.5 -60.5l-50 -44t-55 -36t-48 -10q-45 0 -67 30t-22 76q0 79 52 213zM605 323h134q98 204 252 351l-2 2q-177 -88 -384 -353zM1113 776q-24 0 -70 18q-44 18 -67 18
q-22 0 -37 -22t-17 -22q-4 0 -4 10q0 27 19 49.5t55 22.5q16 0 64 -19t70 -19q21 0 36.5 11t15.5 24q0 9 7 9q5 0 5 -6q0 -30 -22.5 -54t-54.5 -20z" />
    <glyph glyph-name="Adieresis" unicode="&#xc4;" horiz-adv-x="944" 
d="M734 311h-137q-251 -319 -410 -319q-57 0 -78.5 21t-21.5 47q0 17 10.5 29t27.5 12q15 0 24.5 -10.5t9.5 -26.5q0 -24 -19 -29q15 -23 58 -23q141 0 375 288q1 1 25.5 32t34 42l38 44.5t45 50.5l47.5 49t54 51l56 44.5t61 42t61 32t65 24.5l3 -4q-109 -102 -215 -296.5
t-106 -321.5q0 -74 53 -74q35 0 95.5 52.5t103 103.5t73.5 93l7 -3q-36 -47 -48.5 -62l-47 -57.5t-54.5 -60.5l-50 -44t-55 -36t-48 -10q-45 0 -67 30t-22 76q0 79 52 213zM605 323h134q98 204 252 351l-2 2q-177 -88 -384 -353zM1132 842q11 0 18 -11.5t7 -23.5
q0 -15 -11 -26t-27 -11q-12 0 -19 10.5t-7 23.5q0 17 11 27.5t28 10.5zM988 842q11 0 18 -11.5t7 -23.5q0 -15 -11 -26t-27 -11q-12 0 -19 10.5t-7 23.5q0 17 11 27.5t28 10.5z" />
    <glyph glyph-name="Aring" unicode="&#xc5;" horiz-adv-x="944" 
d="M734 311h-137q-251 -319 -410 -319q-57 0 -78.5 21t-21.5 47q0 17 10.5 29t27.5 12q15 0 24.5 -10.5t9.5 -26.5q0 -24 -19 -29q15 -23 58 -23q141 0 375 288q1 1 25.5 32t34 42l38 44.5t45 50.5l47.5 49t54 51l56 44.5t61 42t61 32t65 24.5l3 -4q-109 -102 -215 -296.5
t-106 -321.5q0 -74 53 -74q35 0 95.5 52.5t103 103.5t73.5 93l7 -3q-36 -47 -48.5 -62l-47 -57.5t-54.5 -60.5l-50 -44t-55 -36t-48 -10q-45 0 -67 30t-22 76q0 79 52 213zM605 323h134q98 204 252 351l-2 2q-177 -88 -384 -353zM968 781q0 42 33 73.5t77 31.5q26 0 44 -17
t18 -46q0 -43 -33 -74t-77 -31q-26 0 -44 17t-18 46zM1116 841q0 16 -10 26.5t-27 10.5q-32 0 -59.5 -40t-27.5 -75q0 -16 10 -26.5t27 -10.5q32 0 59.5 40t27.5 75z" />
    <glyph glyph-name="AE" unicode="&#xc6;" horiz-adv-x="1000" 
d="M443 525l5 5q34 -32 34 -77q0 -72 -61.5 -129t-130.5 -57q-47 0 -74 29.5t-27 76.5q0 49 34 100t97.5 95.5t171.5 73t240 28.5q62 0 144 -10q119 72 220 72q105 0 105 -60q0 -80 -154 -80q-13 0 -78 5q-46 -19 -86 -65.5t-64 -97.5t-41 -107q84 4 141 28q19 31 28 39
t24 8q11 0 27 -1t22 -1q-118 -95 -153 -206l-6 2q22 86 47 135q-104 -16 -133 -16q-81 -217 -223 -280v-3q20 4 48 4q26 0 76 -4t76 -4q31 0 59 4.5t50 9t46.5 18l39 21t38 30l33 31t34 38.5l32 39.5l35.5 45.5l7 -2l-49 -64.5t-49 -60.5t-58 -62t-56.5 -45.5t-66.5 -36
t-67 -10.5q-16 0 -58.5 8.5t-59.5 14.5q-51 17 -94 17q-28 0 -81.5 -15t-70.5 -15q-26 0 -26 10q0 7 5 11.5t18 6.5t25.5 3.5t37 3t42.5 3.5q62 7 111.5 89t83.5 194q-115 0 -170 10l-42.5 -62l-52 -75.5t-55.5 -69.5t-65.5 -65.5t-68.5 -42t-77 -18.5q-36 0 -67 17t-31 52
q0 20 10.5 34t28.5 14q15 0 24.5 -10t9.5 -25q0 -9 -5 -18.5t-14 -9.5q6 -38 63 -38q34 0 72 21t70 51.5t65.5 72.5t57 75.5l46.5 68.5q6 10 9 14q56 84 142.5 178t148.5 130v2q-107 15 -169 15q-92 0 -169.5 -18.5t-126.5 -47t-83 -64.5t-48.5 -69.5t-14.5 -64.5
q0 -43 24 -66t66 -23q70 0 124.5 57t54.5 117q0 44 -27 68zM1096 720q-106 0 -208 -63q143 -23 215 -23q48 0 67 8.5t19 30.5q0 47 -93 47zM825 618q-141 -93 -275 -281q28 -10 167 -10q70 191 234 272v2q-52 5 -126 17z" />
    <glyph glyph-name="Ccedilla" unicode="&#xc7;" horiz-adv-x="667" 
d="M534 556h12q-1 -8 -1 -24q0 -38 24.5 -55.5t61.5 -17.5q56 0 107 52t51 118q0 39 -21.5 55t-63.5 16q-67 0 -153.5 -48t-162 -122.5t-128 -177t-52.5 -200.5q0 -64 31.5 -110t94.5 -46q96 0 170.5 79.5t74.5 170.5q0 39 -23.5 60.5t-63.5 21.5l-1 12q64 0 94 -25.5
t30 -84.5q0 -37 -19 -78.5t-53.5 -79.5t-90.5 -63t-122 -25q-38 0 -64 10l-32 -52q21 -1 34 -2.5t30 -6.5t25.5 -16t8.5 -27q0 -22 -15.5 -37.5t-40 -23t-46 -10.5t-40.5 -3q-52 0 -76 9l1 8q29 -5 68 -5q22 0 43.5 4t41.5 18t20 36q0 23 -15.5 29t-61.5 7l46 76
q-57 20 -85 68t-28 98q0 91 58 192t142.5 178t182 127.5t173.5 50.5q125 0 125 -102q0 -68 -59.5 -115.5t-135.5 -47.5q-94 0 -97 82q0 19 1 27z" />
    <glyph glyph-name="Egrave" unicode="&#xc8;" horiz-adv-x="667" 
d="M342 180l-7 5q68 95 168 95q51 0 79.5 -26.5t28.5 -68.5q0 -46 -45 -93.5t-113 -77.5t-133 -30q-107 0 -168.5 45.5t-61.5 118.5q0 28 7 53t17 43.5t29.5 37t35 30.5t44 27t46 23l49.5 23q34 15 43 32.5t9 74.5q0 93 59.5 156.5t170.5 63.5q54 0 95 -25.5t41 -76.5
q0 -63 -51 -101t-113 -38q-24 0 -45 6l1 11q12 -5 44 -5q54 0 87 44t33 85q0 88 -102 88q-42 0 -74 -19t-49 -50t-25 -63t-8 -64q0 -76 -67 -106q-6 -3 -18 -8q-33 -14 -49.5 -22.5t-44 -24t-42 -31t-30 -37t-22.5 -49.5t-7 -62q0 -65 50 -114.5t126 -49.5q51 0 101.5 18.5
t88 61t37.5 98.5q0 90 -76 90q-38 0 -76 -26t-63 -62zM504 892q16 0 26 -17.5t12 -44.5q2 -21 21 -44t37.5 -38t18.5 -18q0 -4 -5 -4q-15 0 -73.5 51.5t-58.5 87.5q0 10 6 18.5t16 8.5z" />
    <glyph glyph-name="Eacute" unicode="&#xc9;" horiz-adv-x="667" 
d="M342 180l-7 5q68 95 168 95q51 0 79.5 -26.5t28.5 -68.5q0 -46 -45 -93.5t-113 -77.5t-133 -30q-107 0 -168.5 45.5t-61.5 118.5q0 28 7 53t17 43.5t29.5 37t35 30.5t44 27t46 23l49.5 23q34 15 43 32.5t9 74.5q0 93 59.5 156.5t170.5 63.5q54 0 95 -25.5t41 -76.5
q0 -63 -51 -101t-113 -38q-24 0 -45 6l1 11q12 -5 44 -5q54 0 87 44t33 85q0 88 -102 88q-42 0 -74 -19t-49 -50t-25 -63t-8 -64q0 -76 -67 -106q-6 -3 -18 -8q-33 -14 -49.5 -22.5t-44 -24t-42 -31t-30 -37t-22.5 -49.5t-7 -62q0 -65 50 -114.5t126 -49.5q51 0 101.5 18.5
t88 61t37.5 98.5q0 90 -76 90q-38 0 -76 -26t-63 -62zM699 892q10 0 16 -8.5t6 -18.5q0 -36 -58.5 -87.5t-73.5 -51.5q-5 0 -5 4q0 3 18.5 18t37.5 38t21 44q2 27 12 44.5t26 17.5z" />
    <glyph glyph-name="Ecircumflex" unicode="&#xca;" horiz-adv-x="667" 
d="M342 180l-7 5q68 95 168 95q51 0 79.5 -26.5t28.5 -68.5q0 -46 -45 -93.5t-113 -77.5t-133 -30q-107 0 -168.5 45.5t-61.5 118.5q0 28 7 53t17 43.5t29.5 37t35 30.5t44 27t46 23l49.5 23q34 15 43 32.5t9 74.5q0 93 59.5 156.5t170.5 63.5q54 0 95 -25.5t41 -76.5
q0 -63 -51 -101t-113 -38q-24 0 -45 6l1 11q12 -5 44 -5q54 0 87 44t33 85q0 88 -102 88q-42 0 -74 -19t-49 -50t-25 -63t-8 -64q0 -76 -67 -106q-6 -3 -18 -8q-33 -14 -49.5 -22.5t-44 -24t-42 -31t-30 -37t-22.5 -49.5t-7 -62q0 -65 50 -114.5t126 -49.5q51 0 101.5 18.5
t88 61t37.5 98.5q0 90 -76 90q-38 0 -76 -26t-63 -62zM504 726l-4 7q83 78 144 159h16q0 -72 56 -163l-8 -5q-47 53 -76 109q-81 -77 -128 -107z" />
    <glyph glyph-name="Edieresis" unicode="&#xcb;" horiz-adv-x="667" 
d="M342 180l-7 5q68 95 168 95q51 0 79.5 -26.5t28.5 -68.5q0 -46 -45 -93.5t-113 -77.5t-133 -30q-107 0 -168.5 45.5t-61.5 118.5q0 28 7 53t17 43.5t29.5 37t35 30.5t44 27t46 23l49.5 23q34 15 43 32.5t9 74.5q0 93 59.5 156.5t170.5 63.5q54 0 95 -25.5t41 -76.5
q0 -63 -51 -101t-113 -38q-24 0 -45 6l1 11q12 -5 44 -5q54 0 87 44t33 85q0 88 -102 88q-42 0 -74 -19t-49 -50t-25 -63t-8 -64q0 -76 -67 -106q-6 -3 -18 -8q-33 -14 -49.5 -22.5t-44 -24t-42 -31t-30 -37t-22.5 -49.5t-7 -62q0 -65 50 -114.5t126 -49.5q51 0 101.5 18.5
t88 61t37.5 98.5q0 90 -76 90q-38 0 -76 -26t-63 -62zM704 842q11 0 18 -11.5t7 -23.5q0 -15 -11 -26t-27 -11q-12 0 -19 10.5t-7 23.5q0 17 11 27.5t28 10.5zM560 842q11 0 18 -11.5t7 -23.5q0 -15 -11 -26t-27 -11q-12 0 -19 10.5t-7 23.5q0 17 11 27.5t28 10.5z" />
    <glyph glyph-name="Igrave" unicode="&#xcc;" horiz-adv-x="611" 
d="M-15 108q0 22 13.5 37t35.5 15q17 0 27 -9.5t10 -25.5t-11 -27t-26 -8q-9 -36 26.5 -65t95.5 -29q46 0 91.5 21t79.5 49.5t70 73t57 77l48 77t36 57.5l12 18l57.5 83.5t63 81t81.5 82.5t82 48v2q-53 0 -104.5 -3t-120 -11t-124.5 -25.5t-106 -42.5t-78.5 -66t-28.5 -93
q0 -42 23.5 -65t63.5 -23q57 0 105.5 41.5t48.5 91.5q0 23 -5 38l11 2q6 -16 6 -38q0 -59 -50.5 -103t-118.5 -44q-60 0 -96 30.5t-36 85.5q0 51 38 93t98 68.5t136.5 44.5t151 25t144.5 6q39 0 74 4.5t56 9t25 4.5q17 0 17 -11q0 -10 -18 -13.5t-71 -3.5q-91 0 -284 -337
q-94 -165 -198.5 -256t-238.5 -91q-64 0 -116.5 32t-52.5 92zM644 892q16 0 26 -17.5t12 -44.5q2 -21 21 -44t37.5 -38t18.5 -18q0 -4 -5 -4q-15 0 -73.5 51.5t-58.5 87.5q0 10 6 18.5t16 8.5z" />
    <glyph glyph-name="Iacute" unicode="&#xcd;" horiz-adv-x="611" 
d="M-15 108q0 22 13.5 37t35.5 15q17 0 27 -9.5t10 -25.5t-11 -27t-26 -8q-9 -36 26.5 -65t95.5 -29q46 0 91.5 21t79.5 49.5t70 73t57 77l48 77t36 57.5l12 18l57.5 83.5t63 81t81.5 82.5t82 48v2q-53 0 -104.5 -3t-120 -11t-124.5 -25.5t-106 -42.5t-78.5 -66t-28.5 -93
q0 -42 23.5 -65t63.5 -23q57 0 105.5 41.5t48.5 91.5q0 23 -5 38l11 2q6 -16 6 -38q0 -59 -50.5 -103t-118.5 -44q-60 0 -96 30.5t-36 85.5q0 51 38 93t98 68.5t136.5 44.5t151 25t144.5 6q39 0 74 4.5t56 9t25 4.5q17 0 17 -11q0 -10 -18 -13.5t-71 -3.5q-91 0 -284 -337
q-94 -165 -198.5 -256t-238.5 -91q-64 0 -116.5 32t-52.5 92zM839 892q10 0 16 -8.5t6 -18.5q0 -36 -58.5 -87.5t-73.5 -51.5q-5 0 -5 4q0 3 18.5 18t37.5 38t21 44q2 27 12 44.5t26 17.5z" />
    <glyph glyph-name="Icircumflex" unicode="&#xce;" horiz-adv-x="611" 
d="M-15 108q0 22 13.5 37t35.5 15q17 0 27 -9.5t10 -25.5t-11 -27t-26 -8q-9 -36 26.5 -65t95.5 -29q46 0 91.5 21t79.5 49.5t70 73t57 77l48 77t36 57.5l12 18l57.5 83.5t63 81t81.5 82.5t82 48v2q-53 0 -104.5 -3t-120 -11t-124.5 -25.5t-106 -42.5t-78.5 -66t-28.5 -93
q0 -42 23.5 -65t63.5 -23q57 0 105.5 41.5t48.5 91.5q0 23 -5 38l11 2q6 -16 6 -38q0 -59 -50.5 -103t-118.5 -44q-60 0 -96 30.5t-36 85.5q0 51 38 93t98 68.5t136.5 44.5t151 25t144.5 6q39 0 74 4.5t56 9t25 4.5q17 0 17 -11q0 -10 -18 -13.5t-71 -3.5q-91 0 -284 -337
q-94 -165 -198.5 -256t-238.5 -91q-64 0 -116.5 32t-52.5 92zM644 726l-4 7q83 78 144 159h16q0 -72 56 -163l-8 -5q-47 53 -76 109q-81 -77 -128 -107z" />
    <glyph glyph-name="Idieresis" unicode="&#xcf;" horiz-adv-x="611" 
d="M-15 108q0 22 13.5 37t35.5 15q17 0 27 -9.5t10 -25.5t-11 -27t-26 -8q-9 -36 26.5 -65t95.5 -29q46 0 91.5 21t79.5 49.5t70 73t57 77l48 77t36 57.5l12 18l57.5 83.5t63 81t81.5 82.5t82 48v2q-53 0 -104.5 -3t-120 -11t-124.5 -25.5t-106 -42.5t-78.5 -66t-28.5 -93
q0 -42 23.5 -65t63.5 -23q57 0 105.5 41.5t48.5 91.5q0 23 -5 38l11 2q6 -16 6 -38q0 -59 -50.5 -103t-118.5 -44q-60 0 -96 30.5t-36 85.5q0 51 38 93t98 68.5t136.5 44.5t151 25t144.5 6q39 0 74 4.5t56 9t25 4.5q17 0 17 -11q0 -10 -18 -13.5t-71 -3.5q-91 0 -284 -337
q-94 -165 -198.5 -256t-238.5 -91q-64 0 -116.5 32t-52.5 92zM844 842q11 0 18 -11.5t7 -23.5q0 -15 -11 -26t-27 -11q-12 0 -19 10.5t-7 23.5q0 17 11 27.5t28 10.5zM700 842q11 0 18 -11.5t7 -23.5q0 -15 -11 -26t-27 -11q-12 0 -19 10.5t-7 23.5q0 17 11 27.5t28 10.5z
" />
    <glyph glyph-name="Eth" unicode="&#xd0;" horiz-adv-x="889" 
d="M581 345h-85q-6 0 -6 6t6 6h92q39 67 65 108t67 92.5t82 84.5q-78 64 -213 64q-183 0 -316.5 -107.5t-133.5 -264.5q0 -69 26.5 -113.5t87.5 -44.5q85 0 140 78.5t55 187.5v34h12v-29q0 -126 -61.5 -206.5t-160.5 -80.5q-66 0 -102.5 49.5t-36.5 126.5q0 62 36.5 129
t98.5 123.5t155.5 93t196.5 36.5q141 0 227 -67q96 74 189 87l2 -8q-102 -19 -178 -90q84 -81 84 -233q0 -87 -39 -167t-102 -135t-143.5 -88t-162.5 -33q-90 0 -168 19q-82 -13 -115 -13q-50 0 -50 21t38 21q15 0 30 -2.5t42.5 -8t53.5 -9.5q40 11 77 38.5t72.5 75.5
t60.5 88t64 108q9 15 13 23zM762 345h-123q-36 -65 -65 -109t-69.5 -93.5t-88.5 -83t-104 -51.5v-2q51 -10 134 -10q100 0 182 45t131.5 116.5t76 154.5t26.5 166q0 97 -47 148q-15 -18 -31.5 -40t-28 -39t-29.5 -47.5t-25.5 -44.5l-28 -51t-26.5 -47h116q6 0 6 -6t-6 -6z
" />
    <glyph glyph-name="Ntilde" unicode="&#xd1;" horiz-adv-x="722" 
d="M1004 543v6q36 22 36 76q0 20 -13.5 32.5t-35.5 12.5q-58 0 -125.5 -66.5t-119.5 -145.5q-108 -167 -238 -466h-7q12 59 12 115q0 59 -19 198q-19 137 -19 197q0 12 0.5 35.5t0.5 36.5h-2l-17 -37l-40.5 -88t-48.5 -97t-59 -106t-65 -95t-73.5 -84t-77.5 -53t-84 -22
q-28 0 -52.5 13t-24.5 39q0 16 11 26.5t27 10.5q13 0 21.5 -8.5t8.5 -21.5q0 -21 -13 -24q1 -7 11 -13t27 -6q38 0 79 24t76 58.5t75 92.5t68.5 106.5t64.5 120.5t55.5 114.5l48.5 107.5q4 28 18.5 54t39.5 26l-8 -20t-9.5 -26t-6.5 -36t-3 -56q0 -45 19 -165t19 -187
q0 -61 -18 -127l2 -2q104 236 193 372q157 239 275 239q33 0 54 -18.5t21 -46.5q0 -33 -25 -58.5t-59 -37.5zM828 776q-24 0 -70 18q-44 18 -67 18q-17 0 -28 -11t-17 -22t-9 -11q-4 0 -4 10q0 27 19 49.5t55 22.5q17 0 64 -19q48 -19 70 -19q21 0 36.5 11t15.5 24q0 9 7 9
q5 0 5 -6q0 -30 -22.5 -54t-54.5 -20z" />
    <glyph glyph-name="Ograve" unicode="&#xd2;" horiz-adv-x="778" 
d="M698 583h-12q0 39 -16 61.5t-61 22.5q-16 0 -24 -2q-31 -33 -54.5 -87.5t-23.5 -110.5q0 -155 124 -232q105 167 105 346q0 24 -2 41t-8.5 37t-22 30.5t-39.5 10.5q-37 0 -64 -19l2 -2h14q82 0 82 -96zM232 146q0 -54 28.5 -96t79.5 -42q68 0 155 71.5t130 145.5
q-65 39 -99.5 99.5t-34.5 134.5q0 116 75 201l-2 2q-126 -38 -229 -196.5t-103 -319.5zM897 270l6 -7q-30 -32 -74 -51t-83 -19q-51 0 -98 20q-57 -83 -148 -152t-174 -69q-77 0 -117.5 45t-40.5 123q0 88 44 180.5t108.5 162t135 117.5t125.5 57q39 35 86 35
q117 0 117 -154q0 -75 -39.5 -168.5t-90.5 -166.5q40 -18 93 -18q80 0 150 65zM577 892q16 0 26 -17.5t12 -44.5q2 -21 21 -44t37.5 -38t18.5 -18q0 -4 -5 -4q-15 0 -73.5 51.5t-58.5 87.5q0 10 6 18.5t16 8.5z" />
    <glyph glyph-name="Oacute" unicode="&#xd3;" horiz-adv-x="778" 
d="M698 583h-12q0 39 -16 61.5t-61 22.5q-16 0 -24 -2q-31 -33 -54.5 -87.5t-23.5 -110.5q0 -155 124 -232q105 167 105 346q0 24 -2 41t-8.5 37t-22 30.5t-39.5 10.5q-37 0 -64 -19l2 -2h14q82 0 82 -96zM232 146q0 -54 28.5 -96t79.5 -42q68 0 155 71.5t130 145.5
q-65 39 -99.5 99.5t-34.5 134.5q0 116 75 201l-2 2q-126 -38 -229 -196.5t-103 -319.5zM897 270l6 -7q-30 -32 -74 -51t-83 -19q-51 0 -98 20q-57 -83 -148 -152t-174 -69q-77 0 -117.5 45t-40.5 123q0 88 44 180.5t108.5 162t135 117.5t125.5 57q39 35 86 35
q117 0 117 -154q0 -75 -39.5 -168.5t-90.5 -166.5q40 -18 93 -18q80 0 150 65zM772 892q10 0 16 -8.5t6 -18.5q0 -36 -58.5 -87.5t-73.5 -51.5q-5 0 -5 4q0 3 18.5 18t37.5 38t21 44q2 27 12 44.5t26 17.5z" />
    <glyph glyph-name="Ocircumflex" unicode="&#xd4;" horiz-adv-x="778" 
d="M698 583h-12q0 39 -16 61.5t-61 22.5q-16 0 -24 -2q-31 -33 -54.5 -87.5t-23.5 -110.5q0 -155 124 -232q105 167 105 346q0 24 -2 41t-8.5 37t-22 30.5t-39.5 10.5q-37 0 -64 -19l2 -2h14q82 0 82 -96zM232 146q0 -54 28.5 -96t79.5 -42q68 0 155 71.5t130 145.5
q-65 39 -99.5 99.5t-34.5 134.5q0 116 75 201l-2 2q-126 -38 -229 -196.5t-103 -319.5zM897 270l6 -7q-30 -32 -74 -51t-83 -19q-51 0 -98 20q-57 -83 -148 -152t-174 -69q-77 0 -117.5 45t-40.5 123q0 88 44 180.5t108.5 162t135 117.5t125.5 57q39 35 86 35
q117 0 117 -154q0 -75 -39.5 -168.5t-90.5 -166.5q40 -18 93 -18q80 0 150 65zM577 726l-4 7q83 78 144 159h16q0 -72 56 -163l-8 -5q-47 53 -76 109q-81 -77 -128 -107z" />
    <glyph glyph-name="Otilde" unicode="&#xd5;" horiz-adv-x="778" 
d="M698 583h-12q0 39 -16 61.5t-61 22.5q-16 0 -24 -2q-31 -33 -54.5 -87.5t-23.5 -110.5q0 -155 124 -232q105 167 105 346q0 24 -2 41t-8.5 37t-22 30.5t-39.5 10.5q-37 0 -64 -19l2 -2h14q82 0 82 -96zM232 146q0 -54 28.5 -96t79.5 -42q68 0 155 71.5t130 145.5
q-65 39 -99.5 99.5t-34.5 134.5q0 116 75 201l-2 2q-126 -38 -229 -196.5t-103 -319.5zM897 270l6 -7q-30 -32 -74 -51t-83 -19q-51 0 -98 20q-57 -83 -148 -152t-174 -69q-77 0 -117.5 45t-40.5 123q0 88 44 180.5t108.5 162t135 117.5t125.5 57q39 35 86 35
q117 0 117 -154q0 -75 -39.5 -168.5t-90.5 -166.5q40 -18 93 -18q80 0 150 65zM758 776q-24 0 -70 18q-44 18 -67 18q-17 0 -28 -11t-17 -22t-9 -11q-4 0 -4 10q0 27 19 49.5t55 22.5q17 0 64 -19q48 -19 70 -19q21 0 36.5 11t15.5 24q0 9 7 9q5 0 5 -6q0 -30 -22.5 -54
t-54.5 -20z" />
    <glyph glyph-name="Odieresis" unicode="&#xd6;" horiz-adv-x="778" 
d="M698 583h-12q0 39 -16 61.5t-61 22.5q-16 0 -24 -2q-31 -33 -54.5 -87.5t-23.5 -110.5q0 -155 124 -232q105 167 105 346q0 24 -2 41t-8.5 37t-22 30.5t-39.5 10.5q-37 0 -64 -19l2 -2h14q82 0 82 -96zM232 146q0 -54 28.5 -96t79.5 -42q68 0 155 71.5t130 145.5
q-65 39 -99.5 99.5t-34.5 134.5q0 116 75 201l-2 2q-126 -38 -229 -196.5t-103 -319.5zM897 270l6 -7q-30 -32 -74 -51t-83 -19q-51 0 -98 20q-57 -83 -148 -152t-174 -69q-77 0 -117.5 45t-40.5 123q0 88 44 180.5t108.5 162t135 117.5t125.5 57q39 35 86 35
q117 0 117 -154q0 -75 -39.5 -168.5t-90.5 -166.5q40 -18 93 -18q80 0 150 65zM777 842q11 0 18 -11.5t7 -23.5q0 -15 -11 -26t-27 -11q-12 0 -19 10.5t-7 23.5q0 17 11 27.5t28 10.5zM633 842q11 0 18 -11.5t7 -23.5q0 -15 -11 -26t-27 -11q-12 0 -19 10.5t-7 23.5
q0 17 11 27.5t28 10.5z" />
    <glyph glyph-name="multiply" unicode="&#xd7;" horiz-adv-x="600" 
d="M360 172l-148 148l24 24l148 -148l148 148l24 -24l-148 -148l148 -148l-24 -24l-148 148l-148 -148l-24 24z" />
    <glyph glyph-name="Oslash" unicode="&#xd8;" horiz-adv-x="741" 
d="M251 72l407 502q-11 22 -31.5 35t-45.5 13q-64 0 -129 -50t-111 -121.5t-75 -150t-29 -135.5q0 -40 14 -93zM734 663l62 73l7 -7l-63 -74q23 -32 29.5 -61t6.5 -77q0 -58 -26 -130t-72 -142t-102.5 -129t-124 -95.5t-129.5 -36.5q-68 0 -97 36l-62 -70l-7 7l61 70
q-40 50 -40 122q0 88 58.5 201.5t154 198.5t187.5 85q61 0 89 -52l48 58q-43 60 -117 60q-117 0 -265 -174l-9 5q144 181 274 181q84 0 137 -49zM662 562l-407 -501q8 -27 32.5 -44t52.5 -17q72 0 146.5 58t128 141.5t87.5 176t34 160.5q0 52 -18 92l-47 -57q7 -13 7 -44
q0 -32 -16 -68l-11 2q15 38 15 65q0 26 -4 36z" />
    <glyph glyph-name="Ugrave" unicode="&#xd9;" horiz-adv-x="833" 
d="M909 696h67l-125 -194.5l-108.5 -163.5l-79 -122t-55 -98.5t-17.5 -64.5q0 -49 45 -49q110 0 317 262l8 -3q-47 -60 -82.5 -100t-81 -83.5t-89.5 -65.5t-85 -22q-80 0 -80 87q0 39 32 89l-2 2q-165 -178 -279 -178q-35 0 -55.5 18.5t-20.5 51.5q0 45 50.5 131.5
t110.5 167.5t110.5 166t50.5 129t-58 44q-100 0 -194.5 -85t-94.5 -175q0 -74 73 -74q36 0 66.5 22.5t49.5 52.5l11 -2q-21 -34 -55.5 -59.5t-72.5 -25.5q-40 0 -62 22t-22 63q0 60 44 123.5t117.5 106.5t150.5 43q43 0 69 -20.5t26 -58.5q0 -44 -49.5 -129.5t-108.5 -165
t-108.5 -162.5t-49.5 -124q0 -22 11.5 -33t26.5 -11q63 0 155 76.5t142 143.5q23 30 57 81.5l63 97.5l86.5 138zM677 892q16 0 26 -17.5t12 -44.5q2 -21 21 -44t37.5 -38t18.5 -18q0 -4 -5 -4q-15 0 -73.5 51.5t-58.5 87.5q0 10 6 18.5t16 8.5z" />
    <glyph glyph-name="Uacute" unicode="&#xda;" horiz-adv-x="833" 
d="M909 696h67l-125 -194.5l-108.5 -163.5l-79 -122t-55 -98.5t-17.5 -64.5q0 -49 45 -49q110 0 317 262l8 -3q-47 -60 -82.5 -100t-81 -83.5t-89.5 -65.5t-85 -22q-80 0 -80 87q0 39 32 89l-2 2q-165 -178 -279 -178q-35 0 -55.5 18.5t-20.5 51.5q0 45 50.5 131.5
t110.5 167.5t110.5 166t50.5 129t-58 44q-100 0 -194.5 -85t-94.5 -175q0 -74 73 -74q36 0 66.5 22.5t49.5 52.5l11 -2q-21 -34 -55.5 -59.5t-72.5 -25.5q-40 0 -62 22t-22 63q0 60 44 123.5t117.5 106.5t150.5 43q43 0 69 -20.5t26 -58.5q0 -44 -49.5 -129.5t-108.5 -165
t-108.5 -162.5t-49.5 -124q0 -22 11.5 -33t26.5 -11q63 0 155 76.5t142 143.5q23 30 57 81.5l63 97.5l86.5 138zM852 892q10 0 16 -8.5t6 -18.5q0 -36 -58.5 -87.5t-73.5 -51.5q-5 0 -5 4q0 3 18.5 18t37.5 38t21 44q2 27 12 44.5t26 17.5z" />
    <glyph glyph-name="Ucircumflex" unicode="&#xdb;" horiz-adv-x="833" 
d="M909 696h67l-125 -194.5l-108.5 -163.5l-79 -122t-55 -98.5t-17.5 -64.5q0 -49 45 -49q110 0 317 262l8 -3q-47 -60 -82.5 -100t-81 -83.5t-89.5 -65.5t-85 -22q-80 0 -80 87q0 39 32 89l-2 2q-165 -178 -279 -178q-35 0 -55.5 18.5t-20.5 51.5q0 45 50.5 131.5
t110.5 167.5t110.5 166t50.5 129t-58 44q-100 0 -194.5 -85t-94.5 -175q0 -74 73 -74q36 0 66.5 22.5t49.5 52.5l11 -2q-21 -34 -55.5 -59.5t-72.5 -25.5q-40 0 -62 22t-22 63q0 60 44 123.5t117.5 106.5t150.5 43q43 0 69 -20.5t26 -58.5q0 -44 -49.5 -129.5t-108.5 -165
t-108.5 -162.5t-49.5 -124q0 -22 11.5 -33t26.5 -11q63 0 155 76.5t142 143.5q23 30 57 81.5l63 97.5l86.5 138zM657 726l-4 7q83 78 144 159h16q0 -72 56 -163l-8 -5q-47 53 -76 109q-81 -77 -128 -107z" />
    <glyph glyph-name="Udieresis" unicode="&#xdc;" horiz-adv-x="833" 
d="M909 696h67l-125 -194.5l-108.5 -163.5l-79 -122t-55 -98.5t-17.5 -64.5q0 -49 45 -49q110 0 317 262l8 -3q-47 -60 -82.5 -100t-81 -83.5t-89.5 -65.5t-85 -22q-80 0 -80 87q0 39 32 89l-2 2q-165 -178 -279 -178q-35 0 -55.5 18.5t-20.5 51.5q0 45 50.5 131.5
t110.5 167.5t110.5 166t50.5 129t-58 44q-100 0 -194.5 -85t-94.5 -175q0 -74 73 -74q36 0 66.5 22.5t49.5 52.5l11 -2q-21 -34 -55.5 -59.5t-72.5 -25.5q-40 0 -62 22t-22 63q0 60 44 123.5t117.5 106.5t150.5 43q43 0 69 -20.5t26 -58.5q0 -44 -49.5 -129.5t-108.5 -165
t-108.5 -162.5t-49.5 -124q0 -22 11.5 -33t26.5 -11q63 0 155 76.5t142 143.5q23 30 57 81.5l63 97.5l86.5 138zM857 842q11 0 18 -11.5t7 -23.5q0 -15 -11 -26t-27 -11q-12 0 -19 10.5t-7 23.5q0 17 11 27.5t28 10.5zM713 842q11 0 18 -11.5t7 -23.5q0 -15 -11 -26t-27 -11
q-12 0 -19 10.5t-7 23.5q0 17 11 27.5t28 10.5z" />
    <glyph glyph-name="Yacute" unicode="&#xdd;" horiz-adv-x="778" 
d="M944 696h68l-429 -660q-212 -328 -431 -328q-71 0 -120 34t-49 99q0 52 35 83.5t82 31.5q46 0 88 -27l-4 -8q-49 19 -71 19q-32 0 -54 -27.5t-22 -78.5q0 -52 35.5 -83t92.5 -31q54 0 109.5 35t108 97.5t93 119.5t88 131t68.5 103l-2 2q-70 -84 -157 -150t-156 -66
q-84 0 -84 78q0 41 51.5 124.5t113.5 164t113.5 166t51.5 130.5q0 21 -12.5 33t-36.5 12q-56 0 -124.5 -37t-118.5 -99.5t-50 -125.5q0 -32 15 -52t45 -20q42 0 72 20t58 56l8 -1q-57 -87 -142 -87q-39 0 -58.5 25t-19.5 61q0 59 51 123.5t127 106.5t143 42q97 0 97 -84
q0 -34 -34 -95.5t-82.5 -129.5l-97 -135t-82.5 -127.5t-34 -92.5q0 -23 11 -33.5t26 -10.5q65 0 174 87.5t185 204.5zM844 892q10 0 16 -8.5t6 -18.5q0 -36 -58.5 -87.5t-73.5 -51.5q-5 0 -5 4q0 3 18.5 18t37.5 38t21 44q2 27 12 44.5t26 17.5z" />
    <glyph glyph-name="Thorn" unicode="&#xde;" horiz-adv-x="778" 
d="M516 528h-69q30 67 95 110t136 58.5t153 15.5q40 0 98 -4v-8q-77 -7 -156.5 -81t-129.5 -157l2 -2q24 25 63.5 47.5t77.5 22.5q72 0 72 -72q0 -32 -14.5 -69.5t-44 -76t-85 -63.5t-127.5 -25q-32 0 -56 6l4 10q28 -4 46 -4q60 0 106 23t70 57t35.5 66t11.5 58
q0 56 -50 56q-38 0 -82 -34t-72 -78q-21 -32 -56 -90.5l-57 -94t-57.5 -81.5t-66.5 -71.5t-75 -44t-92 -18.5q-44 0 -74.5 18t-30.5 52q0 18 11 29t30 11q13 0 22 -9t9 -22t-7.5 -23.5t-20.5 -9.5q3 -13 21.5 -23.5t40.5 -10.5q45 0 90 35t85 92.5t82 127.5l87.5 142.5
t93.5 135.5t109.5 109t126.5 60v2h-49q-223 0 -306 -172z" />
    <glyph glyph-name="germandbls" unicode="&#xdf;" horiz-adv-x="556" 
d="M-435 -76v-10q-87 0 -87 -82q0 -49 34.5 -78.5t84.5 -29.5q56 0 120.5 42t110.5 93t85 109l94.5 147l91 145.5l84 130.5t86 117t84.5 88.5t91.5 61.5t95.5 20q54 0 87 -30.5t33 -75.5q0 -50 -38 -88.5t-119 -73.5q-65 -28 -86.5 -53t-21.5 -68q0 -28 22 -86t22 -90
q0 -66 -86 -106l2 -2q95 17 170.5 84.5t154.5 174.5l9 -4l-60.5 -79t-65.5 -71.5t-76 -62t-85.5 -39.5t-99.5 -16q-49 0 -79.5 29.5t-30.5 69.5q0 33 17 53t46 20q15 0 25 -9t10 -24q0 -31 -33 -31q-19 0 -29 18q-14 -16 -14 -39q0 -29 20 -52t57 -23q46 0 70 29.5t24 70.5
q0 31 -22 87q-22 58 -22 84q0 46 32.5 72.5t116.5 67.5q68 34 101 80.5t33 91.5q0 36 -21 57.5t-60 21.5q-53 0 -104.5 -37t-108 -113.5t-107.5 -158.5l-132.5 -209t-154.5 -228q-67 -92 -156.5 -150t-184.5 -58q-65 0 -115 30t-50 91q0 45 32.5 69t81.5 24q7 0 21 -2z" />
    <glyph glyph-name="agrave" unicode="&#xe0;" 
d="M354 285l33 59h65l-73.5 -104l-56.5 -84t-46.5 -79.5t-13.5 -46.5q0 -26 27 -26q42 0 124.5 77.5t153.5 185.5l6 -2q-67 -103 -150 -188t-145 -85q-27 0 -41.5 14t-14.5 35q0 19 14 55l-2 1q-36 -39 -82 -72t-85 -33q-34 0 -50.5 21.5t-16.5 53.5q0 53 43 121t107 116
t118 48q70 0 84 -67h2zM60 64q0 -48 36 -48q34 0 87 44t95 111t42 122q0 22 -13 34.5t-32 12.5q-39 0 -90 -43.5t-88 -109.5t-37 -123zM230 572q16 0 26 -17.5t12 -44.5q2 -21 21 -44t37.5 -38t18.5 -18q0 -4 -5 -4q-15 0 -73.5 51.5t-58.5 87.5q0 10 6 18.5t16 8.5z" />
    <glyph glyph-name="aacute" unicode="&#xe1;" 
d="M354 285l33 59h65l-73.5 -104l-56.5 -84t-46.5 -79.5t-13.5 -46.5q0 -26 27 -26q42 0 124.5 77.5t153.5 185.5l6 -2q-67 -103 -150 -188t-145 -85q-27 0 -41.5 14t-14.5 35q0 19 14 55l-2 1q-36 -39 -82 -72t-85 -33q-34 0 -50.5 21.5t-16.5 53.5q0 53 43 121t107 116
t118 48q70 0 84 -67h2zM60 64q0 -48 36 -48q34 0 87 44t95 111t42 122q0 22 -13 34.5t-32 12.5q-39 0 -90 -43.5t-88 -109.5t-37 -123zM425 572q10 0 16 -8.5t6 -18.5q0 -36 -58.5 -87.5t-73.5 -51.5q-5 0 -5 4q0 3 18.5 18t37.5 38t21 44q2 27 12 44.5t26 17.5z" />
    <glyph glyph-name="acircumflex" unicode="&#xe2;" 
d="M354 285l33 59h65l-73.5 -104l-56.5 -84t-46.5 -79.5t-13.5 -46.5q0 -26 27 -26q42 0 124.5 77.5t153.5 185.5l6 -2q-67 -103 -150 -188t-145 -85q-27 0 -41.5 14t-14.5 35q0 19 14 55l-2 1q-36 -39 -82 -72t-85 -33q-34 0 -50.5 21.5t-16.5 53.5q0 53 43 121t107 116
t118 48q70 0 84 -67h2zM60 64q0 -48 36 -48q34 0 87 44t95 111t42 122q0 22 -13 34.5t-32 12.5q-39 0 -90 -43.5t-88 -109.5t-37 -123zM230 406l-4 7q83 78 144 159h16q0 -72 56 -163l-8 -5q-47 53 -76 109q-81 -77 -128 -107z" />
    <glyph glyph-name="atilde" unicode="&#xe3;" 
d="M354 285l33 59h65l-73.5 -104l-56.5 -84t-46.5 -79.5t-13.5 -46.5q0 -26 27 -26q42 0 124.5 77.5t153.5 185.5l6 -2q-67 -103 -150 -188t-145 -85q-27 0 -41.5 14t-14.5 35q0 19 14 55l-2 1q-36 -39 -82 -72t-85 -33q-34 0 -50.5 21.5t-16.5 53.5q0 53 43 121t107 116
t118 48q70 0 84 -67h2zM60 64q0 -48 36 -48q34 0 87 44t95 111t42 122q0 22 -13 34.5t-32 12.5q-39 0 -90 -43.5t-88 -109.5t-37 -123zM411 456q-24 0 -70 18q-44 18 -67 18q-22 0 -37 -22t-17 -22q-4 0 -4 10q0 27 19 49.5t55 22.5q16 0 64 -19q47 -19 70 -19q21 0 36.5 11
t15.5 24q0 9 7 9q5 0 5 -6q0 -30 -22.5 -54t-54.5 -20z" />
    <glyph glyph-name="adieresis" unicode="&#xe4;" 
d="M354 285l33 59h65l-73.5 -104l-56.5 -84t-46.5 -79.5t-13.5 -46.5q0 -26 27 -26q42 0 124.5 77.5t153.5 185.5l6 -2q-67 -103 -150 -188t-145 -85q-27 0 -41.5 14t-14.5 35q0 19 14 55l-2 1q-36 -39 -82 -72t-85 -33q-34 0 -50.5 21.5t-16.5 53.5q0 53 43 121t107 116
t118 48q70 0 84 -67h2zM60 64q0 -48 36 -48q34 0 87 44t95 111t42 122q0 22 -13 34.5t-32 12.5q-39 0 -90 -43.5t-88 -109.5t-37 -123zM430 522q11 0 18 -11.5t7 -23.5q0 -15 -11 -26t-27 -11q-12 0 -19 10.5t-7 23.5q0 17 11 27.5t28 10.5zM286 522q11 0 18 -11.5t7 -23.5
q0 -15 -11 -26t-27 -11q-12 0 -19 10.5t-7 23.5q0 17 11 27.5t28 10.5z" />
    <glyph glyph-name="aring" unicode="&#xe5;" 
d="M354 285l33 59h65l-73.5 -104l-56.5 -84t-46.5 -79.5t-13.5 -46.5q0 -26 27 -26q42 0 124.5 77.5t153.5 185.5l6 -2q-67 -103 -150 -188t-145 -85q-27 0 -41.5 14t-14.5 35q0 19 14 55l-2 1q-36 -39 -82 -72t-85 -33q-34 0 -50.5 21.5t-16.5 53.5q0 53 43 121t107 116
t118 48q70 0 84 -67h2zM60 64q0 -48 36 -48q34 0 87 44t95 111t42 122q0 22 -13 34.5t-32 12.5q-39 0 -90 -43.5t-88 -109.5t-37 -123zM266 461q0 42 33 73.5t77 31.5q26 0 44 -17t18 -46q0 -43 -33 -74t-77 -31q-26 0 -44 17t-18 46zM414 521q0 16 -10 26.5t-27 10.5
q-32 0 -59.5 -40t-27.5 -75q0 -16 10 -26.5t27 -10.5q32 0 59.5 40t27.5 75z" />
    <glyph glyph-name="ae" unicode="&#xe6;" horiz-adv-x="574" 
d="M61 64q0 -48 36 -48q34 0 87 44t95 111t42 122q0 22 -13 34.5t-32 12.5q-39 0 -90 -43.5t-88 -109.5t-37 -123zM536 312q0 28 -26 28q-38 0 -91 -55t-76 -105q34 6 76.5 23t79.5 47t37 62zM388 344h55l-18 -24l2 -2q53 34 104 34q53 0 53 -41q0 -29 -44.5 -60t-98 -51
t-103.5 -31q-25 -46 -25 -95q0 -26 12 -46t35 -20q67 0 168 79t160 177l8 -5q-31 -55 -87 -114.5t-131.5 -106t-138.5 -46.5q-42 0 -64 21.5t-22 61.5q0 27 10 49l-2 2q-107 -134 -193 -134q-34 0 -50.5 21.5t-16.5 53.5q0 53 43 121t107 116t118 48q70 0 84 -67h2z" />
    <glyph glyph-name="ccedilla" unicode="&#xe7;" horiz-adv-x="333" 
d="M448 257l7 -6q-53 -84 -142 -159q-118 -100 -214 -100h-2l-30 -50q21 -1 34 -2.5t30 -6.5t25.5 -16t8.5 -27q0 -22 -15.5 -37.5t-40 -23t-46 -10.5t-40.5 -3q-53 0 -77 9l1 8q29 -5 69 -5q22 0 43.5 4t41.5 18t20 36q0 23 -15.5 29t-61.5 7l43 72q-33 2 -54 22t-21 53
q0 62 45.5 129t111.5 110.5t124 43.5q72 0 72 -47q0 -39 -64 -44q10 26 10 42q0 37 -35 37q-55 0 -129.5 -92t-74.5 -175q0 -28 13 -46.5t38 -18.5q68 0 169 80q94 73 156 169z" />
    <glyph glyph-name="egrave" unicode="&#xe8;" horiz-adv-x="333" 
d="M300 312q0 28 -26 28q-38 0 -91 -55t-76 -105q34 6 76.5 23t79.5 47t37 62zM454 264l8 -5q-31 -55 -87 -114.5t-131.5 -106t-138.5 -46.5q-42 0 -65 21.5t-23 61.5q0 42 27 92t67 90.5t90.5 67.5t93.5 27q53 0 53 -41q0 -29 -44.5 -60t-98 -51t-103.5 -31
q-25 -46 -25 -95q0 -27 12 -46.5t37 -19.5q67 0 168 79t160 177zM193 572q16 0 26 -17.5t12 -44.5q2 -21 21 -44t37.5 -38t18.5 -18q0 -4 -5 -4q-15 0 -73.5 51.5t-58.5 87.5q0 10 6 18.5t16 8.5z" />
    <glyph glyph-name="eacute" unicode="&#xe9;" horiz-adv-x="333" 
d="M300 312q0 28 -26 28q-38 0 -91 -55t-76 -105q34 6 76.5 23t79.5 47t37 62zM454 264l8 -5q-31 -55 -87 -114.5t-131.5 -106t-138.5 -46.5q-42 0 -65 21.5t-23 61.5q0 42 27 92t67 90.5t90.5 67.5t93.5 27q53 0 53 -41q0 -29 -44.5 -60t-98 -51t-103.5 -31
q-25 -46 -25 -95q0 -27 12 -46.5t37 -19.5q67 0 168 79t160 177zM388 572q10 0 16 -8.5t6 -18.5q0 -36 -58.5 -87.5t-73.5 -51.5q-5 0 -5 4q0 3 18.5 18t37.5 38t21 44q2 27 12 44.5t26 17.5z" />
    <glyph glyph-name="ecircumflex" unicode="&#xea;" horiz-adv-x="333" 
d="M300 312q0 28 -26 28q-38 0 -91 -55t-76 -105q34 6 76.5 23t79.5 47t37 62zM454 264l8 -5q-31 -55 -87 -114.5t-131.5 -106t-138.5 -46.5q-42 0 -65 21.5t-23 61.5q0 42 27 92t67 90.5t90.5 67.5t93.5 27q53 0 53 -41q0 -29 -44.5 -60t-98 -51t-103.5 -31
q-25 -46 -25 -95q0 -27 12 -46.5t37 -19.5q67 0 168 79t160 177zM193 406l-4 7q83 78 144 159h16q0 -72 56 -163l-8 -5q-47 53 -76 109q-81 -77 -128 -107z" />
    <glyph glyph-name="edieresis" unicode="&#xeb;" horiz-adv-x="333" 
d="M300 312q0 28 -26 28q-38 0 -91 -55t-76 -105q34 6 76.5 23t79.5 47t37 62zM454 264l8 -5q-31 -55 -87 -114.5t-131.5 -106t-138.5 -46.5q-42 0 -65 21.5t-23 61.5q0 42 27 92t67 90.5t90.5 67.5t93.5 27q53 0 53 -41q0 -29 -44.5 -60t-98 -51t-103.5 -31
q-25 -46 -25 -95q0 -27 12 -46.5t37 -19.5q67 0 168 79t160 177zM393 522q11 0 18 -11.5t7 -23.5q0 -15 -11 -26t-27 -11q-12 0 -19 10.5t-7 23.5q0 17 11 27.5t28 10.5zM249 522q11 0 18 -11.5t7 -23.5q0 -15 -11 -26t-27 -11q-12 0 -19 10.5t-7 23.5q0 17 11 27.5t28 10.5
z" />
    <glyph glyph-name="igrave" unicode="&#xec;" horiz-adv-x="222" 
d="M168 344h64l-45 -65l-39 -56l-32 -46l-27 -39.5l-21 -31t-16.5 -26.5t-10 -20t-6.5 -17t-2 -13q0 -26 21 -26q54 0 153.5 97.5t134.5 162.5l8 -5q-46 -78 -143 -172.5t-161 -94.5q-25 0 -39 14t-14 34q0 12 2.5 24t10.5 28.5t16 31t24.5 40l31 46.5l41.5 60.5zM137 572
q16 0 26 -17.5t12 -44.5q2 -21 21 -44t37.5 -38t18.5 -18q0 -4 -5 -4q-15 0 -73.5 51.5t-58.5 87.5q0 10 6 18.5t16 8.5z" />
    <glyph glyph-name="iacute" unicode="&#xed;" horiz-adv-x="222" 
d="M168 344h64l-45 -65l-39 -56l-32 -46l-27 -39.5l-21 -31t-16.5 -26.5t-10 -20t-6.5 -17t-2 -13q0 -26 21 -26q54 0 153.5 97.5t134.5 162.5l8 -5q-46 -78 -143 -172.5t-161 -94.5q-25 0 -39 14t-14 34q0 12 2.5 24t10.5 28.5t16 31t24.5 40l31 46.5l41.5 60.5zM332 572
q10 0 16 -8.5t6 -18.5q0 -36 -58.5 -87.5t-73.5 -51.5q-5 0 -5 4q0 3 18.5 18t37.5 38t21 44q2 27 12 44.5t26 17.5z" />
    <glyph glyph-name="icircumflex" unicode="&#xee;" horiz-adv-x="222" 
d="M168 344h64l-45 -65l-39 -56l-32 -46l-27 -39.5l-21 -31t-16.5 -26.5t-10 -20t-6.5 -17t-2 -13q0 -26 21 -26q54 0 153.5 97.5t134.5 162.5l8 -5q-46 -78 -143 -172.5t-161 -94.5q-25 0 -39 14t-14 34q0 12 2.5 24t10.5 28.5t16 31t24.5 40l31 46.5l41.5 60.5zM137 406
l-4 7q83 78 144 159h16q0 -72 56 -163l-8 -5q-47 53 -76 109q-81 -77 -128 -107z" />
    <glyph glyph-name="idieresis" unicode="&#xef;" horiz-adv-x="222" 
d="M168 344h64l-45 -65l-39 -56l-32 -46l-27 -39.5l-21 -31t-16.5 -26.5t-10 -20t-6.5 -17t-2 -13q0 -26 21 -26q54 0 153.5 97.5t134.5 162.5l8 -5q-46 -78 -143 -172.5t-161 -94.5q-25 0 -39 14t-14 34q0 12 2.5 24t10.5 28.5t16 31t24.5 40l31 46.5l41.5 60.5zM337 522
q11 0 18 -11.5t7 -23.5q0 -15 -11 -26t-27 -11q-12 0 -19 10.5t-7 23.5q0 17 11 27.5t28 10.5zM193 522q11 0 18 -11.5t7 -23.5q0 -15 -11 -26t-27 -11q-12 0 -19 10.5t-7 23.5q0 17 11 27.5t28 10.5z" />
    <glyph glyph-name="eth" unicode="&#xf0;" 
d="M288 510h92q8 102 57 152t117 50q49 0 92 -41v-15q-18 15 -26.5 21t-28 14.5t-38.5 8.5q-56 0 -84 -54t-29 -136h97q6 0 6 -6t-6 -6h-98q-23 -163 -56 -239q0 -20 21.5 -37.5t50.5 -17.5q55 0 106 54l8 -5q-52 -59 -113 -59q-53 0 -79 42h-2q-27 -86 -107.5 -165
t-168.5 -79q-42 0 -64.5 25t-22.5 67q0 46 40 108.5t107 111t133 48.5q38 0 63 -23q19 70 25 169h-92q-6 0 -6 6t6 6zM66 60q0 -56 40 -56q50 0 103 51t85 118t32 117q0 22 -11 36t-32 14q-41 0 -92.5 -47.5t-88 -114.5t-36.5 -118z" />
    <glyph glyph-name="ntilde" unicode="&#xf1;" 
d="M155 341l65 3l-132 -183l2 -2l20 23q19 24 23.5 29l24 27t28 29.5l27 25t31 25l29 17.5t31.5 13.5t30 3.5q29 0 46 -16.5t17 -42.5q0 -34 -77 -135.5t-77 -125.5q0 -28 28 -28q61 0 154 94q38 39 79.5 90.5t59.5 80.5l7 -4q-51 -78 -120 -153q-111 -120 -181 -120
q-30 0 -48.5 16.5t-18.5 43.5q0 26 24 65t53 72t53 69t24 58q0 24 -29 24q-46 0 -118 -67t-128.5 -144t-81.5 -129h-62q36 60 113 178t104 163zM388 456q-24 0 -70 18q-44 18 -67 18q-17 0 -28 -11t-17 -22t-9 -11q-4 0 -4 10q0 27 19 49.5t55 22.5q17 0 64 -19
q48 -19 70 -19q21 0 36.5 11t15.5 24q0 9 7 9q5 0 5 -6q0 -30 -22.5 -54t-54.5 -20z" />
    <glyph glyph-name="ograve" unicode="&#xf2;" 
d="M561 258l8 -5q-52 -59 -113 -59q-53 0 -79 42h-2q-23 -84 -106 -164t-170 -80q-42 0 -64.5 25t-22.5 67q0 46 40 108.5t107 111t133 48.5q40 0 63 -23.5t25 -62.5q2 -25 22.5 -43.5t52.5 -18.5q55 0 106 54zM66 60q0 -56 40 -56q50 0 103 51t85 118t32 117q0 22 -11 36
t-32 14q-41 0 -92.5 -47.5t-88 -114.5t-36.5 -118zM207 572q16 0 26 -17.5t12 -44.5q2 -21 21 -44t37.5 -38t18.5 -18q0 -4 -5 -4q-15 0 -73.5 51.5t-58.5 87.5q0 10 6 18.5t16 8.5z" />
    <glyph glyph-name="oacute" unicode="&#xf3;" 
d="M561 258l8 -5q-52 -59 -113 -59q-53 0 -79 42h-2q-23 -84 -106 -164t-170 -80q-42 0 -64.5 25t-22.5 67q0 46 40 108.5t107 111t133 48.5q40 0 63 -23.5t25 -62.5q2 -25 22.5 -43.5t52.5 -18.5q55 0 106 54zM66 60q0 -56 40 -56q50 0 103 51t85 118t32 117q0 22 -11 36
t-32 14q-41 0 -92.5 -47.5t-88 -114.5t-36.5 -118zM402 572q10 0 16 -8.5t6 -18.5q0 -36 -58.5 -87.5t-73.5 -51.5q-5 0 -5 4q0 3 18.5 18t37.5 38t21 44q2 27 12 44.5t26 17.5z" />
    <glyph glyph-name="ocircumflex" unicode="&#xf4;" 
d="M561 258l8 -5q-52 -59 -113 -59q-53 0 -79 42h-2q-23 -84 -106 -164t-170 -80q-42 0 -64.5 25t-22.5 67q0 46 40 108.5t107 111t133 48.5q40 0 63 -23.5t25 -62.5q2 -25 22.5 -43.5t52.5 -18.5q55 0 106 54zM66 60q0 -56 40 -56q50 0 103 51t85 118t32 117q0 22 -11 36
t-32 14q-41 0 -92.5 -47.5t-88 -114.5t-36.5 -118zM207 406l-4 7q83 78 144 159h16q0 -72 56 -163l-8 -5q-47 53 -76 109q-81 -77 -128 -107z" />
    <glyph glyph-name="otilde" unicode="&#xf5;" 
d="M561 258l8 -5q-52 -59 -113 -59q-53 0 -79 42h-2q-23 -84 -106 -164t-170 -80q-42 0 -64.5 25t-22.5 67q0 46 40 108.5t107 111t133 48.5q40 0 63 -23.5t25 -62.5q2 -25 22.5 -43.5t52.5 -18.5q55 0 106 54zM66 60q0 -56 40 -56q50 0 103 51t85 118t32 117q0 22 -11 36
t-32 14q-41 0 -92.5 -47.5t-88 -114.5t-36.5 -118zM388 456q-24 0 -70 18q-44 18 -67 18q-17 0 -28 -11t-17 -22t-9 -11q-4 0 -4 10q0 27 19 49.5t55 22.5q17 0 64 -19q48 -19 70 -19q21 0 36.5 11t15.5 24q0 9 7 9q5 0 5 -6q0 -30 -22.5 -54t-54.5 -20z" />
    <glyph glyph-name="odieresis" unicode="&#xf6;" 
d="M561 258l8 -5q-52 -59 -113 -59q-53 0 -79 42h-2q-23 -84 -106 -164t-170 -80q-42 0 -64.5 25t-22.5 67q0 46 40 108.5t107 111t133 48.5q40 0 63 -23.5t25 -62.5q2 -25 22.5 -43.5t52.5 -18.5q55 0 106 54zM66 60q0 -56 40 -56q50 0 103 51t85 118t32 117q0 22 -11 36
t-32 14q-41 0 -92.5 -47.5t-88 -114.5t-36.5 -118zM407 522q11 0 18 -11.5t7 -23.5q0 -15 -11 -26t-27 -11q-12 0 -19 10.5t-7 23.5q0 17 11 27.5t28 10.5zM263 522q11 0 18 -11.5t7 -23.5q0 -15 -11 -26t-27 -11q-12 0 -19 10.5t-7 23.5q0 17 11 27.5t28 10.5z" />
    <glyph glyph-name="divide" unicode="&#xf7;" horiz-adv-x="600" 
d="M556 155h-344v34h344v-34zM384 67q15 0 26 -11t11 -26t-11 -26t-26 -11t-26 11t-11 26t11 26t26 11zM384 351q15 0 26 -11t11 -26t-11 -26t-26 -11t-26 11t-11 26t11 26t26 11z" />
    <glyph glyph-name="oslash" unicode="&#xf8;" 
d="M69 36l242 293q-11 11 -28 11q-41 0 -92.5 -47.5t-88 -114.5t-36.5 -118q0 -14 3 -24zM318 321l-245 -295q9 -22 33 -22q50 0 103 51t85 118t32 117q0 20 -8 31zM380 412l8 -7l-52 -63q41 -21 44 -76q2 -25 22.5 -43.5t52.5 -18.5q55 0 106 54l8 -5q-52 -59 -113 -59
q-53 0 -79 42h-2q-23 -84 -106 -164t-170 -80q-26 0 -45 11l-55 -66l-7 8l53 63q-33 24 -33 76q0 46 40 108.5t107 111t133 48.5q17 0 34 -5z" />
    <glyph glyph-name="ugrave" unicode="&#xf9;" 
d="M166 344h66l-59.5 -80l-57.5 -78l-41 -59t-32.5 -54.5t-9.5 -33.5q0 -31 29 -31q49 0 122 73.5t109 128.5l88 134h69q-121 -164 -158.5 -222t-37.5 -89q0 -12 7.5 -20.5t19.5 -8.5q53 0 141 91t142 169l10 -3l-40.5 -54.5t-56.5 -68t-68 -71.5t-69 -52.5t-65 -22.5
t-44.5 15.5t-16.5 41.5q0 38 16 62l-2 2q-108 -121 -183 -121q-30 0 -45 14t-15 35q0 19 7.5 40.5t26.5 52t36 55l52.5 73zM242 572q16 0 26 -17.5t12 -44.5q2 -21 21 -44t37.5 -38t18.5 -18q0 -4 -5 -4q-15 0 -73.5 51.5t-58.5 87.5q0 10 6 18.5t16 8.5z" />
    <glyph glyph-name="uacute" unicode="&#xfa;" 
d="M166 344h66l-59.5 -80l-57.5 -78l-41 -59t-32.5 -54.5t-9.5 -33.5q0 -31 29 -31q49 0 122 73.5t109 128.5l88 134h69q-121 -164 -158.5 -222t-37.5 -89q0 -12 7.5 -20.5t19.5 -8.5q53 0 141 91t142 169l10 -3l-40.5 -54.5t-56.5 -68t-68 -71.5t-69 -52.5t-65 -22.5
t-44.5 15.5t-16.5 41.5q0 38 16 62l-2 2q-108 -121 -183 -121q-30 0 -45 14t-15 35q0 19 7.5 40.5t26.5 52t36 55l52.5 73zM437 572q10 0 16 -8.5t6 -18.5q0 -36 -58.5 -87.5t-73.5 -51.5q-5 0 -5 4q0 3 18.5 18t37.5 38t21 44q2 27 12 44.5t26 17.5z" />
    <glyph glyph-name="ucircumflex" unicode="&#xfb;" 
d="M166 344h66l-59.5 -80l-57.5 -78l-41 -59t-32.5 -54.5t-9.5 -33.5q0 -31 29 -31q49 0 122 73.5t109 128.5l88 134h69q-121 -164 -158.5 -222t-37.5 -89q0 -12 7.5 -20.5t19.5 -8.5q53 0 141 91t142 169l10 -3l-40.5 -54.5t-56.5 -68t-68 -71.5t-69 -52.5t-65 -22.5
t-44.5 15.5t-16.5 41.5q0 38 16 62l-2 2q-108 -121 -183 -121q-30 0 -45 14t-15 35q0 19 7.5 40.5t26.5 52t36 55l52.5 73zM242 406l-4 7q83 78 144 159h16q0 -72 56 -163l-8 -5q-47 53 -76 109q-81 -77 -128 -107z" />
    <glyph glyph-name="udieresis" unicode="&#xfc;" 
d="M166 344h66l-59.5 -80l-57.5 -78l-41 -59t-32.5 -54.5t-9.5 -33.5q0 -31 29 -31q49 0 122 73.5t109 128.5l88 134h69q-121 -164 -158.5 -222t-37.5 -89q0 -12 7.5 -20.5t19.5 -8.5q53 0 141 91t142 169l10 -3l-40.5 -54.5t-56.5 -68t-68 -71.5t-69 -52.5t-65 -22.5
t-44.5 15.5t-16.5 41.5q0 38 16 62l-2 2q-108 -121 -183 -121q-30 0 -45 14t-15 35q0 19 7.5 40.5t26.5 52t36 55l52.5 73zM442 522q11 0 18 -11.5t7 -23.5q0 -15 -11 -26t-27 -11q-12 0 -19 10.5t-7 23.5q0 17 11 27.5t28 10.5zM298 522q11 0 18 -11.5t7 -23.5
q0 -15 -11 -26t-27 -11q-12 0 -19 10.5t-7 23.5q0 17 11 27.5t28 10.5z" />
    <glyph glyph-name="yacute" unicode="&#xfd;" 
d="M165 344h67q-30 -44 -89.5 -124t-85.5 -121t-26 -62q0 -29 28 -29q55 0 144.5 97t177.5 239h62q-44 -61 -117.5 -179l-99.5 -157q92 16 179 82t156 167l7 -3q-71 -109 -162.5 -176t-186.5 -82q-92 -127 -135 -173q-125 -131 -271 -131q-67 0 -114.5 32.5t-47.5 80.5
q0 50 33 75t85 25v-3q-70 -16 -70 -94q0 -48 34.5 -76t80.5 -28q34 0 69 13.5t64.5 33t63 53t56.5 61.5t54 71.5t48 70.5l44.5 71l37.5 60l-2 2l-41 -46t-46.5 -45t-62.5 -43t-62 -14q-60 0 -60 48q0 15 6 31.5t23 43.5t34.5 51.5l55 77.5zM402 572q10 0 16 -8.5t6 -18.5
q0 -36 -58.5 -87.5t-73.5 -51.5q-5 0 -5 4q0 3 18.5 18t37.5 38t21 44q2 27 12 44.5t26 17.5z" />
    <glyph glyph-name="thorn" unicode="&#xfe;" 
d="M356 642h76l-226 -324l2 -2q43 36 91 36q34 0 56 -23.5t24 -62.5q1 -26 23 -44t52 -18q60 0 107 55l6 -7q-50 -58 -112 -58q-55 0 -79 43h-2q-22 -83 -103 -164t-161 -81q-28 0 -43.5 17t-15.5 43q0 25 3 36l-2 2q-181 -289 -251 -414h-62zM326 288v6v6.5t-0.5 6.5t-1 7
t-1.5 6.5t-3 6.5t-4.5 5t-6 4.5t-8 2.5t-9.5 1q-66 0 -146.5 -105t-80.5 -179q0 -25 13.5 -38.5t33.5 -13.5q47 0 98.5 51t83.5 117.5t32 115.5z" />
    <glyph glyph-name="ydieresis" unicode="&#xff;" 
d="M165 344h67q-30 -44 -89.5 -124t-85.5 -121t-26 -62q0 -29 28 -29q55 0 144.5 97t177.5 239h62q-44 -61 -117.5 -179l-99.5 -157q92 16 179 82t156 167l7 -3q-71 -109 -162.5 -176t-186.5 -82q-92 -127 -135 -173q-125 -131 -271 -131q-67 0 -114.5 32.5t-47.5 80.5
q0 50 33 75t85 25v-3q-70 -16 -70 -94q0 -48 34.5 -76t80.5 -28q34 0 69 13.5t64.5 33t63 53t56.5 61.5t54 71.5t48 70.5l44.5 71l37.5 60l-2 2l-41 -46t-46.5 -45t-62.5 -43t-62 -14q-60 0 -60 48q0 15 6 31.5t23 43.5t34.5 51.5l55 77.5zM430 522q11 0 18 -11.5t7 -23.5
q0 -15 -11 -26t-27 -11q-12 0 -19 10.5t-7 23.5q0 17 11 27.5t28 10.5zM286 522q11 0 18 -11.5t7 -23.5q0 -15 -11 -26t-27 -11q-12 0 -19 10.5t-7 23.5q0 17 11 27.5t28 10.5z" />
    <glyph glyph-name="dotlessi" unicode="&#x131;" horiz-adv-x="222" 
d="M168 344h64l-45 -65l-39 -56l-32 -46l-27 -39.5l-21 -31t-16.5 -26.5t-10 -20t-6.5 -17t-2 -13q0 -26 21 -26q54 0 153.5 97.5t134.5 162.5l8 -5q-46 -78 -143 -172.5t-161 -94.5q-25 0 -39 14t-14 34q0 12 2.5 24t10.5 28.5t16 31t24.5 40l31 46.5l41.5 60.5z" />
    <glyph glyph-name="Lslash" unicode="&#x141;" horiz-adv-x="556" 
d="M676 265l5 -6l-110.5 -100.5l-161 -149t-102.5 -106.5q-12 -30 -29.5 -50.5t-34.5 -20.5q-13 0 -13 11q0 9 12 22.5t12 26.5q0 62 -41 97t-103 35q-16 0 -70 -19q-63 -21 -97 -21q-29 0 -29 16q0 9 16 15.5t43.5 10t51.5 5.5t51.5 3.5t33.5 1.5q59 19 110 76t110 154
l-168 -51v12l177 53l46 76.5l58 95.5q-66 10 -110.5 51.5t-44.5 103.5q0 43 31 74t76 31q36 0 66 -15l-4 -11q-28 14 -63 14q-40 0 -67 -28.5t-27 -64.5q0 -55 45 -96.5t107 -46.5q65 99 162.5 173.5t196.5 74.5q83 0 83 -70t-101 -134.5t-237 -64.5q-20 0 -54 2
q-5 -7 -38.5 -60.5t-53.5 -81.5l2 -2l178 54v-12l-189 -56q-61 -92 -126 -156t-150 -97l2 -2q30 3 40 3q124 0 142 -114q48 53 108.5 110.5l143 130.5zM800 700q-43 0 -88 -23.5t-83.5 -62t-68.5 -78t-53 -79.5q30 -2 51 -2q64 0 131 20t119 64.5t52 101.5q0 59 -60 59z" />
    <glyph glyph-name="lslash" unicode="&#x142;" horiz-adv-x="222" 
d="M408 471l-7 -17l-155 -72q-144 -215 -178.5 -272t-34.5 -81q0 -25 24 -25q48 0 128 74.5t159 186.5l11 -4q-78 -111 -153 -181q-94 -88 -149 -88q-60 0 -60 51q0 39 28 88.5t133 205.5l-2 2l-131 -62l6 17l141 66l217 336h70l-195 -292l2 -2z" />
    <glyph glyph-name="OE" unicode="&#x152;" horiz-adv-x="1000" 
d="M697 175l-6 5q87 103 168 103q46 0 79 -25.5t33 -70.5q0 -82 -88 -142.5t-201 -60.5q-73 0 -126.5 23.5t-76.5 65.5q-98 -89 -192 -89q-69 0 -107.5 43.5t-38.5 114.5q0 82 42.5 172t103.5 158t130 113t121 45q51 0 76 -32t25 -85q0 -28 -7 -63h-11q6 36 6 63
q0 105 -90 105q-63 0 -142 -70.5t-136.5 -181t-57.5 -211.5q0 -63 28 -109t86 -46q72 0 158 84q-12 32 -12 73q0 77 58 130.5t140 77.5q35 90 35 157q0 79 -33 126.5t-105 47.5q-38 0 -73 -13t-72 -43t-57.5 -50.5l-60.5 -62.5l-8 8q61 65 95 96t82.5 54t104.5 23
q81 0 124 -47t43 -130q0 -67 -29 -147q47 13 64.5 34.5t20.5 64.5q16 229 217 229q52 0 91 -28t39 -78q0 -62 -51.5 -100.5t-115.5 -38.5q-19 0 -43 4v11q17 -3 42 -3q57 0 92.5 36.5t35.5 91.5q0 45 -27 69t-74 24q-49 0 -82.5 -30t-47 -70t-16.5 -89q-1 -20 -5 -36
t-14.5 -28.5l-17 -20.5t-25 -17l-25.5 -12.5t-32 -12.5t-31 -12q-53 -131 -176 -257q15 -50 62.5 -84.5t116.5 -34.5q89 0 154.5 54t65.5 135q0 38 -20 60t-58 22q-36 0 -77 -28.5t-71 -63.5zM515 172q0 -27 6 -45q67 72 133 226q-60 -15 -99.5 -67t-39.5 -114z" />
    <glyph glyph-name="oe" unicode="&#x153;" horiz-adv-x="574" 
d="M66 60q0 -56 40 -56q50 0 103 51t85 118t32 117q0 22 -11 36t-32 14q-41 0 -92.5 -47.5t-88 -114.5t-36.5 -118zM540 312q0 28 -26 28q-38 0 -91 -55t-76 -105q34 6 76.5 23t79.5 47t37 62zM12 84q0 46 40 108.5t107 111t133 48.5q69 0 84 -69q80 69 159 69q53 0 53 -41
q0 -29 -44.5 -60t-98 -51t-103.5 -31q-25 -46 -25 -95q0 -26 12 -46t35 -20q67 0 168 79t161 177l8 -5q-52 -91 -159 -179t-199 -88q-81 0 -89 68q-76 -68 -155 -68q-42 0 -64.5 25t-22.5 67z" />
    <glyph glyph-name="Scaron" unicode="&#x160;" horiz-adv-x="556" 
d="M32 257q22 0 34 -10.5t12 -27.5q0 -15 -9 -25.5t-24 -10.5q-14 0 -21 10q-18 -21 -18 -65q0 -54 49.5 -93t128.5 -39q65 0 114.5 30.5t77 80.5t41 106t14.5 115q2 180 65 282t180 102q52 0 85.5 -25.5t33.5 -66.5q0 -30 -22 -47t-54 -17q22 34 22 73q0 34 -20 52.5
t-51 18.5q-113 0 -152 -148q-16 -63 -27 -218q-7 -99 -36 -169.5t-73.5 -108.5t-94.5 -55t-110 -17q-90 0 -146.5 54t-56.5 138q0 35 16 58t42 23zM792 892l4 -7q-83 -78 -144 -159h-16q0 72 -56 163l8 5q47 -53 76 -109q81 77 128 107z" />
    <glyph glyph-name="scaron" unicode="&#x161;" horiz-adv-x="333" 
d="M453 261l6 -3q-170 -266 -377 -266q-50 0 -83 25.5t-33 72.5q0 27 17.5 47.5t45.5 20.5q34 0 34 -30q0 -34 -28 -34q-21 0 -26 21q-19 -10 -19 -41q0 -33 25 -51.5t61 -18.5q40 0 61.5 29t21.5 69q0 28 -21 80q-22 54 -22 76q0 43 32.5 68.5t78.5 25.5q40 0 65 -17.5
t25 -46.5q0 -24 -18.5 -37t-44.5 -13q15 28 15 55q0 21 -12.5 34t-35.5 13q-27 0 -42 -17t-15 -43q0 -30 25 -82q24 -52 24 -88t-30.5 -67.5t-67.5 -38.5l2 -2q98 12 185 85.5t151 173.5zM391 572l4 -7q-83 -78 -144 -159h-16q0 72 -56 163l8 5q47 -53 76 -109
q81 77 128 107z" />
    <glyph glyph-name="Ydieresis" unicode="&#x178;" horiz-adv-x="778" 
d="M944 696h68l-429 -660q-212 -328 -431 -328q-71 0 -120 34t-49 99q0 52 35 83.5t82 31.5q46 0 88 -27l-4 -8q-49 19 -71 19q-32 0 -54 -27.5t-22 -78.5q0 -52 35.5 -83t92.5 -31q54 0 109.5 35t108 97.5t93 119.5t88 131t68.5 103l-2 2q-70 -84 -157 -150t-156 -66
q-84 0 -84 78q0 41 51.5 124.5t113.5 164t113.5 166t51.5 130.5q0 21 -12.5 33t-36.5 12q-56 0 -124.5 -37t-118.5 -99.5t-50 -125.5q0 -32 15 -52t45 -20q42 0 72 20t58 56l8 -1q-57 -87 -142 -87q-39 0 -58.5 25t-19.5 61q0 59 51 123.5t127 106.5t143 42q97 0 97 -84
q0 -34 -34 -95.5t-82.5 -129.5l-97 -135t-82.5 -127.5t-34 -92.5q0 -23 11 -33.5t26 -10.5q65 0 174 87.5t185 204.5zM854 842q11 0 18 -11.5t7 -23.5q0 -15 -11 -26t-27 -11q-12 0 -19 10.5t-7 23.5q0 17 11 27.5t28 10.5zM710 842q11 0 18 -11.5t7 -23.5q0 -15 -11 -26
t-27 -11q-12 0 -19 10.5t-7 23.5q0 17 11 27.5t28 10.5z" />
    <glyph glyph-name="Zcaron" unicode="&#x17d;" horiz-adv-x="667" 
d="M783 265l7 -3q-64 -115 -156.5 -192.5t-187.5 -77.5q-47 0 -123 44t-113 44q-34 0 -64.5 -15t-47.5 -33l-31.5 -33t-18.5 -15q-8 0 -8 10q0 13 26 35l703 603l-2 2q-77 -46 -142 -46q-57 0 -141 40t-118 40q-58 0 -96.5 -40t-38.5 -99q0 -47 27 -74.5t67 -27.5
q30 0 64 16l2 -11q-34 -17 -65 -17q-45 0 -76 30t-31 82q0 78 57.5 123.5t138.5 45.5q47 0 136 -35t141 -35q44 0 75 13.5t44 29.5t26.5 29.5t26.5 13.5q12 0 12 -10q0 -6 -10.5 -14t-29.5 -20t-29 -20q-29 -22 -167.5 -145.5l-289.5 -253.5t-227 -183l2 -2q86 44 140 44
q35 0 118 -36t124 -36q135 0 276 229zM778 892l4 -7q-83 -78 -144 -159h-16q0 72 -56 163l8 5q47 -53 76 -109q81 77 128 107z" />
    <glyph glyph-name="zcaron" unicode="&#x17e;" horiz-adv-x="389" 
d="M514 267l5 -4q-50 -95 -137.5 -183t-157.5 -88q-30 0 -76 24t-76 24q-21 0 -46 -23q-3 -3 -8.5 -8t-8 -7.5t-6.5 -5t-7 -2.5q-6 0 -6 7q0 6 55.5 48.5l158 120t177.5 140.5l-2 2q-30 -24 -75 -24q-14 0 -53 16t-58 16q-12 0 -23 -8t-17 -15t-17 -24.5t-14 -21.5l-7 3
q19 36 30.5 52.5t33.5 31t50 14.5q34 0 74 -16t52 -16q23 0 39 7.5t23 16.5t13.5 16.5t11.5 7.5q6 0 6 -8q0 -12 -162 -140.5t-228 -169.5l2 -2q43 18 74 18q34 0 74 -21t54 -21q51 0 123 73.5t129 169.5zM442 572l4 -7q-83 -78 -144 -159h-16q0 72 -56 163l8 5
q47 -53 76 -109q81 77 128 107z" />
    <glyph glyph-name="florin" unicode="&#x192;" horiz-adv-x="500" 
d="M344 322h-155v12h160q12 38 25 73t38 89t50 92.5t59.5 67t68.5 28.5q28 0 47.5 -16t19.5 -40q0 -28 -17.5 -43t-43.5 -15q21 20 21 53q0 45 -35 45q-14 0 -28.5 -9t-27.5 -26.5t-25.5 -37.5t-24 -47l-21 -50t-19 -51.5l-15 -46l-12 -39.5t-8.5 -27h151v-12h-155
l-32 -100.5l-36 -110.5l-33.5 -96t-40.5 -105l-18 -41.5t-20.5 -40t-28 -41.5t-33.5 -25t-44 -12q-32 0 -51 15t-19 42q0 23 15 38t41 15q-8 -36 -8 -56q0 -42 37 -42q10 0 19 4t17 13t15 18.5t13.5 25l11.5 27t11 30.5l9.5 30l9.5 31t8 28z" />
    <glyph glyph-name="circumflex" unicode="&#x2c6;" horiz-adv-x="222" 
d="M96 406l-4 7q83 78 144 159h16q0 -72 56 -163l-8 -5q-47 53 -76 109q-81 -77 -128 -107z" />
    <glyph glyph-name="caron" unicode="&#x2c7;" horiz-adv-x="222" 
d="M335 572l4 -7q-83 -78 -144 -159h-16q0 72 -56 163l8 5q47 -53 76 -109q81 77 128 107z" />
    <glyph glyph-name="uni02C9" unicode="&#x2c9;" horiz-adv-x="222" 
d="M131 491h182q24 0 24 -7q0 -19 -37 -19h-200q-13 0 -13 6q0 20 44 20z" />
    <glyph glyph-name="breve" unicode="&#x2d8;" horiz-adv-x="222" 
d="M199 456q32 0 61.5 11.5t45.5 25l28.5 25t15.5 11.5q5 0 5 -7q0 -14 -53.5 -57t-91.5 -43q-48 0 -76 33t-28 62q0 13 6 13q2 0 9 -18.5t26.5 -37t51.5 -18.5z" />
    <glyph glyph-name="dotaccent" unicode="&#x2d9;" horiz-adv-x="222" 
d="M222 523q11 0 18 -11.5t7 -23.5q0 -15 -11 -26t-27 -11q-12 0 -19 10.5t-7 23.5q0 17 11 27.5t28 10.5z" />
    <glyph glyph-name="ring" unicode="&#x2da;" horiz-adv-x="222" 
d="M132 461q0 42 33 73.5t77 31.5q26 0 44 -17t18 -46q0 -43 -33 -74t-77 -31q-26 0 -44 17t-18 46zM280 521q0 16 -10 26.5t-27 10.5q-32 0 -59.5 -40t-27.5 -75q0 -16 10 -26.5t27 -10.5q32 0 59.5 40t27.5 75z" />
    <glyph glyph-name="ogonek" unicode="&#x2db;" horiz-adv-x="222" 
d="M51 -183q-26 0 -41.5 18.5t-15.5 46.5q0 43 49 96q24 24 25 24q4 0 6 -3q0 -2 -4.5 -7.5l-11.5 -14.5t-12 -17q-24 -43 -24 -64t13.5 -36t37.5 -15q21 0 43 12q-6 -23 -9 -26q-9 -14 -56 -14z" />
    <glyph glyph-name="tilde" unicode="&#x2dc;" horiz-adv-x="222" 
d="M277 456q-24 0 -70 18q-44 18 -67 18q-22 0 -37 -22t-17 -22q-4 0 -4 10q0 27 19 49.5t55 22.5q16 0 64 -19t70 -19q21 0 36.5 11t15.5 24q0 9 7 9q5 0 5 -6q0 -30 -22.5 -54t-54.5 -20z" />
    <glyph glyph-name="hungarumlaut" unicode="&#x2dd;" horiz-adv-x="222" 
d="M286 572q10 0 17.5 -8.5t7.5 -18.5q0 -47 -56 -93t-79 -46v10q28 19 42 30.5t26.5 33t12.5 47.5q0 20 8 32.5t21 12.5zM181 562q10 0 16 -8.5t6 -18.5q0 -36 -58.5 -87.5t-73.5 -51.5q-5 0 -5 4q0 3 18.5 18t37.5 38t21 44q2 27 12 44.5t26 17.5z" />
    <glyph glyph-name="uni03A9" unicode="&#x3a9;" horiz-adv-x="654" 
d="M641 106l-78 -106h-206l4 16l36.5 27.5l48 36.5t47 39.5t51 49t43 51.5t38.5 59q32 61 39.5 106t-6.5 70t-40 37t-62 12q-82 0 -164.5 -56.5t-144.5 -173.5q-11 -21 -18.5 -42t-11.5 -37t-5 -37l-1.5 -31.5t3 -31.5t5 -27.5l6.5 -27.5t6 -24l-14 -16h-204l36 106l18 1
q-6 -39 0.5 -50.5t33.5 -11.5h98q-17 22 -26.5 38.5t-19.5 46.5t-3 68t30 82q58 110 168 178t221 68q114 0 150.5 -63t-21.5 -175q-20 -38 -51 -73t-72.5 -67t-73.5 -53.5t-78 -49.5h100q29 0 46 10.5t54 51.5z" />
    <glyph glyph-name="uni03BC" unicode="&#x3bc;" 
d="M166 344h66l-59.5 -80l-57.5 -78l-41 -59t-32.5 -54.5t-9.5 -33.5q0 -31 29 -31q49 0 122 73.5t109 128.5l88 134h69q-121 -164 -158.5 -222t-37.5 -89q0 -12 7.5 -20.5t19.5 -8.5q53 0 141 91t142 169l10 -3l-40.5 -54.5t-56.5 -68t-68 -71.5t-69 -52.5t-65 -22.5
t-44.5 15.5t-16.5 41.5q0 38 16 62l-2 2q-108 -121 -183 -121q-34 0 -50 19l-237 -335h-68z" />
    <glyph glyph-name="pi" unicode="&#x3c0;" horiz-adv-x="482" 
d="M596 366l13 -8q-33 -44 -65 -65q-15 -3 -61 -3q-24 -37 -104 -189q-37 -70 2 -70q21 0 57 26l3 -15q-58 -51 -111 -51q-35 0 -41 19.5t21 75.5q41 77 118 205q-54 2 -148 2l-8 -16q-42 -78 -89 -143.5t-73.5 -93.5t-38.5 -36q-38 -12 -52 -13l2 12q65 45 128.5 130
t104.5 161q-27 0 -52 -6.5t-39 -13t-41 -20.5l-3 15q63 46 99 58q37 13 77 13q28 0 109.5 -1t125.5 -1q33 0 66 28z" />
    <glyph glyph-name="endash" unicode="&#x2013;" horiz-adv-x="500" 
d="M486 158h-500l12 28h500z" />
    <glyph glyph-name="emdash" unicode="&#x2014;" horiz-adv-x="1000" 
d="M986 158h-1000l12 28h1000z" />
    <glyph glyph-name="quoteleft" unicode="&#x2018;" horiz-adv-x="222" 
d="M297 592l1 -9q-101 -43 -108 -108q42 0 42 -35q0 -38 -40 -38q-16 0 -27 13.5t-11 30.5q0 51 46 90.5t97 55.5z" />
    <glyph glyph-name="quoteright" unicode="&#x2019;" horiz-adv-x="222" 
d="M163 398l-1 9q101 43 108 108q-42 0 -42 35q0 38 40 38q16 0 27 -13.5t11 -30.5q0 -51 -46 -90.5t-97 -55.5z" />
    <glyph glyph-name="quotesinglbase" unicode="&#x201a;" horiz-adv-x="222" 
d="M-11 -120l-1 9q101 43 108 108q-42 0 -42 35q0 38 40 38q16 0 27 -13.5t11 -30.5q0 -51 -46 -90.5t-97 -55.5z" />
    <glyph glyph-name="quotedblleft" unicode="&#x201c;" horiz-adv-x="389" 
d="M286 592l1 -9q-100 -43 -108 -107q42 -2 42 -36q0 -38 -40 -38q-16 0 -27 13.5t-11 30.5q0 51 46 90.5t97 55.5zM453 592l1 -9q-100 -43 -108 -107q42 -2 42 -36q0 -38 -40 -38q-16 0 -27 13.5t-11 30.5q0 51 46 90.5t97 55.5z" />
    <glyph glyph-name="quotedblright" unicode="&#x201d;" horiz-adv-x="389" 
d="M260 398l-1 9q100 43 108 107q-42 2 -42 36q0 38 40 38q16 0 27 -13.5t11 -30.5q0 -51 -46 -90.5t-97 -55.5zM93 398l-1 9q100 43 108 107q-42 2 -42 36q0 38 40 38q16 0 27 -13.5t11 -30.5q0 -51 -46 -90.5t-97 -55.5z" />
    <glyph glyph-name="quotedblbase" unicode="&#x201e;" horiz-adv-x="389" 
d="M130 -120l-1 9q101 43 108 108q-42 0 -42 35q0 38 40 38q16 0 27 -13.5t11 -30.5q0 -51 -46 -90.5t-97 -55.5zM-37 -120l-1 9q101 43 108 108q-42 0 -42 35q0 38 40 38q16 0 27 -13.5t11 -30.5q0 -51 -46 -90.5t-97 -55.5z" />
    <glyph glyph-name="dagger" unicode="&#x2020;" horiz-adv-x="500" 
d="M456 472h202l-6 -12h-205l-330 -534h-27l307 534h-196l6 12h198l99 178q18 34 31 48t27 14q22 0 22 -22q0 -10 -19 -42z" />
    <glyph glyph-name="daggerdbl" unicode="&#x2021;" horiz-adv-x="500" 
d="M652 460h-205l-73 -118h207l-6 -12h-208l-250 -404h-27l232 404h-198l6 12h199l68 118h-196l6 12h198l99 178q18 34 31 48t27 14q22 0 22 -22q0 -10 -19 -42l-109 -176h202z" />
    <glyph glyph-name="bullet" unicode="&#x2022;" horiz-adv-x="500" 
d="M208 348q0 72 51 123t123 51t123 -51t51 -123t-51 -123t-123 -51t-123 51t-51 123z" />
    <glyph glyph-name="ellipsis" unicode="&#x2026;" horiz-adv-x="1000" 
d="M179 74q15 0 26 -11t11 -26t-11 -26t-26 -11t-26 11t-11 26t11 26t26 11zM512 74q15 0 26 -11t11 -26t-11 -26t-26 -11t-26 11t-11 26t11 26t26 11zM845 74q15 0 26 -11t11 -26t-11 -26t-26 -11t-26 11t-11 26t11 26t26 11z" />
    <glyph glyph-name="perthousand" unicode="&#x2030;" horiz-adv-x="1130" 
d="M1085 298q42 0 63.5 -24t21.5 -59q0 -65 -71 -140t-149 -75q-91 0 -91 92q0 77 74 141.5t152 64.5zM1083 286q-59 0 -119.5 -83t-60.5 -150q0 -41 46 -41q40 0 82.5 43t68.5 98t26 94t-43 39zM731 298q42 0 63.5 -24t21.5 -59q0 -65 -71 -140t-149 -75q-91 0 -91 92
q0 77 74 141.5t152 64.5zM729 286q-59 0 -119.5 -83t-60.5 -150q0 -41 46 -41q40 0 82.5 43t68.5 98t26 94t-43 39zM641 460l-2 2q-42 -36 -90 -36q-38 0 -65 36l-2 -2q3 -75 -74 -153.5t-152 -78.5q-41 0 -64.5 24t-23.5 65q0 75 75 145t150 70q30 0 49.5 -9.5t29.5 -23.5
t19 -28t24 -23.5t37 -9.5q40 0 73 24.5t49 48.5q15 22 23.5 28.5t20.5 6.5q11 0 11 -14q0 -11 -153 -188l-137 -163l-135.5 -162.5t-51.5 -59.5q-5 0 -5 5q0 1 394 496zM212 285q0 -45 39 -45q42 0 87 43t72.5 98.5t27.5 95.5q0 43 -42 43q-61 0 -122.5 -81t-61.5 -154z" />
    <glyph glyph-name="guilsinglleft" unicode="&#x2039;" horiz-adv-x="333" 
d="M306 334l4 -7q-139 -137 -169 -163q58 -85 76 -151l-7 -3q-41 60 -122 155q44 32 122 93.5z" />
    <glyph glyph-name="guilsinglright" unicode="&#x203a;" horiz-adv-x="333" 
d="M43 10l-5 7q139 137 169 162l-15 23.5l-16 26l-13.5 24t-13 26.5t-9.5 25.5t-8 27.5l7 2q24 -40 121 -155q-44 -30 -121.5 -93t-95.5 -76z" />
    <glyph glyph-name="fraction" unicode="&#x2044;" horiz-adv-x="167" 
d="M-37 -8l413 546h29l-414 -546h-28z" />
    <glyph glyph-name="Euro" unicode="&#x20ac;" horiz-adv-x="500" 
d="M485 119l8 -7q-60 -64 -112 -91t-140 -27q-117 0 -117 117q0 59 24 117h-51l8 12h48q4 11 22 44h-53l7 12h53q62 104 163 177t193 73q100 0 100 -67q0 -59 -79 -65q15 36 15 64q0 56 -54 56t-136 -71.5t-138 -166.5h197l-7 -12h-197q-12 -22 -22 -44h198l-8 -12h-195
q-24 -61 -24 -111q0 -44 21 -75.5t58 -30.5q69 1 113.5 23t104.5 85z" />
    <glyph glyph-name="afii61289" unicode="&#x2113;" horiz-adv-x="339" 
d="M320 92l7 -13q-96 -85 -182 -85q-53 0 -65 29q-12 33 30 111l32 61l-76 -40l-1 17l90 49l51 95q52 99 82.5 140.5t73.5 69.5q46 32 84 32q35 0 37.5 -32t-19.5 -69q-57 -109 -249 -229l-34 -64q-27 -51 -32.5 -81t5.5 -41t37 -11q53 0 129 61zM288 364l-56 -104
q139 97 192 195q11 21 16 38.5t1 29.5t-17 12q-25 0 -57 -40.5t-79 -130.5z" />
    <glyph glyph-name="trademark" unicode="&#x2122;" horiz-adv-x="990" 
d="M317 682v-324q0 -48 54 -48v-14h-156v14q21 0 36.5 13.5t15.5 36.5v322h-54q-50 0 -69 -74h-18v88h334v-88h-18q-19 74 -69 74h-56zM755 293l-155 311h-2v-238q0 -56 53 -56v-14h-130v14q55 0 55 54v267q0 20 -23.5 35.5t-46.5 15.5v14h109l161 -322l167 322h93v-14
q-63 -3 -63 -61v-261q0 -28 14 -39t41 -11v-14h-155v14q50 0 50 50v247h-3l-156 -314h-9z" />
    <glyph glyph-name="Omega" unicode="&#x2126;" horiz-adv-x="654" 
d="M641 106l-78 -106h-206l4 16l36.5 27.5l48 36.5t47 39.5t51 49t43 51.5t38.5 59q32 61 39.5 106t-6.5 70t-40 37t-62 12q-82 0 -164.5 -56.5t-144.5 -173.5q-11 -21 -18.5 -42t-11.5 -37t-5 -37l-1.5 -31.5t3 -31.5t5 -27.5l6.5 -27.5t6 -24l-14 -16h-204l36 106l18 1
q-6 -39 0.5 -50.5t33.5 -11.5h98q-17 22 -26.5 38.5t-19.5 46.5t-3 68t30 82q58 110 168 178t221 68q114 0 150.5 -63t-21.5 -175q-20 -38 -51 -73t-72.5 -67t-73.5 -53.5t-78 -49.5h100q29 0 46 10.5t54 51.5z" />
    <glyph glyph-name="estimated" unicode="&#x212e;" horiz-adv-x="890" 
d="M865 253h-483q-4 0 -4 -3v-146q0 -10 6 -17q77 -80 183 -80q115 0 192 89h43q-41 -47 -103 -75t-133 -28q-123 0 -210.5 78t-87.5 189q0 112 87.5 190.5t210.5 78.5q124 0 211.5 -78.5t87.5 -190.5v-7zM755 272v147q0 11 -7 18q-78 76 -181 76q-105 0 -182 -79
q-7 -7 -7 -18v-144q0 -5 4 -5h370q3 0 3 5z" />
    <glyph glyph-name="partialdiff" unicode="&#x2202;" horiz-adv-x="455" 
d="M364 336h1q35 0 61.5 -16.5t31.5 -47.5q33 53 46 78q38 69 42 125q2 31 -17.5 56.5t-56.5 25.5q-57 0 -145 -47q-7 -1 -10.5 6t-1 18t10.5 19q78 35 142 35q59 0 86.5 -27t31.5 -80q4 -70 -52 -174q-62 -118 -145 -196q-123 -118 -235 -118q-72 0 -92 43.5t18 115.5
q40 76 118 127q85 57 166 57zM366 306h-1q-62 0 -126 -45q-64 -48 -107 -130q-27 -47 -18 -80.5t52 -33.5q65 0 149 78q56 53 121 147q0 21 -18 42.5t-52 21.5z" />
    <glyph glyph-name="Delta" unicode="&#x2206;" horiz-adv-x="548" 
d="M478 0h-485l8 16l491 501l35 9l-41 -510zM419 33l38 420l-406 -420h368z" />
    <glyph glyph-name="product" unicode="&#x220f;" horiz-adv-x="823" 
d="M799 522v-19q-55 -4 -66 -10.5t-11 -34.5v-448q0 -34 12 -43t64 -13v-18h-211v18q54 4 65 12t11 44v463q0 16 -5.5 20t-23.5 4h-207q-18 0 -22.5 -3.5t-4.5 -16.5v-467q0 -35 9.5 -43.5t59.5 -12.5v-18h-203v18q52 4 63.5 12.5t11.5 43.5v448q0 28 -11.5 34.5t-66.5 10.5
v19h536z" />
    <glyph glyph-name="summation" unicode="&#x2211;" horiz-adv-x="716" 
d="M695 79l-35 -145h-397v17l193 269l-188 284v18h390q0 -5 4.5 -52t6.5 -76l-19 -4q-10 61 -29 87q-8 12 -24.5 16.5t-62.5 4.5h-187l163 -246l-190 -268h238q57 0 74 14.5t44 85.5z" />
    <glyph glyph-name="minus" unicode="&#x2212;" horiz-adv-x="600" 
d="M556 155h-344v34h344v-34z" />
    <glyph glyph-name="uni2215" unicode="&#x2215;" horiz-adv-x="167" 
d="M-37 -8l413 546h29l-414 -546h-28z" />
    <glyph glyph-name="uni2219" unicode="&#x2219;" horiz-adv-x="250" 
d="M204 209q15 0 26 -11t11 -26t-11 -26t-26 -11t-26 11t-11 26t11 26t26 11z" />
    <glyph glyph-name="radical" unicode="&#x221a;" horiz-adv-x="705" 
d="M691 674l-137 -777l-15 -9l-189 422l-73 -38l-9 23l122 62l154 -356h2l116 681z" />
    <glyph glyph-name="infinity" unicode="&#x221e;" horiz-adv-x="765" 
d="M724 215v-1q0 -56 -36.5 -91.5t-85.5 -35.5q-36 0 -69.5 22.5t-78.5 73.5q-27 -31 -44.5 -48t-47 -32.5t-60.5 -15.5q-49 0 -84.5 36t-35.5 88q0 55 36 91t90 36q41 0 76 -25t74 -71q30 34 44 48t44 31t62 17q52 0 84 -34.5t32 -88.5zM307 125h1q11 0 21.5 2.5t21 9
l18 11t19 15.5l15.5 15t16 17t14 15q-26 32 -38 45.5t-38.5 30t-53.5 16.5q-36 0 -58.5 -27t-22.5 -65q0 -35 24 -60t61 -25zM603 302h-1q-19 0 -39.5 -11.5t-31 -21t-31.5 -31.5l-23 -24q45 -50 71.5 -69.5t56.5 -19.5q36 0 58 26.5t22 60.5q0 41 -23.5 65.5t-58.5 24.5z
" />
    <glyph glyph-name="integral" unicode="&#x222b;" horiz-adv-x="541" 
d="M377 21l-15 310q-16 315 115 315q15 0 29.5 -8.5t14.5 -24.5q0 -14 -8.5 -22t-20.5 -8q-13 0 -23 17t-19 17q-10 0 -18.5 -10t-15 -42.5t-4.5 -84.5l14 -299q5 -100 -2.5 -169.5t-25.5 -103.5t-39 -47.5t-48 -13.5q-20 0 -32.5 10.5t-12.5 24.5q-1 12 9.5 22t25.5 10
q10 0 20 -17.5t18 -17.5q21 0 31 39t7 103z" />
    <glyph glyph-name="approxequal" unicode="&#x2248;" horiz-adv-x="606" 
d="M543 328l25 -24q-43 -73 -107 -73q-33 0 -99 33q-50 27 -77 27q-43 0 -85 -59l-26 23q43 74 116 74q14 0 28.5 -4t22 -7t24 -11.5t17.5 -9.5q52 -28 80 -28q46 0 81 59zM543 191l25 -24q-43 -73 -107 -73q-17 0 -34.5 5t-27.5 10l-37 19q-48 26 -77 26q-43 0 -85 -59
l-26 24q42 73 115 73q12 0 22.5 -2t21.5 -6t17 -6.5t17.5 -8.5t14.5 -8q5 -2 15 -8t15.5 -8.5t14.5 -6t17.5 -5t17.5 -1.5q44 0 81 59z" />
    <glyph glyph-name="notequal" unicode="&#x2260;" horiz-adv-x="645" 
d="M509 387l-37 -79h132v-39h-149l-56 -117h205v-39h-222l-46 -97l-32 15l39 82h-126v39h143l55 117h-198v39h216l44 94z" />
    <glyph glyph-name="lessequal" unicode="&#x2264;" horiz-adv-x="677" 
d="M634 68l-379 178v41l379 176v-45l-335 -151v-1l335 -153v-45zM636 -2h-386v39h386v-39z" />
    <glyph glyph-name="greaterequal" unicode="&#x2265;" horiz-adv-x="678" 
d="M255 463l380 -177v-41l-380 -177v45l335 152v2l-335 151v45zM635 -2h-384v39h384v-39z" />
    <glyph glyph-name="lozenge" unicode="&#x25ca;" horiz-adv-x="714" 
d="M675 249l-174 -307h-43l-174 307l174 310h43zM629 249l-148 266h-3l-149 -265l150 -266h2z" />
    <glyph glyph-name="a.begin" unicode="&#xe000;" horiz-adv-x="516" 
d="M426 285l33 59h65l-73.5 -104l-56.5 -84t-46.5 -79.5t-13.5 -46.5q0 -26 27 -26q42 0 124.5 77.5t153.5 185.5l6 -2q-67 -103 -150 -188t-145 -85q-27 0 -41.5 14t-14.5 35q0 19 14 55l-2 1q-36 -39 -82 -72t-85 -33q-34 0 -50.5 21.5t-16.5 53.5q0 20 8 47
q-52 -51 -100.5 -86t-70.5 -45.5t-28 -10.5q-3 0 -3 5q0 3 6 6q110 55 207 160q35 78 110 143.5t139 65.5q70 0 84 -67h2zM132 64q0 -48 36 -48q34 0 87 44t95 111t42 122q0 22 -13 34.5t-32 12.5q-39 0 -90 -43.5t-88 -109.5t-37 -123z" />
    <glyph glyph-name="aacute.begin" unicode="&#xe001;" horiz-adv-x="516" 
d="M132 64q0 -48 36 -48q34 0 87 44t95 111t42 122q0 22 -13 34.5t-32 12.5q-39 0 -90 -43.5t-88 -109.5t-37 -123zM80 114q-52 -51 -100.5 -86t-70.5 -45.5t-28 -10.5q-3 0 -3 5q0 3 6 6q110 55 207 160q35 78 110 143.5t139 65.5q70 0 84 -67h2l33 59h65l-73.5 -104
l-56.5 -84t-46.5 -79.5t-13.5 -46.5q0 -26 27 -26q42 0 124.5 77.5t153.5 185.5l6 -2q-67 -103 -150 -188t-145 -85q-27 0 -41.5 14t-14.5 35q0 19 14 55l-2 1q-36 -39 -82 -72t-85 -33q-34 0 -50.5 21.5t-16.5 53.5q0 20 8 47zM497 572q10 0 16 -8.5t6 -18.5
q0 -36 -58.5 -87.5t-73.5 -51.5q-5 0 -5 4q0 3 18.5 18t37.5 38t21 44q2 27 12 44.5t26 17.5z" />
    <glyph glyph-name="acircumflex.begin" unicode="&#xe002;" horiz-adv-x="516" 
d="M132 64q0 -48 36 -48q34 0 87 44t95 111t42 122q0 22 -13 34.5t-32 12.5q-39 0 -90 -43.5t-88 -109.5t-37 -123zM80 114q-52 -51 -100.5 -86t-70.5 -45.5t-28 -10.5q-3 0 -3 5q0 3 6 6q110 55 207 160q35 78 110 143.5t139 65.5q70 0 84 -67h2l33 59h65l-73.5 -104
l-56.5 -84t-46.5 -79.5t-13.5 -46.5q0 -26 27 -26q42 0 124.5 77.5t153.5 185.5l6 -2q-67 -103 -150 -188t-145 -85q-27 0 -41.5 14t-14.5 35q0 19 14 55l-2 1q-36 -39 -82 -72t-85 -33q-34 0 -50.5 21.5t-16.5 53.5q0 20 8 47zM302 406l-4 7q83 78 144 159h16
q0 -72 56 -163l-8 -5q-47 53 -76 109q-81 -77 -128 -107z" />
    <glyph glyph-name="adieresis.begin" unicode="&#xe003;" horiz-adv-x="516" 
d="M132 64q0 -48 36 -48q34 0 87 44t95 111t42 122q0 22 -13 34.5t-32 12.5q-39 0 -90 -43.5t-88 -109.5t-37 -123zM80 114q-52 -51 -100.5 -86t-70.5 -45.5t-28 -10.5q-3 0 -3 5q0 3 6 6q110 55 207 160q35 78 110 143.5t139 65.5q70 0 84 -67h2l33 59h65l-73.5 -104
l-56.5 -84t-46.5 -79.5t-13.5 -46.5q0 -26 27 -26q42 0 124.5 77.5t153.5 185.5l6 -2q-67 -103 -150 -188t-145 -85q-27 0 -41.5 14t-14.5 35q0 19 14 55l-2 1q-36 -39 -82 -72t-85 -33q-34 0 -50.5 21.5t-16.5 53.5q0 20 8 47zM502 522q11 0 18 -11.5t7 -23.5
q0 -15 -11 -26t-27 -11q-12 0 -19 10.5t-7 23.5q0 17 11 27.5t28 10.5zM358 522q11 0 18 -11.5t7 -23.5q0 -15 -11 -26t-27 -11q-12 0 -19 10.5t-7 23.5q0 17 11 27.5t28 10.5z" />
    <glyph glyph-name="ae.begin" unicode="&#xe004;" horiz-adv-x="646" 
d="M133 64q0 -48 36 -48q34 0 87 44t95 111t42 122q0 22 -13 34.5t-32 12.5q-39 0 -90 -43.5t-88 -109.5t-37 -123zM608 312q0 28 -26 28q-38 0 -91 -55t-76 -105q34 6 76.5 23t79.5 47t37 62zM82 116q-52 -52 -101 -87.5t-71.5 -46t-28.5 -10.5q-3 0 -3 5q0 3 6 6
q107 52 209 162q36 78 110.5 142.5t137.5 64.5q70 0 84 -67h2l33 59h55l-18 -24l2 -2q53 34 104 34q53 0 53 -41q0 -29 -44.5 -60t-98 -51t-103.5 -31q-25 -46 -25 -95q0 -26 12 -46t35 -20q67 0 168 79t160 177l8 -5q-31 -55 -87 -114.5t-131.5 -106t-138.5 -46.5
q-42 0 -64 21.5t-22 61.5q0 27 10 49l-2 2q-107 -134 -193 -134q-34 0 -50.5 21.5t-16.5 53.5q0 23 9 49z" />
    <glyph glyph-name="agrave.begin" unicode="&#xe005;" horiz-adv-x="516" 
d="M132 64q0 -48 36 -48q34 0 87 44t95 111t42 122q0 22 -13 34.5t-32 12.5q-39 0 -90 -43.5t-88 -109.5t-37 -123zM80 114q-52 -51 -100.5 -86t-70.5 -45.5t-28 -10.5q-3 0 -3 5q0 3 6 6q110 55 207 160q35 78 110 143.5t139 65.5q70 0 84 -67h2l33 59h65l-73.5 -104
l-56.5 -84t-46.5 -79.5t-13.5 -46.5q0 -26 27 -26q42 0 124.5 77.5t153.5 185.5l6 -2q-67 -103 -150 -188t-145 -85q-27 0 -41.5 14t-14.5 35q0 19 14 55l-2 1q-36 -39 -82 -72t-85 -33q-34 0 -50.5 21.5t-16.5 53.5q0 20 8 47zM302 572q16 0 26 -17.5t12 -44.5
q2 -21 21 -44t37.5 -38t18.5 -18q0 -4 -5 -4q-15 0 -73.5 51.5t-58.5 87.5q0 10 6 18.5t16 8.5z" />
    <glyph glyph-name="aring.begin" unicode="&#xe006;" horiz-adv-x="516" 
d="M132 64q0 -48 36 -48q34 0 87 44t95 111t42 122q0 22 -13 34.5t-32 12.5q-39 0 -90 -43.5t-88 -109.5t-37 -123zM80 114q-52 -51 -100.5 -86t-70.5 -45.5t-28 -10.5q-3 0 -3 5q0 3 6 6q110 55 207 160q35 78 110 143.5t139 65.5q70 0 84 -67h2l33 59h65l-73.5 -104
l-56.5 -84t-46.5 -79.5t-13.5 -46.5q0 -26 27 -26q42 0 124.5 77.5t153.5 185.5l6 -2q-67 -103 -150 -188t-145 -85q-27 0 -41.5 14t-14.5 35q0 19 14 55l-2 1q-36 -39 -82 -72t-85 -33q-34 0 -50.5 21.5t-16.5 53.5q0 20 8 47zM338 461q0 42 33 73.5t77 31.5q26 0 44 -17
t18 -46q0 -43 -33 -74t-77 -31q-26 0 -44 17t-18 46zM486 521q0 16 -10 26.5t-27 10.5q-32 0 -59.5 -40t-27.5 -75q0 -16 10 -26.5t27 -10.5q32 0 59.5 40t27.5 75z" />
    <glyph glyph-name="atilde.begin" unicode="&#xe007;" horiz-adv-x="516" 
d="M132 64q0 -48 36 -48q34 0 87 44t95 111t42 122q0 22 -13 34.5t-32 12.5q-39 0 -90 -43.5t-88 -109.5t-37 -123zM80 114q-52 -51 -100.5 -86t-70.5 -45.5t-28 -10.5q-3 0 -3 5q0 3 6 6q110 55 207 160q35 78 110 143.5t139 65.5q70 0 84 -67h2l33 59h65l-73.5 -104
l-56.5 -84t-46.5 -79.5t-13.5 -46.5q0 -26 27 -26q42 0 124.5 77.5t153.5 185.5l6 -2q-67 -103 -150 -188t-145 -85q-27 0 -41.5 14t-14.5 35q0 19 14 55l-2 1q-36 -39 -82 -72t-85 -33q-34 0 -50.5 21.5t-16.5 53.5q0 20 8 47zM483 456q-24 0 -70 18q-44 18 -67 18
q-22 0 -37 -22t-17 -22q-4 0 -4 10q0 27 19 49.5t55 22.5q17 0 64 -19q48 -19 70 -19q21 0 36.5 11t15.5 24q0 9 7 9q5 0 5 -6q0 -30 -22.5 -54t-54.5 -20z" />
    <glyph glyph-name="b.begin" unicode="&#xe008;" horiz-adv-x="516" 
d="M456 690l66 2l-165 -253q-154 -235 -189 -295t-35 -95q0 -20 12 -32.5t31 -12.5q45 0 102 49.5t95.5 114t38.5 107.5q0 7 -5 21.5t-5 22.5q0 33 28 33q17 0 26.5 -18t9.5 -47q0 -24 -4 -44q10 -13 31.5 -23.5t45.5 -10.5q54 0 95 52l7 -7q-44 -55 -103 -55q-44 0 -80 31
q-27 -86 -116 -162t-173 -76q-36 0 -60 21.5t-24 57.5q0 28 19 67q-57 -60 -112 -101t-79.5 -53t-31.5 -12q-3 0 -3 5q0 3 6 6q129 65 245 203l33.5 55.5l51 80l60.5 92.5l83.5 126.5z" />
    <glyph glyph-name="c.begin" unicode="&#xe009;" horiz-adv-x="405" 
d="M520 257l7 -6q-53 -84 -142 -159q-118 -100 -214 -100q-38 0 -62.5 20t-24.5 57q0 29 11 60q-55 -57 -107.5 -96t-76 -50t-30.5 -11q-3 0 -3 5q0 3 6 6q118 59 225 180q38 75 113.5 132t142.5 57q72 0 72 -47q0 -39 -64 -44q10 26 10 42q0 37 -35 37q-55 0 -129.5 -92
t-74.5 -175q0 -28 13 -46.5t38 -18.5q68 0 169 80q94 73 156 169z" />
    <glyph glyph-name="ccedilla.begin" unicode="&#xe00a;" horiz-adv-x="405" 
d="M520 257l7 -6q-53 -84 -142 -159q-118 -100 -214 -100h-2l-30 -50q21 -1 34 -2.5t30 -6.5t25.5 -16t8.5 -27q0 -22 -15.5 -37.5t-40 -23t-46 -10.5t-40.5 -3q-53 0 -77 9l1 8q29 -5 69 -5q22 0 43.5 4t41.5 18t20 36q0 23 -15.5 29t-61.5 7l43 72q-33 2 -54 22t-21 53
q0 29 11 60q-55 -57 -107.5 -96t-76 -50t-30.5 -11q-3 0 -3 5q0 3 6 6q118 59 225 180q38 75 113.5 132t142.5 57q72 0 72 -47q0 -39 -64 -44q10 26 10 42q0 37 -35 37q-55 0 -129.5 -92t-74.5 -175q0 -28 13 -46.5t38 -18.5q68 0 169 80q94 73 156 169z" />
    <glyph glyph-name="d.begin" unicode="&#xe00b;" horiz-adv-x="516" 
d="M683 692h66q-52 -83 -168.5 -254.5t-180.5 -275t-64 -134.5q0 -24 22 -24q48 0 134 83q79 76 140 176l8 -4q-49 -87 -134 -173q-92 -94 -151 -94q-63 0 -63 48q0 26 24 69l-2 1q-24 -27 -37 -40t-38.5 -35.5t-49.5 -32.5t-49 -10q-35 0 -55 21.5t-20 52.5q0 19 6 40
q-49 -48 -95.5 -81t-67.5 -43t-27 -10q-3 0 -3 5q0 3 6 6q102 49 197 149q35 80 119.5 150t152.5 70q32 0 51 -20t18 -51h3zM394 280q0 28 -9 44t-36 16q-39 0 -93 -49.5t-92.5 -115.5t-38.5 -110q0 -49 37 -49q34 0 90 49t99 113t43 102z" />
    <glyph glyph-name="dotlessi.begin" unicode="&#xe00c;" horiz-adv-x="294" 
d="M240 344h64l-45 -65l-39 -56l-32 -46l-27 -39.5l-21 -31t-16.5 -26.5t-10 -20t-6.5 -17t-2 -13q0 -26 21 -26q54 0 153.5 97.5t134.5 162.5l8 -5q-46 -78 -143 -172.5t-161 -94.5q-25 0 -39 14t-14 34q0 37 37 97q-57 -60 -111 -100.5t-78.5 -52.5t-31.5 -12q-3 0 -3 5
q0 3 6 6q146 71 273 238q11 14 23.5 33l30.5 46z" />
    <glyph glyph-name="e.begin" unicode="&#xe00d;" horiz-adv-x="405" 
d="M372 312q0 28 -26 28q-38 0 -91 -55t-76 -105q34 6 76.5 23t79.5 47t37 62zM526 264l8 -5q-31 -55 -87 -114.5t-131.5 -106t-138.5 -46.5q-42 0 -65 21.5t-23 61.5q0 29 12 61q-57 -59 -111 -99.5t-78 -52.5t-31 -12q-3 0 -3 5q0 3 6 6q124 60 237 193q40 71 111.5 123.5
t134.5 52.5q53 0 53 -41q0 -29 -44.5 -60t-98 -51t-103.5 -31q-25 -46 -25 -95q0 -27 12 -46.5t37 -19.5q67 0 168 79t160 177z" />
    <glyph glyph-name="eacute.begin" unicode="&#xe00e;" horiz-adv-x="405" 
d="M372 312q0 28 -26 28q-38 0 -91 -55t-76 -105q34 6 76.5 23t79.5 47t37 62zM101 136q-57 -59 -111 -99.5t-78 -52.5t-31 -12q-3 0 -3 5q0 3 6 6q124 60 237 193q40 71 111.5 123.5t134.5 52.5q53 0 53 -41q0 -29 -44.5 -60t-98 -51t-103.5 -31q-25 -46 -25 -95
q0 -27 12 -46.5t37 -19.5q67 0 168 79t160 177l8 -5q-31 -55 -87 -114.5t-131.5 -106t-138.5 -46.5q-42 0 -65 21.5t-23 61.5q0 29 12 61zM460 572q10 0 16 -8.5t6 -18.5q0 -36 -58.5 -87.5t-73.5 -51.5q-5 0 -5 4q0 3 18.5 18t37.5 38t21 44q2 27 12 44.5t26 17.5z" />
    <glyph glyph-name="ecircumflex.begin" unicode="&#xe00f;" horiz-adv-x="405" 
d="M372 312q0 28 -26 28q-38 0 -91 -55t-76 -105q34 6 76.5 23t79.5 47t37 62zM101 136q-57 -59 -111 -99.5t-78 -52.5t-31 -12q-3 0 -3 5q0 3 6 6q124 60 237 193q40 71 111.5 123.5t134.5 52.5q53 0 53 -41q0 -29 -44.5 -60t-98 -51t-103.5 -31q-25 -46 -25 -95
q0 -27 12 -46.5t37 -19.5q67 0 168 79t160 177l8 -5q-31 -55 -87 -114.5t-131.5 -106t-138.5 -46.5q-42 0 -65 21.5t-23 61.5q0 29 12 61zM265 406l-4 7q83 78 144 159h16q0 -72 56 -163l-8 -5q-47 53 -76 109q-81 -77 -128 -107z" />
    <glyph glyph-name="edieresis.begin" unicode="&#xe010;" horiz-adv-x="405" 
d="M372 312q0 28 -26 28q-38 0 -91 -55t-76 -105q34 6 76.5 23t79.5 47t37 62zM101 136q-57 -59 -111 -99.5t-78 -52.5t-31 -12q-3 0 -3 5q0 3 6 6q124 60 237 193q40 71 111.5 123.5t134.5 52.5q53 0 53 -41q0 -29 -44.5 -60t-98 -51t-103.5 -31q-25 -46 -25 -95
q0 -27 12 -46.5t37 -19.5q67 0 168 79t160 177l8 -5q-31 -55 -87 -114.5t-131.5 -106t-138.5 -46.5q-42 0 -65 21.5t-23 61.5q0 29 12 61zM465 522q11 0 18 -11.5t7 -23.5q0 -15 -11 -26t-27 -11q-12 0 -19 10.5t-7 23.5q0 17 11 27.5t28 10.5zM321 522q11 0 18 -11.5
t7 -23.5q0 -15 -11 -26t-27 -11q-12 0 -19 10.5t-7 23.5q0 17 11 27.5t28 10.5z" />
    <glyph glyph-name="egrave.begin" unicode="&#xe011;" horiz-adv-x="405" 
d="M372 312q0 28 -26 28q-38 0 -91 -55t-76 -105q34 6 76.5 23t79.5 47t37 62zM101 136q-57 -59 -111 -99.5t-78 -52.5t-31 -12q-3 0 -3 5q0 3 6 6q124 60 237 193q40 71 111.5 123.5t134.5 52.5q53 0 53 -41q0 -29 -44.5 -60t-98 -51t-103.5 -31q-25 -46 -25 -95
q0 -27 12 -46.5t37 -19.5q67 0 168 79t160 177l8 -5q-31 -55 -87 -114.5t-131.5 -106t-138.5 -46.5q-42 0 -65 21.5t-23 61.5q0 29 12 61zM265 572q16 0 26 -17.5t12 -44.5q2 -21 21 -44t37.5 -38t18.5 -18q0 -4 -5 -4q-15 0 -73.5 51.5t-58.5 87.5q0 10 6 18.5t16 8.5z" />
    <glyph glyph-name="eth.begin" unicode="&#xe012;" horiz-adv-x="516" 
d="M360 510h92q8 102 57 152t117 50q49 0 92 -41v-15q-18 15 -26.5 21t-28 14.5t-38.5 8.5q-56 0 -84 -54t-29 -136h97q6 0 6 -6t-6 -6h-98q-23 -163 -56 -239q0 -20 21.5 -37.5t50.5 -17.5q55 0 106 54l8 -5q-52 -59 -113 -59q-53 0 -79 42h-2q-27 -86 -107.5 -165
t-168.5 -79q-42 0 -64.5 25t-22.5 67q0 18 8 42q-54 -56 -106 -94t-75 -49t-30 -11q-3 0 -3 5q0 3 6 6q116 58 221 176q36 74 110 133.5t149 59.5q38 0 63 -23q19 70 25 169h-92q-6 0 -6 6t6 6zM138 60q0 -56 40 -56q50 0 103 51t85 118t32 117q0 22 -11 36t-32 14
q-41 0 -92.5 -47.5t-88 -114.5t-36.5 -118z" />
    <glyph glyph-name="f.begin" unicode="&#xe013;" horiz-adv-x="294" 
d="M215 332h-71v12h77l45.5 72.5l46 69t50 68t50 55.5t55 47.5t56 28t60.5 11.5q33 0 52.5 -14t19.5 -41q0 -24 -15 -39.5t-38 -17.5q9 32 9 56q0 44 -42 44q-21 0 -42.5 -10.5t-45 -34t-42 -45t-44 -60l-40 -61.5l-41.5 -67.5l-37 -61.5h226v-12h-232l-119 -198.5
t-103 -155t-96.5 -120.5t-91.5 -79.5t-97.5 -50t-105.5 -14.5q-63 0 -108 32t-45 88q0 42 26 68t81 26h9v-8q-31 -2 -51.5 -23.5t-20.5 -57.5q0 -53 29.5 -83t84.5 -30q59 0 114 29t109 89t96.5 120t99.5 153q-53 -53 -102 -88.5t-71.5 -46t-28.5 -10.5q-3 0 -3 5q0 3 6 6
q120 58 231 186z" />
    <glyph glyph-name="fi.begin" unicode="&#xe014;" horiz-adv-x="516" 
d="M447 332h-176l-3 -4l-117.5 -197t-101.5 -153.5t-96 -120t-91.5 -79.5t-97 -49.5t-105.5 -14.5q-63 0 -108 32t-45 88q0 42 26 68t81 26h9v-8q-31 -2 -51.5 -23.5t-20.5 -57.5q0 -53 29.5 -83t84.5 -30q59 0 114 29t109 89t96.5 120t99.5 153q-53 -53 -102 -88.5
t-71.5 -46t-28.5 -10.5q-3 0 -3 5q0 3 6 6q120 58 231 186l100 163h-71v12h77l45.5 72.5l46 69t50 68t50 55.5t55 47.5t56 28t60.5 11.5q33 0 52.5 -14t19.5 -41q0 -24 -15 -39.5t-38 -17.5q9 32 9 56q0 44 -42 44q-21 0 -42.5 -10.5t-44.5 -33.5t-42.5 -45.5t-44.5 -60
l-40.5 -62l-41.5 -67.5l-37 -61h111q12 0 58.5 2.5t72.5 3.5q-26 -43 -80.5 -122t-85.5 -129.5t-31 -71.5q0 -23 23 -23q54 0 153.5 97.5t134.5 162.5l8 -5q-46 -78 -143 -172.5t-161 -94.5q-28 0 -43.5 15.5t-15.5 41.5q0 27 19.5 62t70 105.5t79.5 115.5z" />
    <glyph glyph-name="fl.begin" unicode="&#xe015;" horiz-adv-x="516" 
d="M278 344h173l146 234q15 25 15 62q0 44 -42 44q-21 0 -42.5 -10.5t-45 -34t-42 -45t-44 -60l-40 -61.5l-41.5 -67.5zM640 679l96 17l-234 -364q-149 -232 -167 -269q-13 -26 -13 -38q0 -21 25 -21q42 0 139.5 88.5t146.5 172.5l7 -4q-39 -71 -140.5 -170t-157.5 -99
q-60 0 -60 54q0 15 8.5 37.5t26.5 53l34 55.5l43 65.5l42 63.5l7 11h-171l-119 -198.5t-103 -155t-96.5 -120.5t-91.5 -79.5t-97.5 -50t-105.5 -14.5q-63 0 -108 32t-45 88q0 42 26 68t81 26h9v-8q-31 -2 -51.5 -23.5t-20.5 -57.5q0 -53 29.5 -83t84.5 -30q59 0 114 29
t109 89t96.5 120t99.5 153q-53 -53 -102 -88.5t-71.5 -46t-28.5 -10.5q-3 0 -3 5q0 3 6 6q120 58 231 186l100 163h-71v12h77l45.5 72.5l46 69t50 68t50 55.5t55 47.5t56 28t60.5 11.5q36 0 56 -17z" />
    <glyph glyph-name="g.begin" unicode="&#xe016;" horiz-adv-x="516" 
d="M462 344h69q-45 -61 -121.5 -178t-102.5 -154q96 20 186.5 93.5t144.5 164.5l4 -6q-41 -70 -95 -124t-104.5 -82t-85.5 -41.5t-57 -16.5q-3 -2 -25.5 -35t-57 -74.5t-80.5 -84t-111 -71.5t-134 -29q-73 0 -120.5 31.5t-47.5 82.5q0 43 31 71.5t78 28.5q12 0 30 -4v-8h-8
q-38 0 -57.5 -24t-19.5 -66q0 -52 33.5 -76t88.5 -24q42 0 87.5 22t80 51t76 78t65 82l59 85l45.5 66l-2 2q-96 -112 -173 -112q-36 0 -54.5 23.5t-18.5 54.5q0 18 4 33q-49 -47 -95 -79.5t-66.5 -42t-26.5 -9.5q-3 0 -3 5q0 3 6 6q101 49 192 143q29 83 115 154.5t157 71.5
q37 0 55.5 -18.5t18.5 -46.5h3zM346 340q-66 0 -143.5 -96t-77.5 -179q0 -22 11.5 -35.5t29.5 -13.5q30 0 82.5 42t96 110t43.5 129q0 43 -42 43z" />
    <glyph glyph-name="germandbls.begin" unicode="&#xe017;" horiz-adv-x="628" 
d="M-363 -76v-10q-87 0 -87 -82q0 -49 34.5 -78.5t84.5 -29.5q56 0 120.5 42t110.5 93t85 109l93 144q-51 -50 -99.5 -85t-70 -45t-27.5 -10q-3 0 -3 5q0 3 6 6q119 60 226 181q143 232 205 313q133 174 254 197q22 4 43 4q54 0 87 -30.5t33 -75.5q0 -50 -38 -88.5
t-119 -73.5q-65 -28 -86.5 -53t-21.5 -68q0 -28 22 -86t22 -90q0 -66 -86 -106l2 -2q95 17 170.5 84.5t154.5 174.5l9 -4l-60.5 -79t-65.5 -71.5t-76 -62t-85.5 -39.5t-99.5 -16q-49 0 -79.5 29.5t-30.5 69.5q0 33 17 53t46 20q15 0 25 -9t10 -24q0 -31 -33 -31
q-19 0 -29 18q-14 -16 -14 -39q0 -29 20 -52t57 -23q46 0 70 29.5t24 70.5q0 31 -22 87q-22 58 -22 84q0 46 32.5 72.5t116.5 67.5q68 34 101 80.5t33 91.5q0 36 -21 57.5t-60 21.5q-53 0 -104.5 -37t-108 -113.5t-107.5 -158.5l-132.5 -209t-154.5 -228
q-67 -92 -156.5 -150t-184.5 -58q-65 0 -115 30t-50 91q0 45 32.5 69t81.5 24q7 0 21 -2z" />
    <glyph glyph-name="h.begin" unicode="&#xe018;" horiz-adv-x="516" 
d="M459 689l67 3l-354 -526l2 -2q30 38 49 60t54.5 57t70.5 53t68 18q61 0 61 -61q0 -28 -39 -81l-78 -105t-39 -75q0 -26 24 -26q60 0 156.5 95.5t135.5 162.5l6 -2q-18 -31 -53 -74.5t-78 -88t-90 -75t-82 -30.5q-26 0 -42.5 16t-16.5 44q0 35 39 89t78 102.5t39 68.5
q0 28 -31 28q-45 0 -116.5 -67t-128 -144t-82.5 -129h-65l88 137q-57 -60 -111 -100.5t-78.5 -52.5t-31.5 -12q-3 0 -3 5q0 3 6 6q140 68 270 234z" />
    <glyph glyph-name="i.begin" unicode="&#xe019;" horiz-adv-x="294" 
d="M240 344h64l-45 -65l-39 -56l-32 -46l-27 -39.5l-21 -31t-16.5 -26.5t-10 -20t-6.5 -17t-2 -13q0 -26 21 -26q54 0 153.5 97.5t134.5 162.5l8 -5q-46 -78 -143 -172.5t-161 -94.5q-25 0 -39 14t-14 34q0 37 37 97q-57 -60 -111 -100.5t-78.5 -52.5t-31.5 -12q-3 0 -3 5
q0 3 6 6q146 71 273 238q11 14 23.5 33l30.5 46zM362 530q13 0 22.5 -9.5t9.5 -23.5t-9 -23.5t-23 -9.5t-23 9.5t-9 23.5t9.5 23.5t22.5 9.5z" />
    <glyph glyph-name="iacute.begin" unicode="&#xe01a;" horiz-adv-x="294" 
d="M240 344h64l-45 -65l-39 -56l-32 -46l-27 -39.5l-21 -31t-16.5 -26.5t-10 -20t-6.5 -17t-2 -13q0 -26 21 -26q54 0 153.5 97.5t134.5 162.5l8 -5q-46 -78 -143 -172.5t-161 -94.5q-25 0 -39 14t-14 34q0 37 37 97q-57 -60 -111 -100.5t-78.5 -52.5t-31.5 -12q-3 0 -3 5
q0 3 6 6q146 71 273 238q11 14 23.5 33l30.5 46zM404 572q10 0 16 -8.5t6 -18.5q0 -36 -58.5 -87.5t-73.5 -51.5q-5 0 -5 4q0 3 18.5 18t37.5 38t21 44q2 27 12 44.5t26 17.5z" />
    <glyph glyph-name="icircumflex.begin" unicode="&#xe01b;" horiz-adv-x="294" 
d="M240 344h64l-45 -65l-39 -56l-32 -46l-27 -39.5l-21 -31t-16.5 -26.5t-10 -20t-6.5 -17t-2 -13q0 -26 21 -26q54 0 153.5 97.5t134.5 162.5l8 -5q-46 -78 -143 -172.5t-161 -94.5q-25 0 -39 14t-14 34q0 37 37 97q-57 -60 -111 -100.5t-78.5 -52.5t-31.5 -12q-3 0 -3 5
q0 3 6 6q146 71 273 238q11 14 23.5 33l30.5 46zM209 406l-4 7q83 78 144 159h16q0 -72 56 -163l-8 -5q-47 53 -76 109q-81 -77 -128 -107z" />
    <glyph glyph-name="idieresis.begin" unicode="&#xe01c;" horiz-adv-x="294" 
d="M240 344h64l-45 -65l-39 -56l-32 -46l-27 -39.5l-21 -31t-16.5 -26.5t-10 -20t-6.5 -17t-2 -13q0 -26 21 -26q54 0 153.5 97.5t134.5 162.5l8 -5q-46 -78 -143 -172.5t-161 -94.5q-25 0 -39 14t-14 34q0 37 37 97q-57 -60 -111 -100.5t-78.5 -52.5t-31.5 -12q-3 0 -3 5
q0 3 6 6q146 71 273 238q11 14 23.5 33l30.5 46zM409 522q11 0 18 -11.5t7 -23.5q0 -15 -11 -26t-27 -11q-12 0 -19 10.5t-7 23.5q0 17 11 27.5t28 10.5zM265 522q11 0 18 -11.5t7 -23.5q0 -15 -11 -26t-27 -11q-12 0 -19 10.5t-7 23.5q0 17 11 27.5t28 10.5z" />
    <glyph glyph-name="igrave.begin" unicode="&#xe01d;" horiz-adv-x="294" 
d="M240 344h64l-45 -65l-39 -56l-32 -46l-27 -39.5l-21 -31t-16.5 -26.5t-10 -20t-6.5 -17t-2 -13q0 -26 21 -26q54 0 153.5 97.5t134.5 162.5l8 -5q-46 -78 -143 -172.5t-161 -94.5q-25 0 -39 14t-14 34q0 37 37 97q-57 -60 -111 -100.5t-78.5 -52.5t-31.5 -12q-3 0 -3 5
q0 3 6 6q146 71 273 238q11 14 23.5 33l30.5 46zM209 572q16 0 26 -17.5t12 -44.5q2 -21 21 -44t37.5 -38t18.5 -18q0 -4 -5 -4q-15 0 -73.5 51.5t-58.5 87.5q0 10 6 18.5t16 8.5z" />
    <glyph glyph-name="j.begin" unicode="&#xe01e;" horiz-adv-x="294" 
d="M228 344h62l-211 -333q89 14 178 82.5t158 173.5l9 -4q-68 -104 -158.5 -176t-193.5 -87q-184 -294 -405 -294q-69 0 -117.5 30.5t-48.5 87.5q0 43 33.5 69.5t76.5 26.5q6 0 27 -3v-9h-7q-38 0 -60 -24t-22 -56q0 -110 124 -110q40 0 78 14t74.5 44t64 57.5t62 76l53 76
t50.5 79.5l40 64q-55 -57 -107.5 -96t-76 -50t-30.5 -11q-3 0 -3 5q0 3 6 6q129 62 249 208zM352 530q13 0 22.5 -9.5t9.5 -23.5t-9 -23.5t-23 -9.5t-23 9.5t-9 23.5t9.5 23.5t22.5 9.5z" />
    <glyph glyph-name="k.begin" unicode="&#xe01f;" horiz-adv-x="516" 
d="M456 689l62 3q-201 -318 -334 -503l2 -2q4 4 22.5 25l24 27l22 24t24.5 25l23.5 20t26 18.5l25 13t28 10t27.5 2.5q62 0 62 -55q0 -44 -45 -71t-99 -37v-2q12 -6 20.5 -22.5t8.5 -34.5q0 -16 -15 -52t-15 -55t16 -19q61 0 155 94q69 69 136 165l9 -6q-66 -95 -141 -170
q-95 -95 -166 -95q-63 0 -63 53q0 21 22 65.5t22 54.5q0 19 -17 19q-5 0 -23.5 -4t-30.5 -4q-15 0 -15 9t15 9q3 0 13.5 -1t18.5 -1q61 0 100.5 28t39.5 75q0 20 -10 30.5t-24 10.5q-53 0 -151.5 -113.5t-153.5 -222.5h-66l84 131q-56 -57 -108.5 -96.5t-76 -51t-30.5 -11.5
q-3 0 -3 5q0 3 6 6q130 61 258 219z" />
    <glyph glyph-name="l.begin" unicode="&#xe020;" horiz-adv-x="294" 
d="M457 696h70l-108 -163l-89.5 -133.5l-70.5 -105l-55.5 -83.5l-40 -61t-29 -46.5t-17 -32t-10 -25t-2.5 -17.5q0 -25 22 -25q48 0 128 74.5t159 186.5l11 -4q-78 -111 -153 -181q-94 -88 -149 -88q-58 0 -58 51q0 34 24 81q-54 -55 -105 -92.5t-74 -48.5t-29 -11
q-3 0 -3 5q0 3 6 6q121 58 234 190z" />
    <glyph glyph-name="lslash.begin" unicode="&#xe021;" horiz-adv-x="294" 
d="M480 471l-7 -17l-155 -72q-144 -215 -178.5 -272t-34.5 -81q0 -25 24 -25q48 0 128 74.5t159 186.5l11 -4q-78 -111 -153 -181q-94 -88 -149 -88q-60 0 -60 51q0 34 24 81q-54 -55 -105 -92.5t-74 -48.5t-29 -11q-3 0 -3 5q0 3 6 6q121 58 234 190q20 32 108 164l-2 2
l-131 -62l6 17l141 66l217 336h70l-195 -292l2 -2z" />
    <glyph glyph-name="m.begin" unicode="&#xe022;" horiz-adv-x="739" 
d="M79 0h-65l84 132q-56 -58 -109 -97.5t-77 -51t-31 -11.5q-3 0 -3 5q0 3 6 6q135 64 262 223l86 138h61l-132 -186l2 -2q2 2 23.5 29t31 37.5l32 35.5t39 37l38.5 28t44 22.5t43 6.5q25 0 40 -13t15 -36q0 -13 -11 -35t-21.5 -38t-29.5 -42.5t-21 -29.5l2 -2
q51 73 121.5 134.5t129.5 61.5q58 0 58 -53q0 -30 -39 -85.5l-78 -108t-39 -75.5q0 -12 7.5 -19t18.5 -7q48 0 125.5 70.5t162.5 187.5l8 -4q-196 -266 -301 -266q-30 0 -45.5 17t-15.5 44q0 33 39 88t78 104.5t39 69.5q0 25 -26 25q-61 0 -164 -108t-161 -232h-64
q29 53 78.5 127.5l79 121.5t29.5 64q0 27 -28 27q-68 0 -172.5 -123t-149.5 -217z" />
    <glyph glyph-name="n.begin" unicode="&#xe023;" horiz-adv-x="516" 
d="M227 341l65 3l-132 -183l2 -2l20 23q19 24 23.5 29l24 27t28 29.5l27 25t31 25l29 17.5t31.5 13.5t30 3.5q29 0 46 -16.5t17 -42.5q0 -34 -77 -135.5t-77 -125.5q0 -28 28 -28q61 0 154 94q38 39 79.5 90.5t59.5 80.5l7 -4q-51 -78 -120 -153q-111 -120 -181 -120
q-30 0 -48.5 16.5t-18.5 43.5q0 26 24 65t53 72t53 69t24 58q0 24 -29 24q-46 0 -118 -67t-128.5 -144t-81.5 -129h-62q23 39 75 119q-53 -53 -103 -89.5t-72.5 -47t-28.5 -10.5q-3 0 -3 5q0 3 6 6q1 0 12 5.5l16 8t18 10l22 13t24 16t26.5 20.5l28 24t31 29l31.5 34t33 40
q27 34 101 158z" />
    <glyph glyph-name="ntilde.begin" unicode="&#xe024;" horiz-adv-x="516" 
d="M227 341l65 3l-132 -183l2 -2l20 23q19 24 23.5 29l24 27t28 29.5l27 25t31 25l29 17.5t31.5 13.5t30 3.5q29 0 46 -16.5t17 -42.5q0 -34 -77 -135.5t-77 -125.5q0 -28 28 -28q61 0 154 94q38 39 79.5 90.5t59.5 80.5l7 -4q-51 -78 -120 -153q-111 -120 -181 -120
q-30 0 -48.5 16.5t-18.5 43.5q0 26 24 65t53 72t53 69t24 58q0 24 -29 24q-46 0 -118 -67t-128.5 -144t-81.5 -129h-62q23 39 75 119q-53 -53 -103 -89.5t-72.5 -47t-28.5 -10.5q-3 0 -3 5q0 3 6 6q1 0 12 5.5l16 8t18 10l22 13t24 16t26.5 20.5l28 24t31 29l31.5 34t33 40
q27 34 101 158zM460 456q-24 0 -70 18q-44 18 -67 18q-17 0 -28 -11t-17 -22t-9 -11q-4 0 -4 10q0 27 19 49.5t55 22.5q17 0 64 -19q48 -19 70 -19q21 0 36.5 11t15.5 24q0 9 7 9q5 0 5 -6q0 -30 -22.5 -54t-54.5 -20z" />
    <glyph glyph-name="o.begin" unicode="&#xe025;" horiz-adv-x="516" 
d="M633 258l8 -5q-52 -59 -113 -59q-53 0 -79 42h-2q-23 -84 -106 -164t-170 -80q-42 0 -64.5 25t-22.5 67q0 18 8 42q-54 -56 -106 -94t-75 -49t-30 -11q-3 0 -3 5q0 3 6 6q116 58 221 176q36 74 110 133.5t149 59.5q40 0 63 -23.5t25 -62.5q2 -25 22.5 -43.5t52.5 -18.5
q55 0 106 54zM138 60q0 -56 40 -56q50 0 103 51t85 118t32 117q0 22 -11 36t-32 14q-41 0 -92.5 -47.5t-88 -114.5t-36.5 -118z" />
    <glyph glyph-name="oacute.begin" unicode="&#xe026;" horiz-adv-x="516" 
d="M138 60q0 -56 40 -56q50 0 103 51t85 118t32 117q0 22 -11 36t-32 14q-41 0 -92.5 -47.5t-88 -114.5t-36.5 -118zM92 126q-54 -56 -106 -94t-75 -49t-30 -11q-3 0 -3 5q0 3 6 6q116 58 221 176q36 74 110 133.5t149 59.5q40 0 63 -23.5t25 -62.5q2 -25 22.5 -43.5
t52.5 -18.5q55 0 106 54l8 -5q-52 -59 -113 -59q-53 0 -79 42h-2q-23 -84 -106 -164t-170 -80q-42 0 -64.5 25t-22.5 67q0 18 8 42zM474 572q10 0 16 -8.5t6 -18.5q0 -36 -58.5 -87.5t-73.5 -51.5q-5 0 -5 4q0 3 18.5 18t37.5 38t21 44q2 27 12 44.5t26 17.5z" />
    <glyph glyph-name="ocircumflex.begin" unicode="&#xe027;" horiz-adv-x="516" 
d="M138 60q0 -56 40 -56q50 0 103 51t85 118t32 117q0 22 -11 36t-32 14q-41 0 -92.5 -47.5t-88 -114.5t-36.5 -118zM92 126q-54 -56 -106 -94t-75 -49t-30 -11q-3 0 -3 5q0 3 6 6q116 58 221 176q36 74 110 133.5t149 59.5q40 0 63 -23.5t25 -62.5q2 -25 22.5 -43.5
t52.5 -18.5q55 0 106 54l8 -5q-52 -59 -113 -59q-53 0 -79 42h-2q-23 -84 -106 -164t-170 -80q-42 0 -64.5 25t-22.5 67q0 18 8 42zM279 406l-4 7q83 78 144 159h16q0 -72 56 -163l-8 -5q-47 53 -76 109q-81 -77 -128 -107z" />
    <glyph glyph-name="odieresis.begin" unicode="&#xe028;" horiz-adv-x="516" 
d="M138 60q0 -56 40 -56q50 0 103 51t85 118t32 117q0 22 -11 36t-32 14q-41 0 -92.5 -47.5t-88 -114.5t-36.5 -118zM92 126q-54 -56 -106 -94t-75 -49t-30 -11q-3 0 -3 5q0 3 6 6q116 58 221 176q36 74 110 133.5t149 59.5q40 0 63 -23.5t25 -62.5q2 -25 22.5 -43.5
t52.5 -18.5q55 0 106 54l8 -5q-52 -59 -113 -59q-53 0 -79 42h-2q-23 -84 -106 -164t-170 -80q-42 0 -64.5 25t-22.5 67q0 18 8 42zM479 522q11 0 18 -11.5t7 -23.5q0 -15 -11 -26t-27 -11q-12 0 -19 10.5t-7 23.5q0 17 11 27.5t28 10.5zM335 522q11 0 18 -11.5t7 -23.5
q0 -15 -11 -26t-27 -11q-12 0 -19 10.5t-7 23.5q0 17 11 27.5t28 10.5z" />
    <glyph glyph-name="oe.begin" unicode="&#xe029;" horiz-adv-x="646" 
d="M138 60q0 -56 40 -56q50 0 103 51t85 118t32 117q0 22 -11 36t-32 14q-41 0 -92.5 -47.5t-88 -114.5t-36.5 -118zM612 312q0 28 -26 28q-38 0 -91 -55t-76 -105q34 6 76.5 23t79.5 47t37 62zM92 126q-54 -56 -106 -94t-75 -49t-30 -11q-3 0 -3 5q0 3 6 6q116 58 221 176
q36 74 110 133.5t149 59.5q69 0 84 -69q80 69 159 69q53 0 53 -41q0 -29 -44.5 -60t-98 -51t-103.5 -31q-25 -46 -25 -95q0 -26 12 -46t35 -20q67 0 168 79t161 177l8 -5q-52 -91 -159 -179t-199 -88q-81 0 -89 68q-77 -68 -155 -68q-42 0 -64.5 25t-22.5 67q0 18 8 42z" />
    <glyph glyph-name="ograve.begin" unicode="&#xe02a;" horiz-adv-x="516" 
d="M138 60q0 -56 40 -56q50 0 103 51t85 118t32 117q0 22 -11 36t-32 14q-41 0 -92.5 -47.5t-88 -114.5t-36.5 -118zM92 126q-54 -56 -106 -94t-75 -49t-30 -11q-3 0 -3 5q0 3 6 6q116 58 221 176q36 74 110 133.5t149 59.5q40 0 63 -23.5t25 -62.5q2 -25 22.5 -43.5
t52.5 -18.5q55 0 106 54l8 -5q-52 -59 -113 -59q-53 0 -79 42h-2q-23 -84 -106 -164t-170 -80q-42 0 -64.5 25t-22.5 67q0 18 8 42zM279 572q16 0 26 -17.5t12 -44.5q2 -21 21 -44t37.5 -38t18.5 -18q0 -4 -5 -4q-15 0 -73.5 51.5t-58.5 87.5q0 10 6 18.5t16 8.5z" />
    <glyph glyph-name="oslash.begin" unicode="&#xe02b;" horiz-adv-x="516" 
d="M141 36l242 293q-11 11 -28 11q-41 0 -92.5 -47.5t-88 -114.5t-36.5 -118q0 -14 3 -24zM390 321l-245 -295q9 -22 33 -22q50 0 103 51t85 118t32 117q0 20 -8 31zM92 126q-54 -56 -106 -94t-75 -49t-30 -11q-3 0 -3 5q0 3 6 6q116 58 221 176q36 74 110 133.5t149 59.5
q17 0 34 -5l54 65l8 -7l-52 -63q41 -21 44 -76q2 -25 22.5 -43.5t52.5 -18.5q55 0 106 54l8 -5q-52 -59 -113 -59q-53 0 -79 42h-2q-23 -84 -106 -164t-170 -80q-26 0 -45 11l-55 -66l-7 8l53 63q-33 24 -33 76q0 18 8 42z" />
    <glyph glyph-name="otilde.begin" unicode="&#xe02c;" horiz-adv-x="516" 
d="M138 60q0 -56 40 -56q50 0 103 51t85 118t32 117q0 22 -11 36t-32 14q-41 0 -92.5 -47.5t-88 -114.5t-36.5 -118zM92 126q-54 -56 -106 -94t-75 -49t-30 -11q-3 0 -3 5q0 3 6 6q116 58 221 176q36 74 110 133.5t149 59.5q40 0 63 -23.5t25 -62.5q2 -25 22.5 -43.5
t52.5 -18.5q55 0 106 54l8 -5q-52 -59 -113 -59q-53 0 -79 42h-2q-23 -84 -106 -164t-170 -80q-42 0 -64.5 25t-22.5 67q0 18 8 42zM460 456q-24 0 -70 18q-44 18 -67 18q-17 0 -28 -11t-17 -22t-9 -11q-4 0 -4 10q0 27 19 49.5t55 22.5q17 0 64 -19q48 -19 70 -19
q21 0 36.5 11t15.5 24q0 9 7 9q5 0 5 -6q0 -30 -22.5 -54t-54.5 -20z" />
    <glyph glyph-name="p.begin" unicode="&#xe02d;" horiz-adv-x="516" 
d="M364 538h66q-31 -48 -106.5 -154t-112.5 -165l2 -2q102 135 183 135q76 0 76 -76q0 -81 -81 -164l2 -2q73 13 131 49.5t116 107.5l8 -4q-25 -30 -48.5 -54t-47.5 -40.5l-39 -27.5t-40.5 -19t-32.5 -10.5t-34 -8.5t-28 -6l-36.5 -29.5t-49 -37.5t-47 -25t-54.5 -13
q-15 0 -28 8.5t-13 23.5q0 58 186 77q29 35 52.5 86t23.5 93q0 56 -34 56q-26 0 -57.5 -21.5t-65 -62t-57 -72t-54 -77.5t-35.5 -53q-34 -48 -113.5 -172.5t-122.5 -201.5h-62l304 475l-8 -9q-56 -63 -112 -105t-81 -53.5t-33 -11.5q-3 0 -3 5q0 3 6 6q142 69 274 239
l16.5 21.5t10.5 14.5zM205 4q27 0 63.5 29t57.5 54l-2 2q-5 -1 -32 -4.5t-41.5 -7t-34.5 -10t-30 -16.5t-10 -23q0 -24 29 -24z" />
    <glyph glyph-name="q.begin" unicode="&#xe02e;" horiz-adv-x="516" 
d="M458 344h60l-215 -332q195 40 335 252l6 -5q-58 -93 -148 -166t-200 -92l-210 -325h-64q12 17 122 182.5t172 248.5l-2 2q-3 -3 -9 -10q-31 -34 -49 -52t-52.5 -36.5t-68.5 -18.5q-36 0 -55 22t-19 59q0 13 3 26q-48 -45 -92.5 -76.5t-65 -41t-25.5 -9.5q-3 0 -3 5
q0 3 6 6q100 50 187 138q30 80 120 155.5t160 75.5q31 0 51 -20t20 -45h2zM346 340q-45 0 -99 -52t-90 -119t-36 -112q0 -49 40 -49q34 0 89 50t97.5 117.5t42.5 112.5q0 52 -44 52z" />
    <glyph glyph-name="r.begin" unicode="&#xe02f;" horiz-adv-x="405" 
d="M233 344h61l-127 -185l2 -2q31 38 85.5 88.5t105.5 84.5q3 6 4 7.5t4 5.5t6 5.5t8.5 2.5t12.5 1q13 0 37 -2q-49 -49 -49 -95q0 -23 11.5 -36t28.5 -13q18 0 40.5 12t32 19.5t30.5 26.5l6 -4l-33.5 -30t-36.5 -23t-48 -13q-32 0 -51.5 20t-19.5 54q0 24 11 43l-2 2
q-84 -58 -194 -181q-46 -51 -79 -132h-65l81 130q-55 -57 -107.5 -96t-76 -50.5t-30.5 -11.5q-3 0 -3 5q0 3 6 6q22 11 29.5 14.5t39.5 23.5t55.5 40t60 56.5t69.5 79.5q21 27 55.5 83.5t39.5 63.5z" />
    <glyph glyph-name="s.begin" unicode="&#xe030;" horiz-adv-x="405" 
d="M119 155q16 -6 16 -27q0 -34 -28 -34q-21 0 -26 21h-1l-11 -12q-7 -11 -7 -29q0 -33 25 -51.5t61 -18.5q40 0 61.5 29t21.5 69q0 28 -21 80q-17 43 -20 59q-23 -31 -71 -86zM525 261l6 -3q-170 -266 -377 -266q-46 0 -78 22t-37 62q-41 -37 -79.5 -62.5t-56 -33.5
t-22.5 -8q-3 0 -3 5q0 3 6 6q79 38 154 107q0 27 17.5 47.5t45.5 20.5h4q31 35 53 64l14 18.5t10 14.5t6 7q1 41 33.5 65.5t77.5 24.5q40 0 65 -17.5t25 -46.5q0 -24 -18.5 -37t-44.5 -13q15 28 15 55q0 21 -12.5 34t-35.5 13q-27 0 -42 -17t-15 -43q0 -30 25 -82
q24 -52 24 -88t-30.5 -67.5t-67.5 -38.5l2 -2q98 12 185 85.5t151 173.5z" />
    <glyph glyph-name="scaron.begin" unicode="&#xe031;" horiz-adv-x="405" 
d="M119 155q16 -6 16 -27q0 -34 -28 -34q-21 0 -26 21h-1l-11 -12q-7 -11 -7 -29q0 -33 25 -51.5t61 -18.5q40 0 61.5 29t21.5 69q0 28 -21 80q-17 43 -20 59q-23 -31 -71 -86zM525 261l6 -3q-170 -266 -377 -266q-46 0 -78 22t-37 62q-41 -37 -79.5 -62.5t-56 -33.5
t-22.5 -8q-3 0 -3 5q0 3 6 6q79 38 154 107q0 27 17.5 47.5t45.5 20.5h4q31 35 53 64l14 18.5t10 14.5t6 7q1 41 33.5 65.5t77.5 24.5q40 0 65 -17.5t25 -46.5q0 -24 -18.5 -37t-44.5 -13q15 28 15 55q0 21 -12.5 34t-35.5 13q-27 0 -42 -17t-15 -43q0 -30 25 -82
q24 -52 24 -88t-30.5 -67.5t-67.5 -38.5l2 -2q98 12 185 85.5t151 173.5zM463 572l4 -7q-83 -78 -144 -159h-16q0 72 -56 163l8 5q47 -53 76 -109q81 77 128 107z" />
    <glyph glyph-name="t.begin" unicode="&#xe032;" horiz-adv-x="350" 
d="M308 460h60l-79 -116h132l-6 -12h-134l-58 -92l-48 -74t-33 -53t-22.5 -44t-6.5 -31q0 -34 43 -34q44 0 108.5 48t113 101.5t92.5 111.5l6 -4q-41 -52 -76 -92t-80.5 -84t-89.5 -68.5t-81 -24.5q-32 0 -54 19.5t-22 52.5q0 26 17 60q-54 -55 -105 -92.5t-74.5 -48.5
t-29.5 -11q-3 0 -3 5q0 3 6 6q80 39 136 87q49 43 95 100q23 28 107 162h-54l6 12h56z" />
    <glyph glyph-name="thorn.begin" unicode="&#xe033;" horiz-adv-x="516" 
d="M428 642h76l-226 -324l2 -2q43 36 91 36q34 0 56 -23.5t24 -62.5q1 -26 23 -44t52 -18q60 0 107 55l6 -7q-50 -58 -112 -58q-55 0 -79 43h-2q-22 -83 -103 -164t-161 -81q-28 0 -43.5 17t-15.5 43q0 25 3 36l-2 2q-181 -289 -251 -414h-62l302 473l-6 -7
q-55 -64 -110.5 -106t-81.5 -53t-34 -11q-3 0 -3 5q0 3 6 6q142 69 275 239q15 20 19 27zM398 288v6v6.5t-0.5 6.5t-1 7t-1.5 6.5t-3 6.5t-4.5 5t-6 4.5t-8 2.5t-9.5 1q-66 0 -146.5 -105t-80.5 -179q0 -25 13.5 -38.5t33.5 -13.5q47 0 98.5 51t83.5 117.5t32 115.5z" />
    <glyph glyph-name="u.begin" unicode="&#xe034;" horiz-adv-x="516" 
d="M238 344h66l-59.5 -80l-57.5 -78l-41 -59t-32.5 -54.5t-9.5 -33.5q0 -31 29 -31q49 0 122 73.5t109 128.5l88 134h69q-121 -164 -158.5 -222t-37.5 -89q0 -12 7.5 -20.5t19.5 -8.5q53 0 141 91t142 169l10 -3l-40.5 -54.5t-56.5 -68t-68 -71.5t-69 -52.5t-65 -22.5
t-44.5 15.5t-16.5 41.5q0 38 16 62l-2 2q-108 -121 -183 -121q-30 0 -45 14t-15 35q0 32 21 71q-51 -50 -99 -85t-69.5 -45t-27.5 -10q-3 0 -3 5q0 3 6 6q1 0 12.5 6l17 9l19 10.5t23.5 14l25 17t29 22.5l30 27t32.5 33l33.5 38q20 24 132 184z" />
    <glyph glyph-name="uacute.begin" unicode="&#xe035;" horiz-adv-x="516" 
d="M238 344h66l-59.5 -80l-57.5 -78l-41 -59t-32.5 -54.5t-9.5 -33.5q0 -31 29 -31q49 0 122 73.5t109 128.5l88 134h69q-121 -164 -158.5 -222t-37.5 -89q0 -12 7.5 -20.5t19.5 -8.5q53 0 141 91t142 169l10 -3l-40.5 -54.5t-56.5 -68t-68 -71.5t-69 -52.5t-65 -22.5
t-44.5 15.5t-16.5 41.5q0 38 16 62l-2 2q-108 -121 -183 -121q-30 0 -45 14t-15 35q0 32 21 71q-51 -50 -99 -85t-69.5 -45t-27.5 -10q-3 0 -3 5q0 3 6 6q1 0 12.5 6l17 9l19 10.5t23.5 14l25 17t29 22.5l30 27t32.5 33l33.5 38q20 24 132 184zM509 572q10 0 16 -8.5
t6 -18.5q0 -36 -58.5 -87.5t-73.5 -51.5q-5 0 -5 4q0 3 18.5 18t37.5 38t21 44q2 27 12 44.5t26 17.5z" />
    <glyph glyph-name="ucircumflex.begin" unicode="&#xe036;" horiz-adv-x="516" 
d="M238 344h66l-59.5 -80l-57.5 -78l-41 -59t-32.5 -54.5t-9.5 -33.5q0 -31 29 -31q49 0 122 73.5t109 128.5l88 134h69q-121 -164 -158.5 -222t-37.5 -89q0 -12 7.5 -20.5t19.5 -8.5q53 0 141 91t142 169l10 -3l-40.5 -54.5t-56.5 -68t-68 -71.5t-69 -52.5t-65 -22.5
t-44.5 15.5t-16.5 41.5q0 38 16 62l-2 2q-108 -121 -183 -121q-30 0 -45 14t-15 35q0 32 21 71q-51 -50 -99 -85t-69.5 -45t-27.5 -10q-3 0 -3 5q0 3 6 6q1 0 12.5 6l17 9l19 10.5t23.5 14l25 17t29 22.5l30 27t32.5 33l33.5 38q20 24 132 184zM314 406l-4 7q83 78 144 159
h16q0 -72 56 -163l-8 -5q-47 53 -76 109q-81 -77 -128 -107z" />
    <glyph glyph-name="udieresis.begin" unicode="&#xe037;" horiz-adv-x="516" 
d="M238 344h66l-59.5 -80l-57.5 -78l-41 -59t-32.5 -54.5t-9.5 -33.5q0 -31 29 -31q49 0 122 73.5t109 128.5l88 134h69q-121 -164 -158.5 -222t-37.5 -89q0 -12 7.5 -20.5t19.5 -8.5q53 0 141 91t142 169l10 -3l-40.5 -54.5t-56.5 -68t-68 -71.5t-69 -52.5t-65 -22.5
t-44.5 15.5t-16.5 41.5q0 38 16 62l-2 2q-108 -121 -183 -121q-30 0 -45 14t-15 35q0 32 21 71q-51 -50 -99 -85t-69.5 -45t-27.5 -10q-3 0 -3 5q0 3 6 6q1 0 12.5 6l17 9l19 10.5t23.5 14l25 17t29 22.5l30 27t32.5 33l33.5 38q20 24 132 184zM514 522q11 0 18 -11.5
t7 -23.5q0 -15 -11 -26t-27 -11q-12 0 -19 10.5t-7 23.5q0 17 11 27.5t28 10.5zM370 522q11 0 18 -11.5t7 -23.5q0 -15 -11 -26t-27 -11q-12 0 -19 10.5t-7 23.5q0 17 11 27.5t28 10.5z" />
    <glyph glyph-name="ugrave.begin" unicode="&#xe038;" horiz-adv-x="516" 
d="M238 344h66l-59.5 -80l-57.5 -78l-41 -59t-32.5 -54.5t-9.5 -33.5q0 -31 29 -31q49 0 122 73.5t109 128.5l88 134h69q-121 -164 -158.5 -222t-37.5 -89q0 -12 7.5 -20.5t19.5 -8.5q53 0 141 91t142 169l10 -3l-40.5 -54.5t-56.5 -68t-68 -71.5t-69 -52.5t-65 -22.5
t-44.5 15.5t-16.5 41.5q0 38 16 62l-2 2q-108 -121 -183 -121q-30 0 -45 14t-15 35q0 32 21 71q-51 -50 -99 -85t-69.5 -45t-27.5 -10q-3 0 -3 5q0 3 6 6q1 0 12.5 6l17 9l19 10.5t23.5 14l25 17t29 22.5l30 27t32.5 33l33.5 38q20 24 132 184zM314 572q16 0 26 -17.5
t12 -44.5q2 -21 21 -44t37.5 -38t18.5 -18q0 -4 -5 -4q-15 0 -73.5 51.5t-58.5 87.5q0 10 6 18.5t16 8.5z" />
    <glyph glyph-name="v.begin" unicode="&#xe039;" horiz-adv-x="516" 
d="M238 344h65q-4 -6 -29 -38.5l-38.5 -51l-36.5 -52.5t-35.5 -57.5t-22.5 -50.5t-10 -46q0 -44 48 -44t104.5 51.5t92.5 117.5t36 110q0 5 -4 17t-4 20q0 13 7.5 22.5t19.5 9.5q35 0 35 -71q0 -8 -2 -22t-2 -17q10 -15 31.5 -24.5t41.5 -9.5q29 0 57.5 14.5t46.5 43.5l8 -5
q-14 -29 -46.5 -47t-66.5 -18q-41 0 -76 31q-26 -82 -115 -158.5t-173 -76.5q-87 0 -87 84q0 24 14 55q-56 -57 -108.5 -96.5t-76.5 -51t-31 -11.5q-3 0 -3 5q0 3 6 6l13 6q13 6 18.5 9l20.5 11t25.5 15.5l27 19t30.5 24.5l31.5 29t35 36t34.5 42q65 83 118 169z" />
    <glyph glyph-name="w.begin" unicode="&#xe03a;" horiz-adv-x="739" 
d="M241 344h66q-29 -40 -75 -98.5t-64 -84t-34 -57.5t-16 -58q0 -42 35 -42q21 0 44 11.5t49 38t47 50.5t53 70l50 73.5l53 82.5q6 9 9 14h69q-4 -6 -28 -38.5l-38 -51.5t-36.5 -53.5t-35.5 -58t-23 -50t-10 -44.5q0 -20 11 -32t30 -12q70 0 149.5 95t87.5 183
q-12 17 -12 38q0 32 30 32q36 0 36 -62q0 -19 -6 -49q35 -33 75 -33q69 0 100 55l9 -6q-34 -61 -111 -61q-42 0 -76 31q-33 -85 -124 -160t-168 -75q-35 0 -57 18.5t-22 52.5q0 11 2.5 22.5t6 21t3.5 11.5l-2 2q-97 -128 -172 -128q-37 0 -56.5 19t-19.5 53q0 26 13 53
q-53 -53 -102 -88.5t-71.5 -46t-28.5 -10.5q-3 0 -3 5q0 3 6 6q116 58 221 176q20 32 136 185z" />
    <glyph glyph-name="x.begin" unicode="&#xe03b;" horiz-adv-x="572" 
d="M93 127q7 -8 7 -22q0 -13 -8 -22t-21 -9q-16 0 -23 10q-2 -2 -6 -5.5t-6 -5.5q-2 -6 -2 -11q0 -27 22 -42.5t58 -15.5q50 0 108 51.5t95.5 119t37.5 116.5q0 25 -12 41t-35 16q-34 0 -63 -28t-45 -61q-5 -9 -40.5 -54t-52.5 -63q-3 -2 -7.5 -7t-6.5 -8zM692 269l8 -3
q-52 -91 -156 -182.5t-182 -91.5q-35 0 -54.5 17t-19.5 43q0 25 11 47l-2 2q-86 -109 -183 -109q-39 0 -65 17t-33 47q-36 -30 -68.5 -50.5t-47.5 -27t-19 -6.5q-3 0 -3 5q0 3 6 6q71 35 130 86v7q0 26 15 44t36 18q8 0 18 -4q38 39 75 88l15.5 20.5t11 13.5t5.5 7
q41 57 61 73q30 24 68 24q43 0 66 -26.5t24 -64.5q30 33 73 58t89 25q31 0 50 -15.5t19 -37.5q0 -15 -13.5 -26.5t-33.5 -11.5q-4 0 -14 2q13 33 13 47q0 30 -28 30q-44 0 -98.5 -48t-92 -113t-37.5 -111q0 -60 49 -60q60 0 161.5 91.5t145.5 169.5z" />
    <glyph glyph-name="y.begin" unicode="&#xe03c;" horiz-adv-x="516" 
d="M237 344h67q-30 -44 -89.5 -124t-85.5 -121t-26 -62q0 -29 28 -29q55 0 144.5 97t177.5 239h62q-44 -61 -117.5 -179l-99.5 -157q92 16 179 82t156 167l7 -3q-71 -109 -162.5 -176t-186.5 -82q-92 -127 -135 -173q-125 -131 -271 -131q-67 0 -114.5 32.5t-47.5 80.5
q0 50 33 75t85 25v-3q-70 -16 -70 -94q0 -48 34.5 -76t80.5 -28q34 0 69 13.5t64.5 33t63 53t56.5 61.5t54 71.5t48 70.5l44.5 71l37.5 60l-2 2l-41 -46t-46.5 -45t-62.5 -43t-62 -14q-60 0 -60 48q0 28 24 68q-50 -49 -97 -82.5t-68 -43.5t-27 -10q-3 0 -3 5q0 3 6 6
q126 61 228 183q19 24 125 178z" />
    <glyph glyph-name="yacute.begin" unicode="&#xe03d;" horiz-adv-x="516" 
d="M237 344h67q-30 -44 -89.5 -124t-85.5 -121t-26 -62q0 -29 28 -29q55 0 144.5 97t177.5 239h62q-44 -61 -117.5 -179l-99.5 -157q92 16 179 82t156 167l7 -3q-71 -109 -162.5 -176t-186.5 -82q-92 -127 -135 -173q-125 -131 -271 -131q-67 0 -114.5 32.5t-47.5 80.5
q0 50 33 75t85 25v-3q-70 -16 -70 -94q0 -48 34.5 -76t80.5 -28q34 0 69 13.5t64.5 33t63 53t56.5 61.5t54 71.5t48 70.5l44.5 71l37.5 60l-2 2l-41 -46t-46.5 -45t-62.5 -43t-62 -14q-60 0 -60 48q0 28 24 68q-50 -49 -97 -82.5t-68 -43.5t-27 -10q-3 0 -3 5q0 3 6 6
q117 57 228 183zM474 572q10 0 16 -8.5t6 -18.5q0 -36 -58.5 -87.5t-73.5 -51.5q-5 0 -5 4q0 3 18.5 18t37.5 38t21 44q2 27 12 44.5t26 17.5z" />
    <glyph glyph-name="ydieresis.begin" unicode="&#xe03e;" horiz-adv-x="516" 
d="M237 344h67q-30 -44 -89.5 -124t-85.5 -121t-26 -62q0 -29 28 -29q55 0 144.5 97t177.5 239h62q-44 -61 -117.5 -179l-99.5 -157q92 16 179 82t156 167l7 -3q-71 -109 -162.5 -176t-186.5 -82q-92 -127 -135 -173q-125 -131 -271 -131q-67 0 -114.5 32.5t-47.5 80.5
q0 50 33 75t85 25v-3q-70 -16 -70 -94q0 -48 34.5 -76t80.5 -28q34 0 69 13.5t64.5 33t63 53t56.5 61.5t54 71.5t48 70.5l44.5 71l37.5 60l-2 2l-41 -46t-46.5 -45t-62.5 -43t-62 -14q-60 0 -60 48q0 28 24 68q-50 -49 -97 -82.5t-68 -43.5t-27 -10q-3 0 -3 5q0 3 6 6
q126 61 228 183q19 24 125 178zM502 522q11 0 18 -11.5t7 -23.5q0 -15 -11 -26t-27 -11q-12 0 -19 10.5t-7 23.5q0 17 11 27.5t28 10.5zM358 522q11 0 18 -11.5t7 -23.5q0 -15 -11 -26t-27 -11q-12 0 -19 10.5t-7 23.5q0 17 11 27.5t28 10.5z" />
    <glyph glyph-name="z.begin" unicode="&#xe03f;" horiz-adv-x="461" 
d="M586 267l5 -4q-50 -95 -137.5 -183t-157.5 -88q-30 0 -76 24t-76 24q-21 0 -46 -23q-3 -3 -8.5 -8t-8 -7.5t-6.5 -5t-7 -2.5q-6 0 -6 7q0 6 55.5 48.5l158 120t177.5 140.5l-2 2q-30 -24 -75 -24q-14 0 -53 16t-58 16q-6 0 -12 -1.5t-11.5 -6l-9 -7.5t-9 -10.5l-8 -11
l-8.5 -12.5t-7 -11v-1q0 -7 -34 -48.5t-59 -68.5q-58 -61 -113.5 -103.5t-80.5 -54.5t-32 -12q-3 0 -3 5q0 3 6 6q142 69 274 239q9 12 17 21.5l12 14t5 6.5q3 4 10.5 15.5t10.5 15.5t9.5 13.5t10.5 13t10.5 10t12 9l13 6t15.5 4.5t17 1q34 0 74 -16t52 -16q23 0 39 7.5
t23 16.5t13.5 16.5t11.5 7.5q6 0 6 -8q0 -12 -162 -140.5t-228 -169.5l2 -2q43 18 74 18q34 0 74 -21t54 -21q51 0 123 73.5t129 169.5z" />
    <glyph glyph-name="zcaron.begin" unicode="&#xe040;" horiz-adv-x="461" 
d="M586 267l5 -4q-50 -95 -137.5 -183t-157.5 -88q-30 0 -76 24t-76 24q-21 0 -46 -23q-3 -3 -8.5 -8t-8 -7.5t-6.5 -5t-7 -2.5q-6 0 -6 7q0 6 55.5 48.5l158 120t177.5 140.5l-2 2q-30 -24 -75 -24q-14 0 -53 16t-58 16q-6 0 -12 -1.5t-11.5 -6l-9 -7.5t-9 -10.5l-8 -11
l-8.5 -12.5t-7 -11v-1q0 -7 -34 -48.5t-59 -68.5q-58 -61 -113.5 -103.5t-80.5 -54.5t-32 -12q-3 0 -3 5q0 3 6 6q142 69 274 239q9 12 17 21.5l12 14t5 6.5q3 4 10.5 15.5t10.5 15.5t9.5 13.5t10.5 13t10.5 10t12 9l13 6t15.5 4.5t17 1q34 0 74 -16t52 -16q23 0 39 7.5
t23 16.5t13.5 16.5t11.5 7.5q6 0 6 -8q0 -12 -162 -140.5t-228 -169.5l2 -2q43 18 74 18q34 0 74 -21t54 -21q51 0 123 73.5t129 169.5zM514 572l4 -7q-83 -78 -144 -159h-16q0 72 -56 163l8 5q47 -53 76 -109q81 77 128 107z" />
    </font>
</defs>
</svg>
