<?xml version="1.0" encoding="utf-8"?>
<!-- Generator: Adobe Illustrator 17.1.0, SVG Export Plug-In . SVG Version: 6.00 Build 0)  -->
<!DOCTYPE svg PUBLIC "-//W3C//DTD SVG 1.1//EN" "http://www.w3.org/Graphics/SVG/1.1/DTD/svg11.dtd">
<svg version="1.1" id="Calque_1" xmlns="http://www.w3.org/2000/svg" xmlns:xlink="http://www.w3.org/1999/xlink" x="0px" y="0px"
	 viewBox="0 0 711.2 331.3" enable-background="new 0 0 711.2 331.3" xml:space="preserve">
<g>
	<path fill="#B3991B" d="M653.7,20.9h0.4c2.8,0,5.1,1.4,7.1,4.1c1.6,2.3,2.5,4.9,2.5,7.7c0,0.8-0.1,1.6-0.2,2.4
		c0.2-0.2,0.5-0.3,0.9-0.3c0.3,0,0.6,0.1,1,0.2v0.2c0,2-1.1,3.5-3.2,4.6c0,4.2-2.5,6.2-7.5,6.2c1.3,0.4,2,1.3,2,2.8V49
		c-1.7,1-3.4,1.5-5.1,1.5c-1.2,0-2.5-0.3-3.6-0.9c0.4,0.7,0.6,1.4,0.6,2.1c0,1.3-0.8,2.4-2.5,3.3c-0.5-3.1-3.7-5-9.6-5.7
		c-5.9-0.7-10.3-2-13.3-4c0.2,0.5,0.3,0.9,0.3,1.4c0,1.4-1,2.3-3,2.7c-0.7-1.7-2.6-3.5-5.8-5.2c-3.2-1.7-7.2-2.7-11.9-2.9
		c-1.6-0.1-3-0.1-4.4-0.1c-2.8,0-5.1,0.2-7,0.4c-3,0-5-0.4-6-1.2c-0.8-0.6-1.4-0.9-1.9-0.9c-0.3,0-0.6,0.1-0.7,0.4
		c-0.1,0.2-0.1,0.3-0.1,0.5c0,0.5,0.5,0.9,1.4,1.3c1.2,0.5,4.4,0.9,9.4,1.1c5,0.2,7.7,2.5,8.1,6.7c-0.9,0.1-1.6,0.1-2.3,0.1
		c-1.9,0-3-0.4-3.1-1.1c-0.5,1.4-2.8,2.5-7.2,3.4c0.3-0.5,0.4-0.8,0.4-1.2c0-0.7-0.8-1.1-2.3-1.1c-0.4,0-0.9,0-1.4,0.1
		c-0.3,0-0.7,0.1-1.1,0.1c-3,0-6.1-1.2-9.4-3.5c-3.7-2.6-6.3-3.9-7.8-4h-0.5c-1.2,0-1.8,0.3-1.9,0.8v0.2c0,0.5,0.3,0.7,0.9,0.7
		c6.2,0.4,9.3,2.2,9.3,5.4c0,1.1-0.4,2.4-1.2,3.9c-0.2-1.3-0.7-1.9-1.2-1.9c-0.4,0-0.8,0.2-1.4,0.7c-0.7,0.7-1.6,1.1-3,1.1
		c-1.2,0-2.7-0.3-4.4-0.9c-1.5-0.5-3.5-0.7-5.9-0.7c-3.3,0-7.5,0.5-12.5,1.4c7-10.9,16.8-17.4,29.4-19.6c3.5-0.6,7.1-0.9,10.6-0.9
		c9.1,0,18.2,2,27.2,6.1c11.1,5,20,7.5,26.9,7.5c0.9,0,1.8-0.1,2.6-0.2c7.2-0.7,12-2.8,14.6-6.2c2-2.6,3-5.2,3-7.8
		c0-0.8-0.1-1.6-0.2-2.3c-0.8-3.3-2.7-5.1-5.7-5.2h-0.6c-2.6,0-4.4,1-5.2,2.9c-0.2,0.6-0.3,1.1-0.3,1.5c0,1.3,0.8,2.4,2.5,3.2
		c-0.3-0.7-0.5-1.3-0.5-1.9c0-0.6,0.2-1.1,0.5-1.5c0.5-0.7,1.1-1.1,2-1.1c0.2,0,0.4,0,0.7,0.1c1.2,0.3,1.8,1.1,1.8,2.3v0.1
		c0,1.2-0.5,2.1-1.5,2.7c-0.5,0.3-1.1,0.4-1.8,0.4c-0.7,0-1.4-0.1-2.2-0.4c-1.6-0.5-2.6-1.7-3-3.5c-0.1-0.4-0.2-0.8-0.2-1.3
		c0-1.3,0.4-2.7,1.4-4C648.7,22,650.8,21.1,653.7,20.9z"/>
	<path fill="#B3991B" d="M63.8,23.8c0.9,1.4,1.4,2.7,1.4,4c0,0.5-0.1,0.9-0.2,1.3c-0.4,1.8-1.4,2.9-3,3.5c-0.8,0.3-1.5,0.4-2.2,0.4
		c-0.7,0-1.3-0.1-1.8-0.4c-1-0.5-1.5-1.4-1.5-2.7v-0.1c0-1.3,0.7-2.1,1.9-2.3c0.2,0,0.5-0.1,0.7-0.1c0.8,0,1.5,0.4,2,1.1
		c0.3,0.5,0.5,1,0.5,1.5c0,0.6-0.2,1.2-0.5,1.9c1.6-0.8,2.5-1.9,2.5-3.2c0-0.5-0.1-1-0.3-1.5c-0.8-1.9-2.6-2.9-5.2-2.9h-0.6
		c-3,0.2-4.9,1.9-5.7,5.2c-0.2,0.8-0.2,1.6-0.2,2.3c0,2.6,1,5.2,3,7.8c2.6,3.4,7.5,5.5,14.6,6.2c0.9,0.1,1.7,0.2,2.6,0.2
		c6.9,0,15.8-2.5,26.9-7.5c9.1-4.1,18.1-6.1,27.2-6.1c3.5,0,7,0.3,10.6,0.9c12.6,2.2,22.4,8.7,29.4,19.6c-5-0.9-9.1-1.4-12.5-1.4
		c-2.4,0-4.4,0.2-5.9,0.7c-1.7,0.6-3.2,0.9-4.4,0.9c-1.3,0-2.3-0.4-3-1.1c-0.5-0.5-1-0.7-1.4-0.7c-0.6,0-1,0.6-1.2,1.9
		c-0.8-1.5-1.2-2.8-1.2-3.9c0-3.2,3.1-5,9.3-5.4c0.6,0,0.9-0.2,0.9-0.7V43c-0.1-0.5-0.7-0.8-1.9-0.8H144c-1.5,0.1-4.1,1.4-7.8,4
		c-3.3,2.3-6.4,3.5-9.4,3.5c-0.4,0-0.7,0-1-0.1c-0.5,0-0.9-0.1-1.4-0.1c-1.5,0-2.3,0.4-2.3,1.1c0,0.3,0.1,0.7,0.4,1.2
		c-4.3-0.9-6.7-2-7.2-3.4c-0.2,0.7-1.2,1.1-3.1,1.1c-0.7,0-1.4,0-2.3-0.1c0.4-4.2,3.1-6.5,8.2-6.7c5-0.2,8.2-0.6,9.4-1.1
		c0.9-0.4,1.4-0.8,1.4-1.3c0-0.2,0-0.3-0.1-0.5c-0.2-0.3-0.4-0.4-0.7-0.4c-0.4,0-1.1,0.3-1.9,0.9c-1,0.8-3,1.2-6,1.2
		c-1.9-0.3-4.3-0.4-7-0.4c-1.4,0-2.9,0-4.4,0.1c-4.7,0.2-8.7,1.2-11.9,2.9c-3.2,1.7-5.2,3.5-5.8,5.2c-2-0.4-3-1.3-3-2.7
		c0-0.4,0.1-0.9,0.2-1.4c-3,2-7.5,3.4-13.3,4C69,50,65.8,51.9,65.3,55c-1.7-0.9-2.5-2-2.5-3.3c0-0.7,0.2-1.4,0.6-2.1
		c-1.2,0.6-2.4,0.9-3.6,0.9c-1.7,0-3.4-0.5-5.1-1.5v-0.1c0-1.5,0.7-2.5,2-2.8c-5,0-7.5-2.1-7.5-6.2c-2.1-1.1-3.2-2.6-3.2-4.6V35
		c0.4-0.1,0.7-0.2,1-0.2c0.4,0,0.7,0.1,0.9,0.3c-0.1-0.8-0.2-1.6-0.2-2.4c0-2.8,0.8-5.4,2.5-7.7c2-2.8,4.3-4.1,7.1-4.1h0.4
		C60.4,21.1,62.5,22,63.8,23.8z"/>
</g>
<path fill="#B3991B" d="M275,266.6c1.4-0.7,3-1.1,4.5-1.1c4.5,0,9.5,3,15.1,9l0.8-3.9c0.9-0.3,1.7-0.4,2.6-0.4
	c4.7,0,9.4,3.8,14,11.5c5.4,9,9.8,13.9,13.4,14.9c-0.4,4.7-2.5,7.1-6.3,7.1c-5.5-0.5-16.2-4.1-32.1-10.6
	c-13.7-5.6-27.4-8.5-41.1-8.5c-2.2,0-4.5,0.1-6.7,0.2c-16,1.1-24.5,4.8-25.6,11c1-11.5,9.4-19.1,25.2-22.8v-2.4
	c0.8-3.2,3.8-4.8,8.9-4.8h0.4c5.2,0.1,10.7,2,16.3,5.7c5.6,3.7,10,6.3,13,7.8c0.1-1,0.2-2,0.2-2.9
	C277.5,272.4,276.7,269.2,275,266.6z M320.6,306.7c0,6.4-5.9,9.8-17.8,10.2c-0.9,0.1-1.6,0.1-2.4,0.1c-10.7,0-18.4-3.2-23.1-9.5
	l4.7-5.5c-0.7,0.1-1.4,0.2-2.2,0.2c-2.9,0-5.6-0.9-8.2-2.7c-1.8-1.2-4.2-1.8-7.2-1.8c-2.3,0-5,0.4-8,1.1c1.1-5,4.6-7.5,10.3-7.5
	c4.6,0,10.7,1.6,18.3,4.7C302.3,303.2,314.1,306.7,320.6,306.7z M355.2,246.9l0.4,0.2c0.1-0.1,0.3-0.1,0.4-0.2v0.4
	c6.8,3.7,10.5,8.3,11,13.8l3.1-3.1c2.8,2.3,4.2,5.3,4.2,8.9c0,0.9-0.1,1.7-0.2,2.6c-0.8,4.9-3.2,10-7.2,15.2c0.6,2.2,2,3.2,4.1,3.2
	c0.5,0,1-0.1,1.6-0.2c3-0.5,4.5-5.1,4.5-13.8c0-8.4,1.3-12.6,3.9-12.6h0.3c0.3,0.1,0.5,0.1,0.7,0.1c0.5,0,0.8-0.1,0.8-0.2
	c0-0.5-1.8-1.6-5.5-3.3c-5.6-2.6-8.9-6.9-9.9-12.9c0.9-0.1,1.8-0.1,2.8-0.1c15.2,0,23.5,5.9,25,17.7c0.3,2.4,0.4,4.7,0.4,6.9
	c0,8.9-2.5,15.5-7.5,19.8c-5.6,4.7-10.5,7.1-14.7,7.1c-0.5,0-1,0-1.6-0.1c-4.6-0.6-10-3-16.3-7.4c-6.3,4.3-11.7,6.8-16.2,7.4
	c-0.5,0.1-1.1,0.1-1.6,0.1c-4.3,0-9.2-2.4-14.7-7.1c-5-4.3-7.5-10.8-7.5-19.8c0-2.2,0.1-4.5,0.4-6.9c1.4-11.8,9.8-17.7,25-17.7
	c0.9,0,1.8,0,2.8,0.1c-1.1,6-4.3,10.3-9.8,12.9c-3.7,1.8-5.6,2.9-5.6,3.3c0,0.1,0.3,0.2,0.8,0.2c0.2,0,0.4,0,0.7-0.1h0.3
	c2.6,0,3.9,4.2,3.9,12.6c0,8.7,1.5,13.2,4.6,13.8c0.5,0.1,1,0.2,1.5,0.2c2.2,0,3.5-1.1,4.1-3.2c-4-5.2-6.4-10.3-7.2-15.2
	c-0.1-0.8-0.2-1.7-0.2-2.6c0-3.7,1.4-6.7,4.2-8.9l3.1,3.1C344.7,255.7,348.4,250.9,355.2,246.9z M355.2,294.3h0.8
	c4.1,4.9,11,7.4,20.9,7.4h0.4c-0.1,0.4-0.1,0.8-0.1,1.2c0,2.2,1.3,3.5,4,4.1c-4,2.8-6,6-6,9.6c0,0.8,0.1,1.6,0.3,2.5
	c-0.5-0.1-1.1-0.1-1.7-0.1c-6.6,0-12.7,4.1-18.2,12.3c-5.5-8.2-11.6-12.3-18.2-12.3c-0.6,0-1.1,0-1.7,0.1c0.2-0.8,0.3-1.7,0.3-2.5
	c0-3.6-2-6.8-6-9.6c2.7-0.6,4-2,4-4.1c0-0.4,0-0.8-0.1-1.2h0.4C344.2,301.7,351.2,299.3,355.2,294.3z M436.3,266.6
	c-1.7,2.6-2.6,5.8-2.6,9.6c0,0.9,0.1,1.9,0.2,2.9c3-1.4,7.3-4,13-7.8c5.6-3.7,11.1-5.6,16.4-5.7h0.3c5,0,8,1.6,8.9,4.8v2.4
	c15.7,3.7,24.1,11.3,25.2,22.8c-1-6.2-9.5-9.9-25.5-11c-2.3-0.1-4.6-0.2-6.8-0.2c-13.7,0-27.4,2.8-41,8.5
	c-15.9,6.6-26.6,10.1-32.2,10.6c-3.8,0-5.9-2.4-6.3-7.1c3.5-0.9,8-5.9,13.4-14.9c4.6-7.7,9.2-11.5,14-11.5c0.9,0,1.7,0.1,2.6,0.4
	l0.8,3.9c5.6-6,10.7-9,15.1-9C433.3,265.5,434.8,265.9,436.3,266.6z M426,296.1c7.6-3.1,13.7-4.7,18.3-4.7c5.8,0,9.2,2.5,10.3,7.5
	c-3-0.7-5.7-1.1-8-1.1c-3,0-5.3,0.6-7.1,1.8c-2.6,1.8-5.4,2.7-8.3,2.7c-0.7,0-1.4-0.1-2.2-0.2l4.7,5.5c-4.7,6.4-12.4,9.5-23.1,9.5
	c-0.7,0-1.5,0-2.3-0.1c-11.9-0.5-17.9-3.9-17.9-10.2C397.1,306.7,408.9,303.2,426,296.1z"/>
<g>
	<path fill="#FFFFFF" d="M70.6,155.1c-0.8,0.6-1.4,1.2-1.9,1.7c-0.5,0.5-0.9,1.1-1.1,1.8c-0.3,0.7-0.4,1.5-0.5,2.5
		c-0.1,1-0.1,2.2-0.1,3.7v39.7c-1.1-2.1-2.1-3.5-3-4.2c-0.8-0.7-1.9-1.1-3.3-1.1c-1.2,0-2.7,0.2-4.5,0.7l-6.9,1.8
		c-2,0.5-4.1,0.9-6.2,1.2c-2.1,0.3-4.3,0.5-6.6,0.5c-12.3,0-21.5-3.6-27.4-10.8c-6-7.2-9-18.3-9-33.2c0-15.3,3-26.9,9-34.8
		c6-7.9,14.8-11.9,26.5-11.9c4.9,0,9.6,0.7,14,2.2l5.2,1.7c0.8,0.3,1.7,0.5,2.7,0.5c1.2,0,2.2-0.3,2.9-0.9c0.7-0.6,1.7-1.7,2.8-3.5
		v27.4c-2.8-6.8-6.2-11.7-10.3-14.7c-4.1-3-9.5-4.5-16.1-4.5c-9.3,0-16,3-20.3,9.1c-4.3,6.1-6.4,15.6-6.4,28.6c0,12.8,2,22,6,27.8
		c4,5.8,10.4,8.7,19.2,8.7c3.6,0,6.9-0.4,10.1-1.3c3.1-0.9,5.8-2.1,7.9-3.8c1.6-1.2,2.7-2.6,3.3-4.1c0.6-1.5,0.9-3.8,0.9-6.9v-8.5
		c0-2.4-0.1-4.3-0.4-6c-0.3-1.6-0.7-3-1.3-4.2c-0.6-1.2-1.5-2.2-2.6-2.9c-1.1-0.8-2.5-1.6-4.2-2.4H70.6z"/>
	<path fill="#FFFFFF" d="M175,204.4c-0.7-1-1.5-1.6-2.3-2c-0.8-0.4-2-0.6-3.5-0.6h-56.8c1.4-1.3,2.5-2.5,3.3-3.6
		c0.8-1.1,1.4-2.4,1.8-3.9c0.4-1.5,0.7-3.3,0.8-5.6c0.1-2.2,0.2-5.2,0.2-8.8v-43.6c0-3.7-0.1-6.6-0.2-8.8c-0.1-2.2-0.4-4.1-0.8-5.6
		c-0.4-1.5-1-2.8-1.8-3.9c-0.8-1.1-1.9-2.3-3.3-3.6h53.2c2.2,0,3.7-0.1,4.4-0.5c0.7-0.3,1.5-1.2,2.3-2.7v26.3
		c-1.1-2.8-2.1-4.8-2.8-6.1c-0.7-1.3-1.5-2.5-2.5-3.6c-1.7-1.8-3.7-3.1-6-3.9c-2.3-0.8-5.4-1.2-9.1-1.2h-15.8
		c-1.8,0-3.1,0.1-4.2,0.3c-1.1,0.2-1.9,0.5-2.5,1c-0.6,0.5-1,1.3-1.2,2.2c-0.2,1-0.3,2.2-0.3,3.8v21.3c1.5,0.2,2.8,0.3,4,0.4
		c1.2,0.1,2.3,0.2,3.4,0.2c1.1,0,2.2,0.1,3.3,0.1c1.1,0,2.4,0.1,3.8,0.1c2.8,0,5.1-0.1,7-0.4c1.9-0.3,3.5-0.7,4.8-1.4
		c1.4-0.6,2.5-1.5,3.5-2.7c1-1.2,1.9-2.6,2.8-4.5v25.9c-1-1.8-1.9-3.3-2.8-4.5c-0.9-1.2-2-2.1-3.3-2.8c-1.3-0.7-2.7-1.1-4.5-1.4
		c-1.7-0.3-3.8-0.4-6.2-0.4h-1.6l-11,0.4l-3.3,0.1v24.5c0,1.7,0.1,3.2,0.3,4.3c0.2,1.1,0.5,1.9,1,2.6c0.5,0.6,1.3,1,2.2,1.2
		c1,0.2,2.2,0.3,3.8,0.3H154c7.5,0,12.7-1.9,15.7-5.6c0.5-0.7,1-1.4,1.4-2c0.4-0.6,0.8-1.3,1.2-2c0.3-0.7,0.7-1.7,1.2-2.8
		c0.4-1.1,0.9-2.4,1.4-4V204.4z"/>
	<path fill="#FFFFFF" d="M284.6,158.1c0,8-0.6,14.7-1.8,20c-1.2,5.3-3.1,9.8-5.8,13.6c-5.7,7.9-14.5,11.8-26.3,11.8
		c-6.2,0-11.5-0.9-15.9-2.6c-4.4-1.7-8-4.5-10.9-8.1c-2.8-3.7-4.9-8.4-6.3-14.1c-1.4-5.7-2-12.6-2-20.5c0-4,0.2-7.7,0.5-11
		c0.3-3.3,0.8-6.3,1.4-9c0.6-2.7,1.4-5.2,2.4-7.4c1-2.2,2.1-4.3,3.5-6.2c5.6-7.9,14.3-11.8,26.2-11.8c6.1,0,11.4,0.9,15.8,2.6
		c4.5,1.7,8.1,4.5,10.9,8.2c2.8,3.7,4.9,8.4,6.3,14.1C283.9,143.4,284.6,150.2,284.6,158.1z M274.7,158.1c0-5.8-0.4-10.7-1.1-14.8
		c-0.7-4.1-1.9-7.7-3.5-10.9c-1.8-3.7-4.5-6.5-8-8.5c-3.5-2-7.5-3-11.9-3c-4.5,0-8.4,1-12,3c-3.5,2-6.2,4.8-7.9,8.5
		c-1.6,3.1-2.7,6.8-3.5,10.9c-0.7,4.1-1.1,9-1.1,14.8s0.4,10.7,1.1,14.8c0.7,4.1,1.9,7.7,3.5,10.9c1.7,3.7,4.4,6.5,7.9,8.4
		c3.5,2,7.5,3,12,3c4.5,0,8.4-1,12-3c3.5-2,6.2-4.8,7.9-8.4c1.7-3.2,2.8-6.9,3.5-10.9C274.3,168.8,274.7,163.9,274.7,158.1z"/>
	<path fill="#FFFFFF" d="M387.6,201.8c-2.3,0-3.8-0.5-4.7-1.6c-0.9-1.1-1.5-3.2-1.8-6.2c-0.4-4.5-0.9-8.3-1.4-11.4
		c-0.5-3.1-1-5.6-1.6-7.7c-0.6-2-1.3-3.7-2.1-5c-0.8-1.3-1.8-2.4-2.9-3.3c-1.8-1.5-4-2.6-6.4-3.2c-2.4-0.7-5.7-1-9.8-1h-1.7
		l-10.9,0.3h-2.5v17.3c0,3.7,0.1,6.6,0.2,8.8c0.1,2.2,0.4,4.1,0.8,5.6c0.4,1.5,1.1,2.8,1.8,3.9c0.8,1.1,1.9,2.3,3.3,3.6h-21.7
		c1.4-1.3,2.5-2.5,3.3-3.6c0.8-1.1,1.4-2.4,1.8-3.9c0.4-1.5,0.7-3.3,0.8-5.6c0.1-2.2,0.2-5.2,0.2-8.8v-44.4c0-3.5-0.1-6.3-0.2-8.5
		c-0.1-2.2-0.4-4-0.9-5.4c-0.5-1.4-1.2-2.7-2.2-3.7c-1-1-2.2-2.1-3.8-3.3c1.9,0.2,3.6,0.3,5,0.3c1.4,0,2.6,0.1,3.7,0.2
		c1.1,0.1,2,0.1,3,0.1c0.9,0,1.9,0,2.8,0c0.6,0,1.2,0,1.9,0c0.7,0,1.4,0,2.3-0.1c0.9,0,1.9-0.1,3.2-0.2c1.3-0.1,2.9-0.2,4.9-0.3
		c4.8-0.3,9-0.4,12.6-0.4c5,0,9,0.4,12.1,1.2c3.1,0.8,5.9,2.3,8.3,4.3c5.1,4.1,7.6,10,7.6,17.7c0,5.4-1.3,9.9-3.8,13.4
		c-2.5,3.5-6.6,6.3-12.2,8.5c2.4,1,4.3,1.9,5.4,2.9c1.2,1,2.2,2.3,3.2,3.9c1.2,2.2,2.2,4.7,2.9,7.7c0.7,2.9,1.3,6.8,1.7,11.7
		c0.3,2.4,0.5,4.4,0.8,6c0.3,1.7,0.7,3.1,1.2,4.3c0.5,1.2,1.2,2.2,2.2,3.1c0.9,0.9,2.1,1.9,3.5,2.8H387.6z M382.9,137.2
		c0-4.1-1.2-7.4-3.5-9.8c-2.3-2.4-5.7-3.9-10.1-4.4c-1.5-0.2-3-0.3-4.5-0.4c-1.5-0.1-3.2-0.1-5.2-0.1c-4.1,0-7.3,0.1-9.7,0.2
		c-2.4,0.1-4.1,0.5-5.4,1.1c-1.2,0.6-2,1.5-2.3,2.6c-0.3,1.1-0.5,2.7-0.5,4.7v23.2h11.1c3,0,5.5,0,7.7-0.1c2.2-0.1,4.1-0.3,5.8-0.5
		c1.7-0.3,3.2-0.6,4.6-1c1.4-0.4,2.6-1,3.9-1.7c2.5-1.2,4.5-3.1,5.9-5.5C382.2,143,382.9,140.3,382.9,137.2z"/>
	<path fill="#FFFFFF" d="M505.8,155.1c-0.8,0.6-1.4,1.2-1.9,1.7c-0.5,0.5-0.8,1.1-1.1,1.8c-0.3,0.7-0.4,1.5-0.5,2.5
		c-0.1,1-0.1,2.2-0.1,3.7v39.7c-1.1-2.1-2.1-3.5-2.9-4.2c-0.8-0.7-1.9-1.1-3.3-1.1c-1.2,0-2.7,0.2-4.5,0.7l-6.9,1.8
		c-2,0.5-4.1,0.9-6.2,1.2c-2.1,0.3-4.3,0.5-6.6,0.5c-12.3,0-21.5-3.6-27.4-10.8c-6-7.2-9-18.3-9-33.2c0-15.3,3-26.9,9-34.8
		c6-7.9,14.8-11.9,26.5-11.9c4.9,0,9.6,0.7,14,2.2l5.2,1.7c0.8,0.3,1.7,0.5,2.8,0.5c1.2,0,2.2-0.3,2.9-0.9c0.7-0.6,1.7-1.7,2.8-3.5
		v27.4c-2.8-6.8-6.2-11.7-10.3-14.7c-4.1-3-9.5-4.5-16.1-4.5c-9.3,0-16,3-20.3,9.1c-4.3,6.1-6.4,15.6-6.4,28.6c0,12.8,2,22,6,27.8
		c4,5.8,10.4,8.7,19.2,8.7c3.6,0,6.9-0.4,10.1-1.3c3.1-0.9,5.8-2.1,7.9-3.8c1.6-1.2,2.7-2.6,3.3-4.1c0.6-1.5,0.9-3.8,0.9-6.9v-8.5
		c0-2.4-0.1-4.3-0.4-6c-0.3-1.6-0.7-3-1.3-4.2c-0.6-1.2-1.5-2.2-2.6-2.9c-1.1-0.8-2.5-1.6-4.2-2.4H505.8z"/>
	<path fill="#FFFFFF" d="M610.2,204.4c-0.7-1-1.5-1.6-2.3-2c-0.8-0.4-2-0.6-3.5-0.6h-56.8c1.4-1.3,2.5-2.5,3.3-3.6
		c0.8-1.1,1.4-2.4,1.8-3.9c0.4-1.5,0.7-3.3,0.8-5.6c0.1-2.2,0.2-5.2,0.2-8.8v-43.6c0-3.7-0.1-6.6-0.2-8.8c-0.1-2.2-0.4-4.1-0.8-5.6
		c-0.4-1.5-1-2.8-1.8-3.9c-0.8-1.1-1.9-2.3-3.3-3.6h53.2c2.2,0,3.6-0.1,4.4-0.5c0.7-0.3,1.5-1.2,2.3-2.7v26.3
		c-1.1-2.8-2.1-4.8-2.7-6.1c-0.7-1.3-1.5-2.5-2.5-3.6c-1.7-1.8-3.6-3.1-6-3.9c-2.3-0.8-5.3-1.2-9.1-1.2h-15.9
		c-1.7,0-3.1,0.1-4.2,0.3c-1.1,0.2-1.9,0.5-2.5,1c-0.6,0.5-1,1.3-1.2,2.2c-0.2,1-0.3,2.2-0.3,3.8v21.3c1.5,0.2,2.8,0.3,4,0.4
		c1.2,0.1,2.3,0.2,3.4,0.2c1.1,0,2.2,0.1,3.3,0.1c1.1,0,2.4,0.1,3.8,0.1c2.8,0,5.1-0.1,7-0.4c1.9-0.3,3.5-0.7,4.9-1.4
		c1.4-0.6,2.5-1.5,3.5-2.7c1-1.2,1.9-2.6,2.7-4.5v25.9c-1-1.8-1.9-3.3-2.8-4.5c-0.9-1.2-2-2.1-3.3-2.8c-1.3-0.7-2.8-1.1-4.5-1.4
		c-1.7-0.3-3.8-0.4-6.2-0.4h-1.6l-11,0.4l-3.3,0.1v24.5c0,1.7,0.1,3.2,0.3,4.3c0.2,1.1,0.5,1.9,1.1,2.6c0.5,0.6,1.3,1,2.2,1.2
		c1,0.2,2.2,0.3,3.8,0.3h18.7c7.5,0,12.7-1.9,15.7-5.6c0.5-0.7,1-1.4,1.4-2c0.4-0.6,0.8-1.3,1.2-2c0.3-0.7,0.7-1.7,1.2-2.8
		c0.4-1.1,0.9-2.4,1.4-4V204.4z"/>
	<path fill="#FFFFFF" d="M711.2,176.2c0,8.5-2.6,15.1-7.7,20c-5.2,4.8-12.2,7.3-21.1,7.3c-1.6,0-3,0-4.3-0.1
		c-1.3-0.1-2.6-0.2-3.9-0.5c-1.4-0.2-2.9-0.5-4.6-0.9c-1.7-0.4-3.8-0.9-6.3-1.6c-1.7-0.4-3.1-0.7-4.1-0.7c-1.3,0-2.4,0.4-3.3,1.1
		c-0.9,0.7-1.9,2-2.8,3.9v-28.3c1,1.8,1.8,3.4,2.6,4.6c0.7,1.3,1.5,2.4,2.2,3.3c0.7,1,1.4,1.8,2.2,2.6c0.7,0.7,1.6,1.5,2.6,2.3
		c4.8,4,10.7,6,17.8,6c6.8,0,12.1-1.6,15.8-4.7c3.7-3.1,5.6-7.5,5.6-13.3c0-6.1-2.4-10.5-7.3-13.1c-0.9-0.4-1.7-0.8-2.4-1.2
		c-0.7-0.4-1.6-0.7-2.7-1.1c-1.1-0.4-2.5-0.9-4.3-1.4c-1.7-0.6-4.1-1.3-7.1-2.3c-2.7-0.9-5-1.6-6.8-2.2c-1.8-0.6-3.4-1.2-4.6-1.7
		c-1.3-0.5-2.4-1.1-3.3-1.6c-0.9-0.6-1.9-1.2-2.8-2c-4.3-3.3-6.4-8.2-6.4-14.7c0-3.5,0.6-6.7,1.9-9.6c1.3-2.9,3.1-5.3,5.4-7.3
		c2.3-2,5.1-3.6,8.4-4.7c3.3-1.1,7-1.6,11.1-1.6c1.4,0,2.7,0,4,0.1c1.3,0.1,2.6,0.2,3.9,0.5c1.3,0.2,2.7,0.5,4.3,0.8
		c1.5,0.4,3.3,0.8,5.3,1.3c1.5,0.4,2.6,0.7,3.4,0.7c1.1,0,2.1-0.3,2.9-1c0.8-0.7,1.7-1.8,2.6-3.3v27.4c-2.8-6.3-6.3-10.9-10.4-13.8
		c-4.1-2.9-9.4-4.4-15.7-4.4c-5.5,0-9.8,1.2-12.9,3.5c-3.1,2.3-4.7,5.5-4.7,9.5c0,1.8,0.4,3.5,1.1,5c0.7,1.5,1.8,2.8,3.1,3.7
		c1.4,1.1,3.2,2.1,5.5,3c2.3,1,5.8,2.1,10.5,3.5c3.1,1,5.6,1.8,7.5,2.4c1.9,0.7,3.4,1.2,4.6,1.7c1.2,0.5,2.3,1,3.2,1.5
		c0.9,0.5,1.9,1.1,2.9,1.8c3.2,2.2,5.6,4.8,7.1,8C710.5,167.8,711.2,171.6,711.2,176.2z"/>
</g>
<g>
	<path fill="#B3991B" d="M235.7,89c-1.7,0-3.3-0.7-4.6-2c-1-0.8-1.7-1.9-2.1-3.3c-0.5-1.4-0.7-3-0.7-4.8c0-1.3,0.2-2.9,0.7-4.6
		c0.5-1.7,1.2-3.5,2.1-5.5c-0.8-1.3-1.4-2.7-1.8-4.4c-0.4-1.7-0.6-3.4-0.6-5.2c0-6.3,2.4-12.9,7.1-19.7c4.7-6.8,10.4-13,17-18.6
		c-0.2-0.6-0.4-1.3-0.5-2c-0.1-0.7-0.2-1.3-0.2-2c0-3.6,1.4-6.8,4.3-9.6c2.9-2.8,5.7-4.5,8.5-5.1c0,0.3-0.1,0.6-0.2,0.8
		c-0.1,0.2-0.2,0.3-0.3,0.4c-0.4,0.4-1.1,0.9-2.1,1.4c-1,0.6-2.2,1.5-3.5,2.9c-1.4,1.4-2.6,3-3.4,4.6c-0.8,1.7-1.3,3.3-1.3,4.9
		c0,0.3,0,0.7,0.1,1.1c0,0.4,0.1,0.8,0.2,1.1c7-5.7,14.2-10.4,21.6-14.1c7.4-3.7,13.5-5.5,18.2-5.5c2.2,0,4,0.6,5.3,1.7
		c1.3,1.2,2,2.8,2,4.8c0,5.8-3.4,11.1-10.2,16c-6.8,4.9-13.9,7.3-21.1,7.3c-3,0-5.6-0.3-7.8-1c-2.2-0.7-4.1-1.6-5.6-2.7
		c-6.7,5.6-12.5,11.6-17.4,17.9c-5,6.3-7.4,12.2-7.4,17.5c0,0.9,0.1,1.7,0.2,2.5c0.1,0.8,0.3,1.5,0.4,2.1c1.1-2,2.5-4.1,4.2-6.2
		c1.7-2.2,3.5-4.3,5.6-6.4c2.5-2.5,5.9-5.1,10.5-8c4.5-2.9,8.8-4.3,12.9-4.3c2.9,0,5.1,0.8,6.5,2.3c1.4,1.5,2.1,3.6,2.1,6.4
		c0,5.5-3.3,11.1-9.8,16.9c-6.5,5.8-13.6,8.7-21.2,8.7c-1.5,0-3-0.2-4.3-0.6c-1.4-0.4-2.6-0.9-3.6-1.5c-0.4,1.3-0.7,2.5-0.9,3.6
		c-0.2,1-0.3,1.7-0.3,2.1c0,2,0.2,3.7,0.7,5.1c0.4,1.4,0.9,2.4,1.5,2.9c0.4,0.4,0.8,0.6,1.2,0.7c0.4,0.1,1.1,0,2-0.4
		c0.1,0.1,0.1,0.2,0.1,0.4c0,0.2-0.1,0.3-0.3,0.5C238.6,88.8,237.5,89.1,235.7,89z M261.8,64.5c6.5-5.5,9.8-10.7,9.8-15.5
		c0-1.4-0.3-2.8-0.9-4.2c-0.6-1.4-2-2.1-4.2-2.1c-3.2,0-6.5,1.1-9.9,3.4c-3.4,2.3-6.8,5.1-10,8.3c-2.8,2.8-5,5.6-6.7,8.6
		c-1.7,3-3,5.7-3.9,8.1c0.8,0.5,1.7,1,2.7,1.2c1,0.2,2,0.4,3,0.4C248.6,72.7,255.3,70,261.8,64.5z M289.5,20.9
		c6.8-4.8,10.2-9.6,10.2-14.3c0-1.2-0.3-2.2-0.8-3.1c-0.6-0.9-1.5-1.4-2.7-1.4c-2.5,0-7.5,2.2-15,6.7c-7.6,4.4-15.2,9.9-22.9,16.3
		c1.3,0.9,2.9,1.7,4.9,2.3c2,0.6,4.4,0.8,7.1,0.8C276.3,28,282.7,25.6,289.5,20.9z"/>
	<path fill="#B3991B" d="M296.8,70.8c-0.5-0.2-0.9-0.5-1.3-0.9c-0.6-0.6-1.1-1.4-1.4-2.2c-0.3-0.8-0.4-1.7-0.4-2.6
		c0-3.7,3-8.3,9-13.8c6-5.5,8.7-9.2,8.1-11.1c-0.6-0.2-1.1-0.2-1.3-0.2c-1.4,0-3.8,1.2-7.3,3.6c-3.4,2.4-7.6,6.1-12.5,11.2
		c-2.1,2.2-4.4,4.8-6.9,7.6c-2.5,2.9-5,5.8-7.4,8.9c-0.8,0-1.6-0.5-2.4-1.4c-0.8-0.9-1.2-1.9-1.2-2.9c0-1,2.7-5.2,8.1-12.7
		c5.4-7.5,15-20.1,28.9-37.7c4.2-5.2,7-9.1,8.4-11.8c1.4-2.6,2.1-4.2,2.1-4.8c1.3,0.5,2.2,1.2,2.7,2.1c0.5,0.9,0.8,1.7,0.8,2.4
		c0,1-0.8,2.8-2.3,5.2c-1.5,2.5-2.7,4.2-3.6,5.3c-6,7.6-12,15.2-17.9,22.8c-5.9,7.6-10.3,13.5-13.1,17.8l0.1,0.5
		c0.5-0.6,0.9-1.1,1.4-1.5c0.5-0.5,1-1,1.4-1.4c4.4-4.5,8.4-8.1,12-10.7c3.6-2.6,6.5-3.9,8.4-3.9c1,0,2,0.4,2.9,1.2
		c0.9,0.8,1.4,2,1.4,3.5c0,3.8-2.6,8.5-8,14.1c-5.3,5.6-7.9,9.5-7.8,11.8c2.9,0,6.8-2.2,11.8-6.5c5-4.4,8.6-7.9,10.8-10.7
		c0.1,0.1,0.2,0.2,0.2,0.3c0.1,0.1,0.1,0.2,0.1,0.3c0,1.2-3,4.6-9.1,10.2c-6.1,5.6-10.6,8.4-13.6,8.4
		C297.7,71,297.3,70.9,296.8,70.8z"/>
	<path fill="#B3991B" d="M335.1,70.8c-0.5-0.2-0.9-0.5-1.3-0.9c-0.6-0.5-1-1.2-1.2-2c-0.2-0.8-0.4-1.6-0.4-2.6
		c0-0.5,0.1-1.1,0.3-1.8c0.2-0.6,0.5-1.3,0.8-2c-2.7,2.5-5.5,4.7-8.3,6.6c-2.8,1.9-4.9,2.9-6.2,2.9c-1.5,0-2.7-0.6-3.6-1.8
		c-0.9-1.2-1.3-3-1.3-5.3c0-4.4,3.2-9.8,9.6-16.2c6.4-6.4,12.1-9.7,17-9.8c2.1,0.8,3.4,1.6,4.1,2.4c0.7,0.8,1,1.6,1,2.4
		c0,0.2,0,0.5,0,0.8c0,0.3,0,0.6-0.1,0.9c0.8-1,1.4-2,1.9-2.9c0.5-0.9,0.8-1.5,0.8-2c1.3,0.6,2.1,1.2,2.4,2.1
		c0.2,0.8,0.4,1.6,0.4,2.4c0,1.9-2.5,5.8-7.5,11.8c-5,5.9-7.4,10.4-7.4,13.3c2.9,0,6.8-2.2,11.8-6.5c5-4.4,8.6-7.9,10.8-10.7
		c0.1,0.1,0.2,0.2,0.2,0.3c0.1,0.1,0.1,0.2,0.1,0.3c0,1.2-3,4.6-9.1,10.2c-6.1,5.6-10.6,8.4-13.6,8.4C336,71,335.5,70.9,335.1,70.8z
		 M343.7,41.6c-0.1-0.2-0.2-0.5-0.4-0.8c-3.6,0.4-8.8,4-15.5,10.9c-6.7,6.9-10.2,12.4-10.5,16.5c0.1,0.3,0.3,0.5,0.5,0.6
		c0.3,0.1,0.6,0.2,0.9,0.2c1.1,0,3.1-1,6.1-3c2.9-2,5.7-4.3,8.3-6.9c0.9-0.9,1.8-1.9,2.9-3.2c1.1-1.3,2.2-2.6,3.3-3.9
		c1.1-1.3,2.1-2.9,3.1-4.5c0.9-1.7,1.4-3.2,1.4-4.7C343.8,42.2,343.8,41.8,343.7,41.6z M358,31.5c-1-1.8-1.5-4.6-1.5-8.2v-0.6
		c-2.3,1.7-5.5,3.7-9.6,5.9c-4.1,2.2-8.1,4.1-12.2,5.6c-0.1-0.1-0.2-0.2-0.2-0.4c-0.1-0.2-0.1-0.3-0.1-0.4c0-0.3,2.7-2,8.3-5.1
		c5.5-3.1,10.9-7.3,16.1-12.7c1,0.5,1.6,1.1,1.9,2c0.3,0.8,0.5,1.5,0.5,2.1c0,1-0.2,2-0.5,2.9c-0.3,0.9-0.5,2.1-0.5,3.7
		c0,2.6,0.1,4.4,0.2,5.4c0.2,1,0.2,1.7,0.2,2.2c0,0.1,0,0.2-0.1,0.2c-0.1,0.1-0.2,0.1-0.2,0.1C359.8,34.2,359,33.3,358,31.5z"/>
	<path fill="#B3991B" d="M354.8,70.8c-0.5-0.2-0.9-0.5-1.4-1c-0.6-0.6-1-1.2-1.3-2c-0.3-0.8-0.5-1.6-0.5-2.4c0-2.4,0.9-4.9,2.7-7.6
		c1.8-2.7,4.4-6.1,7.6-10.2c0.9-1.1,1.8-2.3,2.7-3.4c1-1.2,1.9-2.4,3-3.6h-2.3c-1,0-1.7-0.2-2-0.5c-0.3-0.4-0.5-0.9-0.5-1.7h6.5
		c4.9-6.1,9.4-11.9,13.5-17.5c4.1-5.6,6.2-9.2,6.2-11c1.3,0.5,2.2,1.2,2.7,2.1c0.5,0.9,0.8,1.7,0.8,2.4c0,1.5-1.6,4.5-4.9,8.9
		c-3.3,4.4-7.1,9.5-11.5,15.2h5.3c0.8,0,1.3,0.2,1.4,0.5c0.2,0.3,0.2,0.7,0.2,1.1c-1.4,0.1-2.9,0.1-4.3,0.2c-1.4,0-2.9,0.1-4.4,0.2
		c-1.4,1.7-2.7,3.6-4.2,5.4c-1.4,1.9-2.8,3.7-4.2,5.5c-3.6,4.9-6.3,8.7-8,11.5c-1.7,2.7-2.5,4.9-2.4,6.4c3.8,0,8.3-2.2,13.4-6.5
		c5.1-4.4,8.8-7.9,11-10.7c0.1,0.1,0.2,0.2,0.2,0.3c0.1,0.1,0.1,0.2,0.1,0.3c0,1.2-3.1,4.6-9.4,10.2c-6.3,5.6-11.2,8.4-14.9,8.4
		C355.8,71,355.3,70.9,354.8,70.8z"/>
	<path fill="#B3991B" d="M390.2,67.5c-4.4,2.3-7.8,3.5-10.1,3.5c-2,0-3.5-0.5-4.5-1.5c-1-1-1.5-2.9-1.5-5.5c0-4.9,2.9-10.5,8.8-16.8
		c5.9-6.3,11.3-9.5,16.3-9.6c1.7,0.6,2.9,1.2,3.6,1.8c0.8,0.6,1.1,1.6,1.1,2.8c0,1-0.4,2.1-1.3,3.3c-0.9,1.2-1.8,2.2-2.9,3.3
		c-1.9,1.9-4.2,3.5-6.9,4.8c-2.7,1.3-5,2-7,2c-0.4,0-0.8,0-1.1,0c-0.3,0-0.6,0-0.8-0.1c-1.7,2.3-3.2,4.6-4.4,6.8
		c-1.2,2.3-1.8,4.3-1.9,6c0.1,0.2,0.3,0.3,0.7,0.5c0.4,0.2,0.9,0.2,1.6,0.2c2.7,0,6.3-1.2,10.7-3.6c4.4-2.4,8.4-5.3,11.8-8.7
		c1-0.9,1.8-1.8,2.6-2.7c0.8-0.8,1.4-1.6,2-2.3c0.1,0.1,0.2,0.2,0.2,0.3c0.1,0.1,0.1,0.2,0.1,0.3c0,0.4-0.5,1.2-1.5,2.4
		c-1,1.2-2.3,2.6-3.9,4.2C398.5,62.4,394.6,65.2,390.2,67.5z M385.9,54.2c1.5,0,3.5-0.6,6-1.8c2.5-1.2,4.6-2.7,6.2-4.3
		c1.2-1.2,2.1-2.3,2.9-3.3c0.7-1,1.1-1.8,1.1-2.4c0-0.5,0-1-0.1-1.2c-0.1-0.3-0.2-0.5-0.2-0.5c-2,0.2-4.6,1.6-7.8,4.3
		c-3.2,2.7-6.2,5.8-8.9,9.3H385.9z"/>
	<path fill="#B3991B" d="M421.4,70.8c-0.5-0.2-0.9-0.5-1.3-0.9c-0.5-0.5-1-1.2-1.2-2c-0.2-0.8-0.4-1.6-0.4-2.6
		c0-0.5,0.1-1.1,0.3-1.8c0.2-0.6,0.5-1.3,0.8-2c-2.7,2.5-5.5,4.7-8.3,6.6c-2.8,1.9-4.9,2.9-6.2,2.9c-1.5,0-2.7-0.6-3.6-1.8
		c-0.9-1.2-1.3-3-1.3-5.3c0-4.4,3.2-9.8,9.6-16.2c6.4-6.4,12.1-9.7,17-9.8c2.1,0.8,3.4,1.6,4.1,2.4c0.7,0.8,1,1.6,1,2.4
		c0,0.2,0,0.5,0,0.8c0,0.3,0,0.6-0.1,0.9c0.8-1,1.4-2,1.9-2.9c0.5-0.9,0.8-1.5,0.8-2c1.3,0.6,2.1,1.2,2.4,2.1
		c0.2,0.8,0.4,1.6,0.4,2.4c0,1.9-2.5,5.8-7.5,11.8c-5,5.9-7.4,10.4-7.4,13.3c2.8,0,6.8-2.2,11.8-6.5c5-4.4,8.6-7.9,10.8-10.7
		c0.1,0.1,0.2,0.2,0.2,0.3c0.1,0.1,0.1,0.2,0.1,0.3c0,1.2-3,4.6-9.1,10.2c-6.1,5.6-10.6,8.4-13.6,8.4
		C422.3,71,421.9,70.9,421.4,70.8z M430.1,41.6c-0.1-0.2-0.2-0.5-0.4-0.8c-3.6,0.4-8.8,4-15.5,10.9c-6.7,6.9-10.2,12.4-10.5,16.5
		c0.1,0.3,0.3,0.5,0.5,0.6c0.3,0.1,0.6,0.2,0.9,0.2c1.1,0,3.1-1,6.1-3c2.9-2,5.7-4.3,8.3-6.9c0.9-0.9,1.8-1.9,2.9-3.2
		c1.1-1.3,2.2-2.6,3.3-3.9c1.1-1.3,2.1-2.9,3.1-4.5c1-1.7,1.4-3.2,1.4-4.7C430.2,42.2,430.2,41.8,430.1,41.6z"/>
	<path fill="#B3991B" d="M459,70.8c-0.5-0.2-0.9-0.5-1.3-0.9c-0.6-0.6-1.1-1.4-1.4-2.2c-0.3-0.8-0.4-1.7-0.4-2.6
		c0-0.8,0.1-1.6,0.4-2.5c0.2-0.9,0.5-1.7,0.8-2.5c-2.5,2.5-5.1,5-8,7.4c-2.9,2.4-5.2,3.6-6.8,3.6c-0.4,0-0.8-0.1-1.3-0.3
		c-0.5-0.2-0.9-0.5-1.3-0.9c-0.6-0.6-1.1-1.4-1.4-2.2c-0.3-0.8-0.4-1.7-0.4-2.6c0-3.5,1.6-7.2,4.9-11.1c3.3-3.9,7.1-9,11.5-15.3
		c1.3,0.6,2.1,1.3,2.4,2.1c0.2,0.8,0.4,1.6,0.4,2.4c0,2.2-2.4,6.2-7.2,11.9c-4.8,5.7-7.4,10.4-7.7,14c2.4,0,5.8-2,9.9-6
		c4.2-4,7.4-7.5,9.8-10.4c1.5-1.9,3.1-4,4.9-6.3c1.8-2.3,3.7-4.9,5.6-7.7c1.3,0.6,2.1,1.3,2.4,2.1c0.2,0.8,0.4,1.6,0.4,2.4
		c0,2.2-2.4,6.2-7.2,11.9c-4.8,5.7-7.4,10.4-7.7,14c2.9,0,6.8-2.2,11.8-6.5c5-4.4,8.6-7.9,10.8-10.7c0.1,0.1,0.2,0.2,0.2,0.3
		c0.1,0.1,0.1,0.2,0.1,0.3c0,1.2-3,4.6-9.1,10.2c-6.1,5.6-10.6,8.4-13.6,8.4C459.9,71,459.4,70.9,459,70.8z"/>
</g>
</svg>
