<?xml version="1.0" encoding="utf-8"?>
<!-- Generator: Adobe Illustrator 17.1.0, SVG Export Plug-In . SVG Version: 6.00 Build 0)  -->
<!DOCTYPE svg PUBLIC "-//W3C//DTD SVG 1.1//EN" "http://www.w3.org/Graphics/SVG/1.1/DTD/svg11.dtd">
<svg version="1.1" id="Calque_1" xmlns="http://www.w3.org/2000/svg" xmlns:xlink="http://www.w3.org/1999/xlink" x="0px" y="0px"
	 viewBox="0 0 284 86.3" enable-background="new 0 0 284 86.3" xml:space="preserve">
<path fill="#B3991B" d="M61.4,21.6c1.4-0.7,3-1.1,4.5-1.1c4.5,0,9.5,3,15.1,9l0.8-3.9c0.9-0.3,1.7-0.4,2.6-0.4
	c4.7,0,9.4,3.8,14,11.5c5.4,9,9.8,13.9,13.4,14.9c-0.4,4.7-2.5,7.1-6.3,7.1c-5.5-0.5-16.2-4.1-32.1-10.6
	c-13.7-5.6-27.4-8.5-41.1-8.5c-2.2,0-4.5,0.1-6.7,0.2C9.6,40.8,1,44.5,0,50.7c1-11.5,9.4-19.1,25.2-22.8v-2.4
	c0.8-3.2,3.8-4.8,8.9-4.8h0.4c5.2,0.1,10.7,2,16.3,5.7c5.6,3.7,10,6.3,13,7.8c0.1-1,0.2-2,0.2-2.9C63.9,27.5,63.1,24.3,61.4,21.6z
	 M107,61.8c0,6.4-5.9,9.8-17.8,10.2c-0.9,0.1-1.6,0.1-2.4,0.1c-10.7,0-18.4-3.2-23.1-9.5l4.7-5.5c-0.7,0.1-1.4,0.2-2.2,0.2
	c-2.9,0-5.6-0.9-8.2-2.7c-1.8-1.2-4.2-1.8-7.2-1.8c-2.3,0-5,0.4-8,1.1c1.1-5,4.6-7.5,10.3-7.5c4.6,0,10.7,1.6,18.3,4.7
	C88.7,58.2,100.5,61.8,107,61.8z M141.6,2l0.4,0.2c0.1-0.1,0.3-0.1,0.4-0.2v0.4c6.8,3.7,10.5,8.3,11,13.8l3.1-3.1
	c2.8,2.3,4.2,5.3,4.2,8.9c0,0.9-0.1,1.7-0.2,2.6c-0.8,4.9-3.2,10-7.2,15.2c0.6,2.2,2,3.2,4.1,3.2c0.5,0,1-0.1,1.6-0.2
	c3-0.5,4.5-5.1,4.5-13.8c0-8.4,1.3-12.6,3.9-12.6h0.3c0.3,0.1,0.5,0.1,0.7,0.1c0.5,0,0.8-0.1,0.8-0.2c0-0.5-1.8-1.6-5.5-3.3
	c-5.6-2.6-8.9-6.9-9.9-12.9c0.9-0.1,1.8-0.1,2.8-0.1c15.2,0,23.5,5.9,25,17.7c0.3,2.4,0.4,4.7,0.4,6.9c0,8.9-2.5,15.5-7.5,19.8
	c-5.6,4.7-10.5,7.1-14.7,7.1c-0.5,0-1,0-1.6-0.1c-4.6-0.6-10-3-16.3-7.4c-6.3,4.3-11.7,6.8-16.2,7.4c-0.5,0.1-1.1,0.1-1.6,0.1
	c-4.3,0-9.2-2.4-14.7-7.1c-5-4.3-7.5-10.8-7.5-19.8c0-2.2,0.1-4.5,0.4-6.9c1.4-11.8,9.8-17.7,25-17.7c0.9,0,1.8,0,2.8,0.1
	c-1.1,6-4.3,10.3-9.8,12.9c-3.7,1.8-5.6,2.9-5.6,3.3c0,0.1,0.3,0.2,0.8,0.2c0.2,0,0.4,0,0.7-0.1h0.3c2.6,0,3.9,4.2,3.9,12.6
	c0,8.7,1.5,13.2,4.6,13.8c0.5,0.1,1,0.2,1.5,0.2c2.2,0,3.5-1.1,4.1-3.2c-4-5.2-6.4-10.3-7.2-15.2c-0.1-0.8-0.2-1.7-0.2-2.6
	c0-3.7,1.4-6.7,4.2-8.9l3.1,3.1C131.1,10.7,134.8,6,141.6,2z M141.6,49.4h0.8c4.1,4.9,11,7.4,20.9,7.4h0.4c-0.1,0.4-0.1,0.8-0.1,1.2
	c0,2.2,1.3,3.5,4,4.1c-4,2.8-6,6-6,9.6c0,0.8,0.1,1.6,0.3,2.5c-0.5-0.1-1.1-0.1-1.7-0.1c-6.6,0-12.7,4.1-18.2,12.3
	c-5.5-8.2-11.6-12.3-18.2-12.3c-0.6,0-1.1,0-1.7,0.1c0.2-0.8,0.3-1.7,0.3-2.5c0-3.6-2-6.8-6-9.6c2.7-0.6,4-2,4-4.1
	c0-0.4,0-0.8-0.1-1.2h0.4C130.6,56.7,137.6,54.3,141.6,49.4z M222.7,21.6c-1.7,2.6-2.6,5.8-2.6,9.6c0,0.9,0.1,1.9,0.2,2.9
	c3-1.4,7.3-4,13-7.8c5.6-3.7,11.1-5.6,16.4-5.7h0.3c5,0,8,1.6,8.9,4.8v2.4c15.7,3.7,24.1,11.3,25.2,22.8c-1-6.2-9.5-9.9-25.5-11
	c-2.3-0.1-4.6-0.2-6.8-0.2c-13.7,0-27.4,2.8-41,8.5c-15.9,6.6-26.6,10.1-32.2,10.6c-3.8,0-5.9-2.4-6.3-7.1c3.5-0.9,8-5.9,13.4-14.9
	c4.6-7.7,9.2-11.5,14-11.5c0.9,0,1.7,0.1,2.6,0.4l0.8,3.9c5.6-6,10.7-9,15.1-9C219.7,20.6,221.2,20.9,222.7,21.6z M212.4,51.1
	c7.6-3.1,13.7-4.7,18.3-4.7c5.8,0,9.2,2.5,10.3,7.5c-3-0.7-5.7-1.1-8-1.1c-3,0-5.3,0.6-7.1,1.8c-2.6,1.8-5.4,2.7-8.3,2.7
	c-0.7,0-1.4-0.1-2.2-0.2l4.7,5.5c-4.7,6.4-12.4,9.5-23.1,9.5c-0.7,0-1.5,0-2.3-0.1C183,71.5,177,68.1,177,61.8
	C183.5,61.8,195.3,58.2,212.4,51.1z"/>
</svg>
